<svg width="144" height="144" viewBox="0 0 144 144" fill="none" xmlns="http://www.w3.org/2000/svg">
<path fill-rule="evenodd" clip-rule="evenodd" d="M45.9047 33.6367C45.9616 30.447 46.6872 25.8185 49.8291 21.9085C55.2329 15.1838 70.5986 15.9514 76.383 18.9299C80.3706 20.9833 82.9859 29.0231 84.2259 33.8196C86.7228 33.8369 89.1312 33.8113 91.6151 33.785H91.6152C93.6304 33.7636 95.6953 33.7417 97.8976 33.7417C100.578 33.5033 105.454 33.862 107.73 35.0356C110.005 36.2092 111.526 37.666 112.397 39.7361C113.837 42.5627 113.826 43.4708 113.797 46.1141V46.1143V46.1145V46.1147V46.115V46.1153C113.792 46.5332 113.787 46.9946 113.787 47.5137V54.0818V59.7362C113.787 60.4996 113.781 61.3357 113.776 62.1606V62.1621V62.1634V62.1645V62.1656V62.1665V62.1679V62.1685C113.766 63.7878 113.755 65.3628 113.787 66.2579V72.8301V79.1496C113.773 81.1726 113.939 82.5461 114.099 83.8656C114.264 85.2169 114.421 86.5117 114.37 88.3897C116.498 89.2831 118.621 90.1847 120.755 91.0908L120.757 91.0914C121.074 91.2262 121.336 91.3458 121.555 91.4548C123.61 92.1774 125.911 93.4114 125.601 93.8563C124.781 94.906 123.88 95.4429 122.481 96.0692V102.342C122.481 102.802 121.919 103.011 121.565 103.032C121.211 103.053 120.336 103.032 120.316 102.572V102.572C120.316 101.126 120.316 98.995 120.365 96.9756C119.099 97.5128 117.838 98.0484 116.576 98.5816C116.933 104.308 117.523 116.777 114.691 122.392C112.747 126.247 102.003 127.239 91.4519 127.071L90.7446 127.06C82.166 126.926 72.471 126.774 68.8332 123.365C65.96 120.672 65.0437 112.018 64.9668 103.377C63.8238 103.381 62.5052 103.387 61.1247 103.394H61.1242H61.1237C56.5335 103.416 51.2586 103.442 49.4779 103.381H44.2349C38.8623 103.785 33.4308 102.989 28.343 101.532C21.6598 99.0557 18.4535 95.8903 18.4535 91.2519C18.4387 90.8454 18.4746 89.9874 18.5245 88.791C18.6055 86.8511 18.7237 84.0214 18.7237 80.7841C18.7488 79.9901 18.7771 78.5935 18.8077 77.0857L18.8077 77.0857C18.8458 75.2121 18.8873 73.1668 18.9304 71.8929C19.1034 66.7748 19.0322 62.4227 18.9772 59.0647C18.9552 57.718 18.9358 56.5312 18.9358 55.519C18.8995 53.6647 18.925 51.7788 18.9333 51.1576C18.9348 51.049 18.9358 50.979 18.9358 50.9547C18.9358 50.8915 18.9355 50.7703 18.935 50.5855C18.9335 49.9848 18.9304 48.7121 18.9304 46.5763L18.9303 46.4673C18.9297 44.7935 18.9287 42.3847 20.2851 40.5525C21.6711 38.6803 23.7462 37.2079 26.2181 36.3429C32.5493 34.5302 39.2091 33.6173 45.9047 33.6367ZM52.5191 33.7417H55.5005C60.9231 33.5112 66.4149 33.5889 71.8488 33.6657C73.8899 33.6945 75.9228 33.7233 77.9409 33.7355C77.4925 30.6846 76.4197 26.344 73.8806 24.7043C69.7953 22.0661 59.102 22.1512 55.8679 24.7043C53.8516 26.2961 52.9284 30.672 52.5191 33.7417ZM107.614 76.7725V85.6001C106.172 85.0171 104.721 84.4397 103.256 83.8689C102.905 83.7165 102.555 83.5615 102.203 83.4062L102.203 83.4059C99.146 82.0543 96.0266 80.675 91.8976 80.7121C87.9908 80.7472 85.7842 81.6661 82.2185 83.151L82.0587 83.2175C81.5882 83.4134 80.9737 83.7003 80.5726 83.8875L80.5721 83.8877C80.3326 83.9995 80.1693 84.0758 80.1584 84.0758C80.1592 84.0547 80.1592 83.9773 80.1584 83.9567V84.0758C80.1398 84.0758 79.4988 84.3266 78.5626 84.693L78.5598 84.6941L78.5591 84.6944C76.8391 85.3675 74.1256 86.4295 72.4422 87.0432C71.6229 87.3419 70.92 87.5982 70.4464 87.7774C67.1576 88.7851 62.4749 90.967 58.2658 92.9281L58.2656 92.9282L58.2655 92.9283C57.0336 93.5023 56.8233 93.6585 56.6676 93.7741C56.5219 93.8823 56.424 93.955 55.5828 94.3009C54.8036 94.6476 56.0589 95.3687 57.7068 95.773C59.4495 96.5214 61.4426 97.2453 63.3923 97.9017L47.8922 97.7488L42.6804 97.6184C42.083 97.5791 41.5007 97.5422 40.9326 97.5063L40.9311 97.5062H40.931C35.6231 97.1706 31.5579 96.9136 28.1056 95.4011C24.2425 93.7087 23.8795 90.7084 23.8795 88.2952V85.4648C23.9065 84.8655 23.9362 84.2239 23.9676 83.5462C24.2516 77.4195 24.6725 68.3401 24.3942 60.8338C24.3942 60.7491 24.3841 60.5544 24.3698 60.2776C24.31 59.1199 24.176 56.5272 24.3942 54.5543C24.3942 54.5543 45.7926 57.608 60.3945 58.9731C60.4143 59.0339 60.435 59.0945 60.4565 59.1549C60.8283 60.1997 61.4311 61.1464 62.2196 61.9238C63.0081 62.7013 63.9617 63.2892 65.009 63.6436C66.0563 63.998 67.1699 64.1096 68.2663 63.97C71.2124 63.8685 74.0103 62.6479 76.0943 60.5549C76.529 60.1602 76.9173 59.7234 77.255 59.2532C93.131 58.142 107.73 54.0818 107.73 54.0818C107.536 60.726 107.575 69.6268 107.614 76.7725ZM74.8547 96.8505C71.2351 95.4004 69.3795 94.7707 67.3767 94.1443C69.5619 93.5481 71.8144 92.8813 75.0743 91.5752C76.1825 91.1312 77.1172 90.7522 77.9593 90.4107C80.1013 89.5421 81.6446 88.9163 83.9231 88.0811C84.5046 87.8853 85.2545 87.5316 86.0803 87.1422C87.8003 86.331 89.8494 85.3646 91.3906 85.3471C93.6318 85.3218 95.3344 86.054 97.0139 86.7762C97.3489 86.9203 97.683 87.064 98.0203 87.2012C100.681 88.3286 103.594 89.3809 106.466 90.3831C108.059 90.9466 109.647 91.5148 111.236 92.0831C112.789 92.6388 113.908 93.0676 114.881 93.4479C114.224 94.2181 113.511 95.0034 111.235 95.8176C109.647 96.3859 108.059 96.9541 106.465 97.5176C103.594 98.5198 100.68 99.5721 98.0201 100.7C97.6829 100.837 97.3488 100.98 97.0138 101.124C95.3343 101.847 93.6317 102.579 91.3905 102.554C89.6108 102.533 88.2553 102.028 86.8941 101.52L86.8938 101.519L86.8936 101.519L86.8935 101.519L86.8933 101.519L86.8932 101.519C86.5099 101.376 86.1261 101.233 85.7323 101.1C82.5581 99.9369 78.7821 98.424 74.8548 96.8506L74.8547 96.8505ZM103.256 104.032C106.136 102.91 108.963 101.761 111.77 100.596C112.196 105.296 112.807 115.498 110.493 118.722C107.873 122.372 102.355 122.373 95.0967 122.376H95.0953C93.9244 122.376 92.7084 122.376 91.4519 122.392C82.8537 122.499 75.9737 121.926 72.4629 118.722C69.4792 115.999 69.416 113.963 69.3052 110.392C69.2856 109.761 69.2646 109.083 69.2256 108.344C69.0659 105.311 69.0916 101.984 69.1413 99.7253L69.5343 99.845L69.535 99.8453L69.5449 99.8483C69.8651 99.9458 70.1666 100.038 70.4462 100.123C70.9195 100.302 71.6216 100.558 72.4401 100.857L72.4421 100.857C75.0436 101.806 78.8191 103.182 80.1583 103.881V103.944C80.159 103.923 80.1591 103.903 80.1583 103.881C80.8512 104.095 81.4907 104.365 82.0586 104.683C84.9859 105.939 87.9327 107.153 91.8975 107.189C96.0264 107.226 99.1458 105.846 102.203 104.495L102.203 104.495L102.204 104.494C102.555 104.339 102.905 104.184 103.256 104.032ZM60.132 53.9715C59.9768 53.8953 59.8105 53.8202 59.6323 53.7462C55.4346 52.0041 45.1568 49.0939 30.2207 48.1527C27.8742 48.0048 23.5459 48.1527 23.5459 48.1527L23.6686 49.224C23.4691 47.986 23.4691 46.7323 23.6686 45.4944C23.8935 44.5582 24.3524 43.6693 25.0168 42.8824C25.6812 42.0954 26.537 41.4272 27.5317 40.9187C30.2358 39.383 41.0911 38.5681 46.3836 38.5368L62.1835 38.3174C65.5865 38.3174 68.9147 38.2678 72.3136 38.2171C77.0175 38.1469 81.8567 38.0748 87.2166 38.1294H89.7661H89.7669C93.6299 38.1294 98.6515 38.1294 101.858 38.4741C109.043 39.477 108.596 47.5728 107.521 48.3841C107.075 48.7206 104.53 49.9411 101.498 50.3099C99.2236 50.7473 96.754 51.1124 94.3284 51.471C93.346 51.6162 92.3708 51.7604 91.4187 51.9078C90.1709 52.1011 88.8426 52.3046 87.5527 52.5022L87.5522 52.5023C83.947 53.0547 80.642 53.561 80.2329 53.6697C79.6891 53.8142 79.1874 53.9581 78.7253 54.1002C78.5888 53.1013 78.2976 52.1282 77.861 51.2165C77.3085 50.0632 76.534 49.031 75.5821 48.1796C73.8238 46.3327 71.4294 45.2294 68.8881 45.095C66.3315 45.4427 64.0009 46.7495 62.3654 48.7526C61.1377 50.2561 60.37 52.068 60.132 53.9715ZM70.0102 59.3153C70.5722 59.1314 71.0879 58.8277 71.5219 58.425C72.3023 57.8412 72.9273 57.0735 73.3419 56.1897C73.7566 55.3059 73.9481 54.3331 73.8994 53.3574C73.904 52.7919 73.7966 52.2312 73.5831 51.7079C73.3695 51.1846 73.0543 50.7092 72.6559 50.3095C71.7986 49.6478 70.7368 49.3099 69.6564 49.3547H69.1442C68.6398 49.4215 68.1548 49.5931 67.7202 49.8587C67.2857 50.1242 66.911 50.4779 66.6202 50.897C66.0607 51.6517 65.6616 52.5138 65.4477 53.4297C65.2337 54.3457 65.2096 55.296 65.3767 56.2217C65.5873 56.9472 65.9557 57.6168 66.4555 58.182C66.9552 58.7472 67.5737 59.1939 68.2663 59.4899C68.8534 59.5587 69.4483 59.4991 70.0102 59.3153Z" fill="#212E3B"/>
</svg>
