<svg width="144" height="145" viewBox="0 0 144 145" fill="none" xmlns="http://www.w3.org/2000/svg">
<path fill-rule="evenodd" clip-rule="evenodd" d="M69.182 123.134C73.1266 123.907 76.1153 123.573 78.771 120.84C81.3966 118.137 81.6828 115.712 82.0515 112.587C82.2411 110.979 80.982 108.6 79.7804 106.329C78.6454 104.184 77.5618 102.136 77.7987 100.927C78.2864 98.4392 81.973 98.2124 83.1648 99.1454C84.0763 99.8589 85.3531 101.948 86.574 103.945L86.5746 103.946C86.9499 104.56 87.3198 105.165 87.6723 105.72C89.1716 108.076 94.7879 114.576 98.55 116.252C102.312 117.928 105.66 118.489 109.731 117.774C114.858 116.874 118.5 113.807 121.999 109.699C124.421 106.855 125.881 102.419 125.881 96.8103C125.881 90.1608 123.929 83.214 120.743 75.1682C117.558 67.1224 113.221 58.4967 105.751 49.6978C98.2807 40.899 85.6541 31.8553 78.771 27.9799C71.8878 24.1044 60.8229 20.7478 51.4616 20.7478C42.1004 20.7478 36.2143 23.4282 31.6112 26.3726C27.008 29.317 24.3281 32.7845 21.5242 37.3243C18.7202 41.864 17.9043 45.3778 17.0575 49.6978C16.0373 54.9025 16.0079 61.0148 18.4682 67.7682C34.5757 111.982 59.3112 121.199 69.182 123.134ZM27.371 36.7873C23.1307 43.4229 22.565 49.3534 24.1816 56.5623C25.3471 61.7589 28.5541 70.0247 30.4581 74.9322C32.4364 80.031 37.5126 88.3476 39.8106 91.7834C39.8664 91.8669 39.927 91.9579 39.9919 92.0554L39.9958 92.0611L40.0001 92.0676C42.6203 96.0014 52.5505 110.91 69.182 115.614L69.333 115.657C71.7149 116.331 74.0695 116.997 75.6255 116.252C77.1816 115.507 78.8146 112.01 78.9024 111.637C78.9901 111.264 79.0076 111.081 79.0567 110.724C79.1058 110.368 79.3963 109.141 77.7987 107.283C75.8968 105.072 75.6826 102.464 75.6328 100.858C75.5831 99.2512 77.7981 96.1769 82.0881 96.176L82.0898 96.176C83.4673 96.176 86.2716 96.1758 87.5892 98.0709C87.6727 98.191 87.8193 98.4248 88.0221 98.7483C89.5644 101.208 94.3614 108.859 99.4736 111.26C104.021 113.395 111.61 112.471 113.348 111.26C117.169 108.595 119.144 107.012 120.743 102.419C122.472 97.4551 122.573 95.2876 122.677 93.0712C122.78 90.8548 120.988 83.2057 118.187 76.0554C115.386 68.905 107.338 56.1025 103.186 51.2096C95.2939 41.9095 81.8721 32.7913 74.319 29.6317C63.58 25.1393 64.2315 24.8092 49.7166 24.8092C35.2017 24.8092 31.6112 30.1518 27.371 36.7873Z" fill="#212E3B"/>
<path d="M68.1997 51.1142L71.0544 52.3525C73.2694 52.4976 72.7658 50.684 74.569 49.4279C76.3722 48.1717 77.6764 46.3421 78.2629 44.2454C78.43 43.4388 80.002 42.0275 79.8275 41.2198C79.653 40.4122 77.7358 40.2254 77.2487 39.5504C76.7615 38.8753 76.139 38.3047 75.4198 37.874C74.7007 37.4432 73.9002 37.1615 73.0679 37.0463C71.1171 36.7848 68.8414 35.1364 67.2612 36.2748C65.1761 37.5455 63.9832 41.7023 63.3905 44.0444C63.2703 44.8316 63.3122 45.6356 63.5137 46.409C63.7152 47.1824 64.0723 47.9094 64.5637 48.5472C65.4036 49.8224 66.7034 50.74 68.1997 51.1142ZM65.6149 44.0236C66.0016 42.555 66.9556 41.2956 68.2754 40.5114C69.5953 39.7272 71.1776 39.4794 72.6886 39.8205C75.0115 40.2758 76.0757 41.5593 75.7318 43.4537C75.4196 44.3218 74.9305 45.1173 74.2941 45.7917C73.6576 46.4662 72.8872 47.0056 72.0297 47.3771C71.5709 47.68 71.0506 47.8821 70.5037 47.9696C69.9569 48.0572 69.3963 48.0281 68.8601 47.8845C68.2871 47.8288 67.7305 47.6608 67.2231 47.3906C66.7158 47.1204 66.2681 46.7533 65.9065 46.3112C65.697 45.9703 65.5628 45.5903 65.5125 45.1961C65.4623 44.8019 65.4972 44.4024 65.6149 44.0236Z" fill="#212E3B"/>
<path d="M65.6149 44.0236C66.0016 42.555 66.9556 41.2956 68.2754 40.5114C69.5953 39.7272 71.1776 39.4794 72.6886 39.8205C75.0115 40.2758 76.0757 41.5593 75.7318 43.4537C75.4196 44.3218 74.9305 45.1173 74.2941 45.7917C73.6576 46.4662 72.8872 47.0056 72.0297 47.3771C71.5709 47.68 71.0506 47.8821 70.5037 47.9696C69.9569 48.0572 69.3963 48.0281 68.8601 47.8845C68.2871 47.8288 67.7305 47.6608 67.2231 47.3906C66.7158 47.1204 66.2681 46.7533 65.9065 46.3112C65.697 45.9703 65.5628 45.5903 65.5125 45.1961C65.4623 44.8019 65.4972 44.4024 65.6149 44.0236Z" fill="#212E3B"/>
<path d="M44.8109 47.1224L44.9429 47.1483C46.0301 47.4442 47.1668 47.5136 48.2796 47.3522C49.3924 47.1908 50.4566 46.8021 51.4038 46.2111C51.9915 45.7477 52.472 45.1671 52.8139 44.507C53.1558 43.847 53.3515 43.1226 53.3881 42.381C53.8483 37.0965 52.1808 32.598 47.9837 31.7753C45.8556 31.4979 43.5815 33.4513 41.808 34.6222C40.0344 35.7932 38.7613 37.562 38.227 39.5973C38.0736 40.3009 38.0688 41.0289 38.2129 41.7366C38.3571 42.4442 38.1889 44.8608 38.6069 45.4562C39.9929 47.2912 42.5172 46.7733 44.8109 47.1224ZM41.2574 39.5195C41.6075 38.2343 42.4408 37.1304 43.5901 36.4294C44.6392 35.6331 45.9549 35.2495 47.2824 35.3527C48.2773 35.6087 49.1369 36.2293 49.6838 37.0864C50.1352 37.7796 50.4434 38.5526 50.5908 39.3608C50.7381 40.1691 50.7216 40.9967 50.5423 41.7963C50.035 44.3842 48.0004 44.4153 45.847 44.0739C42.8905 43.4943 40.8993 41.626 41.2574 39.5195Z" fill="#212E3B"/>
<path d="M41.2574 39.5195C41.6075 38.2343 42.4408 37.1304 43.5901 36.4294C44.6392 35.6331 45.9549 35.2495 47.2824 35.3527C48.2773 35.6087 49.1369 36.2293 49.6838 37.0864C50.1352 37.7796 50.4434 38.5526 50.5908 39.3608C50.7381 40.1691 50.7216 40.9967 50.5423 41.7963C50.035 44.3842 48.0004 44.4153 45.847 44.0739C42.8905 43.4943 40.8993 41.626 41.2574 39.5195Z" fill="#212E3B"/>
<path d="M33.4668 63.8764C33.1952 65.7343 34.7817 67.6854 35.9011 69.2176C36.8667 70.7759 38.3959 71.9208 40.1798 72.4211C41.0822 72.6122 42.0132 72.6236 42.9175 72.4546C43.8217 72.2856 46.8807 73.0233 47.6436 72.521C48.5524 71.9015 48.757 69.5354 49.3507 68.6186C49.9444 67.7019 49.8766 66.0529 50.0639 64.9798C50.2804 63.3819 49.3901 61.9679 48.4392 60.6449C47.4883 59.3218 45.3862 59.3039 43.777 58.964C41.6031 58.6884 39.4086 59.2162 37.6207 60.4446C36.1835 61.1752 33.981 62.3684 33.4668 63.8764ZM37.5624 64.5179C37.8404 63.7987 38.3649 63.1986 39.0465 62.8202C40.2885 61.9046 41.8107 61.427 43.3692 61.4639C44.3809 61.7622 45.2336 62.4416 45.7401 63.3529C46.3364 64.171 46.581 65.1849 46.4208 66.1737C46.0048 68.2958 44.5227 69.5639 43.0556 69.357C39.4819 68.7102 37.3393 66.3553 37.5848 64.6836L37.5624 64.5179Z" fill="#212E3B"/>
<path d="M37.5624 64.5179C37.8404 63.7987 38.3649 63.1986 39.0465 62.8202C40.2885 61.9046 41.8107 61.427 43.3692 61.4639C44.3809 61.7622 45.2336 62.4416 45.7401 63.3529C46.3364 64.171 46.581 65.1849 46.4208 66.1737C46.0048 68.2958 44.5227 69.5639 43.0556 69.357C39.4819 68.7102 37.3393 66.3553 37.5848 64.6836L37.5624 64.5179Z" fill="#212E3B"/>
<path d="M45.4895 89.282C45.218 91.1399 46.8045 93.0911 47.9238 94.6233C48.8895 96.1815 50.4187 97.3264 52.2026 97.8268C53.105 98.0178 54.9412 98.7099 55.8454 98.5409C56.7497 98.3719 58.9034 98.4289 59.6664 97.9267C60.5751 97.3071 60.7797 94.9411 61.3734 94.0243C61.9672 93.1075 61.8993 91.4585 62.0867 90.3855C62.3032 88.7875 61.4129 87.3736 60.462 86.0505C59.5111 84.7275 56.2205 83.2133 54.6113 82.8734C52.4374 82.5978 51.4313 84.6218 49.6435 85.8503C48.2062 86.5809 46.0038 87.774 45.4895 89.282ZM49.5852 89.9236C49.8631 89.2044 50.3877 88.6042 51.0692 88.2259C52.3112 87.3102 53.8334 86.8327 55.392 86.8696C56.4036 87.1679 57.2564 87.8473 57.7629 88.7586C58.3591 89.5767 58.6038 90.5905 58.4435 91.5793C58.0276 93.7014 56.5455 94.9696 55.0784 94.7626C51.5046 94.1158 49.3621 91.761 49.6075 90.0892L49.5852 89.9236Z" fill="#212E3B"/>
<path d="M49.5852 89.9236C49.8631 89.2044 50.3877 88.6042 51.0692 88.2259C52.3112 87.3102 53.8334 86.8327 55.392 86.8696C56.4036 87.1679 57.2564 87.8473 57.7629 88.7586C58.3591 89.5767 58.6038 90.5905 58.4435 91.5793C58.0276 93.7014 56.5455 94.9696 55.0784 94.7626C51.5046 94.1158 49.3621 91.761 49.6075 90.0892L49.5852 89.9236Z" fill="#212E3B"/>
<path d="M95.134 88.3623C94.8252 90.4752 95.3639 92.6295 96.637 94.372C97.7352 96.1442 99.4743 97.4463 101.503 98.0154C102.529 98.2326 103.588 98.2456 104.617 98.0534C105.645 97.8612 106.622 97.4678 107.49 96.8966C108.523 96.192 109.403 95.2925 110.078 94.2499C110.753 93.2073 111.211 92.0422 111.424 90.8218C111.67 89.0045 111.206 87.158 110.124 85.6533C109.043 84.1486 107.424 83.0974 105.594 82.7109C103.122 82.3974 100.626 82.9976 98.5927 84.3947C96.9581 85.2256 95.7189 86.6472 95.134 88.3623ZM98.5264 89.0272C98.8425 88.2093 99.4391 87.5267 100.214 87.0964C101.627 86.0551 103.358 85.512 105.13 85.554C106.281 85.8932 107.251 86.6659 107.827 87.7023C108.505 88.6327 108.783 89.7857 108.601 90.9103C108.128 93.3237 106.442 94.7659 104.774 94.5305C100.709 93.795 98.2727 91.1169 98.5518 89.2156L98.5264 89.0272Z" fill="#212E3B"/>
<path d="M85.6577 54.9745C85.3862 56.8324 86.5769 60.6003 87.6963 62.1325C88.6619 63.6907 90.3965 63.7878 92.1804 64.2882C93.0828 64.4792 94.919 65.1712 95.8232 65.0023C96.7275 64.8333 98.4421 64.1089 99.205 63.6066C99.205 63.6066 99.7887 61.5387 100.382 60.6219C100.976 59.7051 100.716 59.036 100.904 57.963C101.12 56.365 100.712 54.7414 99.7608 53.4183C98.8099 52.0953 96.6377 50.098 95.0285 49.7582C92.8546 49.4826 91.5755 50.235 89.7876 51.4634C88.3503 52.194 86.172 53.4665 85.6577 54.9745ZM89.563 56.385C89.841 55.6658 90.3655 55.0656 91.0471 54.6873C92.2891 53.7716 93.8113 53.2941 95.3698 53.331C96.3815 53.6293 97.2342 54.3087 97.7407 55.22C98.337 56.0381 98.5816 57.052 98.4214 58.0407C98.0054 60.1628 96.5233 61.431 95.0562 61.224C91.4825 60.5772 89.3399 58.2224 89.5854 56.5506L89.563 56.385Z" fill="#212E3B"/>
<path d="M89.563 56.385C89.841 55.6658 90.3655 55.0656 91.0471 54.6873C92.2891 53.7716 93.8113 53.2941 95.3698 53.331C96.3815 53.6293 97.2342 54.3087 97.7407 55.22C98.337 56.0381 98.5816 57.052 98.4214 58.0407C98.0054 60.1628 96.5233 61.431 95.0562 61.224C91.4825 60.5772 89.3399 58.2224 89.5854 56.5506L89.563 56.385Z" fill="#212E3B"/>
</svg>
