<svg width="144" height="144" viewBox="0 0 144 144" fill="none" xmlns="http://www.w3.org/2000/svg">
<path fill-rule="evenodd" clip-rule="evenodd" d="M69.6301 28L77.3386 28.0407H105.455C114.259 28.0811 118.398 31.2755 119.21 38.6757C119.85 45.8821 120.107 53.1174 119.98 60.3509V68.4382C120.061 72.482 120.269 63.2383 120.147 65.8668C119.661 73.469 119.174 80.0198 118.606 86.0854C118.373 89.244 116.96 92.2009 114.646 94.372C112.333 96.543 109.286 97.7712 106.109 97.8132C83.3075 98.2176 59.613 98.5812 35.6754 98.8238C34.1593 98.809 32.6613 98.494 31.2685 97.8972C29.8754 97.3001 28.6149 96.4328 27.561 95.3461C26.2553 94.0653 25.2224 92.5345 24.5252 90.8459C23.8281 89.1574 23.4812 87.3457 23.5043 85.5199C23.91 72.4584 23.6609 71.7141 23.6609 58.8952V42.7604C23.5595 41.185 23.5596 39.6042 23.6609 38.0288C23.5624 36.2504 24.1183 34.4974 25.2236 33.0979C26.3289 31.6984 27.9083 30.7485 29.6659 30.4264C36.4989 29.2345 43.3937 28.4244 50.3175 28H69.6301ZM105.009 33.3785C104.32 33.3785 54.01 34.1061 40.3773 34.2679C31.0051 34.5914 29.6659 37.7865 29.6659 47.1682L30.0766 83.4572C29.9291 84.576 30.0336 85.7138 30.382 86.7874C30.7304 87.861 31.3138 88.8441 32.0906 89.6649C32.8675 90.4857 33.8182 91.1243 34.8733 91.5335C35.9284 91.9426 37.0618 92.1119 38.1909 92.0303H41.2748C49.7138 92.4347 56.8463 92.4754 65.4069 92.4754C75.1443 92.3137 84.9714 92.9607 94.5059 92.4754L103.634 92.0303C110.41 91.7068 113.372 88.5931 113.372 81.6378L113.124 41.4658C113.124 35.4408 111.298 33.3786 105.009 33.3785Z" fill="#212E3B"/>
<path fill-rule="evenodd" clip-rule="evenodd" d="M18.7509 103.808C17.0614 104.528 18.7509 110.283 18.7509 110.283C18.7509 110.283 22.1305 114.599 24.665 115.319C27.1995 116.038 116.333 116.398 119.29 115.319C122.247 114.24 123.664 112.792 124.781 110.283C125.834 107.919 126.894 105.247 124.781 103.808C122.669 102.369 20.4405 103.089 18.7509 103.808ZM81.072 112.093C82.3016 112.054 82.1566 108.884 80.9993 107.752C79.9721 106.921 69.8547 107.473 62.8899 107.853C62.0085 107.902 61.1776 107.947 60.422 107.986C59.0477 108.025 59.2853 112.527 60.768 112.527C62.9728 112.527 66.119 112.523 68.976 112.527C74.7415 112.536 80.2498 112.119 81.072 112.093Z" fill="#212E3B"/>
</svg>
