<svg width="144" height="144" viewBox="0 0 144 144" fill="none" xmlns="http://www.w3.org/2000/svg">
<path fill-rule="evenodd" clip-rule="evenodd" d="M120.347 67.804C121.934 73.5673 123.521 79.1858 125.36 84.7317C126.586 88.4652 126.154 88.9 123.16 90.7124L120.743 92.4522C113.999 97.5268 106.569 102.565 97.4075 108.401C95.5872 109.174 93.5865 109.413 91.6367 109.09H90.9154C85.938 108.836 80.8885 108.474 76.0194 108.111L70.9699 107.749H70.3567C68.9781 107.674 67.6051 107.516 66.2451 107.278C65.1855 106.888 64.0353 106.821 62.9382 107.086C61.8412 107.35 60.8461 107.934 60.0775 108.764H59.8971C56.5428 111.591 50.9523 116.013 46.1192 119.638C38.9057 125.111 37.3548 125.981 36.8499 125.981C36.7676 126.006 36.6797 126.006 36.5974 125.981C35.6236 125.365 34.6497 121.124 33.207 114.491C33.0257 113.714 32.8469 112.932 32.6707 112.161C32.1807 110.019 31.7103 107.961 31.2593 106.335C27.6526 93.6122 24.0819 80.4907 20.6554 67.4416L20.3669 66.3903C19.9002 64.4056 19.3345 62.4457 18.6717 60.5182C17.4094 57.4734 17.9864 56.7847 19.898 55.2986L20.5112 54.8275C21.0935 54.4062 21.8262 53.8488 22.6608 53.214C23.1185 52.8657 23.607 52.4942 24.118 52.109L26.787 50.0789C32.0356 46.145 37.5027 42.5144 43.1617 39.2047C45.3424 37.908 47.8424 37.2549 50.3753 37.32C55.3035 37.548 60.2316 37.9519 65.055 38.3472L65.055 38.3472L65.0551 38.3472C65.5974 38.3916 66.1384 38.4359 66.6778 38.4799L75.6587 39.2047H76.7768C77.5758 39.4563 78.4403 39.3915 79.1934 39.0235C84.2905 35.1304 89.5584 30.8226 95.0148 26.3606C98.2457 23.7186 101.543 21.0225 104.91 18.3263L105.342 18C105.92 18 106.605 18 111.438 35.0363C112.336 38.475 113.296 41.9545 114.251 45.4207L114.251 45.4216C115.099 48.4953 115.943 51.5585 116.74 54.5738C117.627 57.6815 118.461 60.7891 119.291 63.8842L119.293 63.8925C119.644 65.1989 119.994 66.503 120.347 67.804ZM101.591 53.3776C103.214 53.6313 108.192 65.593 107.326 73.8575L107.362 73.9661C107.143 77.8511 105.5 81.5168 102.748 84.2549C99.9972 86.993 96.334 88.6093 92.4662 88.7914L96.578 102.783L101.339 99.6656C102.182 99.114 103.02 98.5663 103.853 98.0217L103.869 98.0111C109.16 94.5515 114.267 91.2133 119.373 87.7401C119.7 87.5251 119.957 87.2178 120.111 86.8567C120.265 86.4955 120.309 86.0966 120.238 85.7102C118.303 78.0551 116.151 70.1828 114.017 62.3752L114.017 62.3747L114.017 62.3739L114.017 62.3724L114.014 62.3645C113.684 61.1552 113.354 59.9473 113.025 58.7421L110.825 50.7676C109.416 45.519 107.991 40.254 106.516 34.8065L106.515 34.8035L106.511 34.7867C105.797 32.1521 105.073 29.4747 104.333 26.7358L103.683 24.3796L103.082 24.8601L103.081 24.8611C101.523 26.1069 99.9958 27.3275 98.5256 28.5481L97.7144 29.2018C93.6538 32.4741 89.8233 35.5609 85.8659 38.5522C84.8172 39.3163 84.0544 39.9464 83.3696 40.512C83.1123 40.7245 82.8661 40.9279 82.6198 41.1259L80.8524 42.6119C81.0209 44.8878 81.4444 47.1374 82.1148 49.3179C83.737 55.6578 85.3952 61.9251 87.0534 68.1925L87.0561 68.2026L87.0615 68.2234L87.0621 68.2258C88.3585 73.2202 89.655 78.2148 90.9874 83.2454C92.5308 83.53 94.1205 83.4239 95.6128 82.9366C97.1052 82.4493 98.4533 81.5962 99.5355 80.4543C100.916 78.9678 101.931 77.1778 102.501 75.2269C103.071 73.276 103.179 71.2181 102.818 69.2177C102.175 66.5085 101.355 63.8446 100.365 61.2432C100.208 60.7698 100.051 60.3025 99.8967 59.8431L99.8963 59.842L99.8961 59.8414C99.5188 58.7185 99.1573 57.6428 98.8503 56.6399C98.7723 56.2432 98.7941 55.8329 98.9138 55.4468C99.0335 55.0607 99.2471 54.7107 99.5355 54.4286C99.7799 54.112 100.091 53.8535 100.446 53.6718C100.802 53.4901 101.193 53.3896 101.591 53.3776ZM57.0117 53.5225C56.3142 53.3629 55.5827 53.4662 54.9558 53.8125C55.3027 55.7822 55.7603 57.7306 56.3264 59.6483C56.7593 61.0619 57.192 62.512 57.5166 63.8531C58.7429 68.4928 59.9332 73.0961 61.1234 77.7357C63.035 84.9127 64.9105 92.4885 66.6417 99.738C67.3992 103.073 67.5796 103.073 71.7634 103.073C72.2374 103.073 72.7456 103.124 73.2672 103.177L73.2675 103.177H73.2675H73.2676C73.8174 103.233 74.3822 103.29 74.9374 103.29H77.3179C80.7082 103.399 83.9182 103.58 87.525 103.798L91.4924 104.015L90.8792 102.058C90.7648 101.675 90.651 101.294 90.538 100.917L90.5378 100.916L90.5375 100.915C89.7959 98.4375 89.0886 96.0748 88.4628 93.6847C88.0962 92.1958 87.6384 90.7309 87.0922 89.2987L86.8036 88.5739L86.0101 88.3202C84.9189 88.0621 83.8972 87.5672 83.0165 86.8702C80.8525 85.094 73.134 75.3798 73.9996 74.2198C74.2521 73.8936 76.0194 72.0086 77.1015 72.5161C77.3729 72.6525 77.6441 73.0454 78.4256 74.1773L78.5802 74.401C80.4504 77.3497 82.7758 79.9804 85.4691 82.1943L75.4063 42.8657C73.2187 42.7687 70.3999 42.5853 67.4361 42.3925L66.3533 42.3221C60.7267 41.9596 53.8738 41.5246 51.9262 41.5246C51.9485 41.6367 51.9714 41.7494 51.9943 41.8624L51.9947 41.8644C52.157 42.6642 52.3229 43.4815 52.3229 44.2431C52.5163 45.8685 52.8175 47.4791 53.2246 49.0641H54.0903C55.7934 48.7498 57.5511 48.9515 59.1397 49.644C61.5262 50.8356 63.6202 52.5439 65.2712 54.6461C65.6757 55.1543 66.1093 55.6385 66.5697 56.0961C68.0597 57.639 69.378 59.3407 70.501 61.1708L71.1863 62.2219C71.4388 62.4394 71.547 62.9107 71.1863 63.6356C70.892 64.2131 70.4797 64.7214 69.9762 65.1274C69.4727 65.5335 68.8895 65.8279 68.2648 65.9916C68.1145 66.0005 67.9645 65.9683 67.8311 65.898C67.6976 65.8278 67.5858 65.7222 67.5074 65.5929C65.9317 62.839 64.0828 60.2523 61.9891 57.8722C60.5965 56.1403 58.9117 54.6679 57.0117 53.5225ZM46.6925 43.87C46.6031 43.6708 46.516 43.4769 46.516 43.3007L46.5521 43.1195C46.3712 43.1943 46.1401 43.3007 45.893 43.4145L45.893 43.4145C45.3025 43.6863 44.621 44.0001 44.3158 44.0256C43.2315 44.7356 42.1688 45.4306 41.119 46.1171L41.1186 46.1173C35.2546 49.952 29.7933 53.5233 23.2163 57.981L23.216 57.9813C22.8232 58.2387 22.6165 58.3742 22.546 58.5611C22.4677 58.7687 22.5576 59.0397 22.7474 59.6119L22.7474 59.612C22.775 59.7231 22.8238 59.8342 22.8735 59.9473C22.9536 60.1295 23.0359 60.3169 23.0359 60.5182C25.3899 68.4698 27.5365 76.8386 29.61 84.9222C29.8239 85.7561 30.037 86.5869 30.2494 87.414L32.7381 97.0194C33.3583 99.4828 34.051 102.602 34.7569 105.781L34.7569 105.781L34.757 105.782L34.7576 105.784L34.7606 105.798C34.9156 106.496 35.0712 107.196 35.2268 107.894C36.3449 113.005 37.6794 118.913 38.2926 120.254C41.719 118.116 61.1595 102.565 61.1234 100.608C61.0873 98.6505 54.1624 71.9724 49.5457 55.516C47.044 56.8226 44.9592 58.8112 43.5303 61.2538C42.1013 63.6964 41.3861 66.4942 41.4666 69.3265C41.6469 73.6762 43.0536 82.6293 43.0536 82.6293V82.883H42.8372C42.8312 82.887 42.8191 82.8959 42.8012 82.909C42.4932 83.1348 40.4758 84.6135 38.9418 83.8255C37.8408 80.2943 37.1627 76.6438 36.922 72.9513C36.0564 63.7807 38.6893 57.3286 45.0011 53.2326L46.6242 52.2176L48.4276 51.0939C48.3874 50.9053 48.3521 50.7366 48.3144 50.5564C48.2508 50.2518 48.1802 49.9141 48.0669 49.3904C47.9331 48.7717 47.8191 48.1929 47.6955 47.5651L47.6955 47.5647L47.6954 47.5645C47.6525 47.3466 47.6085 47.1228 47.562 46.8893C47.3986 46.0682 47.1462 45.2469 46.8856 44.3988L46.8856 44.3987L46.8045 44.1345C46.7715 44.046 46.7318 43.9575 46.6925 43.87ZM95.6408 45.9488C95.9254 45.7327 96.261 45.5946 96.6146 45.5483C97.861 45.5879 99.0517 46.0768 99.969 46.9258C100.356 47.3482 100.651 47.8464 100.838 48.389C101.024 48.9317 101.096 49.5071 101.051 50.0793C101.071 50.546 100.984 51.0111 100.796 51.4385C100.608 51.866 100.325 52.2444 99.969 52.5443C99.5989 52.8005 99.1555 52.9278 98.7066 52.9067C98.3115 52.9583 97.9114 52.9583 97.5163 52.9067C96.08 52.2819 94.924 51.1459 94.2702 49.7169C93.9456 49.1369 94.4867 47.6145 94.9916 46.7808C95.1326 46.4516 95.3563 46.1649 95.6408 45.9488ZM73.2089 72.4804H73.5696C74.25 72.3978 74.893 72.122 75.4231 71.6855C75.9533 71.2489 76.3487 70.6696 76.5631 70.0153V69.8341C76.6079 69.042 76.4327 68.2531 76.0569 67.5554C75.6811 66.8577 75.1196 66.2787 74.4352 65.8833C74.161 65.7242 73.85 65.6404 73.5335 65.6404C73.2169 65.6404 72.9059 65.7242 72.6318 65.8833C72.032 66.1222 71.4936 66.494 71.0564 66.9709C70.6193 67.4478 70.2948 68.0178 70.1071 68.6381C70.0094 69.1591 70.0265 69.6951 70.1574 70.2087C70.2883 70.7223 70.5296 71.2006 70.8645 71.6102C71.1726 71.9126 71.5406 72.1464 71.9445 72.2963C72.3484 72.4462 72.7792 72.5089 73.2089 72.4804ZM42.0073 91.3637C41.8171 91.4049 41.6203 91.4049 41.4302 91.3637C40.8472 90.9554 40.3763 90.4059 40.061 89.7659C39.7457 89.1259 39.5964 88.4161 39.6268 87.7027C40.2399 85.8541 41.322 84.7306 42.5844 84.7306C43.0562 84.6987 43.5292 84.7696 43.9712 84.9385C44.4132 85.1075 44.8136 85.3702 45.1451 85.7091C45.385 86.0528 45.5423 86.4478 45.6049 86.8629C45.6675 87.2779 45.6336 87.7019 45.5058 88.1016C45.3949 88.7019 45.153 89.2699 44.7975 89.765C44.442 90.2602 43.9818 90.67 43.4499 90.965C43.005 91.2054 42.5119 91.3417 42.0073 91.3637Z" fill="#212E3B"/>
</svg>
