<svg width="144" height="144" viewBox="0 0 144 144" fill="none" xmlns="http://www.w3.org/2000/svg">
<path d="M24.3266 99.0763C19.1837 98.0334 18.8623 94.1617 24.3266 94.1258C27.5423 94.1046 49.4523 95.6718 71.7815 95.6784C87.3958 95.6831 108.074 94.1602 120.243 94.1602C126.165 93.5015 123.479 98.9019 118.947 98.9019C106.569 99.036 87.7299 100.555 71.7815 100.692C49.213 100.885 27.34 99.582 24.3266 99.0763Z" fill="#212E3B"/>
<path d="M40.6327 75.9841C41.5103 73.5517 45.2055 73.4784 45.4144 75.9841C45.5377 77.4642 43.5054 88.9444 44.2087 99.239C44.696 106.372 44.2087 115.176 47.9406 119.462C48.1492 122.486 43.4697 123.105 43.2405 120.305C41.2324 114.661 40.2733 106.729 39.6204 99.239C38.7397 89.137 40.2318 77.3738 40.6327 75.9841Z" fill="#212E3B"/>
<path d="M59.256 76.1518C60.1336 73.7194 63.661 72.8072 63.8698 75.3129C63.9932 76.793 62.5276 89.4206 63.2308 99.7153C63.7181 106.849 65.0262 114.711 66.9628 119.938C67.1714 122.962 62.4919 123.582 62.2627 120.781C60.2545 115.138 59.2954 107.205 58.6425 99.7153C57.7618 89.6132 58.855 77.5415 59.256 76.1518Z" fill="#212E3B"/>
<path d="M104.304 75.0612C103.427 72.6288 97.9699 72.5555 97.761 75.0612C97.6377 76.5413 99.7189 88.9442 99.0157 99.2388C98.5284 106.372 95.2078 115.98 94.8247 121.535C94.6161 124.56 99.7546 123.105 99.9838 120.304C101.992 114.661 102.951 106.729 103.604 99.2388C104.485 89.1368 104.705 76.4509 104.304 75.0612Z" fill="#212E3B"/>
<path d="M83.6674 76.1518C82.7898 73.7194 79.1212 72.745 79.1212 78.4792C79.1212 89.6814 79.1212 89.6814 79.1212 99.7153C78.6339 106.849 78.1336 114.495 76.2619 119.938C76.0533 122.962 80.7328 123.582 80.962 120.781C82.9702 115.138 83.0145 107.205 83.6675 99.7153C84.5481 89.6132 84.0684 77.5415 83.6674 76.1518Z" fill="#212E3B"/>
<path d="M122.139 73.0413C122.898 73.985 127.535 106.824 120.505 117.433C116.662 123.234 95.4236 124.726 74.5675 124.473C61.8669 124.319 43.686 124.098 32.9602 122.062C29.085 121.326 26.8599 120.758 24.8988 119.359C23.1086 118.082 22.1906 117.005 21.2433 114.199C18.2802 105.421 20.8552 74.4137 20.5839 72.9609C20.3126 71.5081 27.1118 72.5153 27.1118 74.3832C27.1118 76.2511 25.612 84.1701 25.612 92.2648C25.612 97.3937 26.5555 108.037 27.1118 110.277C27.6681 112.518 29.6043 115.483 32.9602 116.984C36.316 118.484 56.5728 119.977 73.5693 119.815C91.4515 119.645 108.938 120.65 114.952 114.272C120.965 107.894 117.273 76.1234 117.273 74.0736C117.273 72.0238 121.381 72.0976 122.139 73.0413Z" fill="#212E3B"/>
<path fill-rule="evenodd" clip-rule="evenodd" d="M14.6991 61.0382C12.5674 64.3604 11.6061 69.8185 14.6991 73.3511C16.2624 75.1365 42.9971 77.4431 70.689 77.4823C97.7883 77.5206 125.849 75.3233 128.094 74.1559C132.633 71.7955 131.706 61.1731 129.102 59.8839C126.497 58.5946 93.5288 62.6421 70.689 62.8319C48.8132 63.0138 16.8309 57.7159 14.6991 61.0382ZM18.2874 69.8185C16.4347 68.5534 15.9632 66.7004 17.8159 64.7332C18.7232 63.7699 44.4843 67.5199 70.689 67.6353C97.9969 67.7556 125.787 64.2754 126.434 64.9342C127.702 66.2252 127.533 68.8916 126.434 69.8185C125.871 70.2932 97.997 73.3215 70.689 73.3511C44.6835 73.3792 19.1911 70.4355 18.2874 69.8185Z" fill="#212E3B"/>
<path d="M35.6979 30.8237C23.1137 45.1201 26.7293 63.9356 26.7293 63.9356H32.1607C32.1607 63.9356 31.1384 40.4357 43.0175 32.4135C54.8966 24.3912 86.7948 24.4914 97.5359 30.8237C108.277 37.156 110.558 63.9356 110.558 63.9356H117.752C117.752 63.9356 113.686 33.01 100.764 25.5212C87.8427 18.0325 48.2821 16.5273 35.6979 30.8237Z" fill="#212E3B"/>
</svg>
