<svg width="144" height="144" viewBox="0 0 144 144" fill="none" xmlns="http://www.w3.org/2000/svg">
<path fill-rule="evenodd" clip-rule="evenodd" d="M28.9622 107.876C28.8551 110.045 29.4828 112.183 30.7293 113.894C31.9757 115.605 33.7567 116.773 35.7429 117.183C41.1226 118.588 46.6187 119.416 52.1506 119.656C59.5381 119.849 74.2511 119.973 82.702 120.045H82.7031H82.7037H82.704C86.0309 120.073 88.3869 120.092 88.9427 120.105C98.6534 120.51 101.5 117.587 101.165 107.202C100.944 101.939 101.168 94.9977 101.384 88.3247L101.384 88.3242C101.536 83.5954 101.684 79.0013 101.667 75.2346C101.667 74.0207 106.355 72.4921 106.397 73.706C106.606 81.2144 106.397 93.3537 105.978 100.682C105.616 106.651 104.79 112.576 103.509 118.397C103.008 120.739 101.716 122.798 99.884 124.176C98.0518 125.555 95.8088 126.155 93.5887 125.86C91.0793 125.86 88.5653 125.895 86.0497 125.93L86.0483 125.93H86.048H86.0478H86.0475C81.011 126 75.9682 126.07 70.9441 125.86C60.1033 125.86 49.1789 125.5 38.3799 124.556C36.351 124.48 34.358 123.959 32.5232 123.026C30.6884 122.093 29.0503 120.766 27.7098 119.129C26.3694 117.491 25.3548 115.576 24.728 113.502C24.1012 111.428 23.8756 109.238 24.065 107.067C24.3162 81.7689 24.651 56.4562 25.0695 31.1284C25.0695 22.9906 28.4181 18 33.4408 18H33.4417C40.7663 18 48.049 18 55.3317 18.2698C60.9525 18.2698 66.5732 18.3717 72.194 18.4737C78.3768 18.5858 84.5597 18.698 90.7425 18.6744C92.5515 18.5892 94.3568 18.9129 96.042 19.6246C97.7271 20.3364 99.2545 21.4203 100.525 22.8061C101.795 24.192 102.781 25.849 103.417 27.6699C104.054 29.4907 104.327 31.4349 104.22 33.3765C104.22 34.6354 100.579 37.8725 100.035 36.6136C99.791 36.0502 99.5642 34.8654 99.3243 33.6114C99.028 32.0635 98.7116 30.41 98.3185 29.6897C98.2567 29.5732 98.1955 29.4573 98.1347 29.3421C96.5071 26.2589 95.1657 23.7181 90.3238 23.9348C78.406 24.3648 55.9075 23.651 44.1984 23.2795L44.1983 23.2795L44.1983 23.2795L44.1983 23.2795L44.1982 23.2795C39.9925 23.146 37.1788 23.0568 36.7474 23.0805C30.7619 23.3952 29.9666 26.7223 29.6318 31.1734C29.0192 39.6959 29.0165 66.7788 29.0145 87.1614C29.0137 96.0265 29.0129 103.624 28.9622 107.876ZM120 48.8874C118.221 53.1932 115.643 57.0639 112.424 60.2624C105.28 67.2396 98.4891 74.6237 92.0818 82.3829C89.8155 85.1075 87.3369 87.6194 84.6731 89.8913C79.8263 92.8986 74.6338 95.2112 69.228 96.7703C67.1584 97.5301 65.0289 98.0869 62.8657 98.4338C63.2665 95.6559 63.8825 92.9188 64.7074 90.251C65.957 86.2251 67.5987 82.3521 69.6048 78.6962C72.2593 74.164 75.5812 70.1249 79.441 66.7367C88.1053 58.6888 103.509 40.1651 103.509 40.1651C104.017 39.637 104.619 39.2241 105.279 38.9509C105.939 38.6778 106.643 38.55 107.35 38.5752C108.057 38.6004 108.751 38.778 109.393 39.0974C110.035 39.4169 110.61 39.8717 111.085 40.4348C112.184 41.5492 113.69 42.7066 115.151 43.8297L115.151 43.8297L115.151 43.8298L115.151 43.8298C117.641 45.7427 120 47.556 120 48.8874ZM84.087 84.4961C87.1149 80.8927 90.3921 77.4964 93.6592 74.1106C96.6699 70.9905 99.6719 67.8794 102.462 64.6235C103.362 63.5709 104.252 62.3951 105.147 61.2138L105.147 61.2138L105.147 61.2137L105.147 61.2137C106.125 59.9227 107.107 58.6252 108.113 57.4749C106.893 56.3984 105.106 54.92 103.507 53.5975C102.035 52.3792 100.722 51.2932 100.16 50.7758C95.8411 54.9279 91.6001 59.7023 87.3164 64.5248L87.3164 64.5249C83.2971 69.0497 79.2403 73.6168 75.0461 77.752L84.087 84.4961ZM72.1999 80.8992C70.0652 85.3953 66.6746 93.3083 67.5536 93.668C72.31 92.3785 76.8849 90.4129 81.157 87.8232C79.6128 86.3257 78.0357 85.2532 76.4876 84.2004L76.4875 84.2004C75.0143 83.1986 73.5673 82.2146 72.1999 80.8992ZM111.336 55.092C113.512 53.3385 115.521 50.9556 115.521 49.337C115.521 47.7184 109.745 43.672 107.527 42.7278C106.606 42.3232 104.136 44.8859 102.462 47.5835L111.336 55.092ZM42.5654 56.5765C54.9131 56.7563 76.5111 56.6664 77.1808 55.3626C77.8505 53.9238 77.976 50.8216 76.511 50.4619C74.077 50.1679 71.62 50.1679 69.1861 50.4619H42.8584C41.812 50.5069 41.6445 56.5765 42.5654 56.5765ZM66.5909 63.9937C67.9303 65.2976 68.014 70.1533 66.5909 70.1983C65.6395 70.2283 58.889 70.2182 52.2172 70.2082H52.2134C48.9066 70.2032 45.6194 70.1983 43.0676 70.1983C41.3514 70.1983 41.184 64.3084 42.7745 64.2635C43.6483 64.2181 44.6091 64.1659 45.6282 64.1105L45.6311 64.1103L45.6313 64.1103C53.6925 63.6722 65.402 63.0359 66.5909 63.9937ZM58.2197 84.5418C60.8148 83.5527 60.3125 79.776 59.2242 79.0566C55.2483 78.7037 50.3954 78.794 46.2652 78.871C45.1342 78.892 44.0574 78.9121 43.0677 78.9217C42.396 79.6434 41.9441 80.5672 41.7722 81.5709C41.6003 82.5745 41.7165 83.6106 42.1051 84.5418C47.4559 85.2588 52.8689 85.2588 58.2197 84.5418Z" fill="#212E3B"/>
</svg>
