<svg width="144" height="144" viewBox="0 0 144 144" fill="none" xmlns="http://www.w3.org/2000/svg">
<path fill-rule="evenodd" clip-rule="evenodd" d="M130.346 38.9883C129.691 37.9144 125.205 37.6342 122.121 38.1945C122.026 36.9294 121.909 36.1529 121.79 35.368C121.615 34.2121 121.438 33.0378 121.326 30.2568C121.309 29.8276 121.296 29.4268 121.284 29.0528C121.166 25.3582 121.132 24.2801 117.822 24.2801C109.587 23.7799 101.324 24.077 93.1465 25.1673C88.4702 25.9483 83.9962 27.651 79.9847 30.1761C75.9732 32.7011 72.5043 35.9983 69.7802 39.8755C59.5925 26.6615 45.8065 24 30.7585 25.4008C24.1225 26.0078 23.4216 27.2685 23.8422 33.7587C23.7812 34.4314 23.6234 35.0919 23.3744 35.7198L23.2719 35.7305C13.932 36.7005 13.6067 36.7343 13.3273 46.0389C13.0664 55.8331 13.0431 65.9243 13.0207 75.6493C13.015 78.1176 13.0094 80.5624 12.9999 82.9728C12.9913 85.173 12.9667 87.6714 12.9409 90.2927C12.8271 101.856 12.6898 115.811 13.7946 117.105C14.2392 117.755 14.8299 118.293 15.5197 118.674C16.2095 119.055 16.9791 119.269 17.7667 119.3C21.2763 119.371 24.7678 119.451 28.2534 119.531C38.5065 119.766 48.709 120 59.1718 120H123.803C128.57 120 130.86 118.693 130.86 113.183V79.6109C130.86 77.6726 130.862 75.4967 130.865 73.1855C130.883 59.0719 130.908 39.9111 130.346 38.9883ZM65.6209 100.996L28.2348 94.8794L28.3751 31.5642C38.9246 29.7523 49.7712 31.9331 58.7981 37.6809C59.8901 38.3792 61.1636 39.0956 62.4291 39.8076C65.2254 41.3807 67.983 42.9321 68.6587 44.2179C69.1058 49.4535 69.1058 54.7177 68.6587 59.9533C68.0256 68.8989 67.3536 77.8445 66.6929 86.6398C66.3294 91.4791 65.9693 96.2729 65.6209 100.996ZM76.9772 39.3619C88.5898 31.1137 102.909 27.5912 117.027 29.5097V96.0934C102.346 93.3149 88.058 97.187 77.1704 100.138C75.6162 100.559 74.1313 100.961 72.7244 101.323V84.0467C72.7244 80.0222 72.7664 76.0449 72.8082 72.0921C72.8911 64.2585 72.9729 56.5207 72.7244 48.7004C72.4789 46.9015 72.7477 45.0699 73.5002 43.4173C74.2528 41.7648 75.4585 40.3588 76.9772 39.3619ZM116.788 102.749C119.881 103.206 122.227 103.552 122.448 103.191L122.261 103.237C122.553 102.786 122.513 89.8707 122.467 75.15C122.432 64.0062 122.394 51.8276 122.495 43.2373C126.654 43.284 126.654 43.284 126.654 47.1128V104.125C127.037 107.226 127.037 110.362 126.654 113.463C126.186 114.507 122.415 114.385 118.977 114.275C117.954 114.242 116.961 114.21 116.092 114.21C106.505 114.272 96.9232 114.324 87.3429 114.376C68.1565 114.48 48.9769 114.584 29.7768 114.77C29.6455 114.771 29.5156 114.773 29.3871 114.774C18.1288 114.865 17.6264 114.87 17.6264 103.097V51.7354C17.7996 48.625 17.7996 45.5073 17.6264 42.3969L23.468 41.5097V83.5331C23.468 85.0423 23.5167 86.5407 23.5643 88.0081C23.6568 90.8535 23.7455 93.5822 23.468 96.0467C23.0474 99.7821 24.0755 101.697 28.1412 101.276C41.0234 101.429 53.8116 103.49 66.0882 107.393C68.4667 108.284 69.4562 108.024 71.4305 107.504C71.9388 107.37 72.5123 107.219 73.1916 107.066C83.5195 104.638 97.5862 102.444 103.755 101.743C107.272 101.344 112.687 102.143 116.788 102.749ZM85.5285 62.998C85.6666 70.9976 85.8086 79.2198 86.3238 79.7043C87.1183 80.4513 101.044 71.0194 106.372 64.8093C109.55 61.1206 109.877 60.5603 106.699 58.9261C100.785 55.6604 94.6833 52.7448 88.4265 50.1945C87.9206 50.0227 87.4848 49.8267 87.1124 49.6593C85.765 49.0535 85.2485 48.8213 85.2485 51.4552C85.3799 54.3928 85.4536 58.6627 85.5285 62.998ZM90.0621 56.8716L101.372 62.1945L90.9503 70.4124L90.0621 56.8716Z" fill="#212E3B"/>
</svg>
