<svg width="144" height="144" viewBox="0 0 144 144" fill="none" xmlns="http://www.w3.org/2000/svg">
<path fill-rule="evenodd" clip-rule="evenodd" d="M57.5152 18.7939C62.0306 17.6106 66.7808 17.7525 71.2208 19.2031C73.4917 19.823 75.5941 20.9644 77.3677 22.5404C79.1414 24.1164 80.5398 26.0854 81.4559 28.2972C83.3694 34.3447 79.498 42.302 74.8256 41.9383C70.6332 41.9617 66.4433 41.734 62.277 41.2562C61.0755 41.2562 58.628 40.3468 58.895 39.6647C60.3219 36.1037 59.0413 29.4131 58.1106 24.5508L58.1106 24.5508L58.1106 24.5506C57.5321 21.5281 57.0888 19.2122 57.5152 18.7939ZM63.1222 37.8459C65.0663 38.7422 67.1748 39.2057 69.3077 39.2057C71.4405 39.2057 73.549 38.7422 75.4931 37.8459C79.3646 34.663 76.7836 26.7057 73.8022 24.2049C70.0242 22.441 65.9388 21.467 61.787 21.3402C61.787 21.3402 65.4362 33.2989 63.1222 37.8459ZM27.8788 45.5758C29.8813 54.488 31.6169 65.3099 26.8999 74.6768C30.8182 75.7191 34.8035 76.4788 38.826 76.9503C49.3279 77.3595 52.1758 74.3585 52.1758 63.7184C52.1758 59.5922 50.6528 55.4659 49.1201 51.3132C48.3389 49.1966 47.5551 47.0731 46.9692 44.9392C46.6484 43.4922 45.807 42.2213 44.6117 41.3789C43.4163 40.5366 41.9547 40.1843 40.517 40.3922C37.3554 40.2325 34.1864 40.3237 31.0386 40.665L30.8865 40.6807C27.504 41.0298 26.8703 41.0952 27.8788 45.5758ZM32.2842 71.4939C34.7762 67.6744 31.7502 45.5303 31.7502 45.5303H31.9729C31.9729 45.4849 31.5726 45.3939 31.5726 45.3939C35.3647 44.1577 39.4393 44.1577 43.2314 45.3939C43.2314 45.3939 52.0864 70.539 45.634 72.6761C41.1709 73.6931 36.5095 73.2803 32.2842 71.4939ZM83.3698 46.0307C83.3698 44.7575 103.261 45.0303 110.069 45.5305C111.271 45.5305 112.472 49.1681 112.561 50.0775C112.774 52.4925 113.187 54.7856 113.591 57.0233C114.707 63.2121 115.747 68.9769 112.25 75.7227C111.8 76.5963 111.394 77.4037 111.006 78.1755L111.006 78.1756C109.818 80.537 108.797 82.5649 107.221 85.1351C106.954 85.5898 106.02 85.7262 105.397 85.7262C103.372 85.5898 100.658 85.5898 97.9432 85.5898C95.2288 85.5898 92.5143 85.5898 90.4896 85.4534L90.4517 85.4487C87.7768 85.1207 86.461 84.9594 86.0926 84.2825C85.7359 83.6271 86.2673 82.4883 87.3133 80.2471C87.4177 80.0233 87.5273 79.7886 87.6416 79.5422C89.2695 75.7401 90.0801 71.6254 90.0187 67.4759C89.9573 63.3263 89.0255 59.2385 87.2858 55.4884C85.7283 52.4512 84.4186 49.2879 83.3698 46.0307ZM91.2458 80.7245H104.596C104.596 80.7245 113.051 69.2205 107.132 49.9866H88.7095C92.0901 54.2643 94.1387 59.4791 94.5908 64.9581C95.0429 70.437 93.8776 75.9286 91.2458 80.7245ZM59.073 85.5441C59.7405 86.9082 72.0226 87.5903 79.9435 86.6354C83.904 78.2689 86.3067 71.8121 84.2153 62.2178C83.8193 59.2123 83.0723 56.266 81.9903 53.4421C80.4328 49.759 79.2312 47.6674 77.8962 47.6674C77.4238 47.6674 75.731 47.5877 73.5435 47.4846L73.5434 47.4846H73.5433L73.5432 47.4846L73.543 47.4846L73.5425 47.4846C69.5486 47.2965 63.9063 47.0308 61.0313 47.0308C60.6673 47.0394 60.3241 47.0461 60.0009 47.0523C55.2274 47.1446 54.8309 47.1523 56.5814 52.3053C58.851 57.8877 60.6666 63.6516 62.0101 69.5386C62.4606 72.6791 61.0967 77.2703 60.0603 80.7594L60.0603 80.7594L60.0603 80.7595L60.0603 80.7595C59.356 83.1303 58.803 84.9922 59.073 85.5441ZM64.3687 82.0884C66.8488 71.6735 65.7324 60.7031 61.2089 51.0322C64.3267 51.3068 67.0874 51.4156 69.7066 51.5187H69.7067C71.424 51.5864 73.0805 51.6516 74.7369 51.7597C75.3001 51.8332 75.8388 52.04 76.31 52.3636C76.7812 52.6873 77.172 53.1189 77.4513 53.624C80.3437 62.809 82.4352 73.4035 77.9853 82.7704C76.0084 82.7704 73.7771 82.6078 71.4932 82.4415L71.4931 82.4414H71.4929H71.4928H71.4927C69.0983 82.267 66.6462 82.0884 64.3687 82.0884ZM113.839 116.546C111.295 115.421 109.028 114.418 105.308 114.418C110.133 112.32 114.151 108.662 116.744 104.005C120.527 99.4581 125.644 92.7739 125.644 90.364C125.879 88.3815 125.405 86.379 124.309 84.7257C122.311 83.7074 120.08 83.2626 117.855 83.4387C115.629 83.6149 113.491 84.4055 111.671 85.726C105.041 94.1835 95.9186 94.0016 87.2412 93.7743C83.2109 93.6687 79.2189 93.4258 75.2162 93.1822C70.6011 92.9013 65.9718 92.6196 61.2532 92.5466C52.4424 92.4101 49.1054 90.364 45.5899 82.4067C45.2545 81.8264 44.7968 81.3295 44.2504 80.952C43.704 80.5746 43.0821 80.3259 42.4301 80.2241C36.6897 80.2241 29.8368 80.5424 24.0964 81.0881C22.9839 81.179 22.2718 83.1797 22.2718 84.3165C22.2925 84.8321 22.3124 85.3485 22.3322 85.865C22.8241 98.6478 23.3217 111.577 37.1795 118.919C35.2952 118.919 33.9735 119.252 32.6117 119.594C29.7605 120.312 26.7336 121.073 18 118.919C21.079 123.584 21.5124 123.648 23.7994 123.981C24.388 124.067 25.0993 124.171 26.0101 124.376C33.575 126.058 45.1891 122.33 51.3745 119.147C53.2135 118.03 55.3485 117.531 57.4796 117.719C59.6107 117.906 61.6309 118.771 63.256 120.192C72.4229 127.968 81.9457 126.968 92.0915 122.83C95.7811 121.222 99.7399 120.357 103.75 120.283C106.293 120.309 108.836 120.929 111.379 121.549L111.379 121.549C113.286 122.014 115.193 122.479 117.1 122.693C120.314 122.617 123.424 121.52 126 119.556C119.935 119.242 116.711 117.816 113.839 116.546ZM45.5008 114.554C45.0525 114.761 44.6208 115.005 44.2102 115.282V115.145C40.7762 113.396 37.5255 111.294 34.5091 108.87C30.896 105.887 28.5263 101.612 27.8787 96.9117C29.7092 97.1275 30.7847 97.141 31.6797 97.1522H31.6798C32.4818 97.1623 33.1388 97.1705 34.0642 97.3209C37.3571 97.9121 39.7603 97.7757 39.2263 95.0474C38.9981 93.6871 38.282 93.3567 36.9673 92.7499C36.7439 92.6467 36.5032 92.5356 36.2446 92.4102C33.1541 91.8783 30.0322 91.5593 26.8999 91.4553C24.8974 90.0457 26.0101 85.4987 26.0101 85.4987C30.7988 84.9698 35.6113 84.6966 40.4278 84.6802C40.9351 84.7345 41.4244 84.9008 41.8624 85.1678C42.3004 85.4348 42.6763 85.7959 42.9641 86.2262C46.9245 96.5479 57.0257 98.4122 66.1926 99.0488C72.0781 99.4575 77.9821 99.6975 83.8809 99.9373C87.1696 100.071 90.4566 100.205 93.738 100.367C97.3829 100.406 100.99 99.6089 104.294 98.0351C107.597 96.4613 110.514 94.1508 112.828 91.2734C114.464 89.7734 116.188 88.3764 117.99 87.0901C117.99 87.0901 123.019 85.9534 122.218 88.045C118.524 94.4845 114.037 100.414 108.868 105.687C108.732 105.836 108.597 105.985 108.461 106.135L108.459 106.138C105.56 109.333 102.509 112.696 96.9418 111.871C95.1787 111.627 93.235 112.818 91.2859 114.013L91.2858 114.013C90.3324 114.597 89.3777 115.182 88.4423 115.6C85.04 117.547 81.1501 118.423 77.262 118.115C73.3739 117.808 69.662 116.331 66.5935 113.872C59.1621 107.779 52.3982 111.053 45.5008 114.554ZM73.1792 109.007C73.1792 109.007 75.7154 109.007 75.7154 107.143C75.7154 105.278 75.0928 103.96 73.4019 103.96C73.0014 103.913 72.5954 103.969 72.2209 104.121C71.8465 104.274 71.5149 104.518 71.2551 104.833C70.9954 105.148 70.8156 105.523 70.732 105.926C70.6485 106.329 70.6635 106.747 70.776 107.143C70.8023 107.431 70.887 107.711 71.0248 107.965C71.1626 108.218 71.3508 108.439 71.5767 108.615C71.8027 108.79 72.0613 108.915 72.3372 108.983C72.6131 109.05 72.9 109.059 73.1792 109.007ZM82.9244 105.278C84.0814 106.733 82.1237 108.37 82.1237 108.37C81.9358 108.592 81.7031 108.77 81.442 108.891C81.181 109.013 80.8979 109.076 80.6109 109.076C80.324 109.076 80.0403 109.013 79.7793 108.891C79.5182 108.77 79.2855 108.592 79.0975 108.37C78.7579 108.143 78.479 107.833 78.286 107.467C78.093 107.102 77.9921 106.694 77.9921 106.279C77.9921 105.864 78.093 105.455 78.286 105.09C78.479 104.725 78.7579 104.415 79.0975 104.187C80.4325 103.278 81.7229 103.869 82.9244 105.278ZM90.5789 106.597C90.5789 106.597 90.6233 103.959 88.7988 103.959C86.9743 103.959 85.728 104.551 85.6835 106.278C85.6273 106.685 85.6703 107.099 85.8079 107.485C85.9455 107.871 86.1737 108.216 86.4728 108.49C86.7718 108.764 87.1322 108.959 87.5223 109.057C87.9124 109.155 88.3203 109.153 88.7097 109.052C88.9961 109.031 89.2751 108.949 89.5283 108.811C89.7816 108.673 90.0034 108.482 90.1796 108.25C90.3559 108.018 90.4824 107.752 90.5512 107.467C90.6199 107.182 90.6295 106.886 90.5789 106.597Z" fill="#212E3B"/>
</svg>
