<svg width="145" height="145" viewBox="0 0 145 145" fill="none" xmlns="http://www.w3.org/2000/svg">
<path d="M80.0941 52.112C79.7575 54.4155 80.3448 56.7641 81.7327 58.6638C82.9299 60.5959 84.8259 62.0154 87.0377 62.6358C88.1566 62.8727 89.3109 62.8868 90.4321 62.6773C91.5532 62.4678 92.6184 62.0389 93.5643 61.4162C94.6911 60.648 95.6502 59.6673 96.3863 58.5307C97.1224 57.394 97.621 56.1238 97.8533 54.7934C98.1217 52.8122 97.6154 50.799 96.4364 49.1586C95.2574 47.5182 93.493 46.3722 91.4978 45.9508C88.8024 45.609 86.0815 46.2634 83.8648 47.7865C82.0828 48.6924 80.7317 50.2422 80.0941 52.112ZM83.7925 52.8369C84.1371 51.9452 84.7875 51.2011 85.6325 50.732C87.1724 49.5967 89.0598 49.0046 90.9922 49.0504C92.2465 49.4202 93.3037 50.2625 93.9317 51.3925C94.671 52.4068 94.9743 53.6638 94.7756 54.8898C94.2599 57.5209 92.4223 59.0932 90.6034 58.8366C86.1724 58.0347 83.5159 55.115 83.8202 53.0423L83.7925 52.8369Z" fill="#212E3B"/>
<path d="M113.677 49.4207C112.265 51.0734 98.142 32.4542 101.906 30.7495C103.342 30.0993 105.965 27.1157 105.965 29.3967C105.965 36.103 110.979 44.4147 116.113 44.4147C119.13 44.4146 115.09 47.7679 113.677 49.4207Z" fill="#212E3B"/>
<path d="M33.2032 86.7739C33.9172 86.4412 31.67 84.8621 31.1952 84.2253C30.4586 83.2373 24.3556 87.9784 21.982 91.3962C19.3856 95.135 17.7866 102.442 19.6004 103.554C20.7865 104.281 21.3106 102.711 22.6406 103.097C23.6277 103.384 16.9724 121.367 22.1495 123.059C28.7672 125.223 32.9729 110.305 34.0158 109.932C35.724 109.321 33.4257 116.483 36.3906 117.7C38.8999 118.73 41.0041 115.432 42.7847 113.327C44.8878 110.842 45.9119 108.139 44.7408 105.088C44.3876 104.168 42.7159 103.231 42.4197 104.405C41.9246 106.369 39.4592 112.54 38.1642 112.152C36.5088 111.655 38.3846 109.705 34.6621 102.758C34.2536 101.996 32.695 102.653 32.6167 103.522C32.5385 104.391 27.0601 120.303 24.3816 117.414C22.2198 115.082 26.4632 104.428 26.5244 100.941C26.5467 99.6744 24.1148 100.879 23.6029 99.7294C22.0186 96.1715 32.1029 87.2866 33.2032 86.7739Z" fill="#212E3B"/>
<path fill-rule="evenodd" clip-rule="evenodd" d="M39.8938 78.8138C40.0157 77.4607 22.3223 77.8058 23.7239 72.0605C25.1256 66.3153 33.6344 58.7676 35.8071 57.87C37.9798 56.9724 51.2021 61.6219 54.0041 58.4019C56.8061 55.1819 63.82 45.4124 78.4508 35.4072C90.1438 28.22 123.232 18.819 127.023 24.3013C131.179 30.3123 111.948 82.4593 78.0169 91.9965C74.38 93.0188 81.3705 104.205 78.2825 106.688C72.5184 111.323 59.6153 120.387 56.4567 116.895C52.4685 112.486 56.4199 101.833 54.7591 99.2981C53.6832 97.6558 46.8263 102.975 39.7141 94.9473C32.6019 86.9195 39.7719 80.167 39.8938 78.8138ZM39.1068 62.6788C37.0036 62.4893 29.5161 71.0829 30.6145 72.6813C32.7308 75.7611 49.1926 73.5801 44.7631 78.3943C44.7631 78.3943 38.9336 87.2901 43.9368 92.3179C48.94 97.3458 53.0841 91.9556 56.9673 95.5536C61.4606 99.7168 57.7862 110.731 60.6373 110.601C64.7117 110.416 66.7743 106.134 72.3062 103.614C75.2307 102.282 66.6841 90.2077 72.3224 87.9304C110.394 72.5529 120.586 31.174 119.96 30.0442C119.333 28.9145 88.0041 28.1039 64.0596 56.3835C63.4721 57.0773 58.1037 62.8239 57.3729 63.3544C54.8256 65.2034 46.8779 63.3789 39.1068 62.6788Z" fill="#212E3B"/>
</svg>
