<svg width="144" height="144" viewBox="0 0 144 144" fill="none" xmlns="http://www.w3.org/2000/svg">
<path fill-rule="evenodd" clip-rule="evenodd" d="M31.8791 46.8146C32.234 49.9748 32.5883 53.1303 32.9235 56.2858C24.0313 58.5498 24.0443 58.7583 24.6069 67.7601L24.6121 67.8435C24.9095 71.2785 24.8102 74.7316 24.7111 78.1786C24.6615 79.8999 24.6121 81.6196 24.6121 83.3349C24.5497 86.8939 24.4411 90.4528 24.3326 94.0106C24.0887 102.007 23.845 109.997 24.1256 117.967C24.3688 125.267 30.0854 126.524 37.14 125.835C44.9649 125.064 58.0201 124.132 66.6154 123.848C68.3854 123.786 70.1554 123.723 71.9255 123.659C85.1972 123.186 98.469 122.712 111.741 122.712C117.579 122.672 119.201 121.536 119.201 115.697C119.284 111.14 119.385 106.584 119.486 102.027C119.729 91.0922 119.971 80.1573 119.971 69.2224C120.085 67.5545 119.863 65.8808 119.32 64.2999C118.777 62.7189 117.923 61.2626 116.809 60.0167C113.817 57.937 113.846 55.9229 113.882 53.3837C113.886 53.1007 113.89 52.8112 113.89 52.5144C114.376 43.593 114.376 34.6717 114.376 25.7504V25.7491C114.376 20.315 111.822 18.2062 106.267 18.6929C91.5519 19.8422 76.7638 19.6929 62.0745 18.2468C57.5128 17.6298 52.8691 18.1738 48.5734 19.8283C47.2025 20.4999 46.8162 23.2184 46.442 25.8517C46.274 27.0346 46.1083 28.2003 45.857 29.1556C42.1467 30.2157 38.3671 31.0152 34.5454 31.5483C30.7748 31.8321 30.491 33.9409 30.7748 36.7797C31.1289 40.1335 31.5043 43.4767 31.8791 46.8146ZM113.709 86.694C114.062 100.536 114.421 114.625 113.363 115.494C112.451 116.286 107.792 116.055 102.847 115.811C99.4335 115.642 95.8834 115.466 93.3339 115.615C85.7672 116.032 78.2171 116.598 70.6623 117.164C66.4375 117.481 62.2111 117.798 57.9796 118.089C55.8336 118.228 53.6909 118.394 51.5488 118.56C46.2036 118.973 40.8614 119.387 35.4778 119.387C30.3287 119.509 29.0315 117.278 29.2747 112.209C29.464 107.53 29.4008 102.834 29.3377 98.1429C29.3062 95.7998 29.2747 93.4583 29.2747 91.1212C29.266 90.265 29.2577 89.4108 29.2495 88.5578C29.1811 81.4916 29.1136 74.5129 28.788 67.2758C28.6332 66.5087 28.6756 65.7149 28.9112 64.9687C29.1468 64.2225 29.5682 63.5483 30.1354 63.0093C30.7026 62.4703 31.3973 62.0842 32.1544 61.887C32.9115 61.6899 33.7062 61.6882 34.4642 61.8822C40.3939 62.4905 46.3235 62.9619 52.2531 63.4334C54.2295 63.5905 56.2059 63.7476 58.1822 63.9098C62.2772 64.2748 62.8043 61.6794 62.8043 58.4757C62.9259 52.1088 62.9664 52.1088 69.3318 52.1088C72.8159 52.0773 77.6242 51.7943 82.2478 51.5223C89.5146 51.0947 96.325 50.6939 96.8206 51.3383C97.2387 51.882 97.3334 54.5715 97.4271 57.2328C97.5151 59.7325 97.6022 62.2073 97.9557 62.8555C98.5872 64.0136 102.528 63.9873 106.731 63.9592C107.385 63.9548 108.045 63.9504 108.7 63.9504C111.254 63.9504 113.363 64.6398 113.363 68.0057C113.363 73.0968 113.535 79.8653 113.709 86.694ZM52.1007 57.178V22.221L109.511 25.4247V57.4213C107.307 57.9586 105.017 58.0414 102.78 57.6646C102.373 56.0894 102.182 54.4657 102.213 52.8388C101.808 47.8913 98.7261 45.7825 93.6986 45.7825C92.0972 45.7825 90.5058 45.9447 88.9145 46.1069C87.3232 46.2691 85.7318 46.4313 84.1304 46.4313H70.305C59.8447 46.5125 58.7904 47.3641 57.4119 57.5024L52.1007 57.178ZM46.8706 49.8378C47.1166 52.1564 47.1166 54.4944 46.8706 56.813V56.9752C43.5224 57.2887 40.1452 56.9302 36.9373 55.9209C35.721 54.8665 34.9913 37.469 34.9913 36.5769C34.9913 35.6847 42.0459 35.6847 46.1002 35.6847V44.5659C44.7343 44.6789 43.3789 44.8959 42.0459 45.2148C40.9512 45.8636 40.9106 48.9862 42.0459 49.2701C43.6344 49.5999 45.2489 49.7899 46.8706 49.8378ZM64.4615 37.0761C72.6173 37.7573 95.6141 39.678 101.321 37.4283C101.321 37.4283 102.213 33.4946 100.956 33.4946C92.8579 33.5211 84.029 33.2346 75.3808 32.954C70.8238 32.8061 66.3169 32.6598 61.9935 32.5619C60.6961 32.8052 60.8584 36.9416 61.5882 36.8605C61.7137 36.8466 62.7675 36.9346 64.4615 37.0761Z" fill="#212E3B"/>
</svg>
