<svg width="144" height="144" viewBox="0 0 144 144" fill="none" xmlns="http://www.w3.org/2000/svg">
<path fill-rule="evenodd" clip-rule="evenodd" d="M106.196 119.184C106.523 117.595 106.308 115.943 105.584 114.491C100.836 113.719 96.025 113.404 91.2168 113.552C83.5569 113.606 75.904 113.695 68.2528 113.784L68.25 113.784L68.2472 113.784L68.2445 113.784L68.2417 113.784L68.2389 113.784L68.2362 113.784L68.2334 113.784L68.2306 113.784H68.2301H68.2297H68.2292H68.2287H68.2283H68.2278H68.2274H68.2269C55.9834 113.926 43.7439 114.068 31.4867 114.068C24.0911 114.068 20.8407 110.266 20.8407 102.663C20.7701 97.9287 20.6597 93.1945 20.5493 88.4602C20.3653 80.569 20.1813 72.6777 20.1813 64.7864C20.1813 60.0526 20.427 55.2983 20.6619 50.7522C20.7833 48.4021 20.9019 46.1076 20.9822 43.9003H120.47C120.791 45.7488 121.011 47.6133 121.129 49.4856V90.8352C121.089 93.9631 122.493 93.8361 125.253 93.5864C125.723 93.5439 126.233 93.4978 126.782 93.4636C127.253 93.2289 127.253 92.619 127.253 92.1965L127.26 89.5586C127.307 72.7861 127.354 55.9775 126.593 39.2538C126.075 27.2854 121.364 24 109.353 24C99.8029 24.128 90.2532 24.1105 80.7036 24.0931C69.244 24.0721 57.7845 24.0512 46.325 24.2816C38.3791 24.5033 30.4813 25.5892 22.7721 27.5201C20.2284 28.1302 17.8731 32.2607 16.7425 35.3114C16.2686 38.218 16.2686 41.1817 16.7425 44.0883C16.7072 49.0555 16.6807 54.0257 16.6542 58.9973L16.6541 59.0002V59.0005C16.5747 73.8989 16.4952 88.8105 16.1773 103.696C15.8306 105.855 15.9936 108.066 16.6534 110.152C17.3132 112.238 18.4516 114.142 19.9785 115.714C21.5053 117.285 23.3785 118.48 25.4497 119.205C27.5208 119.929 29.7329 120.163 31.9106 119.888H98.1885C100.878 120.068 103.58 119.83 106.196 119.184ZM109.541 29.163C115.994 29.0222 120.705 31.275 120.705 38.7846C106.776 39.3153 92.7896 39.2286 78.7625 39.1416C59.2981 39.0209 39.7556 38.8997 20.1813 40.4272C20.2633 38.4207 21.0718 36.5119 22.4574 35.0536C23.843 33.5954 25.712 32.6864 27.7183 32.4952C37.6105 31.4626 47.5027 30.524 57.442 30.1954C68.2819 29.8432 79.1401 29.6746 90.0053 29.5059C96.5155 29.4048 103.028 29.3037 109.541 29.163ZM100.402 103.553C104.567 109.157 109.302 114.316 114.534 118.948C118.254 117.335 121.628 115.025 124.473 112.143C125.142 111.466 125.741 110.94 126.246 110.495C128.335 108.655 128.833 108.216 126.216 104.398C124.205 101.466 121.888 98.821 119.521 96.119L119.521 96.1189L119.521 96.1188L119.521 96.1186L119.521 96.1184L119.521 96.1183L119.52 96.1176C118.061 94.452 116.583 92.7647 115.146 90.975C117.227 88.4466 118.738 85.501 119.574 82.3388C110.303 79.5376 104.67 79.177 98.503 78.782C95.99 78.6211 93.3882 78.4545 90.4154 78.1148C90.3798 78.1111 90.3436 78.1071 90.3069 78.1028C90.2391 78.095 90.1696 78.0865 90.0985 78.0777C89.2393 77.9723 88.1633 77.8402 87.4948 78.6311C86.8886 79.3484 86.9834 80.7339 87.0436 81.6149L87.0437 81.6151C87.0583 81.8292 87.0709 82.0135 87.0709 82.1512C86.9602 87.4475 87.305 92.2576 87.656 97.1529L87.656 97.1532L87.6561 97.1533C87.9023 100.587 88.1515 104.063 88.2486 107.778C88.6428 109.624 89.004 109.728 89.5255 109.877C89.6272 109.907 89.7349 109.938 89.8501 109.984L100.402 103.553ZM96.0246 100.469C94.7558 101.434 93.5158 102.376 92.488 102.896C92.1608 99.586 91.9547 95.5521 91.7474 91.4963L91.7473 91.4958C91.5667 87.9612 91.3852 84.4099 91.1219 81.3064C94.834 81.6969 98.4218 82.2561 102.068 82.8243L102.068 82.8243C105.871 83.417 109.737 84.0196 113.874 84.4509C113.435 85.0678 113.053 85.6424 112.689 86.1902C112.388 86.6428 112.1 87.0771 111.801 87.5018C109.729 90.4118 110.011 91.3035 112.696 94.2135C115.612 97.4113 118.186 100.903 120.375 104.633C121.036 105.671 121.514 106.814 121.788 108.012C119.806 109.702 118.572 110.855 117.77 111.603C116.591 112.704 116.349 112.929 116.041 112.706C113.869 111.071 111.935 109.143 110.294 106.98C108.073 103.551 105.448 100.399 102.474 97.5927C101.16 96.5637 98.5359 98.5591 96.0246 100.469ZM65.0985 54.2257C64.5758 70.4825 64.8194 86.7553 65.8288 102.991C70.0178 102.628 74.2374 102.865 78.3589 103.695C79.7721 104.023 80.1018 105.525 79.2068 107.543C73.8251 108.745 68.2429 108.745 62.8611 107.543C60.7826 107.074 60.7936 101.303 60.8013 97.2979V97.2975C60.8028 96.4919 60.8042 95.7577 60.7884 95.1525C60.6 87.5507 60.6628 79.9282 60.7256 72.2986V72.2983V72.298V72.2976V72.2973V72.297V72.2966V72.2963C60.757 68.4797 60.7884 64.6614 60.7884 60.843C60.7884 59.5155 60.9636 58.1879 61.1388 56.8603C61.2362 56.1227 61.3335 55.3852 61.4008 54.6476C61.4008 51.1487 63.2875 50.7932 64.5046 50.8341C80.0018 48.7884 112.224 49.4909 111.519 51.8317V74.5013C111.519 74.9237 108.221 75.7686 107.656 73.6565C107.081 67.3219 106.876 60.9593 107.044 54.6009C99.8368 54.6009 92.771 54.5071 85.7053 54.4132L85.7049 54.4132L85.7044 54.4132C78.8783 54.3225 72.0521 54.2318 65.0985 54.2257ZM30.4986 70.0898C31.9621 69.0046 39.4261 69.2671 45.943 69.4964L45.9434 69.4964C48.4458 69.5844 50.8085 69.6675 52.6382 69.6675H52.6386C54.1459 69.6675 55.7002 69.6675 55.7002 72.061C55.7002 74.4546 53.863 74.7833 52.2143 74.7833C47.4722 74.7833 43.2008 74.5487 38.7927 74.3067L38.7926 74.3067L38.7919 74.3066C36.3693 74.1736 33.9054 74.0383 31.2993 73.9385C30.0274 74.1731 28.5201 71.5447 30.4986 70.0898ZM31.7209 88.2532H50.5632C54.473 88.2532 54.049 83.8883 52.5887 83.9352C46.9833 83.372 36.8091 83.372 31.2033 83.372H31.2026C30.1663 83.419 30.1192 85.3901 30.1663 86.188C30.2134 86.9859 30.6846 88.2532 31.7209 88.2532ZM29.133 58.8719C29.133 57.2061 31.0613 57.1661 32.0554 57.1455C32.1817 57.1429 32.293 57.1406 32.3833 57.1353C38.7897 56.7129 45.196 56.3374 51.6495 56.2905C52.733 56.2905 54.994 56.5253 54.994 58.4496C55.0148 58.7632 54.9683 59.0773 54.8573 59.3715C54.7463 59.6656 54.5734 59.9328 54.3504 60.1549C54.1274 60.3771 53.8594 60.5494 53.5642 60.66C53.269 60.7706 52.9534 60.8171 52.6387 60.7964H30.3106C30.2443 60.7808 30.1811 60.7672 30.1211 60.7542L30.1207 60.7541C29.457 60.6109 29.1762 60.5503 29.133 58.8719ZM82.4532 63.1917C81.9822 62.5346 79.1558 63.5201 79.1558 64.2241C79.8324 67.1227 81.3378 69.7637 83.4896 71.8275C84.4317 72.4846 85.6564 71.2175 85.6564 70.7951C86.2217 68.4953 82.9243 63.8488 82.4532 63.1917ZM70.8697 76.2381C73.2127 75.8985 75.5926 75.8985 77.9356 76.2381C78.7364 76.2381 79.4429 79.3828 78.8776 80.4153C76.194 80.7329 73.473 80.4442 70.9167 79.5705C70.4924 78.5029 70.4758 77.3172 70.8697 76.2381ZM96.1648 68.2604C96.2641 65.9513 96.01 63.6408 95.4111 61.408C94.94 60.8918 92.1608 60.7039 92.0194 61.8303C91.6897 63.7077 92.0666 68.3543 93.0558 68.9645C94.7987 69.4808 96.1648 69.1521 96.1648 68.2604Z" fill="#212E3B"/>
</svg>
