<svg width="145" height="145" viewBox="0 0 145 145" fill="none" xmlns="http://www.w3.org/2000/svg">
<path d="M57.282 59.4366C56.0877 60.5121 56.0877 87.1053 57.282 88.183C58.4763 89.2606 60.2964 89.4469 61.7374 88.183C63.1784 86.919 62.5071 60.1861 61.7374 59.4366C60.9678 58.6872 58.4764 58.3612 57.282 59.4366Z" fill="#212E3B"/>
<path fill-rule="evenodd" clip-rule="evenodd" d="M69.4801 88.1829C67.9824 87.1543 77.3524 60.4926 78.697 59.4365C80.0417 58.3805 82.9048 57.6757 84.7081 59.4365C86.5113 61.1973 92.5293 87.9345 91.5206 88.1829C90.5118 88.4312 86.5113 88.5722 84.7081 88.1829C82.9048 87.7936 83.8084 78.7185 82.9048 78.2085C82.0011 77.6984 79.3534 77.7323 78.697 78.2085C78.0407 78.6846 76.9041 87.6844 75.8919 88.1829C74.8796 88.6814 70.9778 89.2115 69.4801 88.1829ZM81.5022 65.5797C80.0996 65.5797 77.8188 71.1842 78.697 71.9951C79.5753 72.8061 82.6539 73.1852 83.6365 72.361C84.6191 71.5367 82.9048 65.5797 81.5022 65.5797Z" fill="#212E3B"/>
<path d="M106.096 72.7628C106.096 70.6437 106.096 68.5245 106.096 66.5301C106.18 60.9556 106.01 55.3798 105.585 49.8262C105.046 44.1232 102.299 41.6613 96.4556 41.6301H83.6371H77.7934L72.6768 41.5989C68.4758 41.5989 64.1132 41.5989 59.8583 41.5989C55.2627 41.926 50.6865 42.5502 46.1512 43.4688C44.9846 43.7169 43.9362 44.4489 43.2025 45.5274C42.4688 46.6059 42.1002 47.9571 42.1656 49.3276C42.0983 50.5417 42.0983 51.7596 42.1656 52.9738C42.1656 53.7217 42.1656 54.4696 42.1656 55.2176C42.1656 58.6144 42.1656 62.0113 42.1656 65.4081C42.1656 75.2871 42.1656 85.5089 41.8963 95.5748C41.881 96.9819 42.1116 98.3781 42.5744 99.6795C43.0371 100.981 43.7225 102.161 44.5893 103.148C45.2888 103.985 46.1251 104.653 47.0497 105.113C47.9743 105.573 48.9688 105.816 49.9752 105.828C65.8636 105.641 81.5904 105.36 96.7248 105.049C98.8338 105.016 100.856 104.07 102.391 102.397C103.927 100.724 104.864 98.4452 105.019 96.0111C105.396 91.3365 105.719 86.288 106.043 80.4291C106.123 78.4035 106.15 75.8792 106.096 72.7628ZM96.1593 45.7437C100.333 45.7437 100.993 46.6998 100.993 51.3432C100.993 57.8253 100.993 64.7697 100.993 71.1272V75.1253C100.993 77.6808 100.993 80.4973 100.993 83.0527C100.993 86.1691 100.993 89.2867 100.993 92.4966C100.993 97.8568 99.5794 100.343 95.0822 100.592L89.023 100.935C82.6946 101.309 76.1507 101.683 69.6876 101.808C64.0055 101.808 58.9455 102.119 53.3442 101.808L50.8009 101.41C49.9389 101.192 49.503 100.926 48.8027 100.611C48.1023 100.296 48.0578 100.123 47.5421 99.49C47.0265 98.8574 46.75 98.3554 46.5187 97.5279C46.2875 96.7005 46.4208 95.5661 46.5187 94.7039C46.5187 92.4912 46.5187 90.7481 46.5187 88.5978C46.5187 87.7252 46.5187 86.4173 46.5187 85.5447V57.0326C46.5187 49.8026 47.0398 46.6787 53.2606 46.4294C62.3089 46.3047 95.7015 45.7437 96.1593 45.7437Z" fill="#212E3B"/>
<path d="M61.8949 43.1427C60.7995 42.9871 60.724 37.8487 60.8751 34.9103C60.8751 34.6912 65.9741 34.7134 66.0118 34.9623C66.0118 37.0536 66.0118 39.1349 66.0118 41.2263C66.2588 41.8045 66.2588 42.3891 66.0118 42.969C65.7097 43.3186 63.1035 43.2978 61.8949 43.1427Z" fill="#212E3B"/>
<path d="M70.4345 29.9318C70.4265 28.1856 69.7066 26.5133 68.4316 25.2782C67.9399 24.8495 67.3649 24.5202 66.7401 24.3093C66.1153 24.0984 65.4533 24.0102 64.7929 24.0501C62.9354 24.1152 61.1563 24.7909 59.7485 25.9658C58.3407 27.1407 57.3883 28.7447 57.0482 30.5137C57.0485 31.2126 57.1934 31.9043 57.4744 32.5481C57.7553 33.192 58.1666 33.7751 58.6839 34.2626C59.3028 34.8105 60.0304 35.2303 60.8224 35.497C61.6144 35.7637 62.4542 35.8716 63.2907 35.8138C65.4058 35.7185 67.4019 34.839 68.8655 33.3577C69.7758 32.5 70.3333 31.3516 70.4345 30.1259L70.4345 29.9318ZM66.8292 31.1275C66.1031 31.8167 65.2239 32.3366 64.2588 32.6468C62.5563 33.1638 61.3211 33.5193 60.086 30.6107C59.9451 30.3401 59.8717 30.0412 59.8717 29.7381C59.8717 29.435 59.9451 29.1361 60.086 28.8654C60.7476 27.7125 62.9499 27.3847 63.8343 27.2531C63.8424 27.2519 63.8503 27.2507 63.8582 27.2495C63.8582 27.2495 66.9627 26.797 67.597 28.8007C67.6741 29.2311 67.6312 29.6739 67.4727 30.0829C67.3143 30.4919 67.0461 30.8523 66.6957 31.1275L66.8292 31.1275Z" fill="#212E3B"/>
<path d="M66.8292 31.1275C66.1031 31.8167 65.2239 32.3366 64.2588 32.6468C62.5563 33.1638 61.3211 33.5193 60.086 30.6107C59.9451 30.3401 59.8717 30.0412 59.8717 29.7381C59.8717 29.435 59.9451 29.1361 60.086 28.8654C60.7476 27.7125 62.9499 27.3847 63.8343 27.2531L63.8582 27.2495C63.8582 27.2495 66.9627 26.797 67.597 28.8007C67.6741 29.2311 67.6312 29.6739 67.4727 30.0829C67.3143 30.4919 67.0461 30.8523 66.6957 31.1275L66.8292 31.1275Z" fill="#212E3B"/>
<path d="M87.1953 43.0305C88.2546 42.7187 88.3276 32.5434 88.1815 26.7255C88.1815 26.2917 83.2503 26.3535 83.2138 26.8464C83.2138 30.9875 83.2138 35.109 83.2138 39.2501C82.9749 40.396 82.9749 41.5536 83.2138 42.7011C83.506 43.3923 86.0264 43.342 87.1953 43.0305Z" fill="#212E3B"/>
<path d="M80.3723 26.1071C79.5011 25.2577 78.9872 24.0998 78.9381 22.8753C78.9621 21.1704 79.6494 19.5445 80.8503 18.3511C81.3715 17.8756 81.9811 17.5104 82.6433 17.2773C83.3056 17.0442 84.0071 16.9478 84.7066 16.9936C88.7541 17.2199 92.6742 20.4193 92.6742 23.4572C92.6754 24.1343 92.5404 24.8046 92.2773 25.4269C92.0143 26.0493 91.6288 26.6107 91.1444 27.0768C90.4833 27.6726 89.7113 28.1283 88.8738 28.4169C88.0364 28.7055 87.1505 28.8213 86.2683 28.7574C84.0369 28.6893 81.9206 27.7378 80.3723 26.1071ZM86.3001 25.784C87.7343 25.784 88.7541 25.784 88.9772 22.5522C89.0491 22.239 89.0431 21.9125 88.9597 21.6022C88.8762 21.2919 88.718 21.0078 88.4992 20.775C88.0192 20.5005 87.4893 20.3271 86.9415 20.266C86.3938 20.2049 85.8395 20.257 85.3122 20.4191C85.3122 20.4191 82.8582 20.8393 82.8582 22.94C82.8582 25.0406 85.0891 25.784 86.3001 25.784Z" fill="#212E3B"/>
<path d="M86.3001 25.784C87.7343 25.784 88.7541 25.784 88.9772 22.5522C89.0491 22.239 89.0431 21.9125 88.9597 21.6022C88.8762 21.2919 88.718 21.0078 88.4992 20.775C88.0192 20.5005 87.4893 20.3271 86.9415 20.266C86.3938 20.2049 85.8395 20.257 85.3122 20.4191C85.3122 20.4191 82.8582 20.8393 82.8582 22.94C82.8582 25.0406 85.0891 25.784 86.3001 25.784Z" fill="#212E3B"/>
<path d="M87.3426 104.179C88.4539 104.334 88.5305 109.472 88.3772 112.411C88.3772 112.63 83.2042 112.608 83.1658 112.359C83.1658 110.268 83.1658 108.186 83.1658 106.095C82.9153 105.517 82.9153 104.932 83.1658 104.352C83.4724 104.003 86.1164 104.023 87.3426 104.179Z" fill="#212E3B"/>
<path d="M79.2878 117.388C79.2959 119.134 80.0157 120.806 81.2908 122.041C81.7824 122.47 82.3575 122.799 82.9823 123.01C83.6071 123.221 84.2691 123.309 84.9295 123.269C86.7869 123.204 88.5661 122.529 89.9738 121.354C91.3816 120.179 92.334 118.575 92.6742 116.806C92.6738 116.107 92.5289 115.415 92.248 114.771C91.967 114.128 91.5558 113.544 91.0384 113.057C90.4196 112.509 89.692 112.089 88.9 111.822C88.1079 111.556 87.2681 111.448 86.4317 111.506C84.3166 111.601 82.3204 112.481 80.8568 113.962C79.9466 114.819 79.3891 115.968 79.2878 117.194L79.2878 117.388ZM82.8931 116.192C83.6193 115.503 84.4985 114.983 85.4636 114.673C87.1661 114.156 88.4012 113.8 89.6364 116.709C89.7773 116.979 89.8507 117.278 89.8507 117.581C89.8507 117.885 89.7773 118.183 89.6364 118.454C88.9748 119.607 86.7725 119.935 85.8881 120.066C85.88 120.068 85.872 120.069 85.8642 120.07C85.8642 120.07 82.7596 120.522 82.1253 118.519C82.0483 118.088 82.0912 117.646 82.2496 117.237C82.408 116.828 82.6763 116.467 83.0267 116.192L82.8931 116.192Z" fill="#212E3B"/>
<path d="M82.8931 116.192C83.6193 115.503 84.4985 114.983 85.4636 114.673C87.1661 114.156 88.4012 113.8 89.6364 116.709C89.7773 116.979 89.8507 117.278 89.8507 117.581C89.8507 117.885 89.7773 118.183 89.6364 118.454C88.9748 119.607 86.7725 119.935 85.8881 120.066L85.8642 120.07C85.8642 120.07 82.7596 120.522 82.1253 118.519C82.0483 118.088 82.0912 117.646 82.2496 117.237C82.408 116.828 82.6763 116.467 83.0267 116.192L82.8931 116.192Z" fill="#212E3B"/>
<path d="M62.9055 104.29C61.7585 104.602 61.6794 114.777 61.8376 120.595C61.8376 121.029 67.177 120.969 67.2165 120.476C67.2165 116.334 67.2165 112.213 67.2165 108.072C67.4752 106.926 67.4752 105.768 67.2165 104.621C66.9001 103.93 64.1711 103.979 62.9055 104.29Z" fill="#212E3B"/>
<path d="M69.35 121.212C70.2213 122.062 70.7351 123.22 70.7842 124.444C70.7602 126.149 70.0729 127.775 68.872 128.968C68.3509 129.444 67.7413 129.809 67.079 130.042C66.4168 130.275 65.7152 130.372 65.0157 130.326C60.9682 130.1 57.0482 126.9 57.0482 123.862C57.0469 123.185 57.1819 122.515 57.445 121.893C57.708 121.27 58.0936 120.709 58.5779 120.243C59.2391 119.647 60.011 119.191 60.8485 118.903C61.6859 118.614 62.5718 118.498 63.4541 118.562C65.6854 118.63 67.8017 119.582 69.35 121.212ZM63.4222 121.536C61.988 121.536 60.9682 121.536 60.7451 124.767C60.6732 125.081 60.6792 125.407 60.7626 125.717C60.8461 126.028 61.0043 126.312 61.2231 126.545C61.7031 126.819 62.233 126.992 62.7808 127.053C63.3285 127.115 63.8828 127.062 64.4102 126.9C64.4102 126.9 66.8642 126.48 66.8642 124.379C66.8642 122.279 64.6333 121.536 63.4222 121.536Z" fill="#212E3B"/>
<path d="M63.4222 121.536C61.988 121.536 60.9682 121.536 60.7451 124.767C60.6732 125.081 60.6792 125.407 60.7626 125.717C60.8461 126.028 61.0043 126.312 61.2231 126.545C61.7031 126.819 62.233 126.992 62.7808 127.053C63.3285 127.115 63.8828 127.062 64.4102 126.9C64.4102 126.9 66.8642 126.48 66.8642 124.379C66.8642 122.279 64.6333 121.536 63.4222 121.536Z" fill="#212E3B"/>
<path d="M119.947 64.8371C121.461 63.037 121.803 54.3774 120.904 54.2068C119.911 54.039 116.459 54.6613 116.211 55.1008C116.211 55.1008 116.874 60.4801 115.519 60.964C112.479 62.0501 106.499 61.4686 106.107 61.5432C105.42 61.6741 104.876 65.0186 104.374 65.2035C103.577 65.497 118.433 66.6373 119.947 64.8371Z" fill="#212E3B"/>
<path d="M117.544 55.7057H118.384C119.876 55.7172 121.607 55.323 122.741 54.2235C123.442 53.4912 124.006 52.5116 124.384 51.52C124.763 50.5284 124.662 49.342 124.654 48.2614C124.677 47.6492 124.585 47.0383 124.384 46.4694C124.184 45.9004 123.879 45.3863 123.491 44.961C122.66 44.2641 121.713 43.7651 120.708 43.4941C119.702 43.2231 118.659 43.1857 117.641 43.3841C116.434 43.3013 115.245 43.7512 114.324 44.6396C113.402 45.5281 112.819 46.7864 112.696 48.1514C112.482 49.0432 112.432 49.9753 112.549 50.89C112.666 51.8047 112.947 52.6824 113.375 53.4687C113.9 54.1427 114.54 54.6885 115.257 55.073C115.974 55.4576 116.752 55.6728 117.544 55.7057ZM117.964 46.1345C118.35 45.9928 118.754 45.9186 119.16 45.9144C119.531 45.9056 119.9 45.9824 120.245 46.1399C120.589 46.2975 120.901 46.5327 121.163 46.8312C121.568 47.3093 121.85 47.9027 121.981 48.5484C122.112 49.1941 122.087 49.8679 121.907 50.4983C121.722 51.162 121.375 51.7523 120.906 52.2003C120.436 52.6484 119.865 52.9357 119.257 53.0287C118.847 53.169 118.417 53.2158 117.992 53.1661C117.566 53.1165 117.153 52.9715 116.778 52.7396C116.402 52.5076 116.07 52.1933 115.802 51.8149C115.535 51.4364 115.336 51.0014 115.217 50.535C115.124 50.0394 115.123 49.5274 115.213 49.0311C115.303 48.5349 115.483 48.0652 115.741 47.6517C115.999 47.2383 116.33 46.89 116.712 46.6288C117.095 46.3677 117.521 46.1994 117.964 46.1345Z" fill="#212E3B"/>
<path d="M117.964 46.1345C118.35 45.9928 118.754 45.9186 119.16 45.9144C119.531 45.9056 119.9 45.9824 120.245 46.1399C120.589 46.2975 120.901 46.5327 121.163 46.8312C121.568 47.3093 121.85 47.9027 121.981 48.5484C122.112 49.1941 122.087 49.8679 121.907 50.4983C121.722 51.162 121.375 51.7523 120.906 52.2003C120.436 52.6484 119.865 52.9357 119.257 53.0287C118.847 53.169 118.417 53.2158 117.992 53.1661C117.566 53.1165 117.153 52.9715 116.778 52.7396C116.402 52.5076 116.07 52.1933 115.802 51.8149C115.535 51.4364 115.336 51.0014 115.217 50.535C115.124 50.0394 115.123 49.5274 115.213 49.0311C115.303 48.5349 115.483 48.0652 115.741 47.6517C115.999 47.2383 116.33 46.89 116.712 46.6288C117.095 46.3677 117.521 46.1994 117.964 46.1345Z" fill="#212E3B"/>
<path d="M28.8009 66.6533C27.2867 64.8531 26.9446 56.1935 27.8439 56.023C28.8362 55.8552 32.2883 56.4774 32.5363 56.917C32.5363 56.917 31.8734 62.2963 33.2283 62.7802C36.2691 63.8662 42.2484 63.2848 42.6405 63.3594C43.3277 63.4902 43.8713 66.8347 44.3736 67.0197C45.1706 67.3131 30.315 68.4535 28.8009 66.6533Z" fill="#212E3B"/>
<path d="M31.2039 57.5218H30.3636C28.8717 57.5333 27.1409 57.1392 26.0064 56.0397C25.3061 55.3073 24.7417 54.3277 24.3632 53.3361C23.9847 52.3445 24.0855 51.1581 24.0938 50.0776C24.0707 49.4653 24.1627 48.8545 24.3632 48.2855C24.5638 47.7166 24.8684 47.2024 25.2572 46.7772C26.0881 46.0802 27.0347 45.5812 28.04 45.3102C29.0453 45.0392 30.0885 45.0018 31.1069 45.2003C32.3139 45.1175 33.5024 45.5673 34.4239 46.4558C35.3454 47.3442 35.9287 48.6025 36.0516 49.9675C36.2654 50.8593 36.3155 51.7915 36.1987 52.7062C36.082 53.6208 35.8007 54.4986 35.3727 55.2849C34.8476 55.9588 34.2075 56.5047 33.4909 56.8892C32.7742 57.2737 31.9962 57.489 31.2039 57.5218ZM30.7838 47.9506C30.3973 47.809 29.9942 47.7348 29.588 47.7306C29.2168 47.7218 28.8475 47.7985 28.5032 47.9561C28.1588 48.1137 27.8464 48.3488 27.5844 48.6474C27.1801 49.1254 26.8974 49.7188 26.7665 50.3645C26.6357 51.0102 26.6611 51.6841 26.8407 52.3145C27.0253 52.9781 27.3727 53.5684 27.842 54.0165C28.3112 54.4645 28.8832 54.7518 29.491 54.8448C29.9005 54.9852 30.3306 55.0319 30.7562 54.9823C31.1817 54.9327 31.5943 54.7877 31.9701 54.5557C32.3458 54.3238 32.6774 54.0095 32.9453 53.631C33.2132 53.2526 33.4121 52.8176 33.5307 52.3512C33.6237 51.8556 33.6252 51.3435 33.5351 50.8473C33.4449 50.351 33.2649 49.8814 33.0068 49.4679C32.7487 49.0544 32.4182 48.7061 32.0355 48.445C31.6529 48.1838 31.2266 48.0155 30.7838 47.9506Z" fill="#212E3B"/>
<path d="M30.7838 47.9506C30.3973 47.809 29.9942 47.7348 29.588 47.7306C29.2168 47.7218 28.8475 47.7985 28.5032 47.9561C28.1588 48.1137 27.8464 48.3488 27.5844 48.6474C27.1801 49.1254 26.8974 49.7188 26.7665 50.3645C26.6357 51.0102 26.6611 51.6841 26.8407 52.3145C27.0253 52.9781 27.3727 53.5684 27.842 54.0165C28.3112 54.4645 28.8832 54.7518 29.491 54.8448C29.9005 54.9852 30.3306 55.0319 30.7562 54.9823C31.1817 54.9327 31.5943 54.7877 31.9701 54.5557C32.3458 54.3238 32.6774 54.0095 32.9453 53.631C33.2132 53.2526 33.4121 52.8176 33.5307 52.3512C33.6237 51.8556 33.6252 51.3435 33.5351 50.8473C33.4449 50.351 33.2649 49.8814 33.0068 49.4679C32.7487 49.0544 32.4182 48.7061 32.0355 48.445C31.6529 48.1838 31.2266 48.0155 30.7838 47.9506Z" fill="#212E3B"/>
<path d="M119.947 77.4019C121.461 79.2021 121.803 87.8616 120.904 88.0322C119.911 88.2 116.459 87.5777 116.211 87.1382C116.211 87.1382 116.874 81.7589 115.519 81.275C112.479 80.189 106.499 80.7704 106.107 80.6958C105.42 80.5649 104.876 77.2204 104.374 77.0355C103.577 76.7421 118.433 75.6017 119.947 77.4019Z" fill="#212E3B"/>
<path d="M117.544 86.5333H118.384C119.876 86.5219 121.607 86.916 122.741 88.0155C123.442 88.7479 124.006 89.7274 124.384 90.719C124.763 91.7107 124.662 92.897 124.654 93.9776C124.677 94.5899 124.585 95.2007 124.384 95.7696C124.184 96.3386 123.879 96.8527 123.491 97.278C122.66 97.975 121.713 98.474 120.708 98.7449C119.702 99.0159 118.659 99.0533 117.641 98.8549C116.434 98.9377 115.245 98.4878 114.324 97.5994C113.402 96.7109 112.819 95.4527 112.696 94.0876C112.482 93.1958 112.432 92.2637 112.549 91.349C112.666 90.4343 112.947 89.5566 113.375 88.7703C113.9 88.0963 114.54 87.5505 115.257 87.166C115.974 86.7814 116.752 86.5662 117.544 86.5333ZM117.964 96.1045C118.35 96.2462 118.754 96.3204 119.16 96.3246C119.531 96.3334 119.9 96.2566 120.245 96.0991C120.589 95.9415 120.901 95.7063 121.163 95.4078C121.568 94.9298 121.85 94.3363 121.981 93.6907C122.112 93.045 122.087 92.3711 121.907 91.7407C121.722 91.0771 121.375 90.4867 120.906 90.0387C120.436 89.5906 119.865 89.3033 119.257 89.2104C118.847 89.07 118.417 89.0232 117.992 89.0729C117.566 89.1225 117.153 89.2675 116.778 89.4995C116.402 89.7314 116.07 90.0457 115.802 90.4241C115.535 90.8026 115.336 91.2376 115.217 91.704C115.124 92.1996 115.123 92.7116 115.213 93.2079C115.303 93.7041 115.483 94.1738 115.741 94.5873C115.999 95.0008 116.33 95.349 116.712 95.6102C117.095 95.8713 117.521 96.0396 117.964 96.1045Z" fill="#212E3B"/>
<path d="M117.964 96.1045C118.35 96.2462 118.754 96.3204 119.16 96.3246C119.531 96.3334 119.9 96.2566 120.245 96.0991C120.589 95.9415 120.901 95.7063 121.163 95.4078C121.568 94.9298 121.85 94.3363 121.981 93.6907C122.112 93.045 122.087 92.3711 121.907 91.7407C121.722 91.0771 121.375 90.4867 120.906 90.0387C120.436 89.5906 119.865 89.3033 119.257 89.2104C118.847 89.07 118.417 89.0232 117.992 89.0729C117.566 89.1225 117.153 89.2675 116.778 89.4995C116.402 89.7314 116.07 90.0457 115.802 90.4241C115.535 90.8026 115.336 91.2376 115.217 91.704C115.124 92.1996 115.123 92.7116 115.213 93.2079C115.303 93.7041 115.483 94.1738 115.741 94.5873C115.999 95.0008 116.33 95.349 116.712 95.6102C117.095 95.8713 117.521 96.0396 117.964 96.1045Z" fill="#212E3B"/>
<path d="M28.8009 79.218C27.2867 81.0182 26.9446 89.6778 27.8439 89.8484C28.8362 90.0162 32.2883 89.3939 32.5363 88.9543C32.5363 88.9543 31.8734 83.575 33.2283 83.0911C36.2691 82.0051 42.2484 82.5866 42.6405 82.5119C43.3277 82.3811 43.8713 79.0366 44.3736 78.8517C45.1706 78.5582 30.315 77.4178 28.8009 79.218Z" fill="#212E3B"/>
<path d="M31.2039 88.3495H30.3636C28.8717 88.338 27.1409 88.7322 26.0064 89.8317C25.3061 90.564 24.7417 91.5436 24.3632 92.5352C23.9847 93.5268 24.0855 94.7132 24.0938 95.7938C24.0707 96.406 24.1627 97.0168 24.3632 97.5858C24.5638 98.1548 24.8684 98.6689 25.2572 99.0942C26.0881 99.7911 27.0347 100.29 28.04 100.561C29.0453 100.832 30.0885 100.869 31.1069 100.671C32.3139 100.754 33.5024 100.304 34.4239 99.4156C35.3454 98.5271 35.9287 97.2688 36.0516 95.9038C36.2654 95.012 36.3155 94.0799 36.1987 93.1652C36.082 92.2505 35.8007 91.3728 35.3727 90.5865C34.8476 89.9125 34.2075 89.3667 33.4909 88.9821C32.7742 88.5976 31.9962 88.3824 31.2039 88.3495ZM30.7838 97.9207C30.3973 98.0624 29.9942 98.1366 29.588 98.1407C29.2168 98.1495 28.8475 98.0728 28.5032 97.9152C28.1588 97.7577 27.8464 97.5225 27.5844 97.224C27.1801 96.7459 26.8974 96.1525 26.7665 95.5068C26.6357 94.8611 26.6611 94.1873 26.8407 93.5568C27.0253 92.8932 27.3727 92.3029 27.842 91.8549C28.3112 91.4068 28.8832 91.1195 29.491 91.0265C29.9005 90.8861 30.3306 90.8394 30.7562 90.889C31.1817 90.9387 31.5943 91.0836 31.9701 91.3156C32.3458 91.5476 32.6774 91.8619 32.9453 92.2403C33.2132 92.6187 33.4121 93.0538 33.5307 93.5202C33.6237 94.0157 33.6252 94.5278 33.5351 95.0241C33.4449 95.5203 33.2649 95.99 33.0068 96.4035C32.7487 96.8169 32.4182 97.1652 32.0355 97.4264C31.6529 97.6875 31.2266 97.8558 30.7838 97.9207Z" fill="#212E3B"/>
<path d="M30.7838 97.9207C30.3973 98.0624 29.9942 98.1366 29.588 98.1407C29.2168 98.1495 28.8475 98.0728 28.5032 97.9152C28.1588 97.7577 27.8464 97.5225 27.5844 97.224C27.1801 96.7459 26.8974 96.1525 26.7665 95.5068C26.6357 94.8611 26.6611 94.1873 26.8407 93.5568C27.0253 92.8932 27.3727 92.3029 27.842 91.8549C28.3112 91.4068 28.8832 91.1195 29.491 91.0265C29.9005 90.8861 30.3306 90.8394 30.7562 90.889C31.1817 90.9387 31.5943 91.0836 31.9701 91.3156C32.3458 91.5476 32.6774 91.8619 32.9453 92.2403C33.2132 92.6187 33.4121 93.0538 33.5307 93.5202C33.6237 94.0157 33.6252 94.5278 33.5351 95.0241C33.4449 95.5203 33.2649 95.99 33.0068 96.4035C32.7487 96.8169 32.4182 97.1652 32.0355 97.4264C31.6529 97.6875 31.2266 97.8558 30.7838 97.9207Z" fill="#212E3B"/>
</svg>
