<svg width="144" height="144" viewBox="0 0 144 144" fill="none" xmlns="http://www.w3.org/2000/svg">
<path fill-rule="evenodd" clip-rule="evenodd" d="M47.9388 41.8734L47.9389 41.8734C52.3646 38.8849 56.6199 36.0116 60.197 33.8016C62.2173 32.6554 64.355 31.7301 66.5734 31.0416C69.2364 31.8072 71.759 32.9962 74.0444 34.563C77.0423 36.7043 80.3257 38.7029 83.5616 40.6064C85.3572 41.6766 87.1469 42.7558 88.9366 43.835L88.937 43.8352C94.3089 47.0744 99.6809 50.3136 105.213 53.3118C106.736 54.1208 109.591 49.0291 108.068 47.9346C105.236 45.9378 102.446 43.9409 99.6713 41.9554L99.6665 41.952L99.6662 41.9517C93.1199 37.2669 86.6615 32.6449 79.945 28.2341C76.1065 25.4257 71.7594 23.3894 67.1447 22.2382C63.1427 22.9858 59.3559 24.6109 56.0571 26.9968C55.4171 27.601 54.6964 28.1134 53.9156 28.5196V24.1893C53.6301 18.4789 52.964 16.8265 47.3964 17.6831C46.8958 17.7529 45.9649 17.8313 44.8416 17.926C41.3739 18.218 36.0718 18.6646 35.928 19.4913C35.4571 23.1889 35.6227 27.4546 35.7803 31.5106V31.5106V31.5106V31.5106C35.8486 33.2709 35.9155 34.9916 35.928 36.6092C35.928 37.5133 39.9255 33.8016 40.0207 32.7547C40.2093 30.5542 40.1487 28.3537 40.0858 26.071V26.0709V26.0708V26.0707C40.0535 24.898 40.0207 23.7035 40.0207 22.4762L48.6337 21.6672C49.1398 24.7173 49.3629 27.8077 49.3 30.8989C47.3155 32.645 45.1995 34.2359 42.971 35.6574C39.2647 37.5713 33.9875 41.7156 29.2442 45.4405C26.5576 47.5503 24.0422 49.5256 22.0807 50.8849C20.5579 52.027 25.507 55.9291 28.1242 54.5015C33.8956 51.356 41.1196 46.4781 47.9388 41.8734ZM123.296 121.217V120.027L122.915 119.694C121.964 118.885 119.108 118.79 109.686 119.409H107.164C106.244 109.907 106.356 100.334 107.498 90.857C109.075 90.6282 110.663 90.4852 112.256 90.4287L112.299 90.4264C116.694 90.1902 118.538 90.091 118.823 88.668V88.097C119.035 87.6175 119.145 87.0988 119.145 86.5743C119.145 86.0498 119.035 85.5311 118.823 85.0515C118.658 84.8022 118.44 84.5921 118.185 84.4359C117.931 84.2797 117.645 84.1812 117.348 84.1474C113.156 84.0289 108.967 84.4447 104.88 85.3846C103.484 85.8492 102.324 86.8391 101.645 88.1446C101.261 87.3995 100.798 86.6975 100.264 86.0508C99.2541 84.4303 97.8536 83.089 96.1909 82.1496C94.5283 81.2102 92.6566 80.7027 90.7472 80.6736H65.2412C63.8838 80.5808 62.526 80.8489 61.3057 81.4507C60.0855 82.0524 59.0463 82.9664 58.2936 84.0998C57.7645 85.426 57.5958 86.8686 57.8048 88.2811C58.0137 89.6936 58.5928 91.0256 59.4832 92.1418L60.7681 93.9501H59.6737C57.914 93.6799 56.2654 92.9215 54.9151 91.7611L53.8681 91.0949C52.5978 90.2155 51.3777 89.311 50.1499 88.4007C48.9859 87.5378 47.8149 86.6697 46.5876 85.8129C43.3518 83.386 39.9732 81.0543 36.4518 78.675C33.2899 76.9895 29.7561 76.1224 26.1731 76.153C22.6993 76.153 21.4145 77.5329 20.7959 78.3895C20.1772 79.246 19.8444 81.2446 21.9382 84.195L22.5565 85.0991L22.6243 85.1935C30.1263 95.6394 38.6296 107.48 50.7276 112.509C66.193 118.933 83.3713 119.646 99.6457 119.742L99.9312 120.455C100.148 121.351 100.577 122.182 101.181 122.877C101.786 123.573 102.549 124.113 103.405 124.453C106.744 125.576 110.258 126.091 113.779 125.975C116.181 126.031 118.58 125.775 120.917 125.214C121.744 124.969 122.448 124.422 122.889 123.681C123.33 122.94 123.475 122.06 123.296 121.217ZM93.1741 87.3832C98.1879 94.9345 100.301 104.045 99.1223 113.032C95.1459 112.173 91.1273 111.522 87.083 111.081C86.5136 111.002 85.939 110.924 85.3596 110.846C82.4522 110.452 79.4237 110.042 76.3288 109.368C72.6909 108.708 69.0222 108.232 65.3365 107.94L59.1501 107.274H57.9604C56.3152 107.205 54.699 106.818 53.2018 106.132C43.2794 99.6181 34.541 91.459 27.3627 82.006C28.6577 81.6823 30.6269 82.8868 32.3093 83.9158L32.4545 84.0046H32.74C36.6779 86.5055 40.4748 89.2221 44.1131 92.1418L46.4447 93.9977C51.2033 97.9473 56.3901 102.04 63.6232 100.041C66.4014 99.224 69.2956 98.8703 72.1889 98.9942C74.3971 99.2317 76.6304 99.0213 78.7554 98.3756L80.7066 97.8521L79.2315 96.4245C77.0587 94.5197 74.4118 93.2373 71.5702 92.7128L71.5601 92.7099C67.6623 91.5691 64.2407 90.5676 62.8619 86.0984H68.0486H91.3182C92.0728 86.286 92.7329 86.743 93.1741 87.3832ZM33.9611 75.7644C33.5055 75.2386 33.2573 74.5646 33.2635 73.8689C33.2635 69.3007 33.5014 64.6849 33.8821 60.1642V57.4994C33.9273 57.0564 33.9273 56.61 33.8821 56.167C33.7338 55.5563 33.708 54.9223 33.806 54.3016C33.904 53.6809 34.1239 53.0857 34.4531 52.5505C34.6272 52.36 34.8411 52.2101 35.0796 52.1114C35.3181 52.0127 35.5755 51.9677 35.8333 51.9794C37.0705 51.9794 39.307 51.9794 39.307 54.6442V55.1677C39.3509 56.2644 39.4655 58.4732 39.5997 61.0579L39.5997 61.0584L39.5997 61.0586L39.5998 61.0591C39.7567 64.0816 39.9403 67.6177 40.0685 70.4903C40.1572 71.7246 40.0283 72.9648 39.6878 74.1545C39.4558 74.8956 38.9944 75.544 38.37 76.0058C37.7456 76.4677 36.9907 76.7192 36.2141 76.7241H35.738C35.0485 76.6314 34.4168 76.2901 33.9611 75.7644ZM95.4105 54.6918C95.4105 52.027 93.1741 52.027 91.9369 52.027C89.6051 52.027 89.5099 55.4532 89.4623 57.9752V58.7842V69.3482V73.8689C89.4518 74.3657 89.5856 74.8548 89.8474 75.2771C90.1092 75.6994 90.4882 76.0367 90.9377 76.2482C91.4668 76.5196 92.0566 76.6507 92.6508 76.6289C93.3907 76.6574 94.1215 76.4581 94.7446 76.0579C95.0131 75.8866 95.23 75.6456 95.3725 75.3607C95.515 75.0758 95.5776 74.7576 95.5534 74.4399V63.5428C95.5534 59.2124 95.4581 55.4532 95.4105 54.6918ZM113.658 106.189C114.216 106.148 114.776 106.226 115.302 106.418L114.826 107.512L115.492 106.465C116.21 106.658 116.847 107.077 117.31 107.659C117.773 108.242 118.036 108.958 118.061 109.701C118.073 110.222 117.978 110.74 117.782 111.223C117.586 111.706 117.292 112.144 116.919 112.509C116.282 113.047 115.47 113.335 114.635 113.318H114.255C113.76 113.261 113.282 113.105 112.849 112.86C112.415 112.615 112.036 112.285 111.733 111.89C111.008 110.939 110.668 109.749 110.781 108.559C110.821 108.16 110.96 107.778 111.184 107.446C111.408 107.113 111.711 106.842 112.066 106.655C112.557 106.389 113.1 106.23 113.658 106.189Z" fill="#212E3B"/>
</svg>
