<svg width="144" height="144" viewBox="0 0 144 144" fill="none" xmlns="http://www.w3.org/2000/svg">
<path fill-rule="evenodd" clip-rule="evenodd" d="M38.9895 125.787C38.9895 125.787 19.1954 128.889 19.1954 111.152C19.0138 105.975 19.105 100.524 19.1959 95.1016C19.2864 89.6974 19.3765 84.3209 19.1954 79.2697C19.1954 75.6 18.8978 72.1292 18.5997 68.654C18.3145 65.3281 18.0289 61.9983 18.0036 58.4864C17.9518 51.3047 18.47 42.5452 19.1954 34.6562C20.3354 22.1971 26.1389 18.3342 37.6423 18.3342C43.3077 18.3342 48.973 18.2496 54.6384 18.1649C65.969 17.9957 77.2997 17.8264 88.6304 18.3342C97.8812 18.6124 107.067 20.0555 115.99 22.6323C117.865 23.6202 119.51 25.0292 120.808 26.7592C122.107 28.4893 123.027 30.498 123.503 32.6432C124.491 39.8495 124.942 47.1259 124.851 54.4058C125.317 64.1447 126.094 83.5679 125.991 83.6223V110.826C125.93 114.416 124.576 117.849 122.201 120.434C119.826 123.018 116.607 124.562 113.192 124.754C101.811 125.141 90.4706 125.184 79.0987 125.227C77.682 125.232 76.2648 125.237 74.847 125.243L38.9895 125.787ZM104.396 75.3797H104.396C106.326 75.3797 108.528 75.3797 110.238 75.2436C110.935 75.1882 111.755 75.1373 112.621 75.0835L112.621 75.0835C116.003 74.8734 120.084 74.6198 120.291 73.8835C120.444 73.3365 120.307 71.3432 120.148 69.0291V69.029C120.039 67.4303 119.919 65.6785 119.876 64.1447C119.876 59.7021 119.6 55.2595 119.323 50.8081L119.323 50.8079C119.091 47.0822 118.859 43.3503 118.788 39.6072C118.529 28.1818 111.482 26.2232 100.445 25.9511C89.8946 25.6905 79.363 25.3713 68.8277 25.052L68.8276 25.052C61.7699 24.8381 54.7106 24.6242 47.643 24.4277C46.4167 24.4277 45.1846 24.4882 43.9525 24.5486L43.9525 24.5486C41.4883 24.6695 39.0241 24.7904 36.606 24.4277C26.2426 23.394 23.4962 29.8684 23.7553 40.7497C23.9443 48.6904 24.5198 57.0657 25.0989 65.4951L25.0989 65.4951C25.3133 68.6167 25.5283 71.7457 25.7244 74.8628C28.1455 75.0535 31.6193 74.8729 35.0048 74.697H35.0049C40.3143 74.4211 45.4066 74.1564 45.8812 75.3524C47.8503 80.4667 43.394 82.3709 39.0932 82.2077C36.2705 82.1006 33.4702 82.1341 30.4871 82.1697H30.4863C28.9243 82.1884 27.3123 82.2077 25.6207 82.2077C25.4903 84.6867 25.3964 87.2381 25.3016 89.8141C25.0572 96.4534 24.8067 103.257 23.9107 109.411C23.1814 114.628 26.6226 115.592 29.8246 116.49L29.8252 116.49C30.2628 116.613 30.696 116.734 31.1134 116.865C34.8959 117.805 38.7871 118.171 42.6686 117.953H88.3713C94.6412 117.953 100.911 117.953 107.181 117.572C116.767 116.865 119.928 113.981 119.824 104.134V90.6951C120.199 88.4142 120.304 86.0934 120.135 83.7855C117.173 83.2821 114.167 83.1179 111.171 83.2959C109.92 83.2959 107.99 83.1175 106.2 82.9522C105.025 82.8436 103.909 82.7405 103.087 82.6974C98.7348 82.643 99.4084 76.0053 100.445 75.6789L100.186 75.5157C100.807 75.3797 102.466 75.3797 104.396 75.3797ZM73.5001 97.6049C59.095 97.6049 51.996 90.3144 51.7369 75.0805C51.7369 64.58 61.4785 55.1677 73.0856 54.8412C81.9463 54.5692 93.8125 67.4092 93.1907 78.0729C92.9884 83.3838 90.8149 88.4008 87.1352 92.0509C83.4555 95.701 78.5616 97.6944 73.5001 97.6049ZM58.7841 75.8422C58.7841 85.7987 63.6031 88.4102 72.7229 88.3557C81.8427 88.3013 86.8689 82.5342 86.6617 75.7878C86.1066 71.6898 84.0552 67.9792 80.9414 65.4408C77.8275 62.9024 73.8954 61.7352 69.9766 62.1861C68.3869 62.3233 66.8386 62.7884 65.4204 63.5548C64.0022 64.3213 62.7419 65.374 61.7118 66.6527C60.6818 67.9313 59.9021 69.4108 59.4175 71.0064C58.9329 72.602 58.7528 74.2823 58.8877 75.951L58.7841 75.8422ZM90.3926 43.0342C95.7264 44.6641 101.343 44.9989 106.819 44.0135C108.529 42.6534 108.943 36.0702 106.871 35.0908C102.202 33.8469 97.372 33.4059 92.5689 33.785C90.3926 34.0027 88.4754 41.3476 90.3926 43.0342Z" fill="#212E3B"/>
</svg>
