<svg width="144" height="144" viewBox="0 0 144 144" fill="none" xmlns="http://www.w3.org/2000/svg">
<path fill-rule="evenodd" clip-rule="evenodd" d="M125.886 68.928C125.83 62.9908 125.773 57.0571 125.773 51.1284C125.697 51.1094 125.605 48.6138 125.477 45.1585C125.297 40.2682 125.045 33.4554 124.667 29.0208C124.021 21.4528 119.087 19.1137 110.601 18.2881C103.566 17.8982 96.5148 17.8982 89.4797 18.2881C86.0339 18.3462 82.5962 18.4696 79.1633 18.593C74.4642 18.7617 69.774 18.9302 65.0839 18.9302C61.2408 18.9302 57.3927 18.8589 53.5445 18.7875C45.8481 18.6448 38.1518 18.5021 30.4964 18.9302C28.5952 19.2269 26.7983 19.9904 25.2684 21.1517C23.7384 22.3129 22.524 23.8352 21.7345 25.5808C19.7454 35.9326 18.5582 46.421 18.1834 56.9535C17.9021 67.3363 18.0021 79.9734 18.0958 91.8091C18.1403 97.4365 18.1834 102.883 18.1834 107.819C18.1834 116.947 21.9188 124.239 34.2319 125.845C37.5145 125.865 40.7952 125.681 44.0547 125.294C49.3394 125.307 54.6307 125.27 59.925 125.233C74.4048 125.131 88.9076 125.03 103.361 125.937C119.087 126.9 125.358 115.938 125.773 104.609C126.112 92.7106 125.999 80.8125 125.886 68.9281V68.928V68.928ZM93.9095 117.929L93.9086 117.929C86.2737 118.126 79.1035 118.311 79.1035 118.139C70.4071 118.139 61.6508 118.258 52.8688 118.378L52.8672 118.378L52.8648 118.378L52.8624 118.378C46.2316 118.468 39.5862 118.558 32.9408 118.598C23.9577 118.837 24.3208 109.365 24.5682 102.909C24.6053 101.941 24.6398 101.041 24.6398 100.251V74.4286C24.5343 66.4484 24.6167 63.3026 24.7641 57.6742C24.8099 55.9268 24.8619 53.9402 24.9165 51.4953C25.0721 46.0789 25.7855 40.6298 26.5032 35.148C26.6363 34.1311 26.7696 33.113 26.8995 32.0938C27.7296 25.5808 29.0668 23.7462 33.6785 23.7462C40.124 23.869 46.5603 24.2206 52.9956 24.572C60.972 25.0077 68.9469 25.4432 76.9359 25.4432C85.6435 25.4035 94.3423 24.8829 102.992 23.8838C110.048 23.1958 118.625 23.3334 119.271 31.5893C119.868 37.8113 119.651 45.9729 119.452 53.4442V53.4446C119.36 56.9333 119.271 60.2714 119.271 63.1913C119.294 70.0878 119.617 76.6411 119.94 83.1884L119.94 83.1887L119.94 83.1891C120.274 89.966 120.608 96.7365 120.608 103.875C120.77 105.722 120.523 107.583 119.885 109.325C119.247 111.068 118.234 112.65 116.915 113.961C115.597 115.273 114.006 116.281 112.253 116.916C110.501 117.55 108.631 117.796 106.773 117.635C103.301 117.687 98.521 117.81 93.9104 117.929L93.9098 117.929H93.9095ZM83.1847 59.8917C81.4172 60.3573 79.6235 60.8298 77.8118 61.173C78.5016 56.7518 68.5558 57.683 64.4063 58.0715H64.4063C63.5622 58.1506 62.958 58.2071 62.7319 58.1916C59.1258 57.9967 59.1842 59.823 59.2829 62.9101C59.3004 63.4551 59.319 64.0394 59.319 64.6588C59.4919 76.2634 60.2724 91.9761 60.8632 103.871L60.8633 103.872L60.9795 106.214C60.7756 109.256 69.7673 108.711 72.5205 108.544C72.8808 108.522 73.1343 108.507 73.2463 108.507C78.7354 108.786 78.6898 107.334 78.5834 103.94C78.5673 103.428 78.5499 102.871 78.5499 102.269C78.5499 100.083 78.514 97.8967 78.4781 95.7104C78.4064 91.3378 78.3347 86.9652 78.5499 82.5926C78.596 81.4459 78.9649 77.7766 81.7319 76.8593C82.7434 76.5479 83.8318 76.5922 84.8143 76.9848C85.7969 77.3773 86.6136 78.0942 87.1275 79.015C88.1419 80.345 88.1419 84.6555 88.1419 86.6281V86.6288C88.2803 88.3717 88.2803 90.1146 88.2803 91.8576V91.8579C88.2803 93.6007 88.2803 95.3435 88.4186 97.0864C88.5891 99.1562 88.6981 100.922 88.7911 102.427L88.7911 102.428C89.0651 106.865 89.1995 109.042 90.3561 110.082C91.47 111.084 93.5319 111.032 97.5796 110.93C99.0894 110.891 100.875 110.846 102.992 110.846C102.997 110.846 103.005 110.847 103.017 110.848L103.064 110.851C103.725 110.905 108.387 111.286 108.387 106.948C108.387 105.618 108.018 90.8485 107.788 87.271C107.951 83.0036 107.673 78.7309 106.958 74.5201C105.113 67.5484 102.899 59.5218 94.414 58.3751C90.8593 57.8701 87.0861 58.864 83.1847 59.8917ZM73.5692 102.911C70.9793 103.859 68.1349 103.859 65.545 102.911C64.8168 102.354 64.2586 92.6449 63.6433 81.9409L63.6433 81.9405C63.2455 75.0198 62.8238 67.6833 62.3167 62.1362C65.9243 61.0437 69.7773 61.0437 73.3848 62.1362C73.9483 62.4831 73.9809 63.0007 74.0277 63.7434C74.0614 64.2772 74.1024 64.9273 74.3531 65.7137C76.3469 65.8619 78.3508 65.6284 80.2562 65.0257C90.3096 61.8151 94.5524 62.5031 98.1956 65.8972C100.27 68.0615 101.496 70.8923 101.654 73.878C101.747 76.0352 101.88 78.7286 102.022 81.6211L102.022 81.6242L102.022 81.6287C102.514 91.6492 103.123 104.055 102.623 104.838C102.091 105.669 96.6515 105.287 94.36 105.126L94.3595 105.126C93.868 105.091 93.5214 105.067 93.3993 105.067C93.0986 99.7661 93.0986 94.4525 93.3993 89.1515C93.4357 86.1973 93.1731 83.247 92.6154 80.3451C91.2319 74.3366 87.8191 71.5846 82.9769 71.9974C80.5236 72.272 78.263 73.4512 76.6409 75.3022C75.0188 77.1532 74.1533 79.5417 74.2149 81.9963C73.9382 86.5371 73.5692 98.3248 73.5692 102.911ZM36.9526 60.944C42.5326 60.2058 48.1777 60.0828 53.7849 60.5771C54.8648 60.5771 54.8321 62.6407 54.8037 64.4254C54.7969 64.8508 54.7904 65.2603 54.7993 65.6223C55.0454 72.1692 54.9632 78.7161 54.8812 85.2493C54.8402 88.5109 54.7993 91.769 54.7993 95.0221V106.213C54.8811 107.083 54.8811 107.958 54.7993 108.828C49.2976 109.355 43.7653 109.493 38.2439 109.24C37.1833 109.24 37.1369 106.626 37.1369 104.654C36.6758 90.4355 36.1225 61.632 36.9526 60.944ZM50.7873 105.204V74.7495C50.7873 72.7722 50.9376 70.958 51.0647 69.4245V69.4245C51.2677 66.9742 51.4113 65.241 50.7873 64.705C47.5113 63.9074 44.1063 63.7826 40.7802 64.3381C40.4574 64.9343 41.0568 91.3987 41.8408 104.562C43.048 104.562 44.461 104.713 45.9171 104.868L45.9173 104.869C47.4649 105.034 49.0612 105.204 50.5106 105.204H50.7873ZM38.2983 37.6034C36.4569 39.608 35.307 42.145 35.0161 44.8448C35.2893 47.7208 36.623 50.3944 38.7602 52.3507C40.8974 54.3069 43.6868 55.4073 46.5912 55.4398C49.0798 54.9168 51.3556 53.6694 53.1294 51.8562C54.9032 50.0431 56.0946 47.7461 56.552 45.2576C56.4138 42.2908 55.1882 39.4771 53.1066 37.3476C51.025 35.2182 48.2315 33.9205 45.2536 33.6995C42.5764 34.231 40.1397 35.5987 38.2983 37.6034ZM40.536 40.6763C41.2731 39.5182 42.3837 38.6432 43.6859 38.1943C44.6927 37.7558 45.7951 37.5802 46.8893 37.6841C47.9834 37.788 49.0329 38.1679 49.9381 38.788C50.8433 39.408 51.5742 40.2477 52.0618 41.2274C52.5494 42.2071 52.7774 43.2943 52.7244 44.3862C51.2025 48.9268 50.4186 50.8074 45.807 51.3577C41.1954 51.9081 39.6277 45.9915 39.6277 44.5696C39.4786 43.207 39.7988 41.8344 40.536 40.6763Z" fill="#212E3B"/>
</svg>
