<svg width="144" height="144" viewBox="0 0 144 144" fill="none" xmlns="http://www.w3.org/2000/svg">
<path fill-rule="evenodd" clip-rule="evenodd" d="M19.5753 65.5822C19.537 71.965 19.5019 77.8236 19.8015 84.3062C20.0259 88.2402 19.9214 91.4305 19.8307 94.1977C19.5866 101.647 19.443 106.03 26.0891 113.6C27.4812 115.154 28.5059 116.571 29.4285 117.848C32.9633 122.739 34.9985 125.555 50.4599 125.98C55.724 126.517 94.7174 126.37 111.631 125.98C123.378 125.493 125.815 123.105 125.035 111.358C123.914 94.7369 124.206 78.1647 124.742 61.4951C125.447 39.0803 122.053 36.8371 117.581 33.881C117.104 33.5652 116.614 33.2412 116.115 32.8837C110.741 28.9884 107.663 25.9994 105.355 23.7581C99.9815 18.5394 98.782 17.3746 82.4833 18.2611C72.4235 18.8028 62.391 19.7131 52.357 20.6234C43.4304 21.4334 34.5025 22.2434 25.553 22.7941C21.1662 23.0378 20.3374 24.9875 19.2163 28.4481C18.8509 35.2707 18.9486 42.1103 19.5088 48.9197C19.6378 55.1773 19.6056 60.5431 19.5753 65.5822ZM42.8337 46.6298C39.5885 46.6689 38.1223 47.8562 37.7869 51.2106V66.3205C37.9147 73.6042 37.8005 80.1063 37.6884 86.4935C37.5439 94.7241 37.4027 102.764 37.7869 112.04C37.7869 117.792 40.9066 119.352 46.8043 119.157C50.7378 119.026 55.2999 119.07 59.8546 119.113C62.1292 119.135 64.4019 119.157 66.5934 119.157C80.7773 119.157 109.145 118.133 109.145 118.133C109.145 118.133 122.598 118.718 120.209 107.946V107.41C119.906 104.786 119.537 102.163 119.167 99.5395C118.35 93.7306 117.532 87.9217 117.431 82.1128C117.431 77.5503 117.3 73.1501 117.169 68.783C116.972 62.1865 116.777 55.6652 117.041 48.7735C117.041 48.3384 117.05 47.9186 117.06 47.5172C117.125 44.6363 117.168 42.7046 113.532 42.8757C95.2372 43.9948 47.8493 46.8138 42.8337 46.6298ZM35.7398 39.6588C31.8533 36.8571 29.1578 32.7007 28.1849 28.0095C29.0623 26.6447 34.7163 26.6935 39.1518 26.7909C49.6057 27.1963 57.4445 26.1566 65.7755 25.0516C71.4671 24.2966 77.3885 23.5112 84.5304 23.1353C85.5205 23.0793 86.4379 23.0186 87.2941 22.962C97.6068 22.2805 99.0368 22.186 111.728 37.7578C108.225 37.9659 104.784 38.1802 101.385 38.3918C95.2294 38.7751 89.2117 39.1498 83.2142 39.4638C77.9608 39.7488 71.7887 40.2381 65.462 40.7396C56.6441 41.4385 47.5258 42.1612 40.1755 42.3883C38.5629 42.4219 37.946 41.784 37.1117 40.9214C36.7357 40.5325 36.3154 40.098 35.7398 39.6588ZM62.3041 102.877L64.1563 75.5814L65.6673 75.2889C68.4316 79.6137 70.1151 82.5824 71.7251 85.4215C73.6354 88.79 75.4421 91.976 78.8276 97.0278C80.7679 100.211 83.0744 103.155 85.7001 105.801C89.4532 109.798 98.4704 112.089 98.4704 106.532C98.494 99.3276 98.7352 91.6762 98.9775 83.989C99.2351 75.8146 99.4941 67.5997 99.4941 59.8378C99.9883 59.6925 100.712 59.7075 101.502 59.7239C103.36 59.7626 105.581 59.8087 106.025 57.7907C102.894 56.2437 99.4141 55.5381 95.9274 55.7432C92.4407 55.9483 89.0673 57.057 86.1389 58.9605C85.9301 61.0835 88.3057 60.9202 90.125 60.7952C90.8537 60.7451 91.4931 60.7012 91.8416 60.8127C91.8416 70.8047 91.6955 93.8596 91.0618 93.8596C86.6751 86.1096 80.9234 74.899 76.9266 67.0029C75.7258 64.7078 74.0569 62.6901 72.0277 61.0801C69.9986 59.4701 67.6543 58.3035 65.1464 57.6559C62.6384 57.0082 60.0226 56.8938 57.4677 57.32C54.9128 57.7462 52.4755 58.7036 50.3135 60.1303C51.11 61.6735 52.4658 62.0855 53.602 62.4307C54.6907 62.7615 55.5777 63.031 55.5777 64.1758C55.8701 76.702 55.8701 91.3726 55.8701 103.753V103.754L49.7286 105.996C49.2069 106.103 48.7453 106.404 48.4375 106.838C48.1297 107.273 47.9989 107.808 48.0716 108.336C55.7258 108.528 63.3696 107.659 70.7851 105.753C69.1955 103.621 67.0704 103.418 64.7669 103.197C63.9626 103.12 63.1366 103.041 62.3041 102.877Z" fill="#212E3B"/>
</svg>
