<svg width="144" height="144" viewBox="0 0 144 144" fill="none" xmlns="http://www.w3.org/2000/svg">
<mask id="path-1-outside-1_7220_5067" maskUnits="userSpaceOnUse" x="17" y="18.9913" width="110" height="107" fill="black">
<rect fill="white" x="17" y="18.9913" width="110" height="107"/>
<path d="M77.6332 77.5774C75.8264 78.8586 74.4911 79.9541 73.2762 80.9508C71.6981 82.2454 70.3232 83.3734 68.3816 84.5255C68.1278 84.6778 67.8225 84.8689 67.4857 85.0798L67.4842 85.0807L67.4823 85.0819C65.5647 86.2824 62.6288 88.1204 62.3399 87.0933C61.9933 84.7143 61.9933 82.2976 62.3399 79.9186C62.8139 76.3978 63.4819 72.9059 64.3411 69.4587C55.3539 67.1553 47.6508 56.6576 46.82 46.8019C48.9114 46.8019 49.5608 47.8893 50.1336 48.8484C50.2848 49.1015 50.4306 49.3456 50.5962 49.5585C51.4696 50.9731 52.1712 52.3042 52.8287 53.5517C54.7865 57.266 56.3539 60.2398 60.9049 62.4729C64.0769 64.0211 69.2124 66.8154 67.6641 70.9314C66.5798 74.5379 65.7843 78.225 65.2852 81.9577C66.5441 81.0307 67.7337 80.1383 68.8855 79.2743C71.5336 77.2879 73.9821 75.4511 76.6136 73.688C77.1369 73.3312 78.3195 73.7686 79.3781 74.16C79.9999 74.39 80.5789 74.6041 80.9562 74.632C82.9667 74.632 85.0096 74.869 87.044 75.1049C90.3974 75.4938 93.728 75.88 96.8538 75.1985C104.804 73.6927 111.94 69.3602 116.943 63.0016C123.249 54.5808 121.889 40.5713 115.583 31.8862C113.679 29.2781 111.487 26.9041 109.293 24.528C108.311 23.464 107.327 22.3991 106.37 21.313L107.049 19.9913C109.386 20.6961 111.602 21.753 113.62 23.1255C119.136 27.9637 122.989 34.4143 124.636 41.564C126.283 48.7137 125.639 56.2003 122.796 62.9638C121.09 66.6998 118.559 70.0003 115.394 72.6166C112.228 75.2329 108.51 77.0969 104.519 78.0683C97.8458 79.9655 90.8529 80.4668 83.9771 79.541C83.9389 84.6046 83.4843 89.6565 82.6177 94.6456C82.1134 99.7964 80.3071 104.734 77.3688 108.995C75.4806 111.212 72.2635 112.337 69.0831 113.45C67.875 113.873 66.6722 114.294 65.5495 114.772C63.6008 115.549 61.5758 116.119 59.5078 116.472C56.4869 117 54.6365 118.322 54.4855 121.72C54.4855 122.551 51.0492 125.497 50.7093 124.59C50.2823 123.4 50.1031 122.134 50.1824 120.872C50.2618 119.609 50.5982 118.376 51.171 117.248C51.7437 116.121 52.5408 115.122 53.5133 114.313C54.4858 113.504 55.6133 112.902 56.8266 112.544C58.1121 112.16 59.4039 111.788 60.6966 111.416C63.8468 110.51 67.0018 109.602 70.0809 108.504C71.7453 107.982 73.2247 106.992 74.3427 105.654C75.4607 104.315 76.1702 102.683 76.387 100.952C76.5584 99.8805 76.9364 97.9403 77.39 95.612C78.5355 89.7326 80.1631 81.3785 80.1631 78.2949C79.0681 78.3327 78.615 78.2194 77.6332 77.5774Z"/>
<path d="M35.7559 68.4769C35.3405 68.4769 34.8496 68.4769 34.5853 68.2503C34.2873 68.0228 33.9473 67.7415 33.576 67.4345C31.3599 65.6014 28.0294 62.8467 25.8624 65.0784C23.1996 67.574 21.2896 70.7659 20.3492 74.2921C19.896 77.1242 23.8988 81.8444 27.4861 82.8262C28.5812 83.0905 30.2049 84.2989 30.2804 85.2052C30.7713 90.7183 31.0735 96.2692 31.0357 101.782C31.0357 103.368 31.0355 105.559 30.3558 105.861C29.8344 106.022 29.2842 106.068 28.7432 105.997C28.2021 105.925 27.6831 105.737 27.2218 105.445C26.5421 105.017 26.7686 102.609 26.9952 100.201C27.1085 98.9965 27.2218 97.7923 27.2218 96.8357C27.2218 96.0705 27.2585 95.2989 27.295 94.5315C27.4926 90.3754 27.6845 86.3414 22.0107 84.1101C18.6499 82.7507 17.0261 73.5369 18.6121 69.6475C19.6652 67.4438 21.2539 65.5392 23.2329 64.1077C25.2119 62.6763 27.5179 61.7636 29.9405 61.4533C30.8174 61.4341 31.6872 61.6135 32.485 61.9781C33.2827 62.3426 33.9877 62.8829 34.547 63.5585C35.1064 64.2341 35.5055 65.0275 35.7149 65.8792C35.9242 66.7309 35.9383 67.619 35.7559 68.4769Z"/>
<path d="M48.0283 85.6583C48.1038 85.1296 48.0659 83.0905 46.7065 83.5059C45.3093 83.9212 44.6297 97.3265 51.2757 101.065L51.5422 101.209C53.8179 102.442 55.9043 103.573 57.4308 101.065C57.6877 100.67 56.5695 100.047 55.2178 99.2944C53.9861 98.6086 52.5606 97.8148 51.8044 96.9867C50.4169 95.4681 49.3638 93.675 48.7133 91.7235C48.0628 89.772 47.8294 87.7057 48.0283 85.6583Z"/>
<path d="M103.802 41.8929C107.541 41.8929 108.281 45.5958 108.699 47.6847L108.711 47.7459C109.126 49.8228 107.012 51.522 105.275 52.2773C104.44 52.5316 103.549 52.531 102.714 52.2753C101.88 52.0196 101.141 51.5207 100.592 50.8423C98.4399 47.5948 100.215 41.8929 103.802 41.8929Z"/>
<path d="M90.9631 51.2954C93.9085 50.729 95.1545 49.6339 95.1545 47.1794C95.1545 44.7627 94.6637 40.6845 90.9253 41.3642C89.8988 41.7034 89.0043 42.3557 88.3677 43.2295C87.731 44.1032 87.3842 45.1544 87.3757 46.2354C87.3757 48.7654 88.0177 51.8618 90.9631 51.2954Z"/>
<path d="M79.2947 45.8956C79.2947 48.3123 76.6515 49.1809 74.197 49.1809C71.7425 49.1809 70.4209 46.0467 70.4209 44.2341C70.4972 43.2122 70.8752 42.2359 71.5071 41.4292C72.1391 40.6224 72.9965 40.0216 73.9705 39.7028C76.1228 39.0608 79.2947 43.4789 79.2947 45.8956Z"/>
<path d="M29.223 73.499L25.9756 71.0068C25.1848 72.1802 25.359 72.4575 25.5554 72.77C25.6497 72.9202 25.749 73.0784 25.749 73.348C26.6993 75.0693 27.983 76.5841 29.5252 77.8038C30.0322 78.1544 30.6174 78.3756 31.2296 78.448C31.8417 78.5204 32.4622 78.4418 33.037 78.2192C34.0165 77.1227 34.7618 75.8377 35.2272 74.443C34.7393 74.2804 34.0956 74.4896 33.4412 74.7024C32.7282 74.9342 32.0024 75.1702 31.4511 74.9339C30.6595 74.5362 29.9126 74.0551 29.223 73.499Z"/>
</mask>
<path d="M77.6332 77.5774C75.8264 78.8586 74.4911 79.9541 73.2762 80.9508C71.6981 82.2454 70.3232 83.3734 68.3816 84.5255C68.1278 84.6778 67.8225 84.8689 67.4857 85.0798L67.4842 85.0807L67.4823 85.0819C65.5647 86.2824 62.6288 88.1204 62.3399 87.0933C61.9933 84.7143 61.9933 82.2976 62.3399 79.9186C62.8139 76.3978 63.4819 72.9059 64.3411 69.4587C55.3539 67.1553 47.6508 56.6576 46.82 46.8019C48.9114 46.8019 49.5608 47.8893 50.1336 48.8484C50.2848 49.1015 50.4306 49.3456 50.5962 49.5585C51.4696 50.9731 52.1712 52.3042 52.8287 53.5517C54.7865 57.266 56.3539 60.2398 60.9049 62.4729C64.0769 64.0211 69.2124 66.8154 67.6641 70.9314C66.5798 74.5379 65.7843 78.225 65.2852 81.9577C66.5441 81.0307 67.7337 80.1383 68.8855 79.2743C71.5336 77.2879 73.9821 75.4511 76.6136 73.688C77.1369 73.3312 78.3195 73.7686 79.3781 74.16C79.9999 74.39 80.5789 74.6041 80.9562 74.632C82.9667 74.632 85.0096 74.869 87.044 75.1049C90.3974 75.4938 93.728 75.88 96.8538 75.1985C104.804 73.6927 111.94 69.3602 116.943 63.0016C123.249 54.5808 121.889 40.5713 115.583 31.8862C113.679 29.2781 111.487 26.9041 109.293 24.528C108.311 23.464 107.327 22.3991 106.37 21.313L107.049 19.9913C109.386 20.6961 111.602 21.753 113.62 23.1255C119.136 27.9637 122.989 34.4143 124.636 41.564C126.283 48.7137 125.639 56.2003 122.796 62.9638C121.09 66.6998 118.559 70.0003 115.394 72.6166C112.228 75.2329 108.51 77.0969 104.519 78.0683C97.8458 79.9655 90.8529 80.4668 83.9771 79.541C83.9389 84.6046 83.4843 89.6565 82.6177 94.6456C82.1134 99.7964 80.3071 104.734 77.3688 108.995C75.4806 111.212 72.2635 112.337 69.0831 113.45C67.875 113.873 66.6722 114.294 65.5495 114.772C63.6008 115.549 61.5758 116.119 59.5078 116.472C56.4869 117 54.6365 118.322 54.4855 121.72C54.4855 122.551 51.0492 125.497 50.7093 124.59C50.2823 123.4 50.1031 122.134 50.1824 120.872C50.2618 119.609 50.5982 118.376 51.171 117.248C51.7437 116.121 52.5408 115.122 53.5133 114.313C54.4858 113.504 55.6133 112.902 56.8266 112.544C58.1121 112.16 59.4039 111.788 60.6966 111.416C63.8468 110.51 67.0018 109.602 70.0809 108.504C71.7453 107.982 73.2247 106.992 74.3427 105.654C75.4607 104.315 76.1702 102.683 76.387 100.952C76.5584 99.8805 76.9364 97.9403 77.39 95.612C78.5355 89.7326 80.1631 81.3785 80.1631 78.2949C79.0681 78.3327 78.615 78.2194 77.6332 77.5774Z" fill="#212E3B"/>
<path d="M35.7559 68.4769C35.3405 68.4769 34.8496 68.4769 34.5853 68.2503C34.2873 68.0228 33.9473 67.7415 33.576 67.4345C31.3599 65.6014 28.0294 62.8467 25.8624 65.0784C23.1996 67.574 21.2896 70.7659 20.3492 74.2921C19.896 77.1242 23.8988 81.8444 27.4861 82.8262C28.5812 83.0905 30.2049 84.2989 30.2804 85.2052C30.7713 90.7183 31.0735 96.2692 31.0357 101.782C31.0357 103.368 31.0355 105.559 30.3558 105.861C29.8344 106.022 29.2842 106.068 28.7432 105.997C28.2021 105.925 27.6831 105.737 27.2218 105.445C26.5421 105.017 26.7686 102.609 26.9952 100.201C27.1085 98.9965 27.2218 97.7923 27.2218 96.8357C27.2218 96.0705 27.2585 95.2989 27.295 94.5315C27.4926 90.3754 27.6845 86.3414 22.0107 84.1101C18.6499 82.7507 17.0261 73.5369 18.6121 69.6475C19.6652 67.4438 21.2539 65.5392 23.2329 64.1077C25.2119 62.6763 27.5179 61.7636 29.9405 61.4533C30.8174 61.4341 31.6872 61.6135 32.485 61.9781C33.2827 62.3426 33.9877 62.8829 34.547 63.5585C35.1064 64.2341 35.5055 65.0275 35.7149 65.8792C35.9242 66.7309 35.9383 67.619 35.7559 68.4769Z" fill="#212E3B"/>
<path d="M48.0283 85.6583C48.1038 85.1296 48.0659 83.0905 46.7065 83.5059C45.3093 83.9212 44.6297 97.3265 51.2757 101.065L51.5422 101.209C53.8179 102.442 55.9043 103.573 57.4308 101.065C57.6877 100.67 56.5695 100.047 55.2178 99.2944C53.9861 98.6086 52.5606 97.8148 51.8044 96.9867C50.4169 95.4681 49.3638 93.675 48.7133 91.7235C48.0628 89.772 47.8294 87.7057 48.0283 85.6583Z" fill="#212E3B"/>
<path d="M103.802 41.8929C107.541 41.8929 108.281 45.5958 108.699 47.6847L108.711 47.7459C109.126 49.8228 107.012 51.522 105.275 52.2773C104.44 52.5316 103.549 52.531 102.714 52.2753C101.88 52.0196 101.141 51.5207 100.592 50.8423C98.4399 47.5948 100.215 41.8929 103.802 41.8929Z" fill="#212E3B"/>
<path d="M90.9631 51.2954C93.9085 50.729 95.1545 49.6339 95.1545 47.1794C95.1545 44.7627 94.6637 40.6845 90.9253 41.3642C89.8988 41.7034 89.0043 42.3557 88.3677 43.2295C87.731 44.1032 87.3842 45.1544 87.3757 46.2354C87.3757 48.7654 88.0177 51.8618 90.9631 51.2954Z" fill="#212E3B"/>
<path d="M79.2947 45.8956C79.2947 48.3123 76.6515 49.1809 74.197 49.1809C71.7425 49.1809 70.4209 46.0467 70.4209 44.2341C70.4972 43.2122 70.8752 42.2359 71.5071 41.4292C72.1391 40.6224 72.9965 40.0216 73.9705 39.7028C76.1228 39.0608 79.2947 43.4789 79.2947 45.8956Z" fill="#212E3B"/>
<path d="M29.223 73.499L25.9756 71.0068C25.1848 72.1802 25.359 72.4575 25.5554 72.77C25.6497 72.9202 25.749 73.0784 25.749 73.348C26.6993 75.0693 27.983 76.5841 29.5252 77.8038C30.0322 78.1544 30.6174 78.3756 31.2296 78.448C31.8417 78.5204 32.4622 78.4418 33.037 78.2192C34.0165 77.1227 34.7618 75.8377 35.2272 74.443C34.7393 74.2804 34.0956 74.4896 33.4412 74.7024C32.7282 74.9342 32.0024 75.1702 31.4511 74.9339C30.6595 74.5362 29.9126 74.0551 29.223 73.499Z" fill="#212E3B"/>
<path d="M77.6332 77.5774C75.8264 78.8586 74.4911 79.9541 73.2762 80.9508C71.6981 82.2454 70.3232 83.3734 68.3816 84.5255C68.1278 84.6778 67.8225 84.8689 67.4857 85.0798L67.4842 85.0807L67.4823 85.0819C65.5647 86.2824 62.6288 88.1204 62.3399 87.0933C61.9933 84.7143 61.9933 82.2976 62.3399 79.9186C62.8139 76.3978 63.4819 72.9059 64.3411 69.4587C55.3539 67.1553 47.6508 56.6576 46.82 46.8019C48.9114 46.8019 49.5608 47.8893 50.1336 48.8484C50.2848 49.1015 50.4306 49.3456 50.5962 49.5585C51.4696 50.9731 52.1712 52.3042 52.8287 53.5517C54.7865 57.266 56.3539 60.2398 60.9049 62.4729C64.0769 64.0211 69.2124 66.8154 67.6641 70.9314C66.5798 74.5379 65.7843 78.225 65.2852 81.9577C66.5441 81.0307 67.7337 80.1383 68.8855 79.2743C71.5336 77.2879 73.9821 75.4511 76.6136 73.688C77.1369 73.3312 78.3195 73.7686 79.3781 74.16C79.9999 74.39 80.5789 74.6041 80.9562 74.632C82.9667 74.632 85.0096 74.869 87.044 75.1049C90.3974 75.4938 93.728 75.88 96.8538 75.1985C104.804 73.6927 111.94 69.3602 116.943 63.0016C123.249 54.5808 121.889 40.5713 115.583 31.8862C113.679 29.2781 111.487 26.9041 109.293 24.528C108.311 23.464 107.327 22.3991 106.37 21.313L107.049 19.9913C109.386 20.6961 111.602 21.753 113.62 23.1255C119.136 27.9637 122.989 34.4143 124.636 41.564C126.283 48.7137 125.639 56.2003 122.796 62.9638C121.09 66.6998 118.559 70.0003 115.394 72.6166C112.228 75.2329 108.51 77.0969 104.519 78.0683C97.8458 79.9655 90.8529 80.4668 83.9771 79.541C83.9389 84.6046 83.4843 89.6565 82.6177 94.6456C82.1134 99.7964 80.3071 104.734 77.3688 108.995C75.4806 111.212 72.2635 112.337 69.0831 113.45C67.875 113.873 66.6722 114.294 65.5495 114.772C63.6008 115.549 61.5758 116.119 59.5078 116.472C56.4869 117 54.6365 118.322 54.4855 121.72C54.4855 122.551 51.0492 125.497 50.7093 124.59C50.2823 123.4 50.1031 122.134 50.1824 120.872C50.2618 119.609 50.5982 118.376 51.171 117.248C51.7437 116.121 52.5408 115.122 53.5133 114.313C54.4858 113.504 55.6133 112.902 56.8266 112.544C58.1121 112.16 59.4039 111.788 60.6966 111.416C63.8468 110.51 67.0018 109.602 70.0809 108.504C71.7453 107.982 73.2247 106.992 74.3427 105.654C75.4607 104.315 76.1702 102.683 76.387 100.952C76.5584 99.8805 76.9364 97.9403 77.39 95.612C78.5355 89.7326 80.1631 81.3785 80.1631 78.2949C79.0681 78.3327 78.615 78.2194 77.6332 77.5774Z" stroke="#212E3B" mask="url(#path-1-outside-1_7220_5067)"/>
<path d="M35.7559 68.4769C35.3405 68.4769 34.8496 68.4769 34.5853 68.2503C34.2873 68.0228 33.9473 67.7415 33.576 67.4345C31.3599 65.6014 28.0294 62.8467 25.8624 65.0784C23.1996 67.574 21.2896 70.7659 20.3492 74.2921C19.896 77.1242 23.8988 81.8444 27.4861 82.8262C28.5812 83.0905 30.2049 84.2989 30.2804 85.2052C30.7713 90.7183 31.0735 96.2692 31.0357 101.782C31.0357 103.368 31.0355 105.559 30.3558 105.861C29.8344 106.022 29.2842 106.068 28.7432 105.997C28.2021 105.925 27.6831 105.737 27.2218 105.445C26.5421 105.017 26.7686 102.609 26.9952 100.201C27.1085 98.9965 27.2218 97.7923 27.2218 96.8357C27.2218 96.0705 27.2585 95.2989 27.295 94.5315C27.4926 90.3754 27.6845 86.3414 22.0107 84.1101C18.6499 82.7507 17.0261 73.5369 18.6121 69.6475C19.6652 67.4438 21.2539 65.5392 23.2329 64.1077C25.2119 62.6763 27.5179 61.7636 29.9405 61.4533C30.8174 61.4341 31.6872 61.6135 32.485 61.9781C33.2827 62.3426 33.9877 62.8829 34.547 63.5585C35.1064 64.2341 35.5055 65.0275 35.7149 65.8792C35.9242 66.7309 35.9383 67.619 35.7559 68.4769Z" stroke="#212E3B" mask="url(#path-1-outside-1_7220_5067)"/>
<path d="M48.0283 85.6583C48.1038 85.1296 48.0659 83.0905 46.7065 83.5059C45.3093 83.9212 44.6297 97.3265 51.2757 101.065L51.5422 101.209C53.8179 102.442 55.9043 103.573 57.4308 101.065C57.6877 100.67 56.5695 100.047 55.2178 99.2944C53.9861 98.6086 52.5606 97.8148 51.8044 96.9867C50.4169 95.4681 49.3638 93.675 48.7133 91.7235C48.0628 89.772 47.8294 87.7057 48.0283 85.6583Z" stroke="#212E3B" mask="url(#path-1-outside-1_7220_5067)"/>
<path d="M103.802 41.8929C107.541 41.8929 108.281 45.5958 108.699 47.6847L108.711 47.7459C109.126 49.8228 107.012 51.522 105.275 52.2773C104.44 52.5316 103.549 52.531 102.714 52.2753C101.88 52.0196 101.141 51.5207 100.592 50.8423C98.4399 47.5948 100.215 41.8929 103.802 41.8929Z" stroke="#212E3B" mask="url(#path-1-outside-1_7220_5067)"/>
<path d="M90.9631 51.2954C93.9085 50.729 95.1545 49.6339 95.1545 47.1794C95.1545 44.7627 94.6637 40.6845 90.9253 41.3642C89.8988 41.7034 89.0043 42.3557 88.3677 43.2295C87.731 44.1032 87.3842 45.1544 87.3757 46.2354C87.3757 48.7654 88.0177 51.8618 90.9631 51.2954Z" stroke="#212E3B" mask="url(#path-1-outside-1_7220_5067)"/>
<path d="M79.2947 45.8956C79.2947 48.3123 76.6515 49.1809 74.197 49.1809C71.7425 49.1809 70.4209 46.0467 70.4209 44.2341C70.4972 43.2122 70.8752 42.2359 71.5071 41.4292C72.1391 40.6224 72.9965 40.0216 73.9705 39.7028C76.1228 39.0608 79.2947 43.4789 79.2947 45.8956Z" stroke="#212E3B" mask="url(#path-1-outside-1_7220_5067)"/>
<path d="M29.223 73.499L25.9756 71.0068C25.1848 72.1802 25.359 72.4575 25.5554 72.77C25.6497 72.9202 25.749 73.0784 25.749 73.348C26.6993 75.0693 27.983 76.5841 29.5252 77.8038C30.0322 78.1544 30.6174 78.3756 31.2296 78.448C31.8417 78.5204 32.4622 78.4418 33.037 78.2192C34.0165 77.1227 34.7618 75.8377 35.2272 74.443C34.7393 74.2804 34.0956 74.4896 33.4412 74.7024C32.7282 74.9342 32.0024 75.1702 31.4511 74.9339C30.6595 74.5362 29.9126 74.0551 29.223 73.499Z" stroke="#212E3B" mask="url(#path-1-outside-1_7220_5067)"/>
</svg>
