<svg width="144" height="144" viewBox="0 0 144 144" fill="none" xmlns="http://www.w3.org/2000/svg">
<path d="M92.0556 98.3465C97.5129 92.0517 102.614 86.1528 112.53 87.3758C114.455 87.4228 116.33 88.0049 117.947 89.0584C119.565 90.1121 120.862 91.5962 121.696 93.3465C122.267 94.7852 123.123 96.3319 123.658 97.6268C124.193 98.9216 124.764 100.072 125.264 101.223C126.441 103.993 126.226 106.547 124.478 107.554C123.723 107.992 122.856 108.195 121.987 108.138C121.118 108.08 120.284 107.765 119.592 107.231C120.275 110.141 120.741 113.099 120.983 116.08V116.691C121.019 118.634 121.054 121.151 119.913 122.23C119.519 122.581 119.011 122.773 118.486 122.77C116.884 122.517 115.426 121.686 114.385 120.432L113.778 119.856C112.67 118.8 111.633 117.671 110.675 116.475L110.033 115.684L107.786 117.303L101.187 122.123C99.7496 123.292 97.9685 123.949 96.122 123.993C95.3248 124.018 94.5327 123.856 93.8085 123.519C93.0841 123.182 92.4474 122.679 91.9491 122.051C90.0587 119.641 91.913 114.892 92.662 113.346C93.4111 111.799 94.9454 109.101 96.2294 106.979C95.1584 107.017 94.0953 106.78 93.1405 106.289C92.1859 105.798 91.3711 105.07 90.7724 104.174C90.3248 103.195 90.2075 102.094 90.4394 101.042C90.6713 99.9894 91.2391 99.0423 92.0556 98.3465ZM35.0575 85.7205C38.58 85.5947 42.0201 86.816 44.6884 89.1385C47.7408 91.2 49.8874 94.3697 50.6806 97.9871C50.7833 98.7349 50.7208 99.4966 50.4989 100.218C50.277 100.938 49.9008 101.601 49.3964 102.159C48.7126 102.542 47.9123 102.658 47.1493 102.483C46.7947 102.429 46.4337 102.429 46.079 102.483C45.5798 103.742 47.006 106.044 48.1474 107.879C48.5615 108.493 48.9427 109.129 49.289 109.785L49.5028 110.253C50.469 111.916 51.1226 113.745 51.4296 115.648C51.6195 116.492 51.5729 117.373 51.2958 118.192C51.0188 119.011 50.5219 119.737 49.8603 120.288C49.1686 120.717 48.3718 120.945 47.5595 120.945C46.7471 120.945 45.9504 120.718 45.2587 120.288C43.1582 119.076 41.1757 117.667 39.3378 116.08L37.3046 114.426L36.663 115.505C35.7783 116.862 35.0366 118.308 34.4511 119.821C34.2266 120.603 33.8398 121.327 33.3173 121.947C32.7947 122.567 32.1476 123.068 31.4189 123.418C31.1211 123.526 30.8084 123.587 30.4921 123.597C29.9132 123.595 29.3459 123.434 28.8515 123.13C27.992 122.313 27.3192 121.318 26.8817 120.212C26.4443 119.106 26.2519 117.916 26.3183 116.727C26.5063 114.096 26.9121 111.485 27.5312 108.922C27.7095 107.986 27.9241 107.051 28.1024 106.08L27.1747 106.44C26.0691 106.908 25.1411 107.303 24.1425 107.663C23.4511 107.991 22.6913 108.146 21.9276 108.115C21.1638 108.084 20.4185 107.867 19.7558 107.483C19.1701 106.99 18.7067 106.366 18.4032 105.66C18.0997 104.954 17.9642 104.186 18.0077 103.418C17.9013 98.5257 26.3548 88.6344 31.0985 87.7352C31.5357 87.6684 31.9816 87.7716 32.3466 88.0232C32.5548 88.2359 32.6811 88.5162 32.703 88.8143C32.9884 89.4977 32.0969 90.3255 30.2421 91.9441C26.4632 94.7979 23.4981 98.6067 21.6464 102.986C21.6086 103.14 21.6087 103.3 21.6464 103.454C21.8229 103.488 22.004 103.488 22.1806 103.454C22.7091 103.226 23.222 102.962 23.7148 102.663C24.74 102.071 25.8004 101.542 26.8896 101.08C29.0651 100.397 30.4564 100.397 31.3837 101.08C32.3111 101.763 32.6675 103.131 32.4892 105.361C31.26 109.058 30.6572 112.936 30.706 116.835C31.2053 115.684 31.8474 114.065 32.204 113.238L32.703 112.087C33.9157 109.281 35.2001 107.842 36.8407 107.591C38.4815 107.339 40.087 108.311 42.0487 110.541C42.334 110.9 42.6551 111.368 43.0116 111.907C44.1174 113.598 45.5798 115.828 47.3632 115.505C46.6362 113.142 45.5917 110.891 44.2597 108.814C43.582 107.591 42.9757 106.476 42.619 105.721C42.205 105.012 41.9863 104.205 41.9862 103.383C41.9862 102.56 42.2051 101.753 42.619 101.045C43.14 100.408 43.8261 99.9296 44.6005 99.6629C45.3751 99.3962 46.2085 99.3508 47.0067 99.533C47.1012 98.7237 47.0284 97.9033 46.7929 97.1238C45.8796 95.3821 44.5917 93.8673 43.0243 92.6912C41.457 91.5152 39.6488 90.7068 37.7323 90.325C37.2108 90.2691 36.6846 90.2691 36.163 90.325C35.7443 90.4381 35.3069 90.4649 34.8778 90.4031C34.4489 90.3413 34.0363 90.1924 33.6659 89.9656C33.3075 89.6265 33.0413 89.2003 32.8915 88.7283C32.7417 88.2563 32.7138 87.7533 32.8105 87.2674C33.0246 86.4402 34.2729 85.7205 35.0575 85.7205ZM113.992 93.2029C111.943 92.0486 109.562 91.6418 107.251 92.0516L104.469 93.6697C100.616 95.8279 96.3006 98.2745 95.0165 102.663C96.4786 102.394 97.9119 101.984 99.2968 101.439C100.107 101.109 100.942 100.844 101.794 100.648C102.05 100.603 102.301 100.53 102.543 100.432C102.891 100.323 103.249 100.25 103.612 100.217C103.869 100.215 104.124 100.281 104.349 100.407C104.573 100.533 104.762 100.715 104.896 100.936C105.219 101.639 105.362 102.413 105.312 103.185C105.263 103.958 105.021 104.705 104.611 105.36C103.577 106.907 102.222 108.778 101.33 109.785C100.438 110.792 99.4033 112.087 98.5116 113.382L98.1552 113.886C97.3704 114.929 95.7303 117.159 96.622 118.274C97.3011 118.848 101.687 115.827 103.327 114.677C104.822 113.616 106.37 112.631 107.964 111.727L108.785 111.044C109.127 110.547 109.608 110.164 110.168 109.946C110.727 109.728 111.339 109.685 111.924 109.821C112.53 110.037 112.958 110.757 114.135 112.843C114.855 114.285 115.741 115.637 116.774 116.871C116.759 114.143 116.424 111.426 115.775 108.777C115.244 106.52 114.898 104.222 114.741 101.907V100.325L116.204 101.008C116.846 101.403 117.559 101.871 118.272 102.411C119.31 103.19 120.422 103.865 121.59 104.426C120.412 99.9152 117.728 95.9519 113.992 93.2029ZM79.1435 96.6922C79.5001 96.6922 79.6433 96.9798 79.8573 97.3035C79.8834 97.5432 79.956 97.7758 80.0712 97.9871L80.2499 98.2391L80.0712 98.5262C79.0622 99.6134 77.8408 100.478 76.4843 101.066C75.1277 101.654 73.665 101.953 72.1884 101.943H70.6542C67.7157 102.153 64.8083 101.227 62.5224 99.3533C62.3981 99.1607 62.3319 98.9357 62.3319 98.7059C62.332 98.4761 62.3981 98.251 62.5224 98.0584C62.7015 97.6624 62.9865 97.3242 63.3456 97.0828C63.7048 96.8414 64.1241 96.7065 64.5556 96.6922H79.1435ZM107.036 63.3113C108.711 63.5347 110.253 64.3504 111.388 65.6131C114.199 68.229 116.016 71.7535 116.524 75.577C116.433 78.3392 115.295 80.9613 113.344 82.9022C111.393 84.8427 108.778 85.9548 106.038 86.0086C103.686 85.8561 101.484 84.7854 99.9023 83.0232C98.7881 81.9258 97.9 80.617 97.288 79.1727C96.676 77.7284 96.3523 76.1767 96.3358 74.6063C96.6398 71.7991 97.8526 69.1705 99.787 67.1287C101.721 65.087 104.269 63.7456 107.036 63.3113ZM31.0985 66.3328C33.6359 66.6525 36.0071 67.7756 37.872 69.5398C39.737 71.3043 40.9993 73.6198 41.4774 76.1531C41.351 78.7529 40.2103 81.1966 38.3036 82.951C36.739 84.6764 34.5858 85.7425 32.2753 85.9363C30.8988 86.019 29.5201 85.8204 28.2216 85.3523C26.9231 84.8842 25.7313 84.1566 24.7187 83.2127C23.706 82.2687 22.8928 81.1279 22.328 79.8592C21.7633 78.5904 21.4589 77.2194 21.4325 75.8289C21.4421 74.6147 21.6887 73.414 22.1601 72.2967C22.6314 71.1794 23.3178 70.1671 24.1786 69.3182C25.0802 68.3858 26.1554 67.642 27.3427 67.1297C28.5302 66.6174 29.807 66.3465 31.0985 66.3328ZM33.6278 70.0428C32.8799 69.8067 32.0909 69.7314 31.3124 69.8221C26.9965 69.8221 26.1044 75.3258 26.1044 76.8006C26.1045 78.5272 26.9613 81.8719 30.2069 82.0877C31.2458 82.0885 32.2723 81.8607 33.2148 81.4197C34.1574 80.9786 34.9937 80.3348 35.664 79.534C36.2509 79.0107 36.7221 78.3688 37.0478 77.6502C37.3734 76.9315 37.5465 76.1513 37.5546 75.3611C37.5447 74.5711 37.3701 73.792 37.0429 73.074C36.7156 72.3559 36.2425 71.7143 35.6542 71.1922C35.066 70.6703 34.3755 70.2788 33.6278 70.0428ZM106.394 67.8797C105.802 67.9619 105.232 68.1674 104.723 68.4832C104.213 68.799 103.774 69.2178 103.434 69.7137C102.006 71.3246 101.23 73.417 101.258 75.577C101.793 79.2459 103.185 80.7929 105.895 80.8289C107.867 80.7156 109.72 79.8391 111.067 78.3826C111.438 78.0246 111.733 77.5947 111.935 77.1189C112.138 76.643 112.243 76.1309 112.244 75.6131C112.066 72.0161 109.462 67.8797 106.394 67.8797ZM71.2812 42.3016C71.7807 42.2296 72.2897 42.3326 72.7235 42.5926C78.0271 45.0928 82.3738 49.2743 85.1005 54.4988C85.4055 55.1512 85.5634 55.8635 85.5634 56.5848C85.5634 57.3061 85.4055 58.0192 85.1005 58.6717C84.6012 59.8225 83.7454 61.189 83.0321 61.4051C82.2553 61.5002 81.4671 61.4392 80.7138 61.2254C81.2596 62.3819 81.7011 63.5858 82.0331 64.8221C82.7132 67.3177 82.7132 69.9524 82.0331 72.4481C81.8923 73.0245 81.5933 73.5493 81.1708 73.9627C80.7483 74.3761 80.2191 74.6615 79.6435 74.7859H79.1796C78.6259 74.7584 78.0863 74.6007 77.6034 74.326C77.1205 74.0512 76.7072 73.6667 76.3974 73.2029C74.8638 71.2967 73.4729 69.3544 72.0107 67.2684L70.369 64.9656L67.623 67.16C65.0192 69.2822 62.3084 71.5127 59.5263 73.491C58.2066 74.4621 55.5315 75.2897 54.6396 74.4627C54.0251 73.7813 53.5766 72.9645 53.329 72.0779C53.0814 71.1914 53.0413 70.2589 53.2128 69.3543C54.0921 66.5919 55.1161 63.8785 56.2802 61.2254L57.3505 58.6717C56.8106 58.6437 56.2734 58.5715 55.745 58.4559C54.8694 58.3238 54.0483 57.9464 53.3739 57.368C52.6995 56.7895 52.1985 56.0328 51.9286 55.1824C51.8338 54.4056 51.9656 53.6175 52.3075 52.9148C52.6496 52.2122 53.1879 51.6249 53.8554 51.2254C54.8539 50.4701 55.888 49.499 57.0292 48.492C59.5682 45.7577 62.7435 43.7048 66.2675 42.5203C66.7033 42.508 67.1366 42.5925 67.537 42.7664C67.9374 42.9404 68.2954 43.2003 68.5858 43.5281C68.7642 43.7799 69.0857 44.1392 69.2997 44.4988C69.35 43.9326 69.5889 43.4 69.9774 42.9881C70.3217 42.6161 70.7817 42.3735 71.2812 42.3016ZM69.6073 45.7068C69.4025 46.1053 68.3659 46.7975 62.3437 50.4344C59.6686 51.981 56.7794 53.5994 56.4228 54.0311C56.0662 54.4625 56.0663 54.4627 56.0663 54.4627H56.7079C58.5779 54.7623 60.4944 54.5253 62.2372 53.7791C62.7759 53.4745 63.3736 53.2907 63.9892 53.241C64.6048 53.1913 65.2237 53.2776 65.8036 53.492C66.053 53.9955 65.6609 54.5714 64.0917 56.7293C61.5639 59.8095 59.6717 63.368 58.5273 67.1961L59.3837 66.7645C60.632 66.117 61.8088 65.5053 62.9501 64.7859C63.8635 64.1733 64.7447 63.5128 65.5898 62.8074C67.1018 61.3466 69.0169 60.3812 71.0829 60.0379H71.2968C72.7949 60.1098 74.5073 62.5559 76.5761 65.6854C77.1286 66.606 77.7483 67.4839 78.4306 68.3113C77.7662 64.445 76.7019 60.6593 75.2558 57.0164L74.7206 55.5057H75.4696C76.9884 55.7889 78.4639 56.2733 79.8573 56.9451C80.5831 57.2812 81.3346 57.5578 82.1044 57.7723C82.0792 56.9911 81.8714 56.2267 81.498 55.5418C80.3185 53.9305 78.9128 52.5008 77.3251 51.2977C76.255 50.4703 74.8636 49.5346 73.4726 48.5994C72.0803 47.7849 70.7838 46.8145 69.6073 45.7068ZM48.9325 39.7869C49.503 40.0028 49.5028 40.5064 49.5028 41.2977C49.4284 43.1638 48.808 44.9663 47.7196 46.4773C44.6164 50.7938 39.2667 57.9879 38.2323 59.0311C37.3204 59.8163 36.1484 60.2265 34.9501 60.1814H34.3085V59.7498C34.6015 57.8661 35.2555 56.0579 36.2343 54.4266C38.5176 50.4889 41.0679 46.7147 43.8671 43.1316C43.9028 43.0957 46.8992 39.7871 48.5399 39.7869H48.9325ZM89.7733 41.2977C92.4849 41.6222 104.575 50.2906 105.324 56.0096C105.322 56.5472 105.192 57.0768 104.943 57.5525C104.695 58.0284 104.336 58.4365 103.897 58.743H103.47C103.335 58.7402 103.203 58.7097 103.08 58.6541C102.958 58.5985 102.848 58.5182 102.757 58.4188C101.259 56.908 99.5461 55.1098 97.6913 53.3113C94.9449 50.6136 92.0916 47.8437 90.0585 45.5057C89.3451 44.6424 88.1684 43.2397 88.8817 41.657C88.9531 41.2974 89.167 41.2977 89.7733 41.2977ZM71.2255 20.0027C72.6993 20.3947 73.9725 21.3326 74.7919 22.6287C76.8663 25.3076 77.8948 28.6614 77.6815 32.0535C77.3816 33.3452 76.83 34.564 76.0585 35.6385C75.2869 36.713 74.3107 37.6219 73.1874 38.3123C72.0045 39.1172 70.6187 39.5662 69.1923 39.6072C68.7574 39.6182 68.3236 39.5576 67.9081 39.4275C65.4296 38.897 63.2496 37.4227 61.8212 35.3123C60.3928 33.2019 59.8259 30.6174 60.2392 28.0965C60.9026 25.6991 62.3477 23.597 64.3407 22.1287C66.3338 20.6605 68.759 19.9111 71.2255 20.0027ZM68.5732 24.284C68.0494 24.3222 67.5468 24.5091 67.1239 24.8231C65.7685 25.5425 64.4843 26.91 64.4843 28.2049C64.6627 31.1902 65.1976 33.9952 67.8368 34.4988C68.4629 34.6207 69.1084 34.6001 69.7255 34.4383C70.3425 34.2765 70.9164 33.9782 71.4042 33.5643C72.3128 32.8749 72.9456 31.879 73.1874 30.7586C73.1196 29.5728 72.8084 28.4139 72.2743 27.3553C71.7402 26.2966 70.9944 25.3607 70.0839 24.6072C69.6207 24.3578 69.0969 24.2459 68.5732 24.284Z" fill="#212E3B"/>
</svg>
