<svg width="144" height="144" viewBox="0 0 144 144" fill="none" xmlns="http://www.w3.org/2000/svg">
<path fill-rule="evenodd" clip-rule="evenodd" d="M89.7653 87.9163C88.8059 86.5004 87.9009 85.1648 87.9009 84.2527C87.93 83.2746 90.9977 80.8655 93.2866 79.0679C94.3947 78.1976 95.3204 77.4707 95.6303 77.1189C98.538 73.4219 101.041 69.447 103.101 65.257C112.643 46.759 95.5439 18.6387 75.5081 13.9105C61.863 10.6754 48.6066 10.8413 37.7251 19.8829C32.106 24.4606 27.9575 30.4782 25.7633 37.2341C23.5691 43.99 23.4196 51.2059 25.3322 58.0403C31.1184 82.2619 48.6066 93.1699 73.2627 89.3542C74.3338 89.1959 75.4737 88.915 76.673 88.6194C77.9878 88.2953 79.374 87.9536 80.8193 87.7366C81.2441 87.7244 81.6644 87.8219 82.0366 88.0189C82.4087 88.2158 82.719 88.5051 82.9352 88.8565C84.1874 90.474 85.3965 92.4648 85.2669 93.4188C85.2079 93.8539 84.6906 94.5048 84.0675 95.2887C83.3246 96.2234 82.4314 97.3473 81.9852 98.5203C81.6066 99.8356 81.5187 101.213 81.7269 102.562C81.9351 103.912 82.4349 105.206 83.1942 106.359C86.8062 113.513 90.8879 120.44 95.4144 127.097C97.228 129.378 99.5597 131.908 101.546 131.991C103.225 132.061 105.211 130.709 106.933 129.538C107.249 129.323 107.556 129.114 107.85 128.922C111.575 126.683 115.074 124.114 118.3 121.249C118.935 120.671 119.416 119.955 119.702 119.16C119.987 118.366 120.069 117.518 119.941 116.686C119.403 114.583 118.45 112.598 117.134 110.838C111.391 102.834 99.6029 88.732 96.753 88.9394C95.6262 89.0214 94.5263 89.2461 93.5816 89.439C92.137 89.7341 91.0551 89.9551 90.7941 89.4786C90.4713 88.9583 90.1147 88.432 89.7653 87.9163ZM87.0472 26.6472C94.6189 32.801 99.3496 41.5813 100.207 51.0724V50.6991C100.51 67.2063 88.3759 77.7825 72.9172 81.6812C66.5962 82.8708 60.1066 82.9831 53.745 82.013C50.3158 81.5882 47.055 80.334 44.2682 78.3682C41.4813 76.4023 39.2596 73.789 37.8114 70.7732C37.2508 69.7125 36.6757 68.6582 36.1012 67.6048C32.2499 60.5439 28.4237 53.5291 29.1752 44.9755C30.2979 32.1596 44.1159 20.0903 59.7904 18.2239C69.6775 17.4655 79.4756 20.4934 87.0472 26.6472ZM107.524 106.18C105.029 102.618 102.189 99.2891 99.0416 96.2391C98.5757 95.6437 97.9901 95.1443 97.3194 94.7706C96.6487 94.3969 95.9066 94.1565 95.1373 94.0636C94.368 93.9708 93.5871 94.0274 92.8409 94.2301C92.0948 94.4328 91.3988 94.7775 90.7941 95.2437C87.5555 97.276 85.0079 100.013 86.476 103.539C87.9441 107.064 91.6576 115.65 93.8166 115.65C98.9384 113.305 103.581 110.097 107.524 106.18ZM102.798 127.097C99.5597 127.76 97.0553 121.705 96.753 120.461V120.087C96.4939 118.843 108.844 109.967 109.837 110.673C112.001 112.586 113.622 114.999 114.543 117.682C114.543 119.341 106.037 126.433 102.798 127.097ZM90.6655 57.294C91.1837 59.0775 96.1493 57.7917 96.1493 54.6396C94.4463 43.2025 88.289 32.8119 78.9205 25.5655C77.3832 24.532 75.5704 23.942 73.6956 23.865C72.573 23.7406 71.0186 27.6807 71.9254 28.2614C81.5545 34.8145 87.6861 46.7593 90.6655 57.294Z" fill="#212E3B"/>
</svg>
