<svg width="144" height="144" viewBox="0 0 144 144" fill="none" xmlns="http://www.w3.org/2000/svg">
<path fill-rule="evenodd" clip-rule="evenodd" d="M123.096 33.3434C122.114 30.496 120.182 28.0646 117.618 26.4503C115.054 24.836 112.011 24.135 108.991 24.4629H108.99C101.72 24.4629 94.3196 24.4629 87.2239 24.2043C84.236 24.2043 81.2146 24.1521 78.1772 24.0997C72.0537 23.9941 65.8649 23.8873 59.754 24.2043H53.0935C44.1599 23.6143 35.1984 24.8317 26.7553 27.7824C23.9697 28.9721 21.6313 30.9973 20.0693 33.5727C18.5073 36.148 17.8005 39.1437 18.0486 42.1378C18.5274 48.6042 18.7886 54.3809 18.8757 59.8127C18.8757 66.236 18.571 78.824 18.3097 88.9116C18.3097 93.3646 18.1766 97.2568 18.0853 99.9252C18.029 101.571 17.9886 102.751 18.0052 103.31C18.0052 109.69 21.6185 114.044 29.1499 117.45C34.8834 119.455 40.9877 120.205 47.0422 119.649H53.0063C59.1446 119.907 65.3264 119.993 71.5082 119.993C81.3904 119.993 91.2727 119.735 100.981 119.476H105.552C116.043 119.174 123.531 113.441 124.184 105.207C124.837 96.973 124.881 89.86 124.924 82.3589V72.3144V66.6671C124.8 62.3471 125.003 58.024 125.534 53.7342C126.629 46.8446 125.786 39.7892 123.096 33.3434ZM118.481 83.3936V101.327C118.53 103.46 117.883 105.551 116.636 107.291C115.389 109.031 113.609 110.326 111.559 110.984C101.524 113.043 91.3287 114.24 81.0857 114.562C71.391 115.275 61.6563 115.275 51.9616 114.562H51.178L50.9551 114.544C43.9915 113.984 33.7183 113.158 29.4111 110.854C25.0577 108.526 23.0551 106.543 23.0551 103.224V97.0593C23.3598 88.7822 23.9257 73.3059 23.5774 61.8388C23.5774 61.2353 23.5775 55.5448 23.8822 52.1823H118.612C118.394 61.3215 118.438 73.5646 118.481 83.3936ZM118.829 46.4056H88.3558L54.2687 47.1816L30.6735 47.6989H23.8822V45.5003C23.6574 43.7976 23.6574 42.0731 23.8822 40.3703C24.1357 39.0826 24.6528 37.8598 25.4015 36.7774C26.1502 35.695 27.1146 34.7757 28.2356 34.0763C31.283 31.964 43.516 30.8431 49.4801 30.8L67.2853 30.4982C71.1202 30.4982 74.8708 30.43 78.701 30.3603C84.0019 30.2638 89.4553 30.1645 95.4954 30.2396H98.3685H98.3693C102.723 30.2396 108.382 30.2396 111.995 30.7138C120.092 32.0933 119.091 43.9053 118.829 46.4056ZM74.5119 72.0558C73.2151 73.7273 72.2544 75.6299 71.6821 77.6601C71.078 79.7902 70.0574 81.7822 68.6782 83.5229C66.5015 82.5745 66.5016 79.9449 66.5451 77.6601C66.5886 75.3753 66.5453 74.6424 65.6311 74.1682C65.5106 74.104 65.3759 74.0704 65.2391 74.0704C65.1024 74.0704 64.9677 74.104 64.8472 74.1682C63.8895 74.4699 63.0625 76.0219 61.7565 78.4791C60.8858 80.2466 59.3619 83.178 58.5783 83.178C57.7193 83.178 57.6676 81.0466 57.6283 79.4302C57.6258 79.3263 57.6233 79.2246 57.6207 79.1258C57.7351 78.0326 57.6012 76.9279 57.2288 75.8926L56.9243 75.3752C56.782 74.9176 56.5162 74.507 56.1556 74.188C55.795 73.8689 55.3533 73.6534 54.8781 73.5646C54.6405 73.5362 54.3996 73.5689 54.1785 73.6595C53.9573 73.7501 53.7635 73.8956 53.6157 74.082C52.8305 75.1229 52.4447 76.4064 52.5273 77.7031V77.7043C52.5273 78.3937 52.5273 79.083 52.8754 79.7293C53.011 81.5434 53.4989 83.3145 54.3121 84.9455C54.5814 85.5974 55.0079 86.1741 55.5543 86.625C56.1007 87.0759 56.7506 87.3873 57.4467 87.5321C59.9281 87.877 62.4529 85.3766 63.5413 84.2558L63.846 85.2473L63.8655 85.3149C64.2984 86.8161 64.8686 88.7938 66.2839 89.5583C66.6327 89.7439 67.0201 89.8472 67.4158 89.86C67.7174 89.9216 68.0286 89.9216 68.3301 89.86C69.9151 89.1505 71.3288 88.1144 72.4773 86.821C73.6259 85.5275 74.4828 84.0063 74.9907 82.359C75.9023 79.9483 76.6157 77.4686 77.1238 74.9441L77.6462 72.7455C77.7555 72.489 77.772 72.203 77.6927 71.9358C77.6133 71.6687 77.4431 71.4369 77.2109 71.2798C76.6015 70.8056 75.7743 71.1074 74.5119 72.0558ZM47.5212 69.4693C47.913 68.0898 48.6533 68.0898 49.0451 68.0898C50.4817 68.3485 51.4393 71.4955 51.3958 73.651C51.2357 77.0612 50.5758 80.4302 49.4367 83.6523C48.2178 87.0149 46.1717 87.9633 45.0833 87.9633C44.5056 88.0363 43.9189 87.9939 43.3581 87.8383C42.7972 87.6828 42.2737 87.4175 41.8183 87.058C40.1205 88.9979 38.9016 89.6877 37.8133 89.6877C36.7442 89.5897 35.7358 89.151 34.9399 88.4375H34.6351C32.2936 85.8497 31.0467 82.4695 31.1525 78.9965C31.147 78.1544 31.3459 77.3233 31.7322 76.5732C32.1186 75.823 32.6812 75.1756 33.3727 74.6856L33.8515 74.4269L34.1127 74.9011C34.6814 76.0937 35.0913 77.3544 35.3318 78.6516C35.3712 78.797 35.4135 78.9551 35.4584 79.123C35.9598 80.9969 36.7857 84.0834 37.4649 84.0834C37.9242 84.0834 38.5837 81.7441 38.9058 80.6018L38.9452 80.4622C39.5111 78.2206 39.9898 76.41 41.1652 76.41C42.0762 76.4529 42.339 78.0797 42.5131 79.1575L42.515 79.169L42.5438 79.3484C42.7136 80.4074 42.9326 81.7743 43.3854 82.1004C43.4329 82.1233 43.4852 82.1352 43.538 82.1352C43.5908 82.1352 43.6427 82.1233 43.6902 82.1004C45.4563 81.7591 45.9438 78.3789 46.4178 75.092L46.4329 74.9873C46.6234 73.1188 46.9878 71.2716 47.5212 69.4693ZM97.193 71.0647C96.8012 71.0647 96.061 71.0647 95.408 72.1424C94.585 73.8756 93.9713 75.6988 93.5796 77.5742C92.796 80.5919 92.2301 82.4887 90.6629 82.4887C90.5636 82.5187 90.4575 82.5187 90.3582 82.4887C89.9861 81.5282 89.8662 80.4899 90.0098 79.4711C90.0098 77.9191 90.0098 76.712 89.1391 76.4965C88.2684 76.281 87.1801 77.9191 86.1788 80.0746L86.0913 80.2564C85.5778 81.3238 84.5819 83.394 84.0893 83.394C83.3314 83.394 83.0621 79.7244 82.9271 77.8844L82.9138 77.7036C82.8958 76.3801 82.7205 75.0634 82.3914 73.7806L82.1738 73.2633H81.695C80.8576 73.6594 80.1394 74.2658 79.6123 75.0221C79.0853 75.7785 78.7679 76.6584 78.6911 77.5742C78.0011 80.97 78.639 84.4985 80.4759 87.4463V87.705C80.8357 88.1991 81.2972 88.6122 81.83 88.9168C82.3627 89.2215 82.9548 89.4109 83.5669 89.4725C85.066 89.2719 86.4574 88.5905 87.5284 87.5325C87.9116 87.9661 88.3787 88.3192 88.9021 88.571C89.4255 88.8227 89.9947 88.968 90.5758 88.9983C91.7077 88.9983 93.8407 88.6103 95.6256 85.4633C96.5482 83.8327 97.1677 82.0513 97.4542 80.2039C97.4542 79.6276 97.6462 78.9798 97.8699 78.2254L97.8701 78.2248L97.8706 78.2233C97.9478 77.9627 98.0289 77.6893 98.107 77.4018C98.9342 74.8152 98.5426 71.582 97.193 71.0647ZM104.158 35.7144C105.244 35.3433 106.425 35.3433 107.511 35.7144C108.158 36.1329 108.663 36.7357 108.958 37.4436C109.254 38.1515 109.326 38.9313 109.165 39.6805C108.904 40.8014 108.468 41.7498 106.161 42.3102H105.508C105.142 42.3032 104.782 42.2188 104.451 42.0626C104.121 41.9065 103.828 41.6822 103.592 41.4049C103.11 40.8076 102.779 40.1044 102.628 39.3543C102.476 38.6042 102.508 37.8291 102.722 37.094C102.846 36.775 103.04 36.4866 103.288 36.2485C103.536 36.0103 103.833 35.8282 104.158 35.7144ZM93.8409 35.3693C93.0578 35.524 92.3574 35.954 91.8694 36.58C91.3813 37.2059 91.1385 37.9855 91.1854 38.775C91.1854 39.9389 92.7089 42.2237 94.7985 42.2237C95.2023 42.2143 95.599 42.1166 95.9602 41.9378C96.3214 41.7589 96.6384 41.5033 96.8883 41.1891C97.2821 40.7517 97.5818 40.2394 97.7689 39.6835C97.956 39.1276 98.0267 38.5398 97.9767 37.9559C97.9403 37.4822 97.796 37.0228 97.5547 36.6122C97.3135 36.2015 96.9814 35.8503 96.5836 35.5849C96.1755 35.3385 95.7147 35.1906 95.2383 35.1532C94.7618 35.1157 94.2831 35.1898 93.8409 35.3693ZM100.322 82.7161C100.795 82.1043 101.479 81.6858 102.243 81.54C102.67 81.368 103.131 81.2941 103.591 81.324C104.051 81.3539 104.498 81.4867 104.899 81.7124C105.285 81.9798 105.609 82.3259 105.85 82.7273C106.09 83.1288 106.241 83.5765 106.292 84.0403C106.336 84.6172 106.262 85.1969 106.075 85.745C105.888 86.293 105.592 86.7982 105.204 87.2305C104.954 87.5312 104.643 87.7754 104.29 87.9465C103.937 88.1176 103.55 88.2115 103.158 88.222C101.155 88.222 99.6747 85.9803 99.6747 84.8594C99.618 84.0907 99.8483 83.328 100.322 82.7161Z" fill="#212E3B"/>
</svg>
