<svg width="144" height="144" viewBox="0 0 144 144" fill="none" xmlns="http://www.w3.org/2000/svg">
<path d="M85.7806 37.1073C85.2498 41.3534 85.2498 65.9672 85.2498 65.9672V67.8912V67.9124V68.422H90.0267C90.0267 68.422 90.0267 40.2918 90.5574 37.6381C91.0882 34.9844 94.8035 24.3691 96.9265 24.3691C99.0496 24.3691 99.5803 36.5765 100.111 38.6996C100.642 40.8226 100.111 68.422 100.111 68.422H103.826L103.845 67.8912L103.907 66.1583C103.907 66.1583 104.888 41.8841 104.888 38.6996C104.888 35.515 99.5803 18 97.988 18C96.3958 18 86.3114 32.8613 85.7806 37.1073Z" fill="#212E3B"/>
<path d="M4.04381 123.621C2.98241 122.029 21.5588 97.6141 21.5588 97.6141H27.3972C27.3972 97.6141 8.82074 120.437 9.35139 120.967C9.88203 121.498 19.5398 119.642 25.2741 116.721C34.4391 112.053 43.4015 97.6141 43.4015 97.6141L44.3815 97.0833L52.3428 97.6141C52.3428 97.6141 39.8307 116.121 27.3972 120.967C18.8451 124.301 5.10521 125.213 4.04381 123.621Z" fill="#212E3B"/>
<path d="M54.9965 122.029C54.4659 120.967 54.9965 97.6141 54.9965 97.6141H59.7734C59.7734 97.6141 59.7732 118.844 59.7734 119.375C59.7735 119.906 60.835 122.029 61.3656 122.029C61.8963 122.029 62.9578 119.906 62.9579 119.375C62.958 118.844 62.9579 97.6141 62.9579 97.6141H68.7962C68.7962 97.6141 68.7964 119.375 68.7962 120.437C68.7961 121.498 63.4888 125.744 62.9579 126.275C62.427 126.806 60.304 126.806 59.7734 126.275C59.2427 125.744 55.5272 123.09 54.9965 122.029Z" fill="#212E3B"/>
<path d="M98.5187 111.414C97.4571 108.76 84.2079 97.6141 84.2079 97.6141L83.6575 97.0833H79.4114L79.9422 97.6141C79.9422 97.6141 88.0806 103.899 91.6188 109.291C93.6532 112.391 96.9263 117.252 95.8649 117.783C94.8035 118.314 74.1039 96.5526 74.1039 96.5526L69.8579 97.0833C69.8579 97.0833 97.988 128.398 100.642 126.806C103.295 125.213 99.5803 114.068 98.5187 111.414Z" fill="#212E3B"/>
<path d="M53.4044 26.4921C49.1583 24.8998 44.3815 27.5536 41.7277 33.9228C39.0739 40.292 59.705 68.2983 59.705 68.2983L65.6118 67.8912C65.6118 67.8912 43.8508 37.6381 45.9738 33.9228C48.0968 30.2075 50.7506 30.7382 51.8121 31.7998C52.8736 32.8613 53.4136 39.4499 56.0582 44.538C58.7257 49.6702 61.2592 52.5178 65.0811 52.4993C66.7862 52.491 68.5531 51.003 69.3271 49.3148C70.2177 47.3724 70.3886 46.1302 71.4501 46.661C73.4642 47.668 69.8579 52.4993 69.3271 54.0916C68.7963 55.6839 71.4501 59.3992 72.5117 59.9299C73.5732 60.4606 75.6962 57.8068 76.7577 58.3376C77.8192 58.8685 82.0653 67.8912 82.0653 67.8912H85.2498V65.9672C85.2498 65.9672 79.9423 54.6222 78.35 53.5608C76.7577 52.4993 76.4926 54.6224 75.1655 54.0916C73.8383 53.5608 79.4115 48.7839 77.2885 46.661C75.1655 44.538 67.7348 39.2304 65.0811 41.3534C62.4273 43.4764 66.6733 45.5995 66.1426 47.1917C65.6118 48.7839 65.6118 48.784 64.0195 48.784C62.4273 48.784 60.8729 45.9732 58.712 40.2919C56.6849 34.9625 57.6505 28.0845 53.4044 26.4921Z" fill="#212E3B"/>
<path fill-rule="evenodd" clip-rule="evenodd" d="M19.9227 71.0758C13.5536 75.3218 13.5536 94.4291 19.9227 97.0833C20.9842 97.6141 21.5588 97.6141 21.5588 97.6141H27.3972H43.4015L44.3815 97.0833L52.3428 97.6141H54.9965H59.7734H62.9579H68.7962H79.9422L79.4114 97.0833H83.6575L84.2079 97.6141C84.2079 97.6141 109.134 99.206 118.157 96.5526C127.18 93.8993 126.915 75.853 119.749 71.0758C112.583 66.2985 96.1114 67.2603 72.5117 66.8297C48.1051 66.3844 26.2918 66.8297 19.9227 71.0758ZM116.564 74.7915C112.318 70.0143 30.0071 68.1226 23.1511 73.73C16.2951 79.3374 17.8435 89.6527 23.638 92.3061C29.4326 94.9594 47.4432 94.0464 69.3271 93.8983C92.2835 93.743 110.195 96.0214 116.034 91.7753C121.872 87.5293 120.81 79.5687 116.564 74.7915Z" fill="#212E3B"/>
<path d="M103.907 66.1583L103.845 67.8912H106.48C106.48 67.8912 109.134 61.5221 110.195 61.5221C110.709 61.5221 111.028 63.6998 112.318 65.2374C113.697 66.8808 113.911 66.8297 116.034 67.3605C118.157 67.8912 130.364 54.6223 129.833 52.4992C129.303 50.3762 125.587 49.8455 126.118 48.7839C126.649 47.7224 132.487 49.3147 133.549 49.3147C134.61 49.3147 134.843 47.3079 135.672 47.7224C136.733 48.2532 136.203 51.4377 135.672 52.4992C135.141 53.5608 119.749 72.668 119.749 72.668L122.403 74.7911C122.403 74.7911 138.326 54.0915 139.387 52.4992C140.449 50.907 139.918 46.1302 139.387 45.0686C138.856 44.0071 136.68 41.0218 134.61 41.8841C133.231 42.459 135.141 44.5379 132.487 45.0686C129.833 45.5994 121.872 44.5379 120.28 46.6609C118.688 48.7839 125.057 50.907 125.057 52.4992C125.057 54.0915 117.095 63.8221 116.034 63.1144C114.972 62.4067 114.481 62.0387 114.442 60.4606C114.378 57.9313 118.688 56.2146 118.157 55.153C117.626 54.0915 117.626 54.0915 116.034 53.5608C114.442 53.03 108.603 57.8068 107.542 59.3991C106.48 60.9914 103.907 66.1583 103.907 66.1583Z" fill="#212E3B"/>
<path d="M26.5946 80.6379C26.3246 82.4539 26.7476 84.2984 27.7746 85.7835C28.6583 87.2955 30.0701 88.3987 31.7249 88.8705C32.5626 89.0486 33.4286 89.051 34.2713 88.8776C35.1141 88.7042 35.9165 88.3585 36.6309 87.8612C37.4821 87.2479 38.2091 86.4686 38.77 85.5682C39.3308 84.6678 39.7145 83.6641 39.8988 82.615C40.1151 81.0532 39.7504 79.4722 38.8782 78.1896C38.0059 76.9071 36.6908 76.0182 35.197 75.7015C33.1773 75.4527 31.1309 75.9884 29.4563 77.2042C28.1124 77.9308 27.0871 79.1611 26.5946 80.6379ZM29.364 81.1807C29.6292 80.4761 30.1228 79.8854 30.7604 79.5097C31.9243 78.6044 33.3448 78.124 34.7943 78.1454C35.7326 78.4271 36.5195 79.0823 36.9821 79.9671C37.5291 80.7601 37.7473 81.7474 37.5889 82.7141C37.1822 84.7893 35.7916 86.041 34.4288 85.8527C31.1103 85.2548 29.1392 82.9763 29.3832 81.3422L29.364 81.1807Z" fill="#212E3B"/>
<path d="M98.7776 80.6379C98.5077 82.4539 98.9306 84.2984 99.9576 85.7835C100.841 87.2955 102.253 88.3987 103.908 88.8705C104.746 89.0486 105.612 89.051 106.454 88.8776C107.297 88.7042 108.1 88.3585 108.814 87.8612C109.665 87.2479 110.392 86.4686 110.953 85.5682C111.514 84.6678 111.897 83.6641 112.082 82.615C112.298 81.0532 111.933 79.4722 111.061 78.1896C110.189 76.9071 108.874 76.0182 107.38 75.7015C105.36 75.4527 103.314 75.9884 101.639 77.2042C100.295 77.9308 99.2701 79.1611 98.7776 80.6379ZM101.547 81.1807C101.812 80.4761 102.306 79.8854 102.943 79.5097C104.107 78.6044 105.528 78.124 106.977 78.1454C107.916 78.4271 108.702 79.0823 109.165 79.9671C109.712 80.7601 109.93 81.7474 109.772 82.7141C109.365 84.7893 107.975 86.041 106.612 85.8527C103.293 85.2548 101.322 82.9763 101.566 81.3422L101.547 81.1807Z" fill="#212E3B"/>
<path d="M18.7465 114.048C18.6797 113.326 27.7115 101.769 33.8028 95.7863C34.253 95.3361 36.0064 97.2533 35.5084 97.7785C31.2109 102.076 28.3516 107.096 24.0541 111.394C22.953 112.673 21.6178 114.539 20.3389 115.64C19.5139 116.247 18.8541 114.81 18.7465 114.048Z" fill="#212E3B"/>
<path d="M96.9878 43.8039C97.42 44.262 97.4498 59.0345 97.3902 67.48C97.3902 68.1098 95.3783 67.9953 95.3634 67.2796C95.3634 61.2675 95.3634 55.2842 95.3634 49.2721C95.2659 47.6074 95.2659 45.9268 95.3634 44.2621C95.4826 43.2601 96.5109 43.3459 96.9878 43.8039Z" fill="#212E3B"/>
</svg>
