<svg width="144" height="144" viewBox="0 0 144 144" fill="none" xmlns="http://www.w3.org/2000/svg">
<path d="M93.1463 25.1677C101.323 24.0774 109.588 23.7797 117.822 24.28C121.467 24.2801 121.14 25.5877 121.327 30.2566C121.514 34.9259 121.887 35.0667 122.121 38.1951C125.205 37.6349 129.69 37.9144 130.345 38.988C131 40.062 130.86 65.8368 130.86 79.6111V113.183C130.86 118.693 128.569 120 123.803 120H59.1717C45.152 120 31.5992 119.58 17.7664 119.3C16.9789 119.269 16.209 119.055 15.5193 118.674C14.8297 118.293 14.2392 117.755 13.7947 117.105C12.4395 115.518 12.9531 94.879 12.9998 82.9724C13.0465 71.0659 13.0008 58.3188 13.3279 46.0388C13.6083 36.7005 13.9348 36.7 23.3748 35.7195C23.6237 35.0917 23.7816 34.4311 23.8426 33.7586C23.422 27.2685 24.1227 26.0081 30.7586 25.4011C45.8065 24.0004 59.5923 26.6618 69.7801 39.8757C72.5041 35.9985 75.9736 32.7016 79.9851 30.1765C83.9965 27.6515 88.4701 25.9488 93.1463 25.1677ZM17.6267 42.3972C17.7999 45.5074 17.7999 48.6249 17.6267 51.7351V103.097C17.6267 115.004 18.1407 114.864 29.7771 114.77C58.5644 114.49 87.3053 114.396 116.093 114.21C119.878 114.21 126.047 114.817 126.654 113.463C127.037 110.362 127.037 107.226 126.654 104.125V47.113C126.654 43.2843 126.654 43.2838 122.495 43.2371C122.261 63.1709 122.775 102.428 122.262 103.237L122.448 103.191C121.931 104.03 109.923 101.043 103.755 101.743C97.5859 102.443 83.5199 104.638 73.1922 107.066C69.8743 107.813 69.0792 108.514 66.0887 107.393C53.8121 103.49 41.0235 101.429 28.1414 101.276C24.0756 101.696 23.0479 99.7821 23.4685 96.0466C23.8891 92.3113 23.4685 87.9687 23.4685 83.533V41.5095L17.6267 42.3972ZM117.027 29.5095C102.909 27.591 88.5899 31.114 76.9773 39.3621C75.4587 40.359 74.2533 41.7652 73.5008 43.4177C72.7483 45.0702 72.4789 46.9021 72.7244 48.7009C73.0982 60.4673 72.7244 72.0468 72.7244 84.0466V101.323C83.987 98.4281 100.25 92.9184 117.027 96.0935V29.5095ZM58.7986 37.6814C49.7717 31.9336 38.9242 29.7524 28.3748 31.5642L28.2351 94.8796L65.6209 100.996C66.6023 87.6887 67.6776 73.8213 68.659 59.9539C69.1061 54.7182 69.1061 49.4532 68.659 44.2175C67.6772 42.3499 62.3034 39.9225 58.7986 37.6814Z" fill="#212E3B"/>
</svg>
