<svg width="144" height="144" viewBox="0 0 144 144" fill="none" xmlns="http://www.w3.org/2000/svg">
<path fill-rule="evenodd" clip-rule="evenodd" d="M125.134 44.9805C125.049 44.6591 124.946 44.3428 124.827 44.0332C122.715 37.4813 120.412 30.5347 117.725 23.7065C117.218 22.8267 116.522 22.0777 115.69 21.5168C114.858 20.9559 113.913 20.5978 112.926 20.47C109.882 20.3124 106.833 20.3124 103.789 20.47H98.5294L85.0928 20.2726C81.4435 20.2726 77.7417 20.2109 74.0206 20.1489C69.3252 20.0706 64.599 19.9918 59.9087 20.0358C57.3203 19.8914 54.7265 20.1847 52.2306 20.9041C50.7334 21.654 49.1593 26.5088 48.3915 29.3111C47.8056 31.6951 47.4077 34.1238 47.2014 36.5735C47.0567 38.7158 46.7356 40.8416 46.2417 42.9281C45.7283 44.5665 45.6425 46.3148 45.9928 47.998C46.3432 49.6812 47.1175 51.2402 48.2381 52.5192C48.6068 52.9213 49.0187 53.2788 49.4663 53.5848V57.295V58.7159V73.3196C49.1976 85.3972 49.1209 90.8046 49.812 91.7913C50.503 92.778 58.6419 93.6069 63.3639 93.6069H66.0128H78.1825C111.928 93.2517 121.871 92.857 122.523 91.9097C123.363 89.5509 123.691 87.0317 123.483 84.5289V82.7133V63.689V54.9663V54.7689C123.417 53.981 123.417 53.1887 123.483 52.4008C127.092 50.4273 126.017 47.3882 125.134 44.9805ZM76.4549 24.6143H89.4309H89.4319C97.1095 24.6143 103.712 24.6143 110.354 24.9695C110.93 24.9851 111.496 25.1228 112.018 25.3741C112.54 25.6254 113.006 25.9848 113.387 26.4299C115.229 31.7977 116.957 37.3234 118.569 42.6518C118.785 43.3336 118.993 44.0153 119.2 44.6939L119.201 44.6952L119.201 44.696L119.201 44.6969C119.474 45.5887 119.745 46.4751 120.028 47.3487C115.92 49.8747 115.728 49.8353 107.513 47.3487H106.937V47.9407C106.802 48.6306 106.818 49.3428 106.984 50.0255C107.15 50.7083 107.462 51.3444 107.897 51.8877C109.432 53.7033 112.542 54.0585 118.108 54.0585V62.6628V62.67C118.108 72.6946 118.108 86.3448 117.917 87.4496C117.739 88.471 115.365 88.2113 112.672 87.9168C112.452 87.8927 112.229 87.8683 112.005 87.8443C112.307 78.8821 112.14 69.9095 111.505 60.9656C110.891 60.1368 106.822 60.0973 93.2315 60.7683H89.8531C88.8166 60.7683 88.8165 62.5049 88.8165 64.1627V64.7942V81.8055V87.3312H83.5571V82.0423V67.8728C83.5131 66.2156 83.3335 64.5652 83.0198 62.9391C83.0198 62.3076 83.0198 61.6761 82.751 61.0446C82.3287 57.9265 80.1788 57.6502 77.9138 57.7686C69.967 58.3212 57.4133 58.6764 57.2597 58.6764H56.991C56.6507 58.7419 56.3483 58.9398 56.1465 59.229C55.9535 59.5651 55.8331 59.94 55.7934 60.3281C55.7536 60.7163 55.7955 61.1087 55.9161 61.4787C56.2617 63.018 56.415 79.6742 56.4534 87.6075H54.227V73.9511V59.6631V57.4529V55.2426C59.2468 56.0305 60.2122 52.0603 61.0556 48.5916L61.0603 48.5722L61.2907 47.7039C61.4595 47.2153 61.495 46.6886 61.3935 46.1807C61.292 45.6728 61.0575 45.2032 60.715 44.8226C60.062 44.1833 59.3083 44.5796 58.6987 44.9001C58.5556 44.9753 58.4204 45.0464 58.2963 45.0989L57.8739 45.3752C57.5327 45.3752 57.4342 45.8739 57.3357 46.3728L57.3356 46.3729C57.3233 46.4353 57.311 46.4978 57.2981 46.5593C57.1766 47.6328 56.6866 48.6264 55.9161 49.3616C54.4189 50.743 51.6932 49.5984 51.0789 49.0459C50.4647 48.4933 50.0424 45.0989 50.3879 43.3623V42.9281C51.3436 36.717 52.8206 30.6027 54.8027 24.6537C62.0142 24.241 69.2421 24.2278 76.4549 24.6143ZM59.9855 62.3865H73.0381H78.6816V87.6075H59.9471C59.8703 84.8052 59.9087 72.175 59.9855 62.3865ZM93.8459 65.5046C98.2662 64.8893 102.747 64.8893 107.167 65.5046C108.03 72.5904 108.107 79.7539 107.398 86.8576H93.8459V65.5046ZM50.0039 92.8959L48.6219 90.9225C47.1145 88.838 45.1509 87.1478 42.8898 85.989C40.6288 84.8301 38.1339 84.2351 35.6075 84.2521C33.381 84.2056 31.1756 84.7038 29.1731 85.7057C27.1707 86.7076 25.4285 88.1845 24.0904 90.0147C21.4976 94.1727 19.603 98.7491 18.4855 103.553L18.1399 104.737C17.9643 105.337 17.9538 105.976 18.1097 106.582C18.2655 107.188 18.5815 107.738 19.0228 108.171C19.6521 108.796 20.4312 109.238 21.2809 109.453C22.1306 109.668 23.0205 109.648 23.86 109.394C24.6306 109.119 25.3868 108.803 26.1252 108.447H26.3171V108.448C26.3171 109.474 26.3171 110.5 26.1252 111.486C25.9028 114.177 25.813 116.877 25.8564 119.577C25.8564 121.867 26.7009 123.524 27.9678 123.958C28.2726 124.014 28.5844 124.014 28.8892 123.958C30.1658 123.837 31.348 123.215 32.1907 122.222C34.0738 120.211 35.7112 117.971 37.0663 115.551L38.7555 112.907C38.8638 113.046 38.9769 113.185 39.0914 113.326L39.0915 113.326L39.0916 113.326C39.3017 113.585 39.5165 113.85 39.7153 114.131C40.954 115.763 42.3425 117.27 43.8615 118.63C46.8944 121.196 49.0058 121.945 50.0807 120.919C51.3456 118.42 51.7643 115.559 51.2708 112.789C50.6387 110.362 49.6827 108.038 48.43 105.881L47.6237 104.263C51.0405 103.474 53.2671 102.605 53.8814 100.948C54.4956 99.29 53.8813 98.0664 52.1153 95.7772C51.5 95.0447 50.9121 94.1999 50.3284 93.3612L50.3276 93.3601L50.3269 93.359L50.3261 93.3579C50.2186 93.2035 50.1112 93.0492 50.0039 92.8959ZM29.3883 118.472C29.3904 115.958 29.7527 113.458 30.4633 111.052C30.8989 109.378 31.2323 107.677 31.4615 105.96C31.6918 104.224 31.8069 102.487 31.1159 101.737C31.0087 101.603 30.8741 101.494 30.7215 101.419C30.5689 101.344 30.4021 101.304 30.233 101.303C29.0183 101.453 27.8369 101.813 26.7393 102.369L26.1252 102.645C25.4908 102.969 24.8866 103.352 24.3207 103.79C23.681 104.294 22.9851 104.718 22.2477 105.053C22.2477 103.434 24.3591 91.4356 32.7666 88.5938C34.4044 88.028 36.1536 87.8905 37.856 88.1937C39.5584 88.4969 41.1604 89.2313 42.5177 90.3304C45.7469 92.718 48.2071 96.0446 49.5817 99.882C49.5817 100.214 48.2743 100.787 47.4451 101.151L47.2783 101.224C45.6275 101.895 43.9 102.605 43.4393 103.868C43.3707 104.151 43.3626 104.446 43.4156 104.732C43.4686 105.018 43.5814 105.289 43.7462 105.526C45.2818 107.934 49.1594 114.052 48.1612 117.367C45.6273 115.168 43.5289 112.488 41.9804 109.473C40.4448 106.868 39.7537 105.763 38.8324 105.802C37.9946 105.838 37.0932 107.277 34.8296 110.891C34.6038 111.252 34.3644 111.634 34.1102 112.039C32.7336 114.329 31.1529 116.483 29.3883 118.472ZM34.8014 83.3445H34.4942C31.171 83.2772 28.0095 81.8578 25.7029 79.3975C24.8312 78.4935 24.1417 77.4216 23.6739 76.243C23.2062 75.0645 22.9694 73.8027 22.9771 72.5298C22.8839 70.4399 23.1956 68.3518 23.8942 66.3868C24.5928 64.4218 25.6643 62.6192 27.0464 61.0837C27.9693 60.2469 29.0466 59.6095 30.2139 59.2095C31.3813 58.8094 32.615 58.6549 33.8416 58.755C36.9669 59.4766 39.7943 61.1849 41.9283 63.6408C44.0623 66.0966 45.396 69.1771 45.7425 72.4509C45.6246 75.3624 44.4235 78.1162 42.3874 80.1435C40.3512 82.1707 37.6357 83.3166 34.8014 83.3445ZM26.5473 69.5696V70.2406C26.5006 71.3067 26.6647 72.3715 27.0296 73.3707C27.3944 74.3698 27.9526 75.2824 28.6702 76.0535C29.3879 76.8246 30.2503 77.438 31.2051 77.8567C32.1599 78.2755 33.1874 78.4908 34.2254 78.4897C35.0375 78.5301 35.8494 78.4044 36.6138 78.1199C37.3783 77.8353 38.08 77.3976 38.6786 76.832C40.2915 75.488 41.3257 73.5458 41.5579 71.4247C41.5719 70.7486 41.4495 70.0769 41.1984 69.452C40.9474 68.827 40.5732 68.2623 40.0993 67.7935C38.8502 66.5772 37.3795 65.6267 35.7719 64.9968C34.1643 64.3668 32.4516 64.0698 30.732 64.1228C27.1195 64.1228 26.8591 66.6012 26.556 69.4867L26.5473 69.5696ZM63.2485 46.6381C63.2485 46.6381 62.2504 46.6381 61.6746 48.1379C62.338 49.8457 63.411 51.3529 64.7938 52.5193C66.1766 53.6856 67.8243 54.4731 69.583 54.8083C70.9998 54.9834 72.4368 54.8058 73.773 54.2907C75.1092 53.7755 76.3055 52.9378 77.2611 51.8481C78.1405 53.066 79.3061 54.0345 80.649 54.6627C81.992 55.2909 83.4683 55.5583 84.9391 55.4398H86.8587C88.2023 55.6766 89.9298 54.2162 91.2734 53.0716C91.8582 52.5765 91.7034 51.0673 91.6648 50.7589C92.7156 52.8469 94.4067 54.5386 96.4945 55.5581C97.1698 55.8686 97.9052 56.0171 98.6446 55.9922C100.801 55.9022 102.889 55.1911 104.672 53.9398C105.173 53.6529 105.587 53.2271 105.865 52.7109C106.143 52.1946 106.275 51.6085 106.246 51.0191C106.225 50.7169 106.225 50.4135 106.246 50.1113C106.438 49.3614 104.748 48.1773 104.173 47.9799C103.998 47.8935 103.798 47.8779 103.613 47.9365C103.428 47.9951 103.272 48.1234 103.175 48.2957C102.944 48.9422 102.582 49.5304 102.112 50.0206C101.641 50.5108 101.074 50.8917 100.449 51.1375C98.5177 51.7102 96.2275 50.3255 94.4815 49.2698L94.3064 49.164C94.0965 49.0374 93.9061 48.9207 93.7326 48.8144C92.4459 48.0262 92.0834 47.8041 91.5422 48.2562C91.3707 48.4018 91.2407 48.5925 91.1663 48.808C91.092 49.0234 91.076 49.2557 91.1199 49.4798C91.1531 49.5737 91.1874 49.6669 91.223 49.7596C91.2018 49.7409 91.1802 49.7264 91.1584 49.7167C90.827 49.6002 90.4715 49.5753 90.1279 49.6446C89.7842 49.7138 89.4644 49.8749 89.2004 50.1114C88.553 50.5777 87.799 50.8633 87.0121 50.9403C85.3763 50.9536 83.7565 50.6086 82.2604 49.928C80.7644 49.2474 79.4264 48.247 78.3359 46.9933C77.6065 46.2829 77.2609 46.0066 76.877 46.0461H76.6083C76.12 47.0788 75.3982 47.9761 74.5032 48.6628C73.6081 49.3496 72.566 49.8057 71.4641 49.993C69.9441 50.0425 68.4305 49.7702 67.0172 49.1931C65.6039 48.616 64.3211 47.7463 63.2485 46.6381ZM89.9417 33.2037L89.9419 33.206L89.9419 33.2064C90.163 35.743 90.3875 38.3174 90.7743 40.8362C91.0046 42.6123 91.926 44.7831 93.6536 44.7831C93.8788 44.7839 94.1018 44.735 94.3071 44.6397C94.5124 44.5444 94.6953 44.4048 94.8437 44.2305C95.5804 43.0639 95.8551 41.6518 95.6115 40.2836C95.4451 37.1475 95.0212 34.0315 94.3446 30.9688C94.3446 30.0215 93.5386 27.0218 91.6574 27.3771C90.6593 27.3771 90.352 27.6928 90.0833 27.9691L90.0824 27.97L90.082 27.9704C89.9743 28.0811 89.9538 28.1023 89.9524 28.1011C89.9521 28.1008 89.9528 28.0993 89.9537 28.0974C89.9585 28.0875 89.9681 28.0678 89.853 28.1665H89.5076V28.5217C89.6513 29.4823 89.7276 30.5466 89.7998 31.5529L89.8145 31.7582C89.8574 32.2362 89.8992 32.7163 89.9412 33.1977L89.9414 33.2007L89.9417 33.2037ZM76.5701 44.9806C76.4205 45.0317 76.2587 45.0317 76.1092 44.9806C75.5333 44.6648 75.2262 43.7175 74.9191 41.6651C74.612 39.6127 73.2683 29.3112 76.6467 28.5218C77.1842 28.4034 77.9137 28.6007 78.4512 30.2979C79.5261 33.6133 79.6797 43.8754 77.9905 44.6253H77.6833C77.335 44.8092 76.9584 44.9294 76.5701 44.9806ZM61.7897 43.3227H62.1353C62.3875 43.2262 62.6096 43.0617 62.7785 42.8464C62.9474 42.631 63.0568 42.3729 63.0951 42.0991L64.8993 30.0215C64.8982 29.8642 64.8592 29.7097 64.7854 29.5719C64.7117 29.4341 64.6057 29.3173 64.4771 29.2321C64.2227 29.0938 63.9393 29.0216 63.6516 29.0216C63.3639 29.0216 63.0807 29.0938 62.8263 29.2321C61.2962 30.6019 60.2668 32.4678 59.9086 34.521C59.4338 35.9266 59.2769 37.425 59.4498 38.9022C59.6228 40.3795 60.1211 41.7968 60.9068 43.0464C61.1569 43.2494 61.4721 43.348 61.7897 43.3227ZM106.899 46.0853C106.505 46.0723 106.115 45.9923 105.747 45.8485C103.328 44.9407 102.061 34.4418 101.946 30.3765C102.038 29.6585 102.341 28.9864 102.814 28.4503C103.287 27.9142 103.909 27.5396 104.595 27.3768C104.88 27.2522 105.198 27.2354 105.493 27.3294C105.788 27.4233 106.041 27.622 106.208 27.8899C107.543 33.2456 108.404 38.7148 108.78 44.2303C108.738 44.6046 108.617 44.9648 108.424 45.2854C108.232 45.606 107.973 45.8791 107.666 46.0853C107.417 46.167 107.148 46.167 106.899 46.0853Z" fill="#212E3B"/>
</svg>
