<svg width="144" height="144" viewBox="0 0 144 144" fill="none" xmlns="http://www.w3.org/2000/svg">
<path fill-rule="evenodd" clip-rule="evenodd" d="M40.1722 100.314C43.0166 100.879 55.5318 129.695 61.7894 130.825C68.047 131.955 77.149 127.435 79.4245 122.35C81.7 117.265 59.5099 96.2575 60.0787 92.5468C60.6475 88.8362 88.5183 90.7589 97.0554 88.1916C101.777 86.7718 104.578 83.0736 105.593 78.2791C107.864 67.5439 100.27 53.1733 91.9356 40.5658C86.8157 32.8206 70.8873 18.7943 62.9272 20.083C58.8075 20.75 56.1475 21.613 53.2563 24.6031C45.8569 32.2556 35.6212 63.0238 32.7769 66.4139C29.9326 69.8039 18.8091 70.8079 15.7107 78.2791C12.8981 85.061 13.4841 91.1103 17.9862 96.9244C21.0298 100.855 23.8378 103.115 28.7948 103.705C33.4007 104.252 37.3279 99.7495 40.1722 100.314ZM65.7715 124.752C62.9312 124.752 44.7191 100.314 46.4258 96.9244C48.1324 93.5344 50.9767 91.9818 53.2522 92.5468C55.5277 93.1118 73.171 118.952 72.0291 121.22C70.8873 123.488 68.6118 124.752 65.7715 124.752ZM34.4794 71.7987C36.1861 72.3637 45.8568 87.054 45.8569 88.749C45.8569 90.4441 37.4068 100.737 29.9325 98.6194C25.2471 97.2921 22.6279 94.6423 20.8306 90.1443C19.2735 86.2476 19.1941 83.2735 20.8306 79.4091C23.1956 73.8241 32.7727 71.2337 34.4794 71.7987ZM52.1186 85.924C50.416 84.9094 39.5992 69.8039 39.0304 66.4139C38.4616 63.0238 48.7013 39.6007 52.1186 40.5659C55.5359 41.531 55.895 54.6652 62.9231 64.8611C70.6636 76.0908 82.8295 84.1868 81.127 85.0592C79.4245 85.9315 53.8211 86.9385 52.1186 85.924ZM62.9231 25.8754C59.5098 26.4405 57.3656 28.7005 56.6655 30.9605C55.9653 33.2206 59.5532 49.4307 67.4781 62.1936C76.064 76.0207 88.5183 82.5415 93.0733 82.5415C97.6284 82.5415 100.477 79.1018 101.042 73.194C101.606 67.2862 94.3598 52.5648 86.2469 42.4182C76.9505 30.7915 66.3363 25.3104 62.9231 25.8754Z" fill="#212E3B"/>
<path d="M67.4781 49.0893C67.4822 48.6073 80.6329 45.3839 84.5443 50.7843C88.3863 56.0887 83.4107 67.8176 81.1311 67.1696C78.8515 66.5216 78.9879 66.2506 79.4204 65.3915C79.9893 64.2615 84.3773 57.2249 81.1311 53.1534C77.9559 49.1711 69.7495 51.8313 69.1807 51.8313C68.6118 51.8313 67.4741 49.5713 67.4781 49.0893Z" fill="#212E3B"/>
<path d="M128.326 29.0339C128.84 30.849 114.968 36.7462 108.289 40.6024C107.22 41.2194 104.139 41.5903 104.057 39.9052C103.975 38.2201 104.068 38.3826 105.15 37.3251C110.336 32.5988 116.831 28.8488 123.517 26.7206C127.039 25.8787 127.722 27.2168 128.326 29.0339Z" fill="#212E3B"/>
<path d="M127.874 61.5943C127.206 63.3314 116.558 59.5291 110.9 58.4965C109.995 58.3313 108.12 56.7498 108.956 55.377C109.791 54.0041 109.757 54.1887 110.899 54.0159C116.197 53.458 121.699 54.4622 126.458 56.8556C128.819 58.3351 128.493 59.8008 127.874 61.5943Z" fill="#212E3B"/>
<path d="M91 25.9966C91 23.098 92.5868 12.2283 95.2646 13.0435C97.9424 13.8588 98.0416 14.5832 97.992 17.663C97.9424 20.7428 98.2399 33.3336 94.9671 31.8843C91.6942 30.435 91 28.8952 91 25.9966Z" fill="#212E3B"/>
</svg>
