<svg width="144" height="144" viewBox="0 0 144 144" fill="none" xmlns="http://www.w3.org/2000/svg">
<path d="M79.1564 39.9772C80.9469 39.7623 82.7631 39.9485 84.4728 40.5221C86.1824 41.0958 87.7426 42.0432 89.0411 43.2946C95.9617 50.7763 97.3651 57.6032 92.8761 66.0202C92.6028 66.4404 92.2369 66.7933 91.8077 67.0524C91.3786 67.3114 90.8967 67.4702 90.3976 67.5163C89.9283 67.3549 89.5115 67.0696 89.1906 66.6911C88.8696 66.3125 88.6567 65.8543 88.5743 65.3649C88.6508 63.1458 89.012 60.9459 89.6495 58.819C90.128 57.4953 90.3179 56.0843 90.2062 54.6813C90.0944 53.2781 89.6832 51.9146 89.0011 50.6832C88.319 49.4521 87.3813 48.3806 86.2511 47.5416C85.121 46.7028 83.8242 46.1154 82.4484 45.819C77.7723 44.2291 73.9379 46.8948 72.0675 53.1139C71.3661 55.5922 71.4123 60.9695 70.2433 61.8112C69.0742 62.6527 63.2299 56.8081 60.1437 54.3297C52.8023 48.625 49.5289 51.8513 46.5363 58.2575C43.0292 65.7859 44.5252 70.8367 51.212 76.0739C54.5788 78.6457 58.1798 80.7498 61.7335 83.1813C63.6506 84.397 65.7546 85.2388 67.9523 86.361C66.7833 82.059 65.5208 78.2245 64.7726 74.3434C64.6362 73.5223 64.6745 72.6812 64.8839 71.8756C65.0933 71.0704 65.4696 70.3181 65.9884 69.6676C66.7757 69.2868 67.6392 69.0885 68.5138 69.0885C69.3881 69.0886 70.2511 69.2869 71.0382 69.6676C73.257 71.0438 75.3541 72.608 77.3048 74.3434C79.5961 71.6781 82.2612 68.3583 84.3654 68.4518C86.4696 68.5454 89.4152 74.811 89.0411 77.1491C90.3961 76.3325 91.9484 75.901 93.5304 75.901C95.1124 75.901 96.6647 76.3326 98.0197 77.1491C99.2353 78.2713 97.1782 82.7599 94.9806 86.5006C95.6831 86.781 101.76 86.5015 101.901 88.3717C102.041 90.2421 99.843 92.627 98.2999 93.983C95.3536 96.456 92.2272 98.7066 88.9474 100.716C83.1026 104.504 81.4197 110.069 84.8331 118.579C91.0519 118.953 87.639 113.903 87.3116 112.173C86.914 110.449 86.9139 108.658 87.3116 106.935C87.4837 106.543 87.7476 106.198 88.0812 105.929C88.4149 105.661 88.8086 105.476 89.2286 105.392C89.6343 105.517 90.0054 105.734 90.3136 106.026C90.6218 106.318 90.8593 106.677 91.006 107.076C92.549 110.957 91.5195 110.256 92.5948 114.23C93.0157 115.773 92.5958 120.496 91.0529 121.245C89.58 121.875 87.9691 122.117 86.3761 121.946C82.1677 120.824 80.0635 117.877 79.6427 112.266C75.2004 121.618 66.7829 122.647 59.0206 124.143C51.3373 126.307 43.1204 125.489 36.0148 121.852C28.3929 117.176 25.1194 109.554 21.9865 101.652C18.1276 92.1092 17.0418 81.6705 18.8536 71.5377C20.724 62.1861 33.6286 52.3665 34.7521 52.5524C35.8741 52.7394 36.248 52.5061 36.2482 52.9733C36.2482 53.3941 30.7313 59.4264 28.5802 63.027C20.023 77.3357 22.9218 91.4108 29.6085 105.392C31.4027 109.895 34.7389 113.614 39.0216 115.883C43.3045 118.153 48.2557 118.827 52.9894 117.784C56.1194 117.736 59.2431 117.486 62.3409 117.036C66.4186 116.299 70.2276 114.491 73.3771 111.798C79.4559 104.083 85.3942 96.5075 94.7462 92.5329C95.5414 92.2055 98.3935 91.3637 97.5519 89.7272C96.7096 88.0912 92.2678 89.2128 89.6027 88.9323C94.6526 80.5156 94.6525 78.6921 93.8575 78.318C92.2207 77.477 88.1063 82.2928 84.506 84.7243C84.506 80.7029 87.405 73.2675 84.506 72.5192C81.6068 71.771 80.7179 81.8718 79.1281 85.8932L77.3517 85.4254C76.0424 80.0013 69.8697 69.387 67.9991 71.818C66.1287 74.2496 69.2622 79.2534 70.9923 81.5914C76.2291 88.6989 72.7222 94.451 68.1398 99.2672C66.26 101.625 63.7277 103.378 60.8595 104.309C57.9914 105.24 54.9131 105.308 52.007 104.504C49.35 104.031 46.8727 102.84 44.8448 101.059C42.8173 99.2788 41.3163 96.9771 40.504 94.4039C40.0577 92.1992 40.3711 89.908 41.3927 87.9039C44.4321 94.3569 47.8926 99.0325 55.421 98.0973C57.495 98.1161 59.542 97.628 61.3839 96.6745C63.2259 95.7209 64.8065 94.3311 65.9884 92.6266C59.2082 88.1844 52.3808 84.4439 46.3488 79.6745C35.0326 70.7899 40.0358 53.0667 49.8556 46.9411C54.5316 44.042 58.7867 46.1933 62.5275 49.4664L66.8302 53.4411C67.1381 50.5034 68.3653 47.7379 70.337 45.5387C71.3026 44.0157 72.5948 42.7262 74.1202 41.7643C75.6455 40.8025 77.366 40.1921 79.1564 39.9772ZM94.8859 107.964C100.637 108.572 98.6273 111.799 101.901 118.766C102.087 119.141 100.638 120.637 100.404 121.057C98.3717 119.591 96.781 117.594 95.8077 115.285C94.8346 112.976 94.5155 110.443 94.8859 107.964ZM94.7462 39.1793C105.527 46.7528 114.804 56.2673 122.102 67.236C128.742 79.721 126.777 90.0554 116.256 99.6413C112.609 103.039 108.717 106.164 104.612 108.993C103.069 109.741 102.088 107.918 101.106 106.796C100.124 105.673 102.882 103.476 104.098 102.12C107.659 98.699 111.49 95.5711 115.555 92.7672C117.669 91.3465 119.296 89.3112 120.216 86.9362C121.136 84.5612 121.304 81.9609 120.698 79.487C119.041 70.7923 114.611 62.8686 108.073 56.902C103.771 52.2261 98.7211 48.5784 94.84 43.7155C94.3256 43.3881 93.3434 39.1793 94.7462 39.1793ZM38.0255 31.7438C39.4284 31.7446 42.0466 37.1217 43.4493 39.4596C43.4493 39.6934 42.6082 41.5636 41.7198 41.5641C40.8314 41.5641 35.4073 37.215 35.4073 35.8121C35.4075 34.4093 36.576 31.7438 38.0255 31.7438ZM59.9093 18.2301C60.7043 17.5288 63.7902 18.698 63.7902 19.1188C64.362 23.2416 64.4253 27.4192 63.9777 31.5573C63.2763 32.3054 61.3123 31.2764 60.3771 30.6217C59.4331 26.5587 59.2742 22.3527 59.9093 18.2301ZM84.4122 21.0358C85.3944 20.5216 88.1065 20.7089 88.0597 21.5973C87.9791 24.9387 87.3956 28.2489 86.3292 31.4166C85.3472 31.8375 83.4763 31.9307 83.3361 30.902C82.8419 27.5755 83.2129 24.1777 84.4122 21.0358Z" fill="#212E3B"/>
</svg>
