<svg width="144" height="144" viewBox="0 0 144 144" fill="none" xmlns="http://www.w3.org/2000/svg">
<path fill-rule="evenodd" clip-rule="evenodd" d="M54.671 76.7565C50.74 76.9881 46.7989 76.9881 42.8678 76.7565C42.0538 62.5367 45.536 50.1458 56.5703 42.0528C57.0211 41.7304 57.4586 41.4647 57.8665 41.2171C59.1359 40.4462 60.1185 39.8496 60.3238 38.2578C60.7307 33.0077 60.7307 27.7335 60.3238 22.4834C60.2663 21.1282 60.0847 19.7812 59.7812 18.4598C59.5098 17.0424 53.0882 19.2828 51.415 20.0601C46.859 22.1805 42.4343 24.5777 38.1648 27.2386C33.3688 30.0386 29.2337 33.8615 26.0472 38.4413C22.8608 43.0211 20.6996 48.2478 19.7139 53.7579C18.3314 63.5992 17.7868 73.5423 18.086 83.4777C17.9051 95.8686 17.9955 108.305 18.493 120.696C18.5834 122.342 19.1712 124.125 20.9801 124.125C23.7318 124.304 26.6771 124.529 29.7081 124.761C37.5365 125.358 45.936 126 53.0429 126C55.304 125.954 58.8315 124.537 59.4646 122.891C60.4214 119.381 60.7883 115.733 60.5499 112.1C60.5499 108.668 60.575 105.24 60.6002 101.816C60.6504 94.9779 60.7005 88.1534 60.5499 81.3288C60.4594 77.7624 59.555 76.2078 54.671 76.7565ZM41.5049 30.6015C45.666 27.7101 50.3834 25.7384 55.3493 24.8153C55.5554 28.8654 55.3431 32.9262 54.7161 36.9318C52.0037 38.8011 49.3922 40.8159 46.8927 42.9673C37.8482 51.6089 36.0393 62.7653 37.3959 74.4704C37.4435 77.0246 37.9972 79.5432 39.024 81.8774C41.9248 82.9008 45.0208 83.2294 48.0685 82.8376C48.8993 82.8376 49.8511 82.6795 50.801 82.5217C52.6951 82.207 54.5814 81.8936 55.485 82.8376C56.8416 84.255 56.706 116.124 55.485 118.593C54.5978 120.387 44.6623 119.719 35.6702 119.114C32.2864 118.886 29.0362 118.668 26.452 118.593C26.4226 118.593 26.3924 118.593 26.3614 118.593C25.4405 118.594 23.8744 118.597 23.8744 117.358C23.6606 110.686 23.7357 102.907 23.8069 95.5306C23.8411 91.9894 23.8744 88.541 23.8744 85.3524C23.48 77.2376 23.722 69.104 24.598 61.0278C25.5296 54.1783 27.7721 47.5779 31.2005 41.5956C33.8326 37.2392 37.3437 33.493 41.5049 30.6015ZM123.062 27.4484C122.823 23.2344 122.605 19.3994 122.052 19.1455C115.124 20.2656 108.411 22.4716 102.155 25.6839C88.4521 31.9022 84.7891 44.6589 82.3923 57.6899C80.5936 67.6241 79.5354 77.681 79.2267 87.7755C79.187 89.1191 79.1486 90.4381 79.1108 91.7389C78.8477 100.797 78.6102 108.969 78.0961 118.364C77.87 122.571 80.1764 124.994 81.0808 124.994C89.9794 125.301 99.6937 125.196 109.128 125.093C113.742 125.043 118.289 124.994 122.64 124.994C123.816 124.994 125.987 123.074 125.987 122.068C126.037 115.094 125.935 107.618 125.834 100.194C125.752 94.1843 125.67 88.209 125.67 82.5631C125.67 78.1737 124.494 77.1221 121.148 76.7563C118.694 76.523 115.101 76.8407 111.832 77.1297C108.054 77.4637 104.708 77.7594 104.054 77.1221C103.058 76.1528 103.656 71.779 104.082 68.6602C104.179 67.954 104.267 67.3121 104.325 66.7887C104.449 61.3793 106.076 56.1142 109.019 51.5947C111.961 47.0752 116.102 43.4835 120.967 41.2297C122.839 40.4049 123.73 40.1335 124.053 39.5484C124.339 39.0307 124.18 38.2673 123.861 36.6574C123.459 34.4411 123.254 30.8232 123.062 27.4484ZM110.938 82.952C115.453 82.7258 119.927 82.5016 119.927 83.9348C120.153 86.1295 121.555 115.849 120.108 117.312C118.661 118.776 87.5477 119.964 85.1961 117.312C83.6133 114.112 85.5578 84.1177 85.5578 84.1177C85.5578 74.5005 86.6942 68.6583 88.0426 61.726C88.7072 58.3096 89.4232 54.6283 90.0801 50.0999C92.0699 36.383 116.581 23.7635 117.802 24.8609C119 28.3062 119.127 32.04 118.163 35.56C112.573 37.7182 107.73 41.4856 104.235 46.3964C101.42 50.9254 99.6427 56.034 99.0342 61.3477C98.4052 64.9629 98.1397 68.6026 97.8829 72.1233C97.7889 73.4116 97.6961 74.6839 97.5871 75.9333C97.1801 80.5971 100.436 82.7917 104.37 83.0661C106.128 83.193 108.538 83.0722 110.938 82.952Z" fill="#212E3B"/>
</svg>
