<svg width="144" height="144" viewBox="0 0 144 144" fill="none" xmlns="http://www.w3.org/2000/svg">
<path d="M83.1461 43.4545C82.7168 46.8888 82.7168 66.797 82.7168 66.797V68.3532V68.3704V68.7825H86.5804C86.5804 68.7825 86.5804 46.0302 87.0097 43.8838C87.439 41.7374 90.444 33.1515 92.1612 33.1515C93.8783 33.1515 94.3076 43.0251 94.7369 44.7423C95.1662 46.4594 94.7369 68.7825 94.7369 68.7825H97.7419L97.7573 68.3532L97.8073 66.9516C97.8073 66.9516 98.6005 47.318 98.6005 44.7423C98.6005 42.1666 94.3076 28 93.0197 28C91.7319 28 83.5754 40.0202 83.1461 43.4545Z" fill="#212E3B"/>
<path d="M17.0354 113.429C16.1769 112.141 31.202 92.3938 31.202 92.3938H35.9242C35.9242 92.3938 20.8991 110.853 21.3283 111.282C21.7575 111.712 29.5689 110.211 34.207 107.848C41.6199 104.072 48.8689 92.3938 48.8689 92.3938L49.6615 91.9645L56.1008 92.3938C56.1008 92.3938 45.9807 107.363 35.9242 111.282C29.007 113.979 17.8939 114.717 17.0354 113.429Z" fill="#212E3B"/>
<path d="M58.2472 112.141C57.818 111.283 58.2472 92.3938 58.2472 92.3938H62.1108C62.1108 92.3938 62.1107 109.565 62.1108 109.995C62.1109 110.424 62.9695 112.141 63.3987 112.141C63.8279 112.141 64.6865 110.424 64.6865 109.995C64.6866 109.565 64.6865 92.3938 64.6865 92.3938H69.4087C69.4087 92.3938 69.4088 109.995 69.4087 110.853C69.4086 111.712 65.1159 115.146 64.6865 115.575C64.2572 116.005 62.54 116.005 62.1108 115.575C61.6816 115.146 58.6764 113 58.2472 112.141Z" fill="#212E3B"/>
<path d="M93.4489 103.555C92.5903 101.409 81.874 92.3938 81.874 92.3938L81.4288 91.9645H77.9945L78.4238 92.3938C78.4238 92.3938 85.0064 97.4773 87.8682 101.838C89.5136 104.345 92.161 108.277 91.3025 108.707C90.444 109.136 73.7017 91.5352 73.7017 91.5352L70.2674 91.9645C70.2674 91.9645 93.0197 117.293 95.1661 116.005C97.3125 114.717 94.3076 105.702 93.4489 103.555Z" fill="#212E3B"/>
<path d="M56.9594 34.8686C53.5251 33.5807 49.6615 35.7272 47.5151 40.8787C45.3686 46.0303 62.0555 68.6825 62.0555 68.6825L66.8331 68.3532C66.8331 68.3532 49.2322 43.8838 50.9494 40.8787C52.6665 37.8737 54.813 38.303 55.6716 39.1616C56.5301 40.0202 56.9669 45.3492 59.1059 49.4645C61.2635 53.6156 63.3126 55.9188 66.4038 55.9039C67.7829 55.8972 69.2121 54.6936 69.8381 53.3281C70.5584 51.7571 70.6967 50.7524 71.5553 51.1817C73.1843 51.9962 70.2674 55.9039 69.8381 57.1917C69.4088 58.4796 71.5553 61.4847 72.4138 61.9139C73.2724 62.3431 74.9896 60.1967 75.8482 60.626C76.7067 61.0554 80.1411 68.3532 80.1411 68.3532H82.7168V66.797C82.7168 66.797 78.4239 57.6209 77.136 56.7624C75.8482 55.9039 75.6337 57.6211 74.5603 57.1917C73.4869 56.7624 77.9946 52.8988 76.2775 51.1817C74.5603 49.4646 68.5502 45.1716 66.4038 46.8888C64.2574 48.6059 67.6917 50.3232 67.2624 51.611C66.8331 52.8988 66.8331 52.8988 65.5452 52.8988C64.2574 52.8988 63.0001 50.6254 61.2523 46.0302C59.6128 41.7197 60.3937 36.1566 56.9594 34.8686Z" fill="#212E3B"/>
<path fill-rule="evenodd" clip-rule="evenodd" d="M29.8787 70.9289C24.7272 74.3633 24.7272 89.8177 29.8787 91.9645C30.7373 92.3938 31.202 92.3938 31.202 92.3938H35.9242H48.8689L49.6615 91.9645L56.1008 92.3938H58.2472H62.1108H64.6865H69.4087H78.4238L77.9945 91.9645H81.4288L81.874 92.3938C81.874 92.3938 102.035 93.6813 109.333 91.5352C116.631 89.3891 116.417 74.7929 110.621 70.9289C104.825 67.065 91.5019 67.8429 72.4138 67.4946C52.6732 67.1345 35.0302 67.4946 29.8787 70.9289ZM108.045 73.9343C104.611 70.0704 38.0352 68.5403 32.4899 73.0757C26.9445 77.6111 28.197 85.9544 32.8837 88.1005C37.5704 90.2466 52.1379 89.5081 69.8381 89.3884C88.4057 89.2627 102.893 91.1055 107.616 87.6712C112.338 84.2369 111.479 77.7983 108.045 73.9343Z" fill="#212E3B"/>
<path d="M97.8073 66.9516L97.7573 68.3532H99.8884C99.8884 68.3532 102.035 63.2017 102.893 63.2017C103.308 63.2017 103.567 64.9631 104.611 66.2068C105.726 67.5359 105.898 67.4946 107.616 67.9239C109.333 68.3532 119.206 57.621 118.777 55.9038C118.348 54.1866 115.343 53.7574 115.772 52.8988C116.201 52.0402 120.924 53.3281 121.782 53.3281C122.641 53.3281 122.829 51.7049 123.499 52.0402C124.358 52.4695 123.929 55.0452 123.499 55.9038C123.07 56.7624 110.621 72.2168 110.621 72.2168L112.767 73.934C112.767 73.934 125.646 57.1917 126.504 55.9038C127.363 54.6159 126.934 50.7523 126.504 49.8938C126.075 49.0352 124.315 46.6206 122.641 47.318C121.525 47.783 123.07 49.4645 120.924 49.8938C118.777 50.323 112.338 49.4645 111.05 51.1816C109.762 52.8988 114.913 54.6159 114.913 55.9038C114.913 57.1917 108.474 65.062 107.616 64.4896C106.757 63.9172 106.36 63.6195 106.328 62.3431C106.276 60.2974 109.762 58.9088 109.333 58.0503C108.903 57.1917 108.903 57.1917 107.616 56.7624C106.328 56.3331 101.606 60.1967 100.747 61.4846C99.8884 62.7724 97.8073 66.9516 97.8073 66.9516Z" fill="#212E3B"/>
<path d="M35.2751 78.6629C35.0567 80.1318 35.3988 81.6237 36.2294 82.8249C36.9442 84.0478 38.0861 84.9401 39.4246 85.3217C40.1021 85.4657 40.8025 85.4677 41.4842 85.3274C42.1658 85.1872 42.8148 84.9076 43.3927 84.5053C44.0811 84.0093 44.6691 83.379 45.1228 82.6507C45.5764 81.9225 45.8867 81.1107 46.0358 80.2621C46.2107 78.9989 45.9158 77.7201 45.2103 76.6828C44.5048 75.6454 43.4411 74.9264 42.2329 74.6703C40.5993 74.4691 38.9441 74.9024 37.5896 75.8857C36.5027 76.4734 35.6734 77.4685 35.2751 78.6629ZM37.515 79.102C37.7295 78.5321 38.1288 78.0543 38.6444 77.7505C39.5858 77.0182 40.7348 76.6296 41.9072 76.647C42.6661 76.8749 43.3025 77.4048 43.6767 78.1204C44.1192 78.7618 44.2956 79.5604 44.1675 80.3422C43.8385 82.0207 42.7138 83.0331 41.6115 82.8808C38.9275 82.3972 37.3332 80.5543 37.5305 79.2326L37.515 79.102Z" fill="#212E3B"/>
<path d="M93.6584 78.6629C93.44 80.1318 93.7821 81.6237 94.6128 82.8249C95.3276 84.0478 96.4695 84.9401 97.8079 85.3217C98.4855 85.4657 99.1859 85.4677 99.8675 85.3274C100.549 85.1872 101.198 84.9076 101.776 84.5053C102.464 84.0093 103.052 83.379 103.506 82.6507C103.96 81.9225 104.27 81.1107 104.419 80.2621C104.594 78.9989 104.299 77.7201 103.594 76.6828C102.888 75.6454 101.824 74.9264 100.616 74.6703C98.9826 74.4691 97.3274 74.9024 95.973 75.8857C94.886 76.4734 94.0567 77.4685 93.6584 78.6629ZM95.8983 79.102C96.1129 78.5321 96.5121 78.0543 97.0277 77.7505C97.9692 77.0182 99.1181 76.6296 100.29 76.647C101.049 76.8749 101.686 77.4048 102.06 78.1204C102.503 78.7618 102.679 79.5604 102.551 80.3422C102.222 82.0207 101.097 83.0331 99.9949 82.8808C97.3108 82.3972 95.7166 80.5543 95.9139 79.2326L95.8983 79.102Z" fill="#212E3B"/>
<path d="M28.9273 105.686C28.8733 105.102 36.1784 95.7542 41.1052 90.9154C41.4693 90.5512 42.8875 92.1019 42.4847 92.5267C39.0088 96.0026 36.6961 100.063 33.2202 103.539C32.3297 104.574 31.2497 106.083 30.2153 106.974C29.548 107.465 29.0144 106.302 28.9273 105.686Z" fill="#212E3B"/>
<path d="M92.2107 48.8708C92.5603 49.2413 92.5844 61.1897 92.5362 68.0206C92.5362 68.53 90.9089 68.4374 90.8969 67.8585C90.8969 62.9958 90.8969 58.1563 90.8969 53.2936C90.8181 51.9471 90.8181 50.5879 90.8969 49.2414C90.9933 48.4309 91.825 48.5003 92.2107 48.8708Z" fill="#212E3B"/>
</svg>
