<svg width="144" height="144" viewBox="0 0 144 144" fill="none" xmlns="http://www.w3.org/2000/svg">
<path d="M116.974 112.393C111.782 110.281 106.59 108.332 101.357 106.22C100.465 105.895 98.1524 104.514 98.1524 106.545C98.1524 108.575 99.2476 108.941 100.181 109.55C102.5 110.773 104.883 111.872 107.32 112.84H87.6461C86.2669 93.1004 87.9706 56.4235 86.7537 55.6924C81.5393 54.9382 76.2498 54.8562 71.0146 55.4486C70.3384 55.6497 69.7221 56.0142 69.2198 56.51C68.7176 57.0058 68.3448 57.6178 68.1345 58.2918C67.6882 66.9432 67.4854 75.5946 67.3637 84.2866C67.3637 93.9128 67.3637 103.539 67.3637 113.246L62.3743 113.652V109.185C62.3743 96.7153 62.3743 84.246 62.3743 71.7766C62.3743 68.771 61.6847 66.6183 58.3178 66.7807C54.9509 66.9432 51.3407 67.2275 47.8521 67.39C45.3776 67.39 43.7956 68.243 43.7956 71.0861C43.7956 82.6619 43.4711 94.2783 43.3494 105.895C43.3494 108.616 43.3494 111.378 43.3494 114.018H33.8978C34.4657 85.1802 35.0742 54.9206 35.6421 25.4328C37.221 27.512 38.9861 29.4425 40.9155 31.2005C41.3615 31.4341 41.8496 31.576 42.3512 31.6179C42.8528 31.6597 43.3577 31.6007 43.8362 31.4441C43.8362 31.4441 41.2806 26.3264 40.5504 25.311C37.6703 21.5336 38.3599 22.0211 34.9525 18C32.7334 19.5093 30.6067 21.1504 28.5838 22.9146C26.799 24.6205 24 27.5856 24 28.7228C24 29.8601 28.7866 27.1794 31.1394 26.4483V32.5002L30.6526 104.108C30.6526 107.926 30.6526 111.703 30.2875 115.521C30.2875 118.405 31.4234 119.258 34.344 119.339H38.0354C52.0708 119.339 66.1062 119.095 80.1822 119.055C89.9989 119.055 99.8156 119.055 109.429 119.055C107.482 120.76 102.817 123.116 103.02 124.619C103.223 126.122 103.71 125.553 104.034 126C109.228 124.357 113.993 121.583 117.989 117.877C120.95 115.358 120.666 113.856 116.974 112.393ZM57.2631 113.856C53.6123 113.571 50.6105 113.856 47.3653 113.571V70.6393H57.2631V113.856ZM82.4133 113.206H71.8664V58.9823H82.4133V113.206Z" fill="#212E3B"/>
</svg>
