<svg width="144" height="144" viewBox="0 0 144 144" fill="none" xmlns="http://www.w3.org/2000/svg">
<path fill-rule="evenodd" clip-rule="evenodd" d="M76.5902 25.4477C76.9475 21.8542 77.3047 18.2607 76.233 18.0965C74.5843 17.8913 73.2653 17.8502 72.3585 19.6972C71.04 23.3449 71.04 27.3362 72.3585 30.9839C72.3994 31.0807 72.4327 31.1654 72.4622 31.2405L72.4625 31.2413L72.4626 31.2414L72.4626 31.2416C72.6702 31.7701 72.6878 31.8149 73.8423 32.1742C75.1613 32.5846 76.233 31.066 76.233 30.4093C76.233 29.0413 76.4116 27.2445 76.5902 25.4477ZM66.3814 60.5342C63.9495 65.7466 51.2132 74.0784 50.3064 72.3135C50.03 71.7879 50.014 70.9076 49.9958 69.9004C49.9543 67.604 49.9008 64.6485 46.7205 63.7355C42.9899 62.5795 39.0796 62.1067 35.1796 62.3401C29.6151 62.7916 25.617 64.9668 26.0292 72.9291C26.4 79.8531 26.3538 86.7772 26.3074 93.7185C26.292 96.0349 26.2765 98.3532 26.2765 100.674C26.2765 102.326 26.2491 103.983 26.2217 105.643C26.1667 108.972 26.1115 112.314 26.2765 115.655C26.6474 122.878 29.1617 126.039 34.891 125.669C36.6637 125.567 38.2637 125.551 39.7027 125.536C46.93 125.463 50.0999 125.431 50.7186 114.752C53.4028 115.886 55.8389 117.531 57.8905 119.595C58.5657 120.092 59.2493 120.641 59.9412 121.197L59.9413 121.197L59.9414 121.197L59.9415 121.197L59.9416 121.197C62.3325 123.118 64.8226 125.118 67.4118 125.341C75.0489 126.068 82.7663 126.023 90.4778 125.978H90.4788H90.4798H90.4808H90.4819C92.3414 125.967 94.2006 125.956 96.0583 125.956C98.1096 125.901 100.081 125.151 101.647 123.831C103.213 122.51 104.28 120.697 104.673 118.692C104.905 117.968 104.997 117.354 105.084 116.782C105.227 115.831 105.353 114.998 106.074 113.972C108.292 113.372 110.208 111.974 111.449 110.048C112.69 108.121 113.169 105.805 112.793 103.547C112.547 102.444 112.038 101.416 111.309 100.551C113.174 98.9354 114.41 96.7192 114.802 94.289C115.193 91.8587 114.716 89.3686 113.452 87.2531C116.461 86.5964 119.717 78.2647 116.956 72.3135C114.565 67.06 110.114 66.8548 105.003 67.2652C101.07 67.5117 97.1009 67.4293 93.1439 67.3471L93.1436 67.3471C91.1698 67.3061 89.1991 67.2652 87.2376 67.2652C89.587 55.6911 87.1553 47.6467 80.2719 40.8747C77.7988 38.4531 76.0263 37.8785 73.2235 39.3561C71.554 40.231 70.2002 41.6027 69.3506 43.2801C68.5009 44.9574 68.1978 46.8569 68.4835 48.7139C68.9415 50.7242 68.9915 52.8054 68.6306 54.8353C68.2696 56.8651 67.5048 58.8027 66.3814 60.5342ZM81.5909 68.1563C80.6626 69.9157 79.5682 71.9899 81.3434 73.0112C83.1982 74.0783 100.304 73.3806 109.536 72.3956C110.229 72.4268 110.904 72.6218 111.507 72.9644C112.109 73.3069 112.62 73.7873 112.999 74.3657C113.286 75.4136 113.286 76.5191 112.999 77.567L112.976 77.8053C112.669 81.0791 112.621 81.5863 108.877 83.1898C108.499 83.3543 108.024 83.4246 107.547 83.4951C106.358 83.6709 105.162 83.8478 105.456 85.4883C105.599 86.2862 106.239 86.5251 106.996 86.8079C108.42 87.3396 110.259 88.0263 109.99 92.8759C109.785 96.6458 106.73 96.8184 105.192 96.9053C104.871 96.9234 104.616 96.9378 104.467 96.9802C104.293 97.0298 104.05 97.0611 103.778 97.0961C102.698 97.2353 101.153 97.4343 101.581 99.0734C102.117 101.126 102.942 101.126 104.178 101.126C106.692 101.577 107.434 102.029 107.434 105.23C107.228 110.565 102.406 110.524 97.9955 109.58C97.0887 109.375 93.4615 109.95 93.5852 112.043C93.6643 113.382 95.4301 113.445 96.9512 113.498C97.808 113.529 98.5871 113.556 98.9436 113.808C101.664 115.819 98.0779 118.979 97.0474 119.431C92.1518 121.485 86.981 120.798 81.8287 120.113L81.8286 120.113C79.2595 119.771 76.695 119.431 74.1716 119.431C67.2949 119.598 63.3681 116.143 59.0993 112.386C58.1485 111.549 57.1806 110.698 56.1594 109.868C54.4023 108.922 52.5127 108.244 50.5537 107.857V87.0068C50.5733 86.0884 50.6677 85.0863 50.7612 84.0935C50.8641 83.0009 50.9659 81.9196 50.9659 80.9735C50.9659 77.8543 55.0877 76.8692 55.0877 76.8692C57.9662 75.2379 60.7213 73.3998 63.3313 71.3695C65.8788 68.7733 68.2734 66.0325 70.5031 63.1609C73.5734 59.4923 73.3241 55.3441 73.0733 51.1716C73.0043 50.0227 72.9351 48.8719 72.9351 47.7288C72.9336 47.6702 72.9319 47.6133 72.9303 47.558V47.5579C72.8888 46.1414 72.8772 45.7451 75.6142 43.2962C78.4583 40.7515 86.0423 59.7133 81.7144 67.9219C81.6737 67.9993 81.6325 68.0775 81.5909 68.1563ZM39.1364 68.2092C44.165 68.004 46.061 69.0301 45.4428 74.8992C45.4428 76.6091 45.4421 78.3125 45.4415 80.0109V80.0111C45.4369 91.8475 45.4325 103.441 45.6488 115.285C45.6488 118.405 45.0717 121.401 41.527 121.278C40.6746 121.248 39.7125 121.29 38.7273 121.332C35.6158 121.467 32.274 121.611 31.4287 119.554C30.7061 117.795 31.0087 108.856 31.3099 99.9598C31.4725 95.1543 31.6348 90.3614 31.6348 86.7195C31.6348 86.0473 31.6506 85.0113 31.6692 83.8022C31.7174 80.6556 31.7836 76.3362 31.6348 74.2015C31.2226 68.2092 31.6348 67.7578 37.6938 68.2092C38.1739 68.2462 38.6563 68.2462 39.1364 68.2092ZM85.63 35.5804C83.1982 32.5432 90.6173 26.8793 92.0188 27.618C93.4202 28.3568 93.9149 29.0545 93.7912 29.8343C92.844 32.5706 91.1271 34.9782 88.845 36.7706C87.6909 37.8377 86.372 36.5243 85.63 35.5804ZM98.8617 43.1325C99.2327 40.9162 94.2865 39.6028 92.9676 39.6028C91.6486 39.6028 90.9479 40.1774 90.2884 42.8862C89.6923 45.3346 94.3159 45.3688 96.2451 45.3831C96.4503 45.3846 96.625 45.3859 96.7597 45.3898C98.1611 45.4308 98.4907 45.3488 98.8617 43.1325ZM62.0129 43.4193C58.9965 44.1785 55.8379 44.1785 52.8214 43.4193C52.5658 42.6556 52.7631 41.9241 53.0982 40.6822C53.1412 40.5226 53.1866 40.3545 53.2335 40.1769C55.1295 38.6994 62.0954 40.6694 62.0954 40.6694C62.0954 40.6694 62.59 42.7626 62.0129 43.4193ZM63.2906 28.5212C63.0021 27.8645 61.3122 28.1518 60.5703 29.1779C59.9933 30.204 61.3121 34.021 63.1669 36.0321C63.6615 36.5246 66.3819 35.3344 66.3819 34.3493C65.5154 32.3247 64.4814 30.3753 63.2906 28.5212Z" fill="#212E3B"/>
</svg>
