<svg width="144" height="144" viewBox="0 0 144 144" fill="none" xmlns="http://www.w3.org/2000/svg">
<path fill-rule="evenodd" clip-rule="evenodd" d="M82.7309 38.4069H82.5121C80.4238 38.2971 78.4554 37.3972 77.0055 35.8897C76.1854 35.1546 75.5208 34.2626 75.0511 33.2663C74.5813 32.27 74.3159 31.1897 74.2705 30.0891C74.4482 26.7518 75.9122 23.6134 78.3548 21.3334C80.1602 19.3676 82.6566 18.1777 85.32 18.0136C86.4573 17.9486 87.5957 18.118 88.6648 18.5114C89.7339 18.9048 90.7109 19.5138 91.5349 20.3005C92.359 21.0873 93.0126 22.0351 93.4553 23.0851C93.8981 24.1351 94.1205 25.2649 94.1086 26.4044C93.8751 29.4068 92.6172 32.2376 90.5458 34.4227C88.4744 36.6079 85.7154 38.0145 82.7309 38.4069ZM79.848 23.993C78.2966 25.4088 77.3559 27.3723 77.2243 29.4689C77.1665 30.0145 77.2243 30.5661 77.3939 31.0879C77.5636 31.6096 77.8413 32.0897 78.2089 32.4969C78.8052 33.0008 79.4965 33.38 80.2419 33.6118C80.9873 33.8437 81.7717 33.9235 82.5485 33.8467C83.2993 33.899 84.0526 33.7893 84.7572 33.5249C85.4619 33.2605 86.1015 32.8477 86.6328 32.3145C87.6768 31.5819 88.5611 30.6447 89.2318 29.5597C89.9026 28.4748 90.3459 27.2647 90.5348 26.0031C90.4983 23.3399 88.7479 21.8807 85.5388 21.8807C83.4398 21.8198 81.3993 22.5772 79.848 23.993ZM60.0119 41.8353H59.8296C56.6871 41.9717 53.6185 40.8566 51.2962 38.7343C50.5848 38.0372 50.0237 37.2018 49.6474 36.2795C49.2711 35.3571 49.0877 34.3675 49.1082 33.3715C49.2883 30.4663 50.5208 27.7264 52.5749 25.6648C54.6289 23.6032 57.3637 22.3613 60.2672 22.1716C66.0654 22.1716 69.238 25.8198 70.0038 33.1161C70.1485 34.1326 70.0771 35.1682 69.7944 36.1552C69.5116 37.1422 69.0238 38.0583 68.3629 38.8438C67.2568 39.8981 65.9423 40.709 64.504 41.2242C63.0657 41.7395 61.5355 41.9476 60.0119 41.8353ZM55.417 27.6439C54.0709 28.9013 53.2501 30.6217 53.1195 32.4595C53.1925 35.4145 56.3286 37.421 60.4129 37.421C63.3668 37.3116 66.0654 36.7279 66.0654 33.0797C66.0955 31.9465 65.9016 30.8185 65.4948 29.7605C65.0881 28.7025 64.4764 27.7352 63.6951 26.9142C62.7441 25.8963 61.4387 25.2825 60.0484 25.1996C58.2554 25.4128 56.6051 26.2837 55.417 27.6439ZM59.209 53.437C59.3322 56.0314 60.4564 58.4769 62.3451 60.2591C64.0361 62.1175 66.369 63.2649 68.8727 63.4695C70.1231 63.4887 71.3647 63.2564 72.5236 62.7864C73.6825 62.3164 74.7352 61.6182 75.6192 60.7334C76.6666 59.6504 77.4895 58.3708 78.0403 56.9683C78.591 55.5658 78.8588 54.068 78.8283 52.5614C78.6995 50.3346 77.7329 48.239 76.1229 46.696C74.5128 45.1529 72.3785 44.2767 70.1491 44.2436C67.1852 44.4479 64.4033 45.7483 62.3451 47.8918C60.6236 49.266 59.4999 51.253 59.209 53.437ZM63.3298 53.437C63.512 52.3867 64.0533 51.4323 64.8613 50.7374C66.2749 49.1639 68.1754 48.1105 70.2585 47.7458C71.6821 47.8816 72.9937 48.577 73.9052 49.6794C74.9118 50.6313 75.5016 51.9426 75.5463 53.3276C75.5463 56.3191 73.9053 58.435 71.8996 58.5445C66.9765 58.6174 63.5121 55.9907 63.4027 53.6559L63.3298 53.437ZM62.3088 77.406C66.3499 76.7521 70.4324 76.3864 74.5253 76.3116C75.2013 76.2852 75.8735 76.4243 76.4835 76.7167C77.0936 77.0092 77.6231 77.4462 78.0261 77.9897C78.0261 79.9233 76.3486 80.2151 75.4734 80.2151C71.6846 80.6593 67.8738 80.8907 64.0591 80.9083H63.6216C62.9651 80.9083 61.2147 80.2151 60.9959 79.1207C60.8865 78.6829 61.0324 77.9897 62.3088 77.406ZM44.4038 89.7365C43.0947 90.9095 42.253 92.5159 42.0335 94.2603V94.6616C42.0018 95.0942 42.1318 95.5232 42.3982 95.8655C42.5736 96.1293 42.8051 96.3511 43.0762 96.5151C43.3472 96.6791 43.6512 96.7811 43.9662 96.814C44.9509 96.814 45.7896 95.2088 46.5919 93.4212C46.6425 92.5849 46.4253 91.7543 45.9719 91.0499C45.8428 90.7162 45.6314 90.4207 45.3571 90.191C45.0829 89.9613 44.7549 89.805 44.4038 89.7365ZM117.193 92.4591C117.793 91.7826 118.28 91.2338 120 91.8531V92.072C118.213 97.3618 115.296 97.7996 110.92 97.7996C109.317 97.7845 107.733 97.4626 106.252 96.8511C105.873 97.2428 105.41 97.5444 104.899 97.7338C104.388 97.9232 103.841 97.9956 103.298 97.9455C102.217 97.7366 101.188 97.315 100.271 96.7051H100.089C98.8516 95.6648 97.2926 95.0848 95.6764 95.0635C94.9213 99.3854 93.2147 103.485 90.6804 107.066C87.8631 111.003 85.9458 115.512 85.0645 120.272C84.877 121.18 84.465 122.027 83.8661 122.734C83.2673 123.441 82.5007 123.987 81.6366 124.322C80.652 124.468 78.938 123.556 77.0053 121.586C76.143 120.605 75.3965 119.527 74.7807 118.375L74.2703 117.427H70.6236C69.6008 117.427 68.5988 117.402 67.6106 117.377C65.6744 117.329 63.7911 117.282 61.9079 117.427C60.8627 117.425 59.8499 117.789 59.0443 118.455C58.2387 119.121 57.6908 120.048 57.4954 121.075C57.1743 122.174 56.6113 123.186 55.8478 124.038C55.0842 124.891 54.1394 125.561 53.0829 126H52.7547C51.2596 126 48.8163 123.702 48.0869 122.133C46.601 119.063 44.4588 116.358 41.8121 114.208C39.1654 112.059 36.0788 110.517 32.7707 109.693C24.5656 106.957 23.4351 102.323 24.2009 94.7716C24.2102 94.1278 24.3546 93.493 24.6247 92.9086C24.8949 92.3241 25.2847 91.8029 25.769 91.3788C26.2747 91.0625 26.8415 90.8567 27.4323 90.775C28.0231 90.6932 28.6244 90.7374 29.1969 90.9045H29.4887C30.4368 91.1599 31.5308 91.4153 32.1872 90.9045C32.4331 90.6423 32.6216 90.3317 32.7409 89.9925C32.8602 89.6533 32.9076 89.293 32.8801 88.9345C32.705 85.8262 33.6123 82.7532 35.4474 80.2388C37.2826 77.7244 39.9322 75.9241 42.9451 75.1444C42.7627 74.6701 42.7627 74.1959 42.7627 73.7216C42.4624 72.8218 42.4624 71.8488 42.7627 70.949C43.4555 69.8181 45.4247 67.8116 46.6282 68.1034C49.6986 68.8936 52.7188 69.8682 55.672 71.022L58.9177 72.1894C62.1741 69.4938 66.1165 67.7589 70.3032 67.179C74.4898 66.599 78.7552 67.1971 82.6213 68.906C86.7532 71.0829 90.2013 74.3625 92.583 78.381C94.9648 82.3994 96.187 86.9995 96.114 91.6706C97.3745 92.112 98.5946 92.6613 99.7607 93.3123C100.705 93.8607 101.708 94.3013 102.751 94.6257C101.801 92.6998 101.338 90.5703 101.402 88.4238C101.599 85.7015 102.718 83.1279 104.574 81.1274C105.391 80.538 106.338 80.154 107.335 80.0079C108.331 79.8619 109.348 79.9581 110.3 80.2883C111.096 80.7814 111.755 81.4683 112.214 82.2849C112.673 83.1015 112.918 84.0211 112.925 84.958C112.378 86.9852 111.477 88.8996 110.263 90.6127C109.476 91.7791 108.769 92.998 108.148 94.2609C109.106 94.7999 110.167 95.1277 111.261 95.2221C112.356 95.3165 113.458 95.1753 114.493 94.8081C115.566 94.353 116.471 93.5753 117.083 92.5827C117.12 92.5412 117.157 92.4999 117.193 92.4591ZM107.346 82.8421H106.872C105.048 83.7906 104.574 90.6857 104.574 91.1234C104.574 91.5612 104.793 92.2908 104.939 92.3638C105.085 92.4368 105.377 92.2544 105.705 91.9625L106.07 91.6706C107.391 90.5447 108.459 89.1524 109.206 87.5847C109.281 87.405 109.386 87.2437 109.485 87.0933C109.626 86.8773 109.753 86.6838 109.753 86.4902C110.701 84.7026 110.701 84.6662 108.112 83.061C107.88 82.9217 107.616 82.8462 107.346 82.8421ZM78.3546 115.055C78.8433 115.885 79.3918 116.677 79.9956 117.427L80.0685 117.792C80.7614 116.442 81.4178 115.092 82.0378 113.815C83.5145 110.616 85.1828 107.51 87.0337 104.512C92.285 96.4863 93.1967 89.8101 89.8782 83.5352C88.4814 80.0169 85.9803 77.0474 82.7512 75.0736C79.5221 73.0999 75.7396 72.2285 71.9728 72.5907C63.5489 73.3568 58.6623 74.2324 56.6566 83.3163C56.1353 84.9822 55.2368 86.5053 54.031 87.7671C53.6913 88.2717 53.2433 88.694 52.7197 89.0033C52.196 89.3126 51.61 89.501 51.0043 89.5547C50.3902 89.458 49.8069 89.2197 49.3006 88.8588C48.7944 88.498 48.3789 88.0243 48.0869 87.4753L48.037 87.401C46.7097 85.4272 45.5927 83.7662 44.4402 81.8206L43.018 79.4493C38.3101 80.5638 37.4272 84.5836 36.6347 88.1917C36.623 88.2448 36.6114 88.2979 36.5997 88.3508C36.308 88.8615 36.308 89.3721 36.308 89.8463V89.8466C34.8858 96.0849 34.7764 96.5592 28.2488 95.6472C27.945 96.7257 27.8756 97.8568 28.0454 98.9643C28.2152 100.072 28.6204 101.13 29.2334 102.068C29.9464 102.962 30.8503 103.684 31.8788 104.183C32.9074 104.682 34.0346 104.944 35.1776 104.95C37.4891 105.044 39.7269 105.79 41.6322 107.102C44.2565 109.141 46.6519 111.506 49.159 113.981C49.2996 114.12 49.4406 114.259 49.582 114.399L52.5723 117.354L52.7547 117.135C53.1751 116.709 53.4768 116.181 53.6299 115.603C54.1769 110.605 57.8236 110.495 61.4703 110.787H61.7985C64.0338 111.136 66.3096 111.136 68.5449 110.787H68.9825C70.3604 110.378 71.7789 110.121 73.2127 110.021C75.2347 110.021 76.0769 111.38 78.2881 114.948L78.3546 115.055ZM55.0885 75.6187L46.8106 72.2259V72.1529C46.3582 74.6053 46.4995 77.1304 47.2228 79.5169C47.9461 81.9034 49.2302 84.0819 50.9678 85.8701L55.0885 75.6187Z" fill="#212E3B"/>
</svg>
