<svg width="144" height="144" viewBox="0 0 144 144" fill="none" xmlns="http://www.w3.org/2000/svg">
<path fill-rule="evenodd" clip-rule="evenodd" d="M79.8998 28.1884C78.0465 29.8307 75.6661 30.8314 73.1423 31.029C71.9184 31.0076 70.7115 30.7539 69.5918 30.283C68.4721 29.812 67.4625 29.1331 66.6219 28.2861C65.7812 27.4392 65.1262 26.4411 64.6958 25.3503C64.2654 24.2595 64.0682 23.098 64.1153 21.9336C64.1153 16.2752 67.4179 12.0838 72.35 12.0838C73.7884 11.8985 75.2518 12.0217 76.6337 12.4445C78.0156 12.8672 79.2808 13.5789 80.3363 14.5273C81.3918 15.4757 82.2113 16.6368 82.7343 17.9255C83.2573 19.2143 83.4706 20.5981 83.359 21.9756C82.9718 24.3575 81.7532 26.546 79.8998 28.1884ZM67.0924 20.9794L67.0659 21.0954C66.2292 24.5742 72.3059 27.3825 74.5077 26.8795C75.64 26.5044 76.666 25.8856 77.5061 25.0714C78.3463 24.2572 78.9779 23.2695 79.3515 22.1851C79.6598 20.7601 79.8363 14.1376 74.1997 14.1376C68.656 14.1376 67.6275 18.6379 67.0924 20.9794ZM86.0456 77.6376C90.6697 78.0104 95.2704 78.612 99.8288 79.4399C101.086 79.8928 101.059 80.1459 101.021 80.4884C101.01 80.5897 100.998 80.6987 101.018 80.823C99.3067 81.4054 97.535 81.8128 95.7333 82.0385C94.7522 82.0728 93.7711 82.1075 92.7901 82.1421H92.7899H92.7896H92.7894H92.7892H92.789H92.7887H92.7885H92.7883C82.9811 82.4885 73.1741 82.8349 63.367 82.8349C58.567 82.8768 53.8111 82.5834 49.0112 82.2062C48.8267 82.1907 48.5906 82.1758 48.3185 82.1587C46.3833 82.0369 42.6262 81.8003 42.6262 80.4039C42.6262 78.8112 50.4647 78.0567 50.4647 78.0567C51.2537 73.2172 51.9881 68.5853 52.706 64.0577L52.7061 64.0572L52.7064 64.0555C53.4309 59.4866 54.1385 55.0238 54.8683 50.5611C55.3173 48.9129 55.368 47.1894 55.0172 45.5198C54.6664 43.8502 53.9228 42.2779 52.8423 40.9209C48.747 35.8912 44.5195 30.3166 45.6644 23.3169C46.0788 21.1898 47.3413 19.2975 49.1875 18.0358C49.76 17.5747 52.6223 19.5028 54.1636 20.6764C55.3649 21.6475 56.3399 22.8466 57.026 24.1971C60.1086 29.8136 63.499 34.1727 71.5576 33.1667C73.4274 32.9857 75.6394 34.3244 77.8324 35.6516C78.6865 36.1685 79.5377 36.6837 80.3648 37.1067C83.9534 38.768 87.4123 40.6731 90.7136 42.807C92.6739 43.9863 94.0664 45.8538 94.5888 48.0043C94.6769 49.5132 92.431 51.6508 90.6696 52.6149L90.3819 52.7758C86.2118 55.1087 84.0996 56.2905 83.2993 58.0641C82.4779 59.8848 83.0391 62.3293 84.1762 67.2831L84.1959 67.3686C84.7311 69.5478 85.0857 71.7652 85.4629 74.124C85.6444 75.2587 85.831 76.426 86.0456 77.6376ZM69.0478 67.0333L61.914 77.3861H76.0493C74.9722 75.7874 73.9783 74.3256 73.0207 72.9171L73.018 72.9131L73.0173 72.9121C71.6663 70.925 70.3872 69.0437 69.0478 67.0333ZM75.473 67.7566C77.7668 71.9216 79.9634 75.9101 80.3648 74.9551C80.5798 74.4433 80.247 72.7775 79.7948 70.5135C78.5801 64.4336 76.5037 54.0399 81.8624 50.1C82.388 49.686 83.4432 49.414 84.5029 49.1408C86.0181 48.7502 87.5426 48.3571 87.5426 47.5433C87.5426 46.7398 85.1952 45.7243 83.003 44.7759L83.0029 44.7759L83.0028 44.7758C81.421 44.0915 79.9201 43.4422 79.4402 42.9327C77.4867 41.1064 75.1269 39.7213 72.5354 38.8798C69.9439 38.0382 67.1867 37.7617 64.4679 38.0707C63.2937 38.1496 62.1227 37.882 61.1141 37.3045C60.1055 36.727 59.3081 35.8676 58.8311 34.8433C58.094 33.6628 57.2138 31.9674 56.2774 30.1636C53.6896 25.1788 50.672 19.3661 49.0553 21.3051C47.4824 28.2646 51.3675 32.3336 54.6891 35.8123L54.6908 35.8141C54.8094 35.9383 54.9272 36.0618 55.0441 36.1846C56.9378 38.3236 58.3142 40.833 59.0752 43.5348C59.8362 46.2366 59.9632 49.0647 59.4477 51.8185C59.1557 55.8022 57.8688 62.3455 56.8351 67.6013C55.9982 71.8568 55.3273 75.2683 55.4849 75.7934C55.8372 76.9669 58.0388 73.9911 58.0388 73.9911L62.9267 67.8716C63.5518 67.1549 64.3373 66.0326 65.1723 64.8395C66.9255 62.3343 68.8971 59.5172 70.0605 59.4888C70.9083 59.4681 73.2368 63.6962 75.473 67.7566ZM35.8 107.731C38.4874 110.203 40.4595 113.292 41.5249 116.701C41.9212 117.749 42.3614 118.797 42.9779 119.886C44.6513 123.282 44.8274 125.671 43.5504 127.18C42.8859 127.821 42.0765 128.309 41.1836 128.607C40.2906 128.904 39.3381 129.004 38.3985 128.898C36.5171 128.865 34.6436 128.654 32.8059 128.269C31.0339 128.059 29.3448 127.431 27.8916 126.443C26.4385 125.455 25.267 124.138 24.483 122.611C23.839 121.092 23.839 119.394 24.483 117.875C25.8762 113.824 28.3674 110.195 31.705 107.354C32.343 107.001 33.0816 106.847 33.8165 106.915C34.5513 106.982 35.245 107.268 35.8 107.731ZM38.5915 124.512C38.8868 124.335 39.1247 124.083 39.279 123.784C40.7322 120.934 36.2845 113.683 33.7305 111.839C33.5103 111.839 33.0257 112.132 32.4092 112.803C30.1028 115.252 28.6697 118.333 28.3141 121.605C30.9862 123.564 34.2351 124.677 37.6056 124.79C37.9549 124.786 38.2962 124.69 38.5915 124.512ZM31.3963 106.181H32.5413C34.5742 106.194 36.544 105.509 38.0898 104.253C39.0441 103.416 39.8038 102.398 40.3196 101.264C40.8353 100.131 41.0958 98.9071 41.0845 97.6721C41.116 96.9723 40.9907 96.2742 40.7174 95.6238C40.4441 94.9735 40.0291 94.3859 39.4993 93.8998C38.3671 93.1032 37.0772 92.5329 35.7074 92.2232C34.3376 91.9134 32.9161 91.8707 31.5285 92.0975C29.8838 92.0029 28.2645 92.517 27.0088 93.5325C25.7532 94.548 24.9583 95.9862 24.7909 97.5463C24.4995 98.5656 24.4313 99.631 24.5904 100.676C24.7495 101.722 25.1328 102.725 25.716 103.624C26.4314 104.394 27.3036 105.018 28.2801 105.458C29.2566 105.897 30.3168 106.143 31.3963 106.181ZM31.9688 95.2411C32.4954 95.0791 33.0447 94.9943 33.5981 94.9896C34.1039 94.9795 34.6071 95.0672 35.0763 95.2473C35.5456 95.4274 35.9712 95.6962 36.3283 96.0374C36.8792 96.5838 37.2643 97.2621 37.4426 98.0001C37.621 98.7381 37.5863 99.5083 37.3416 100.229C37.09 100.987 36.6167 101.662 35.9773 102.174C35.3379 102.686 34.5585 103.015 33.7303 103.121C33.1723 103.281 32.5863 103.335 32.0064 103.278C31.4266 103.221 30.8644 103.056 30.3524 102.79C29.8403 102.525 29.3886 102.166 29.0235 101.734C28.6585 101.301 28.3874 100.804 28.2258 100.271C28.0991 99.7043 28.0971 99.119 28.2199 98.5518C28.3427 97.9846 28.588 97.4478 28.9397 96.9752C29.2914 96.5027 29.7417 96.1046 30.2631 95.8061C30.7845 95.5076 31.3653 95.3152 31.9688 95.2411ZM112.159 109.785C115.024 111.403 117.264 113.858 118.544 116.785C120.115 120.264 120.425 124.143 119.424 127.808C118.984 129.191 115.858 130.658 111.234 130.658C108.753 130.649 106.289 130.282 103.924 129.569L102.823 129.15C101.796 128.994 100.868 128.477 100.224 127.701C99.5791 126.924 99.2651 125.945 99.3443 124.958C100.097 121.278 101.69 117.801 104.012 114.773C104.716 113.767 105.333 112.761 105.862 111.839C106.718 110.792 107.934 110.065 109.296 109.785C110.224 109.482 111.231 109.482 112.159 109.785ZM113.279 126.728C114.14 126.474 114.93 126.041 115.593 125.461H115.506C117.928 122.653 111.982 116.03 110.089 114.396C109.723 114.475 109.388 114.649 109.12 114.899C106.61 116.911 103.263 122.862 104.188 124.329C105.886 125.97 108.198 126.904 110.617 126.928C111.509 127.05 112.419 126.982 113.279 126.728ZM63.4105 111.211C59.0069 111.211 51.5647 119.593 51.1684 125C50.8602 129.737 53.2821 131.539 60.504 132H62.5741C68.8272 132 71.3813 129.82 71.9538 124.623C71.5308 120.411 69.746 116.428 66.8455 113.222C66.025 112.146 64.7899 111.423 63.4105 111.211ZM67.8141 126.09C66.6252 128.563 63.4106 128.814 60.6803 128.311C57.9501 127.809 55.3522 126.216 55.3522 124.12C55.4079 122.194 56.066 120.327 57.2427 118.759C58.4194 117.191 60.0613 115.993 61.9575 115.318H62.2215C63.0508 115.471 63.8387 115.784 64.5356 116.238C65.2325 116.692 65.8238 117.278 66.273 117.959C67.3062 119.065 68.0133 120.411 68.3227 121.861C68.632 123.312 68.5328 124.814 68.0345 126.216L67.8141 126.09ZM91.4621 114.354C91.1978 113.767 90.934 113.139 90.7138 112.51L90.6447 112.338C89.1932 108.734 87.0555 103.426 81.3341 104.127C75.5214 104.84 74.5524 110.666 73.9799 114.899L73.7595 116.576C72.7907 121.438 73.7596 124.539 77.1504 125.713C78.0553 125.936 78.9917 126.021 79.9247 125.964C81.8946 125.964 84.2035 125.803 84.7706 125.763C84.8501 125.758 84.8953 125.755 84.9007 125.755C86.2766 125.632 87.6104 125.237 88.8162 124.594C90.0221 123.952 91.0731 123.077 91.9023 122.024C92.3581 121.428 92.6733 120.744 92.8253 120.02C92.9773 119.297 92.9629 118.551 92.7834 117.833C92.442 116.641 92 115.478 91.4621 114.354ZM88.2034 118.043C88.2034 119.342 87.5872 119.635 87.367 119.719C83.2717 121.605 81.0258 122.066 78.5598 120.096C78.2295 119.737 77.9773 119.318 77.8186 118.864C77.6598 118.411 77.5973 117.932 77.6347 117.456C77.653 114.077 78.7936 110.791 80.8933 108.067H81.1578C81.303 108.038 81.4529 108.038 81.5981 108.067C85.0697 110.456 87.4364 114.031 88.2034 118.043ZM82.8087 100.737C81.3547 102.545 79.3218 103.852 77.0177 104.462L76.8419 104.672C75.0506 104.528 73.3754 103.768 72.1298 102.534C70.11 100.944 68.8032 98.6807 68.475 96.2053C68.5448 93.2455 69.7511 90.4126 71.8658 88.2416C72.4098 87.6169 73.0796 87.1023 73.8359 86.7279C74.5922 86.3536 75.4197 86.1272 76.2694 86.0621C78.5386 86.2509 80.6653 87.1948 82.276 88.7278C83.8866 90.2609 84.8782 92.2851 85.0766 94.4449C85.0588 96.7212 84.2626 98.93 82.8087 100.737ZM74.0676 91.1756C73.1523 92.0423 72.6302 93.2161 72.6141 94.4449H72.8345C72.5642 95.5717 72.7614 96.7543 73.3849 97.746C74.0085 98.7378 75.0103 99.4621 76.1813 99.768C76.6513 99.8589 77.1358 99.8574 77.6052 99.7637C78.0747 99.67 78.5193 99.4861 78.9115 99.2231C79.9521 97.9169 80.4396 96.2864 80.2768 94.6545V94.2353C80.3332 93.7975 80.2905 93.3532 80.1521 92.9323C80.0138 92.5113 79.7827 92.1232 79.4743 91.7939C79.1659 91.4647 78.7873 91.2019 78.3637 91.0229C77.9401 90.844 77.4811 90.7532 77.0177 90.7565C76.5226 90.6249 76.0043 90.5943 75.4959 90.6665C74.9875 90.7387 74.5008 90.9122 74.0676 91.1756ZM103.88 107.019C105.037 108.165 106.615 108.841 108.284 108.905C110.607 108.874 112.822 107.97 114.448 106.391C115.096 105.705 115.594 104.903 115.911 104.033C116.229 103.162 116.36 102.239 116.298 101.319C115.99 95.9958 111.63 90.8404 107.491 90.8404C106.568 90.8388 105.655 91.0164 104.807 91.3623C103.959 91.7082 103.194 92.2153 102.559 92.8523C101.747 93.7218 101.126 94.7371 100.733 95.8384C100.339 96.9398 100.182 98.1049 100.269 99.2652C100.362 102.2 101.658 104.983 103.88 107.019ZM104.32 99.2232C104.32 97.3371 104.32 95.9959 108.724 95.7025C109.151 95.6079 109.596 95.6158 110.018 95.7255C110.441 95.8353 110.828 96.0434 111.146 96.3311C111.52 96.9624 111.756 97.6593 111.839 98.3797C111.922 99.1001 111.851 99.829 111.63 100.523C111.63 100.523 111.058 103.75 108.196 103.75C105.333 103.75 104.32 100.816 104.32 99.2232ZM67.2866 108.696C65.6036 110.297 63.325 111.201 60.9457 111.211H60.6812C59.011 111.084 57.4462 110.384 56.2776 109.241C54.2591 107.403 53.0608 104.897 52.9308 102.241C52.8521 101.191 52.9991 100.137 53.3625 99.1422C53.7259 98.1478 54.298 97.2342 55.0444 96.4572C55.7088 95.8077 56.5033 95.2913 57.3806 94.9385C58.2579 94.5858 59.2004 94.4039 60.1528 94.4034C62.5632 94.8305 64.7487 96.0263 66.3496 97.7939C67.9505 99.5614 68.8713 101.795 68.96 104.127C69.0143 104.957 68.8941 105.788 68.6068 106.572C68.3195 107.357 67.8707 108.079 67.2866 108.696ZM57.2462 103.457C57.6689 104.669 58.3772 105.772 59.3163 106.684V106.517C59.6914 106.957 60.1824 107.293 60.7398 107.492C61.2971 107.691 61.9003 107.745 62.4868 107.648C65.217 106.852 64.6004 102.954 64.6004 102.954L64.5956 102.924C64.4162 101.813 63.9696 99.0483 62.3986 98.2176C62.0299 98.0407 61.6226 97.9486 61.2096 97.9486C60.7966 97.9486 60.3893 98.0407 60.0205 98.2176C56.0573 99.7684 56.5417 101.319 57.2462 103.457Z" fill="#212E3B"/>
</svg>
