<svg width="144" height="144" viewBox="0 0 144 144" fill="none" xmlns="http://www.w3.org/2000/svg">
<path d="M98.5798 109.742C98.6865 110.545 98.6865 111.359 98.5798 112.162C98.1172 121.548 93.0705 127.972 84.8697 129.516C67.4168 132.811 58.3749 133.354 40.0388 127.889C36.9507 126.806 34.3029 124.754 32.4966 122.044C30.6904 119.334 29.8241 116.113 30.0296 112.871C30.6605 99.2295 30.0297 85.5464 30.3241 71.8634C30.3241 66.8991 30.9128 61.9766 31.3333 57.0123C31.8801 50.7965 36.4642 48.6689 41.4688 46.2494C42.7244 45.833 44.0019 45.4849 45.2957 45.2065C45.6104 43.9916 45.9895 42.7941 46.4313 41.6188C47.1205 39.7549 48.0996 38.0095 49.3331 36.446C52.277 33.1087 54.548 29.3542 51.478 25.0991C50.5388 23.6566 49.9089 22.0378 49.6275 20.3434C53.8331 21.5949 58.0385 27.4352 56.9451 31.1062C55.8517 34.7773 51.3517 38.0312 49.7536 44.0801C54.5769 42.7746 59.5575 42.129 64.5571 42.1611C64.1242 38.8651 64.6934 35.5159 66.1919 32.5429C67.6905 29.5699 70.0502 27.1086 72.9682 25.4745C77.7625 22.1789 77.1737 17.1312 76.9214 12.0001C78.3119 12.7302 79.5202 13.7594 80.4581 15.0124C81.396 16.2655 82.0397 17.7106 82.342 19.2422C82.6444 20.7737 82.5978 22.353 82.2056 23.8643C81.8134 25.3757 81.0857 26.7811 80.0755 27.9775C78.1718 30.0539 76.042 31.9147 73.7251 33.5258C70.8233 35.7368 68.342 38.0729 68.9729 42.1611C74.0615 43.3292 79.0661 44.5807 84.0707 45.7071C92.4817 47.5426 97.8228 51.8394 97.234 61.2256C97.3211 62.6516 97.6186 64.0571 98.1171 65.3973C108.799 65.3973 111.701 68.6512 113.215 79.3723C114.561 86.2848 114.171 93.4197 112.08 100.147C109.304 107.656 107.075 109.533 98.5798 109.742ZM34.9921 64.855C34.9921 65.6476 34.9921 66.8991 34.9921 68.1506C34.9921 81.5833 34.5716 94.9744 34.9921 108.365C34.9921 115.499 34.9921 119.796 42.562 122.299C55.5591 126.293 69.3964 126.768 82.6408 123.675C91.2621 121.965 94.164 117.334 93.8696 108.657C93.4491 97.2271 93.4911 85.755 93.3229 74.3246C93.3229 70.9039 92.6079 65.9813 92.6079 63.6869C88.3183 66.7739 57.744 75.3676 34.9921 64.855ZM51.478 56.5117C50.0978 55.3256 48.9316 53.9149 48.0294 52.34C47.1703 51.1747 46.4239 49.9316 45.8004 48.6272C44.4982 48.6621 43.2256 49.0207 42.0995 49.6701C39.9126 50.8799 36.2119 52.8823 36.2119 56.2197C36.2119 59.557 38.7352 60.3913 40.4174 61.2256C48.1135 64.5212 59.5103 63.0611 67.5429 62.9777C75.5754 62.8943 80.1596 60.6833 87.6454 59.557C89.1594 59.3067 91.4304 57.7214 91.5986 56.5117C91.7668 55.3019 90.0005 53.2578 88.8229 52.34C84.6174 48.961 73.3046 47.1254 69.5617 45.4568C68.9729 46.3328 72.7999 52.8406 73.7672 55.7608C72.6572 55.9855 71.5129 55.9855 70.4028 55.7608C68.9309 55.5105 66.8282 50.0039 65.1459 45.3733C62.5806 45.3733 55.0105 46.8751 49.291 47.5843C49.5854 49.7536 54.9265 55.0099 54.8423 55.5939C54.7582 56.1779 51.478 56.5951 51.478 56.5951V56.5117ZM98.0752 102.4C99.1126 102.604 100.181 102.598 101.216 102.383C102.251 102.168 103.232 101.748 104.099 101.148C104.967 100.548 105.704 99.781 106.266 98.8922C106.827 98.0035 107.203 97.0115 107.369 95.9755C107.958 89.6346 107.664 83.2103 107.622 76.8277C107.622 71.6548 102.912 69.7775 98.0752 70.9039V102.4Z" fill="#212E3B"/>
</svg>
