<svg width="144" height="144" viewBox="0 0 144 144" fill="none" xmlns="http://www.w3.org/2000/svg">
<path fill-rule="evenodd" clip-rule="evenodd" d="M83.2927 31.484C83.1159 29.597 83.0118 27.7023 82.9811 25.8044C83.5322 24.4102 89.9613 23.5738 91.2012 24.2244C91.7661 24.5208 92.1881 27.769 92.454 31.3584C96.1726 31.3386 98.7903 31.3835 99.6973 31.5203C103.531 31.9512 107.076 33.7864 109.664 36.6798C112.253 39.5732 113.706 43.3249 113.75 47.2276C113.75 53.5942 114.025 57.3584 114.714 63.6785C114.683 65.8873 114.836 68.0949 115.173 70.2774C116.081 70.9579 116.927 71.72 117.699 72.5546C131.201 87.6113 127.205 103.597 113.107 115.726C106.402 121.442 85.553 122.604 75.8173 111.776C73.2035 111.618 69.9945 112.031 66.8679 112.434H66.8678H66.8677L66.8676 112.434C64.501 112.739 62.1817 113.038 60.2033 113.078C56.5506 113.078 52.8887 113.284 49.2299 113.49L49.2297 113.49C44.7467 113.743 40.2685 113.996 35.8182 113.868C33.9053 113.985 31.9894 113.697 30.1927 113.023C28.396 112.348 26.7581 111.302 25.3837 109.95C24.0094 108.599 22.9287 106.972 22.2108 105.174C21.493 103.376 21.1537 101.446 21.2147 99.5079C20.9697 96.5957 21.0514 93.6422 21.133 90.6887C21.1739 89.212 21.2147 87.7352 21.2147 86.2636C20.8013 80.3239 20.2888 74.3843 19.7763 68.4446C19.4347 64.4859 19.0931 60.5271 18.7809 56.5684C18.744 56.1021 18.7067 55.6357 18.6694 55.1694C18.3347 50.9886 18 46.8078 18 42.627C18 36.9575 24.5672 33.3327 30.2617 33.0539C30.5061 33.0481 31.6738 33.0082 33.5422 32.9441C33.5794 30.7303 33.7256 28.5179 33.9808 26.3152C34.7615 25.014 40.0886 24.9211 41.1908 25.7576C41.5124 28.0498 41.7055 30.3559 41.77 32.6647C46.4241 32.5091 52.1011 32.3239 58.0652 32.1425C58.2014 29.2244 58.4088 26.7267 58.5492 26.1762C58.9165 24.7356 65.6212 23.8991 66.2182 25.5721C66.5568 27.6654 66.8112 29.7703 66.9812 31.8817C72.6885 31.7221 78.3298 31.5803 83.2927 31.484ZM83.8706 36.0859C78.8065 36.2462 73.0652 36.4763 67.2228 36.7377C67.258 38.5762 67.2294 40.4165 67.1367 42.2553C66.4938 43.6494 59.7432 43.8818 58.5492 43.1383C58.067 42.838 57.9143 40.2492 57.9279 37.1742C52.1136 37.4592 46.5058 37.7552 41.6887 38.0229C41.5908 39.7014 41.4249 41.3768 41.1908 43.0449C40.7316 44.4855 34.4401 43.5561 33.9808 41.8367C33.8516 40.7217 33.7504 39.6042 33.677 38.4853C29.7437 38.7227 27.201 38.8967 26.8174 38.9557L26.9551 38.8628C25.9382 39.262 25.0228 39.8866 24.2757 40.6908C23.5287 41.495 22.9692 42.4583 22.6383 43.51C22.2745 46.0215 22.2745 48.5732 22.6383 51.0848L107.734 46.9953C108.101 39.5599 105.989 37.4222 101.259 36.121C100.365 35.8751 97.2247 35.8117 92.7057 35.873C92.8083 38.5174 92.814 40.7082 92.7168 41.2329C92.4412 42.72 85.7365 43.6029 85.0477 41.9764C84.575 40.0287 84.1824 38.0635 83.8706 36.0859ZM108.239 52.5719L66.2652 54.3378C56.977 54.7371 47.6888 55.1973 38.2547 55.6647C33.4157 55.9045 28.5382 56.1462 23.6028 56.3825C23.8791 60.5777 24.1139 64.7098 24.3459 68.7927C24.8849 78.278 25.4088 87.4978 26.404 96.6267C27.3225 105.085 30.3535 106.85 39.1248 106.711C46.5184 106.711 53.8661 106.711 61.2597 106.432C63.5929 106.432 65.9055 106.038 68.2524 105.637C69.4163 105.439 70.5886 105.239 71.776 105.085C65.4846 89.7025 66.0356 81.2447 74.5773 72.5546C84.4967 62.4703 95.6561 57.4978 109.433 67.0709L108.239 52.5719ZM95.0591 67.5821C85.0019 67.1639 73.4753 78.41 72.7865 89.3307C71.868 104.434 86.5632 113.775 96.3448 114.332C107.412 114.936 120.409 101.692 120.409 91.0966C120.271 79.2929 107.78 67.8145 94.9212 67.6751L95.0591 67.5821ZM46.7018 73.5767C43.1265 74.3779 39.4338 74.4882 35.818 73.902C34.7159 73.902 35.0832 67.7678 35.818 66.5595C39.3057 65.485 43.0305 65.485 46.5182 66.5595C46.5427 66.6962 46.587 66.9019 46.6422 67.1583C46.9997 68.8195 47.8157 72.6105 46.7018 73.5767ZM63.1899 65.5848C59.5559 65.0146 55.8483 65.1407 52.2602 65.9565C50.9744 67.0718 51.7092 73.1131 52.2602 73.8102C56.0298 74.8892 60.0033 75.0168 63.8329 74.182C64.7514 72.9737 64.2462 65.8636 63.1899 65.5848ZM52.2582 79.7122C55.8462 78.8963 59.5538 78.7702 63.1879 79.3404C64.2441 79.6192 63.8768 85.5211 62.9583 86.7293C59.4706 87.8038 55.7458 87.8038 52.2582 86.7293C52.2582 86.472 52.1767 85.9702 52.0752 85.3456C51.7738 83.4889 51.296 80.5467 52.2582 79.7122ZM35.818 87.6584C39.4338 88.2446 43.1265 88.1343 46.7018 87.3331C47.9876 86.2178 46.3803 80.4553 45.5997 79.7582C42.355 78.9765 38.9554 79.1703 35.818 80.3159C35.0832 81.5242 34.7159 87.6584 35.818 87.6584ZM98.779 90.9111C102.545 90.0747 108.561 88.9129 108.561 88.9129L109.663 93.1418L94.8297 96.5807L92.2121 77.2486L94.7378 76.6909C95.4261 78.9005 96.1389 81.5073 96.8446 84.0879L96.8446 84.0882L96.8446 84.0882C97.5043 86.5008 98.1578 88.8904 98.779 90.9111Z" fill="#212E3B"/>
</svg>
