<svg width="144" height="144" viewBox="0 0 144 144" fill="none" xmlns="http://www.w3.org/2000/svg">
<path fill-rule="evenodd" clip-rule="evenodd" d="M123.269 68.921C122.323 69.0296 121.306 69.1462 120.654 68.5823C120.083 62.3633 118.37 56.3059 115.602 50.7195C108.981 38.547 100.202 29.1455 85.4879 26.8693C84.3568 26.7137 82.0402 26.5037 79.7525 26.2964C77.6753 26.1081 75.6219 25.922 74.5016 25.7807C73.5653 25.7807 73.6794 24.2408 73.7806 22.8756C73.8543 21.8807 73.9211 20.9786 73.5697 20.8326C71.985 20.2543 70.2497 20.2543 68.665 20.8326C67.6125 21.4005 67.7937 22.2642 67.9711 23.1101C68.1492 23.9591 68.3236 24.7901 67.2425 25.2859C65.3114 26.1873 62.1609 26.9179 59.1844 27.6081C57.0957 28.0924 55.0928 28.5568 53.6569 29.0465C46.2425 31.4247 39.6136 35.8027 34.4874 41.7071C29.3611 47.6114 25.9326 54.8174 24.5724 62.5456C24.4259 64.3249 24.0296 66.0742 23.3954 67.7411C23.1467 68.0757 22.4688 68.0656 21.717 68.0545C20.6898 68.0393 19.5246 68.022 19.1281 68.8792C18.4414 70.3637 17.6076 73.3326 19.1281 73.8274C23.6941 74.6264 28.3453 74.8095 32.9592 74.3717C33.793 74.0253 34.0382 72.7882 33.5477 70.71C33.2807 69.5788 32.3162 69.5178 31.2395 69.4497C30.3382 69.3927 29.3582 69.3308 28.6431 68.6318C28.3031 68.426 28.4345 67.6257 28.5471 66.9398C28.5969 66.6362 28.6431 66.3551 28.6431 66.1577C31.0266 57.3635 35.8938 49.4584 42.6514 43.4052C49.409 37.3519 57.7654 33.4119 66.7031 32.0649C68.4566 31.5158 68.4956 33.7496 68.5318 35.8222C68.5543 37.1117 68.5757 38.3389 69.0084 38.7944C70.1995 39.2129 71.4958 39.2129 72.6869 38.7944C73.1799 38.7233 73.2121 37.6431 73.2516 36.3191C73.2945 34.8772 73.3461 33.1462 74.0109 32.1144C74.3944 31.5516 75.0754 31.6139 75.9833 31.697C76.3526 31.7308 76.7594 31.768 77.199 31.768C86.373 31.9705 95.1806 35.439 102.065 41.5601C108.949 47.6813 113.466 56.0609 114.817 65.2176C114.817 65.908 114.957 66.42 115.075 66.8487C115.26 67.5261 115.388 67.9954 114.817 68.6318C114.427 69.0672 113.486 68.9379 112.487 68.8009C111.103 68.6109 109.609 68.4059 109.324 69.6709C108.834 71.8481 109.079 73.9263 110.845 74.3222C115.748 74.804 120.693 74.6544 125.559 73.8769C126.736 73.6789 126.098 71.1059 125.559 69.5225C125.275 68.6909 124.316 68.801 123.269 68.921ZM74.0536 53.4774C72.9916 51.2251 71.8665 48.8391 70.823 48.8391C70.3163 48.8391 69.1861 51.5206 67.5445 55.4152C64.1009 63.585 58.4071 77.0934 51.4987 82.3877C50.5178 83.4268 50.6649 86.742 51.4987 88.3749C54.0001 93.3231 56.6977 98.2713 59.8366 103.219C58.1314 103.406 56.4715 103.891 54.932 104.654C52.3545 106.588 52.2259 109.959 52.1014 113.224C52.0411 114.805 51.9817 116.361 51.6457 117.718C50.959 120.538 51.5967 121.726 55.4224 122.666C67.733 125.783 92.1579 125.288 92.9917 124.002C93.6784 119.652 93.2911 115.199 91.8637 111.037C91.2531 109.424 89.522 108.68 87.631 107.868C86.3324 107.31 84.9583 106.719 83.8201 105.792C84.8089 104.174 85.8962 102.208 87.0158 100.184C88.3951 97.6897 89.8234 95.1071 91.177 92.9767C95.1417 86.7298 95.0603 86.6057 92.8439 83.2246C92.62 82.8831 92.3744 82.5084 92.1089 82.0908C88.625 77.925 84.6107 71.2334 80.973 65.1696C79.0799 62.014 77.2889 59.0283 75.7276 56.6572C75.2049 55.9189 74.6388 54.7184 74.0536 53.4774ZM55.7166 85.6039C61.2878 79.4382 66.0667 72.5888 69.9402 65.2175C70.3798 68.1204 70.5995 73.5855 70.8217 79.1104C71.1449 87.1469 71.4731 95.3097 72.4904 95.8961C74.1719 96.8655 74.2064 96.8379 75.3134 95.9528C75.3365 95.9342 75.3601 95.9154 75.3842 95.8961C75.8496 95.5245 75.6327 92.1294 75.3518 87.7315C74.9222 81.0041 74.3426 71.93 75.8255 67.7411C80.416 74.4647 84.6403 81.4354 88.4795 88.6223L78.9645 104.259C77.8339 104.123 75.8723 104.033 73.6763 103.932C70.2518 103.775 66.2574 103.592 63.9564 103.17C63.2379 103.038 62.9979 102.577 62.7005 102.007C62.5512 101.72 62.3875 101.406 62.1417 101.092C59.1055 96.355 56.9298 91.1105 55.7166 85.6039ZM88.3786 117.98C88.2998 118.705 88.2344 119.306 88.2344 119.647V119.746C77.4932 119.746 57.3351 119.449 56.3052 117.718C55.5683 116.479 55.8355 115.341 56.0833 114.286C56.1818 113.867 56.2772 113.461 56.3052 113.066C56.3307 112.705 56.303 112.253 56.2731 111.768C56.1885 110.39 56.0872 108.74 57.1389 108.118C67.6116 108.312 78.0347 109.622 88.2344 112.027C88.9193 113.009 88.5973 115.97 88.3786 117.98Z" fill="#212E3B"/>
</svg>
