<svg width="144" height="144" viewBox="0 0 144 144" fill="none" xmlns="http://www.w3.org/2000/svg">
<path fill-rule="evenodd" clip-rule="evenodd" d="M65.3917 120.101C67.5019 120.435 69.643 120.544 71.7772 120.426C84.963 119.979 90.2705 116.363 89.1095 106.407C88.6505 103.791 89.0494 101.1 90.2488 98.72C91.4482 96.34 93.3865 94.3937 95.7853 93.1607L95.9702 93.0304C104.615 86.9391 113.188 80.8986 117.305 70.7718C119.214 66.438 120.129 61.7464 119.985 57.0284C119.842 52.3104 118.644 47.6807 116.476 43.4658C112.963 34.6747 107.175 26.931 99.6829 20.9955C94.8301 17.2106 89.1858 14.5199 83.1514 13.1153C77.1171 11.7107 70.841 11.6267 64.7697 12.8688C53.3255 15.2256 43.3739 19.5732 36.7396 29.4065C33.3075 34.1546 30.2045 39.1232 27.4515 44.2785C24.8872 49.2154 23.7157 54.7342 24.0583 60.2637C24.401 65.7931 26.2453 71.1324 29.4004 75.7289C34.8784 83.189 41.8475 89.4792 49.8839 94.2172C51.82 95.2833 53.373 96.9093 54.3304 98.8731C55.2878 100.837 55.603 103.042 55.2328 105.188C53.9889 113.559 57.0987 117.907 65.3917 120.101ZM72.5965 66.2702C70.8641 68.3419 68.5668 69.889 65.9722 70.7311V70.8122C64.2307 65.4892 61.8672 58.9065 59.6696 54.0305C58.0524 50.1703 55.3158 45.8226 50.879 46.8385C46.4423 47.8543 45.6545 52.6897 45.4057 56.7531C44.9081 65.5706 48.018 74.6318 59.6696 76.501C60.1113 76.6175 60.8245 76.5635 61.5383 76.5095C62.5665 76.4317 63.5958 76.3537 63.816 76.7855C66.8844 83.4087 68.0454 105.757 62.2818 113.112C60.32 112.027 60.2175 110.445 60.1132 108.835C60.0808 108.335 60.0482 107.833 59.9598 107.342C59.7292 106.106 59.6672 104.856 59.6069 103.641C59.4829 101.141 59.366 98.7848 57.8037 96.9803C53.2956 92.3265 48.3536 88.0959 43.0422 84.3433C26.9125 71.7062 26.6637 54.4776 38.8958 37.6552C40.1315 35.8779 41.5013 34.1663 42.8762 32.4482C44.3619 30.5919 45.8536 28.728 47.1887 26.7655C50.804 21.3539 56.2463 20.1201 62.0205 18.8112C62.2729 18.7539 62.5259 18.6966 62.7794 18.6387C70.3004 17.4528 77.9939 17.8685 85.3362 19.8577C91.9329 21.1506 96.0622 25.936 100.123 30.6421C100.529 31.1126 100.934 31.5824 101.342 32.0478C108.18 39.3445 112.528 48.5479 113.781 58.3783C115.108 71.1779 107.561 79.5484 98.1902 86.8219C97.8903 87.0562 97.5907 87.2903 97.2915 87.5241C94.3223 89.8438 91.3841 92.1392 88.446 94.5017C85.2679 97.0697 85.2387 99.5091 85.1953 103.129C85.1742 104.893 85.1497 106.938 84.7557 109.414C84.5069 110.918 82.5166 112.502 78.8677 113.031C75.4796 98.6318 74.7633 83.7531 76.753 69.1056C76.8792 68.0124 77.3586 66.9875 78.1213 66.1801C78.4941 65.8805 78.8713 65.5795 79.2511 65.2764C84.2787 61.2643 89.7475 56.9002 91.0583 50.7798C91.7634 49.0415 91.8349 47.1181 91.2608 45.3341C90.6867 43.55 89.5021 42.0147 87.907 40.9872C85.502 39.4838 79.697 42.7751 78.2457 46.8385C76.969 50.8017 76.1348 54.889 75.7578 59.0286C75.4252 61.6872 74.3289 64.1984 72.5965 66.2702ZM68.1698 79.833C66.8429 76.0541 67.5478 74.388 72.5651 74.388L72.5236 74.4693C72.5517 74.5759 72.5517 74.6878 72.5236 74.7945V112.909H69.7869V89.3007C69.7555 86.0814 69.2098 82.8868 68.1698 79.833ZM54.3621 50.0078C45.613 48.6669 47.6033 75.6478 62.1989 71.7876L54.3621 50.0078ZM78.2872 61.5885C85.3776 57.0782 87.8241 50.3329 84.2996 45.782L78.2872 61.5885ZM64.9728 130.51C69.389 131.767 73.8997 133.051 78.7396 130.625C78.8713 130.05 78.832 129.449 78.6262 128.894C78.4205 128.34 78.0569 127.855 77.5786 127.496C72.8333 126.226 67.9953 125.316 63.1074 124.774C61.3659 124.652 61.3245 129.488 63.3562 130.056C63.894 130.203 64.4327 130.356 64.9728 130.51Z" fill="#212E3B"/>
</svg>
