<svg width="144" height="144" viewBox="0 0 144 144" fill="none" xmlns="http://www.w3.org/2000/svg">
<path d="M106.44 99.4862C105.749 100.623 94.2624 95.5083 88.4451 93.3902C87.5084 93.0286 85.8817 94.0101 84.945 94.785C77.4021 101.191 70.1551 107.7 62.5136 114.21C60.7388 115.708 59.1119 117.361 56.3018 119.996C55.02 116.844 53.8367 114.106 52.8014 111.317C49.8927 103.102 47.0826 94.8367 44.2232 86.5709C43.4072 84.2893 42.716 81.9607 42.1527 79.5967C41.5118 76.652 41.8076 76.342 39.9342 75.1538C37.3213 73.5007 32.2926 71.4342 29.6304 69.9877C25.5385 67.6113 17.2561 63.1685 16.3687 62.6002C15.4813 62.0319 16.3689 61.567 17.207 61.257C25.6866 58.054 34.0181 54.5411 42.5963 51.6481C69.514 42.5557 96.5304 33.7733 123.448 24.681C127.737 23.2345 128.378 23.8544 127.836 28.7105C124.634 47.0031 119.457 64.8547 112.405 81.9214C110.729 86.6743 109.496 89.6706 108.116 94.6301C107.739 96.3116 107.177 97.9413 106.44 99.4862ZM69.5634 81.5082L102.545 91.8404C108.609 73.759 115.659 53.0429 121.624 35.0132C121.131 34.6516 119.11 36.7697 119.11 36.7697L69.5634 81.5082ZM56.6959 103.671C58.027 103.671 60.6402 90.3422 63.4503 80.6816C82.3321 60.0171 113.539 35.8398 113.539 34.1866C113.539 32.5335 63.5982 64.8216 45.8502 75.5155C45.7516 75.3088 55.6113 103.671 56.6959 103.671ZM98.2066 38.0096C76.564 45.0871 48.0194 54.7477 26.7712 61.722C32.1449 65.1832 37.124 68.5412 42.3005 71.5892C43.04 72.0542 44.7162 71.1759 45.7515 70.556C49.942 67.818 54.0338 64.77 58.3229 62.1869C69.4647 55.3677 98.4038 38.5262 98.2066 38.0096ZM60.5415 106.254C61.0838 107.494 74.7398 95.9216 80.5572 90.7555C76.4234 88.4329 72.0137 86.6957 67.4436 85.5894C64.8011 92.3469 62.4972 99.2444 60.5415 106.254Z" fill="#212E3B"/>
</svg>
