<svg width="144" height="144" viewBox="0 0 144 144" fill="none" xmlns="http://www.w3.org/2000/svg">
<path d="M109.157 49.4123C111.431 48.9733 113.782 49.1843 115.942 50.0207C117.476 50.599 118.863 51.5111 120.003 52.6916C121.143 53.8722 122.008 55.2922 122.537 56.8488C126.865 71.2911 126.165 86.354 125.423 100.879V111.639C125.423 111.724 124.598 120.288 122.908 120.784L122.166 120.991L121.754 120.329C120.105 117.639 117.467 112.176 116.189 109.362C115.335 107.321 114.632 105.218 114.087 103.072C114.004 102.659 113.757 102.286 113.757 101.872L111.366 106.218C106.667 115.032 103.329 120.784 100.072 120.784H99.082V119.791C98.9171 113.832 99.2474 105.68 99.5771 97.8175C100.031 86.9754 100.648 72.202 99.082 70.7121C96.4779 70.1913 93.8143 70.0382 91.168 70.257C85.1911 70.4225 81.4807 70.3809 80.6973 68.2707C79.2546 64.5052 94.9986 55.3191 96.5674 54.5314C98.1336 53.7452 99.7826 53.4968 100.236 54.2414C100.69 54.9862 101.555 56.352 89.8896 65.9113H90.3438C92.2813 65.584 94.2357 65.363 96.1973 65.2492C97.3876 65.0703 98.6024 65.1476 99.7607 65.4757C100.919 65.8039 101.995 66.3754 102.916 67.1525C103.676 67.9755 104.256 68.9499 104.618 70.0119C104.98 71.0738 105.117 72.2004 105.019 73.3185C104.977 81.1811 104.523 89.1273 104.523 96.8244C104.4 100.383 104.194 103.901 104.194 107.418V110.977C105.412 108.872 106.314 106.6 106.873 104.232C107.278 101.906 108.139 99.6844 109.405 97.6955C110.672 95.7064 112.319 93.9897 114.252 92.6447L114.705 92.3546L115.488 92.5617C116.931 93.0996 118.045 95.9139 121.054 104.439C121.548 98.9762 121.548 92.2302 121.548 88.0919C121.177 79.733 120.146 71.3326 118.992 62.7668C118.953 61.3692 118.616 59.9956 118.005 58.7394C117.394 57.4834 116.521 56.3737 115.447 55.4835C114.33 54.864 113.093 54.4917 111.82 54.3917C110.548 54.2919 109.268 54.4659 108.068 54.9035C108.027 54.9448 102.958 55.7727 102.339 54.0763C102.243 53.7687 102.266 53.436 102.403 53.1447C102.541 52.8533 102.783 52.6236 103.081 52.5031C104.778 50.9222 106.884 49.8512 109.157 49.4123ZM31.5303 44.8742C33.8341 44.9174 36.0937 45.5188 38.1162 46.6271C42.0934 48.4098 46.2352 49.7963 50.4824 50.7658C52.8587 51.0826 55.1375 51.9157 57.1602 53.2072C57.6136 53.621 58.1082 54.6145 57.1602 56.4767C55.6231 58.802 53.4695 60.6502 50.9424 61.8126C48.4151 62.9752 45.6145 63.4055 42.8564 63.0558C43.2274 69.0976 44.0515 75.5123 44.876 82.63C45.7004 89.7477 46.5665 97.0314 46.9375 103.321V106.176C47.1648 108.32 47.2471 110.477 47.1846 112.632C47.1021 114.122 46.0719 117.143 44.3818 117.557C43.3701 117.713 42.3352 117.622 41.3662 117.29C40.3973 116.959 39.5223 116.397 38.8164 115.652C36.8686 113.166 35.0659 110.569 33.417 107.873L31.8916 105.556L31.5205 106.383C30.861 107.873 30.1186 109.528 29.8301 110.232C29.5415 110.935 29.3362 111.68 29.0889 112.384C28.6438 113.828 28.0345 115.216 27.2744 116.522C26.7475 117.278 26.0609 117.908 25.2627 118.366C24.4645 118.824 23.5748 119.098 22.6582 119.17C21.0919 119.17 19.4426 116.398 19.4424 115.032L18.9482 109.155C18.3299 101.748 17.7939 94.0511 17.7939 86.5197C17.8764 81.0159 18.4126 75.388 18.9072 69.9669C19.3607 65.3322 19.9785 60.5733 19.9785 55.9386C19.8849 54.0527 20.289 52.1749 21.1504 50.4962C22.0118 48.8176 23.2999 47.3974 24.8838 46.3791C26.9462 45.3474 29.2265 44.8309 31.5303 44.8742ZM56.0889 97.1134C56.5836 91.6098 58.3969 89.996 63.7969 90.2443H67.5889C71.5028 90.3141 75.4108 90.5898 79.2959 91.0714C80.5202 91.3328 81.6477 91.9328 82.5508 92.8029C83.4539 93.673 84.0967 94.7789 84.4072 95.9962C84.6717 102.189 84.603 108.392 84.2012 114.577C84.1596 115.943 82.2223 117.639 80.9033 117.639H78.8428C75.7099 117.887 72.0408 118.136 68.3721 118.136C64.6692 118.247 60.9707 117.787 57.4072 116.771C55.676 116.191 55.4707 113.211 55.6768 106.383V102.369C55.8004 100.755 56.0889 98.9342 56.0889 97.1134ZM71.0928 95.2511C68.7473 95.1267 66.3949 95.2793 64.085 95.7062C63.2291 95.8094 62.3949 96.0475 61.6123 96.4103C61.5299 98.6863 61.5714 101.086 61.1592 104.149C60.747 107.211 60.7461 111.018 60.7461 112.094C63.6154 112.715 66.562 112.896 69.4854 112.632C71.1262 112.424 72.7778 112.314 74.4316 112.301C75.9737 112.39 77.5204 112.222 79.0078 111.804C79.7081 111.473 79.708 110.604 79.708 108.287C79.708 107.336 79.6666 106.218 79.749 104.894C80.2027 101.85 79.9919 98.743 79.1309 95.7892C78.553 95.2515 75.5856 95.2511 74.4316 95.2511H71.0928ZM31.5303 48.7707C30.4618 48.8207 29.4162 49.1062 28.4697 49.6066C27.6416 50.4225 27.0078 51.4157 26.6152 52.5119C26.2227 53.6082 26.0819 54.78 26.2031 55.9386C25.7087 66.8164 24.3082 89.516 24.3066 89.7472L23.9355 100.672V101.086C23.905 103.854 24.0844 106.621 24.4717 109.362C25.6258 107.376 27.6456 103.363 28.5938 101.459L28.9648 100.714C29.9954 98.7277 30.9439 97.6928 32.0156 97.4445C32.3737 97.3594 32.7467 97.3603 33.1045 97.4464C33.4625 97.5327 33.7954 97.7025 34.0762 97.9416C36.2251 100.18 38.1579 102.619 39.8477 105.225L41.166 106.963C40.795 100.425 40.6307 94.6723 40.4658 88.672C40.3009 82.6717 40.1356 76.7952 39.7646 70.257C39.7234 69.4294 39.4356 68.1047 39.4355 66.6564C39.1882 64.4218 38.8994 61.8559 38.8994 59.9523C38.8147 59.6872 38.8125 59.4022 38.8936 59.1359C38.9746 58.8698 39.1349 58.6353 39.3525 58.463C40.0533 57.9664 41.0844 58.6284 41.5791 58.9181C42.0736 59.2077 42.6918 59.621 43.4746 59.9933C46.0232 60.4542 48.6514 60.1374 51.0186 59.0832C51.8935 58.4674 52.6014 57.6422 53.0791 56.6828L53.4502 56.0626L48.5039 54.2833C43.7223 52.5039 39.6003 50.972 34.5713 49.5236L34.6533 49.3175C33.6647 48.9079 32.5986 48.7207 31.5303 48.7707ZM58.0176 61.5343C59.514 60.2799 61.4418 59.6669 63.3848 59.8283H69.4854C75.3799 59.8697 76.6166 59.8697 78.5127 63.7179L79.2959 65.2082H65.6523C62.5608 65.4151 61.1182 66.6976 61.1182 69.5529V81.2638H62.0654C67.7128 81.5949 74.7208 82.0503 77.2354 80.3537C78.0183 79.8157 78.2246 78.9468 78.2246 77.2091C78.2481 75.9529 78.4136 74.703 78.7188 73.4845C78.7559 73.1573 78.8897 72.8484 79.1025 72.5978C79.3155 72.3472 79.5989 72.1658 79.915 72.0773C80.3122 71.9982 80.7231 72.0257 81.1064 72.1564C81.4898 72.2872 81.8326 72.5169 82.0996 72.8224C82.4633 73.1342 82.7443 73.5319 82.917 73.9796C83.0896 74.4274 83.1487 74.9114 83.0889 75.3878L82.5938 77.4572C81.4396 82.7954 80.6562 85.3197 79.0898 85.7335C75.1591 86.7562 71.1143 87.2709 67.0537 87.2648H61.9834C56.7483 87.0579 56.3362 86.6439 55.8828 80.8918L55.7178 79.5675C55.2037 75.2423 55.093 70.8783 55.3877 66.5324C55.576 64.5843 56.5211 62.7888 58.0176 61.5343ZM57.1602 28.1291C60.2517 25.3979 62.6016 23.7017 64.9512 23.9914C66.6824 24.3638 68.2078 25.4807 70.2275 28.1291C71.5129 29.5947 72.8896 30.9774 74.3496 32.2677C75.8158 33.6543 77.1927 35.1332 78.4717 36.6955C81.5632 40.6681 77.4003 46.172 75.4629 48.3654C73.0537 51.0534 70.4347 53.5447 67.6309 55.8146C67.1677 56.1289 66.6234 56.301 66.0645 56.3107H65.5283C64.611 56.0191 63.8424 55.3811 63.3848 54.5314L63.0547 53.8693L66.5996 50.3107C68.6195 48.3243 70.3511 46.5859 72 44.8478C72.4533 44.3513 72.3711 44.4753 73.3604 43.5236C74.3494 42.5721 75.2974 41.7032 75.2979 41.0412C75.2111 40.5498 74.9467 40.107 74.5557 39.799C72.8211 38.0073 71.2093 36.099 69.7324 34.088C68.1984 32.0731 66.5609 30.1396 64.8271 28.2951C59.7614 31.7834 55.5364 36.3648 52.4609 41.7033C51.8433 42.6552 53.2853 44.889 54.4805 46.089L54.9756 46.5861L54.6875 47.2482C54.3578 47.9102 53.6978 48.9861 52.75 48.9865C52.4854 48.9843 52.2248 48.9146 51.9941 48.7843C51.7636 48.6541 51.5699 48.4671 51.4307 48.2414C51.0621 47.6951 50.6629 47.1701 50.2354 46.6691C48.2156 43.5242 46.8552 41.1651 47.7617 39.6339C50.2799 35.3321 53.4508 31.4501 57.1602 28.1291ZM100.36 23.9914C103.224 24.1428 105.923 25.3856 107.904 27.4669C108.977 28.4264 109.849 29.59 110.472 30.8898C111.094 32.1895 111.454 33.6 111.531 35.0402C111.384 37.4833 110.29 39.7715 108.481 41.4132C106.133 43.7719 102.979 45.1475 99.6592 45.2619C98.4239 45.4191 97.1692 45.2929 95.9893 44.8937C94.8092 44.4944 93.7342 43.8321 92.8457 42.9562C91.9571 42.0801 91.2774 41.0125 90.8584 39.8351C90.4395 38.6578 90.2914 37.4003 90.4258 36.1574C90.2432 33.2444 91.1666 30.3697 93.0098 28.1125C94.8529 25.8553 97.4794 24.3831 100.36 23.9914ZM28.1816 23.9914C29.5954 23.9965 30.9925 24.2971 32.2842 24.8742C33.5758 25.4512 34.7335 26.292 35.6836 27.3429C37.7156 29.5164 38.9007 32.3519 39.0225 35.3302C39.0717 36.2473 38.9408 37.1652 38.6367 38.0314C38.3326 38.8975 37.8611 39.6947 37.25 40.3781C35.3965 42.0357 32.9697 42.8977 30.4902 42.7785C27.5421 42.9175 24.657 41.8925 22.4521 39.923C21.6123 39.0366 20.9572 37.9908 20.5254 36.8468C20.0936 35.7028 19.8936 34.4835 19.9375 33.2609C19.9056 30.96 20.7351 28.7303 22.2617 27.0138C23.7883 25.2976 25.901 24.2192 28.1816 23.9914ZM101.226 28.7912H100.648C100.08 28.8664 99.5336 29.0603 99.0439 29.3595C98.5543 29.6588 98.1322 30.0572 97.8047 30.5294C97.1741 31.3799 96.7245 32.3517 96.4834 33.3839C96.2424 34.4161 96.215 35.4873 96.4033 36.5304C96.6407 37.3479 97.0561 38.1026 97.6191 38.7394C98.1822 39.3761 98.8789 39.8795 99.6592 40.213C100.321 40.2905 100.992 40.2229 101.625 40.0158C102.258 39.8086 102.839 39.4666 103.328 39.0128C104.207 38.355 104.913 37.4902 105.38 36.4943C105.847 35.4983 106.063 34.4015 106.008 33.3019C106.013 32.6648 105.892 32.0331 105.651 31.4435C105.411 30.8538 105.055 30.3178 104.606 29.8673C103.64 29.1217 102.443 28.7406 101.226 28.7912ZM29.0889 28.6671C28.3176 28.5633 27.5328 28.6163 26.7822 28.8224C26.0318 29.0286 25.3299 29.3839 24.7188 29.8673C24.3858 30.3199 24.1481 30.8361 24.0205 31.3839C23.893 31.9317 23.878 32.5001 23.9766 33.0539C24.1815 34.4608 24.9251 35.7323 26.0488 36.5978C27.1725 37.4632 28.5885 37.8543 29.9951 37.6886C30.663 37.6743 31.319 37.5069 31.9121 37.1984C32.5052 36.8899 33.0201 36.4487 33.417 35.9093C33.6626 35.6071 33.8351 35.2517 33.9209 34.8712C34.0067 34.4907 34.0031 34.0951 33.9111 33.716V33.3019C33.2104 30.8192 32.3861 28.6673 29.0889 28.6671Z" fill="#212E3B"/>
</svg>
