<svg width="145" height="144" viewBox="0 0 145 144" fill="none" xmlns="http://www.w3.org/2000/svg">
<path d="M61.4347 42.207C60.3393 42.0515 60.2638 36.913 60.4149 33.9747C60.4149 33.7556 65.5139 33.7778 65.5516 34.0266C65.5516 36.1179 65.5516 38.1993 65.5516 40.2906C65.7986 40.8688 65.7986 41.4534 65.5516 42.0334C65.2495 42.383 62.6433 42.3622 61.4347 42.207Z" fill="#212E3B"/>
<path d="M69.9743 28.9961C69.9662 27.2499 69.2464 25.5776 67.9714 24.3425C67.4797 23.9138 66.9047 23.5845 66.2799 23.3736C65.6551 23.1628 64.9931 23.0746 64.3327 23.1144C62.4752 23.1795 60.6961 23.8553 59.2883 25.0302C57.8805 26.2051 56.9281 27.809 56.588 29.578C56.5883 30.2769 56.7332 30.9686 57.0142 31.6125C57.2951 32.2563 57.7064 32.8394 58.2237 33.327C58.8426 33.8748 59.5702 34.2947 60.3622 34.5614C61.1542 34.8281 61.994 34.9359 62.8305 34.8782C64.9456 34.7828 66.9417 33.9033 68.4053 32.422C69.3155 31.5644 69.8731 30.4159 69.9743 29.1902L69.9743 28.9961ZM66.369 30.1919C65.6429 30.8811 64.7637 31.4009 63.7986 31.7111C62.0961 32.2282 60.8609 32.5837 59.6258 29.6751C59.4849 29.4044 59.4115 29.1055 59.4115 28.8024C59.4115 28.4993 59.4849 28.2004 59.6258 27.9298C60.2874 26.7769 62.4897 26.4491 63.3741 26.3174C63.3821 26.3162 63.3901 26.315 63.398 26.3139C63.398 26.3139 66.5025 25.8614 67.1368 27.8651C67.2139 28.2955 67.171 28.7382 67.0125 29.1472C66.8541 29.5562 66.5859 29.9166 66.2355 30.1919L66.369 30.1919Z" fill="#212E3B"/>
<path d="M66.369 30.1919C65.6429 30.8811 64.7637 31.4009 63.7986 31.7111C62.0961 32.2282 60.8609 32.5837 59.6258 29.6751C59.4849 29.4044 59.4115 29.1055 59.4115 28.8024C59.4115 28.4993 59.4849 28.2004 59.6258 27.9298C60.2874 26.7769 62.4897 26.4491 63.3741 26.3174L63.398 26.3139C63.398 26.3139 66.5025 25.8614 67.1368 27.8651C67.2139 28.2955 67.171 28.7382 67.0125 29.1472C66.8541 29.5562 66.5859 29.9166 66.2355 30.1919L66.369 30.1919Z" fill="#212E3B"/>
<path d="M86.7351 42.0949C87.7944 41.783 87.8674 31.6078 87.7213 25.7899C87.7213 25.356 82.7901 25.4179 82.7536 25.9107C82.7536 30.0519 82.7536 34.1733 82.7536 38.3145C82.5147 39.4604 82.5147 40.6179 82.7536 41.7655C83.0458 42.4567 85.5662 42.4063 86.7351 42.0949Z" fill="#212E3B"/>
<path d="M79.9121 25.1714C79.0409 24.3221 78.5271 23.1642 78.478 21.9397C78.5019 20.2348 79.1892 18.6089 80.3902 17.4155C80.9113 16.94 81.5209 16.5747 82.1831 16.3416C82.8454 16.1085 83.5469 16.0122 84.2465 16.058C88.294 16.2842 92.214 19.4837 92.214 22.5216C92.2152 23.1987 92.0802 23.8689 91.8172 24.4913C91.5541 25.1137 91.1686 25.6751 90.6842 26.1411C90.0231 26.7369 89.2511 27.1926 88.4137 27.4813C87.5762 27.7699 86.6903 27.8856 85.8081 27.8217C83.5768 27.7536 81.4604 26.8022 79.9121 25.1714ZM85.84 24.8483C87.2741 24.8483 88.2939 24.8483 88.517 21.6166C88.589 21.3033 88.583 20.9769 88.4995 20.6666C88.4161 20.3563 88.2578 20.0722 88.039 19.8393C87.559 19.5649 87.0291 19.3915 86.4814 19.3304C85.9336 19.2693 85.3794 19.3214 84.852 19.4835C84.852 19.4835 82.398 19.9037 82.398 22.0044C82.398 24.105 84.6289 24.8483 85.84 24.8483Z" fill="#212E3B"/>
<path d="M85.84 24.8483C87.2741 24.8483 88.2939 24.8483 88.517 21.6166C88.589 21.3033 88.583 20.9769 88.4995 20.6666C88.4161 20.3563 88.2578 20.0722 88.039 19.8393C87.559 19.5649 87.0291 19.3915 86.4814 19.3304C85.9336 19.2693 85.3794 19.3214 84.852 19.4835C84.852 19.4835 82.398 19.9037 82.398 22.0044C82.398 24.105 84.6289 24.8483 85.84 24.8483Z" fill="#212E3B"/>
<path d="M86.8824 103.243C87.9937 103.398 88.0703 108.537 87.917 111.475C87.917 111.694 82.744 111.672 82.7056 111.423C82.7056 109.332 82.7056 107.251 82.7056 105.159C82.4551 104.581 82.4551 103.997 82.7056 103.417C83.0122 103.067 85.6562 103.088 86.8824 103.243Z" fill="#212E3B"/>
<path d="M78.8276 116.452C78.8357 118.198 79.5555 119.871 80.8306 121.106C81.3222 121.534 81.8973 121.864 82.5221 122.075C83.1469 122.285 83.8089 122.374 84.4693 122.334C86.3267 122.269 88.1059 121.593 89.5136 120.418C90.9214 119.243 91.8738 117.639 92.214 115.87C92.2136 115.171 92.0687 114.48 91.7878 113.836C91.5068 113.192 91.0956 112.609 90.5782 112.121C89.9594 111.573 89.2318 111.154 88.4397 110.887C87.6477 110.62 86.8079 110.512 85.9715 110.57C83.8564 110.665 81.8602 111.545 80.3966 113.026C79.4864 113.884 78.9288 115.032 78.8276 116.258L78.8276 116.452ZM82.4329 115.256C83.1591 114.567 84.0383 114.047 85.0034 113.737C86.7059 113.22 87.941 112.865 89.1762 115.773C89.3171 116.044 89.3904 116.343 89.3904 116.646C89.3904 116.949 89.3171 117.248 89.1762 117.518C88.5146 118.671 86.3123 118.999 85.4279 119.131C85.4198 119.132 85.4118 119.133 85.404 119.134C85.404 119.134 82.2994 119.587 81.6651 117.583C81.5881 117.153 81.631 116.71 81.7894 116.301C81.9478 115.892 82.2161 115.532 82.5665 115.256L82.4329 115.256Z" fill="#212E3B"/>
<path d="M82.4329 115.256C83.1591 114.567 84.0383 114.047 85.0034 113.737C86.7059 113.22 87.941 112.865 89.1762 115.773C89.3171 116.044 89.3904 116.343 89.3904 116.646C89.3904 116.949 89.3171 117.248 89.1762 117.518C88.5146 118.671 86.3123 118.999 85.4279 119.131L85.404 119.134C85.404 119.134 82.2994 119.587 81.6651 117.583C81.5881 117.153 81.631 116.71 81.7894 116.301C81.9478 115.892 82.2161 115.532 82.5665 115.256L82.4329 115.256Z" fill="#212E3B"/>
<path d="M62.4453 103.355C61.2983 103.666 61.2192 113.841 61.3774 119.659C61.3774 120.093 66.7168 120.033 66.7563 119.54C66.7563 115.399 66.7563 111.277 66.7563 107.136C67.015 105.99 67.015 104.833 66.7563 103.685C66.4399 102.994 63.7109 103.044 62.4453 103.355Z" fill="#212E3B"/>
<path d="M68.8898 120.277C69.7611 121.126 70.2749 122.284 70.324 123.509C70.3 125.213 69.6127 126.839 68.4118 128.033C67.8907 128.508 67.2811 128.873 66.6188 129.107C65.9566 129.34 65.255 129.436 64.5555 129.39C60.508 129.164 56.588 125.965 56.588 122.927C56.5867 122.25 56.7217 121.579 56.9848 120.957C57.2478 120.334 57.6333 119.773 58.1177 119.307C58.7788 118.711 59.5508 118.256 60.3883 117.967C61.2257 117.678 62.1116 117.563 62.9939 117.626C65.2252 117.695 67.3415 118.646 68.8898 120.277ZM62.962 120.6C61.5278 120.6 60.508 120.6 60.2849 123.832C60.213 124.145 60.219 124.471 60.3024 124.782C60.3859 125.092 60.5441 125.376 60.7629 125.609C61.2429 125.883 61.7728 126.057 62.3206 126.118C62.8683 126.179 63.4226 126.127 63.95 125.965C63.95 125.965 66.404 125.544 66.404 123.444C66.404 121.343 64.173 120.6 62.962 120.6Z" fill="#212E3B"/>
<path d="M62.962 120.6C61.5278 120.6 60.508 120.6 60.2849 123.832C60.213 124.145 60.219 124.471 60.3024 124.782C60.3859 125.092 60.5441 125.376 60.7629 125.609C61.2429 125.883 61.7728 126.057 62.3206 126.118C62.8683 126.179 63.4226 126.127 63.95 125.965C63.95 125.965 66.404 125.544 66.404 123.444C66.404 121.343 64.173 120.6 62.962 120.6Z" fill="#212E3B"/>
<path d="M119.487 63.9015C121.001 62.1013 121.343 53.4417 120.444 53.2711C119.451 53.1033 115.999 53.7256 115.751 54.1652C115.751 54.1652 116.414 59.5445 115.059 60.0284C112.018 61.1144 106.039 60.533 105.647 60.6076C104.96 60.7384 104.416 64.0829 103.914 64.2678C103.117 64.5613 117.972 65.7017 119.487 63.9015Z" fill="#212E3B"/>
<path d="M117.084 54.77H117.924C119.416 54.7815 121.147 54.3873 122.281 53.2878C122.981 52.5555 123.546 51.5759 123.924 50.5843C124.303 49.5927 124.202 48.4063 124.194 47.3257C124.217 46.7135 124.125 46.1027 123.924 45.5337C123.724 44.9647 123.419 44.4506 123.03 44.0253C122.199 43.3284 121.253 42.8294 120.247 42.5584C119.242 42.2874 118.199 42.25 117.181 42.4485C115.974 42.3657 114.785 42.8155 113.864 43.704C112.942 44.5924 112.359 45.8507 112.236 47.2157C112.022 48.1075 111.972 49.0397 112.089 49.9543C112.206 50.869 112.487 51.7467 112.915 52.5331C113.44 53.207 114.08 53.7528 114.797 54.1374C115.513 54.5219 116.291 54.7372 117.084 54.77ZM117.504 45.1988C117.89 45.0571 118.293 44.9829 118.699 44.9788C119.071 44.97 119.44 45.0467 119.784 45.2043C120.129 45.3618 120.441 45.597 120.703 45.8955C121.107 46.3736 121.39 46.967 121.521 47.6127C121.652 48.2584 121.626 48.9322 121.447 49.5627C121.262 50.2263 120.915 50.8166 120.446 51.2646C119.976 51.7127 119.404 52 118.797 52.093C118.387 52.2334 117.957 52.2801 117.531 52.2305C117.106 52.1808 116.693 52.0359 116.317 51.8039C115.942 51.5719 115.61 51.2576 115.342 50.8792C115.074 50.5008 114.875 50.0657 114.757 49.5993C114.664 49.1038 114.662 48.5917 114.752 48.0954C114.843 47.5992 115.023 47.1295 115.281 46.7161C115.539 46.3026 115.869 45.9543 116.252 45.6932C116.635 45.432 117.061 45.2637 117.504 45.1988Z" fill="#212E3B"/>
<path d="M117.504 45.1988C117.89 45.0571 118.293 44.9829 118.699 44.9788C119.071 44.97 119.44 45.0467 119.784 45.2043C120.129 45.3618 120.441 45.597 120.703 45.8955C121.107 46.3736 121.39 46.967 121.521 47.6127C121.652 48.2584 121.626 48.9322 121.447 49.5627C121.262 50.2263 120.915 50.8166 120.446 51.2646C119.976 51.7127 119.404 52 118.797 52.093C118.387 52.2334 117.957 52.2801 117.531 52.2305C117.106 52.1808 116.693 52.0359 116.317 51.8039C115.942 51.5719 115.61 51.2576 115.342 50.8792C115.074 50.5008 114.875 50.0657 114.757 49.5993C114.664 49.1038 114.662 48.5917 114.752 48.0954C114.843 47.5992 115.023 47.1295 115.281 46.7161C115.539 46.3026 115.869 45.9543 116.252 45.6932C116.635 45.432 117.061 45.2637 117.504 45.1988Z" fill="#212E3B"/>
<path d="M28.3406 65.7176C26.8265 63.9175 26.4844 55.2579 27.3837 55.0873C28.376 54.9195 31.828 55.5418 32.0761 55.9813C32.0761 55.9813 31.4131 61.3606 32.768 61.8445C35.8089 62.9306 41.7882 62.3491 42.1802 62.4237C42.8675 62.5546 43.4111 65.8991 43.9134 66.084C44.7104 66.3774 29.8548 67.5178 28.3406 65.7176Z" fill="#212E3B"/>
<path d="M30.7437 56.5862H29.9034C28.4115 56.5977 26.6807 56.2035 25.5462 55.104C24.8459 54.3717 24.2815 53.3921 23.903 52.4005C23.5245 51.4088 23.6252 50.2225 23.6335 49.1419C23.6105 48.5296 23.7024 47.9188 23.903 47.3499C24.1036 46.7809 24.4081 46.2668 24.7969 45.8415C25.6278 45.1445 26.5745 44.6456 27.5798 44.3746C28.585 44.1036 29.6283 44.0662 30.6466 44.2646C31.8537 44.1818 33.0421 44.6317 33.9636 45.5201C34.8852 46.4086 35.4685 47.6669 35.5914 49.0319C35.8052 49.9237 35.8553 50.8558 35.7385 51.7705C35.6218 52.6852 35.3404 53.5629 34.9124 54.3492C34.3874 55.0232 33.7473 55.569 33.0306 55.9535C32.314 56.3381 31.5359 56.5533 30.7437 56.5862ZM30.3235 47.015C29.9371 46.8733 29.5339 46.7991 29.1278 46.7949C28.7566 46.7861 28.3873 46.8629 28.0429 47.0204C27.6985 47.178 27.3862 47.4132 27.1241 47.7117C26.7198 48.1898 26.4372 48.7832 26.3063 49.4289C26.1754 50.0745 26.2009 50.7484 26.3805 51.3788C26.5651 52.0424 26.9125 52.6328 27.3817 53.0808C27.851 53.5289 28.423 53.8162 29.0308 53.9092C29.4403 54.0495 29.8704 54.0963 30.2959 54.0466C30.7215 53.997 31.134 53.852 31.5098 53.6201C31.8856 53.3881 32.2171 53.0738 32.485 52.6954C32.7529 52.3169 32.9519 51.8819 33.0705 51.4155C33.1635 50.9199 33.165 50.4079 33.0748 49.9116C32.9847 49.4154 32.8047 48.9457 32.5466 48.5322C32.2885 48.1188 31.958 47.7705 31.5753 47.5093C31.1927 47.2482 30.7664 47.0799 30.3235 47.015Z" fill="#212E3B"/>
<path d="M30.3235 47.015C29.9371 46.8733 29.5339 46.7991 29.1278 46.7949C28.7566 46.7861 28.3873 46.8629 28.0429 47.0204C27.6985 47.178 27.3862 47.4132 27.1241 47.7117C26.7198 48.1898 26.4372 48.7832 26.3063 49.4289C26.1754 50.0745 26.2009 50.7484 26.3805 51.3788C26.5651 52.0424 26.9125 52.6328 27.3817 53.0808C27.851 53.5289 28.423 53.8162 29.0308 53.9092C29.4403 54.0495 29.8704 54.0963 30.2959 54.0466C30.7215 53.997 31.134 53.852 31.5098 53.6201C31.8856 53.3881 32.2171 53.0738 32.485 52.6954C32.7529 52.3169 32.9519 51.8819 33.0705 51.4155C33.1635 50.9199 33.165 50.4079 33.0748 49.9116C32.9847 49.4154 32.8047 48.9457 32.5466 48.5322C32.2885 48.1188 31.958 47.7705 31.5753 47.5093C31.1927 47.2482 30.7664 47.0799 30.3235 47.015Z" fill="#212E3B"/>
<path d="M119.487 76.4662C121.001 78.2664 121.343 86.926 120.444 87.0966C119.451 87.2644 115.999 86.6421 115.751 86.2025C115.751 86.2025 116.414 80.8232 115.059 80.3393C112.018 79.2533 106.039 79.8347 105.647 79.7601C104.96 79.6293 104.416 76.2848 103.914 76.0998C103.117 75.8064 117.972 74.666 119.487 76.4662Z" fill="#212E3B"/>
<path d="M117.084 85.5977H117.924C119.416 85.5862 121.147 85.9804 122.281 87.0799C122.981 87.8122 123.546 88.7918 123.924 89.7834C124.303 90.775 124.202 91.9614 124.194 93.042C124.217 93.6542 124.125 94.265 123.924 94.834C123.724 95.4029 123.419 95.9171 123.03 96.3423C122.199 97.0393 121.253 97.5383 120.247 97.8093C119.242 98.0803 118.199 98.1177 117.181 97.9192C115.974 98.002 114.785 97.5522 113.864 96.6637C112.942 95.7753 112.359 94.517 112.236 93.152C112.022 92.2602 111.972 91.328 112.089 90.4133C112.206 89.4987 112.487 88.6209 112.915 87.8346C113.44 87.1607 114.08 86.6149 114.797 86.2303C115.513 85.8458 116.291 85.6305 117.084 85.5977ZM117.504 95.1689C117.89 95.3105 118.293 95.3847 118.699 95.3889C119.071 95.3977 119.44 95.321 119.784 95.1634C120.129 95.0058 120.441 94.7707 120.703 94.4721C121.107 93.9941 121.39 93.4007 121.521 92.755C121.652 92.1093 121.626 91.4354 121.447 90.805C121.262 90.1414 120.915 89.5511 120.446 89.103C119.976 88.655 119.404 88.3677 118.797 88.2747C118.387 88.1343 117.957 88.0876 117.531 88.1372C117.106 88.1868 116.693 88.3318 116.317 88.5638C115.942 88.7957 115.61 89.11 115.342 89.4885C115.074 89.8669 114.875 90.3019 114.757 90.7683C114.664 91.2639 114.662 91.776 114.752 92.2722C114.843 92.7685 115.023 93.2382 115.281 93.6516C115.539 94.0651 115.869 94.4134 116.252 94.6745C116.635 94.9357 117.061 95.104 117.504 95.1689Z" fill="#212E3B"/>
<path d="M117.504 95.1689C117.89 95.3105 118.293 95.3847 118.699 95.3889C119.071 95.3977 119.44 95.321 119.784 95.1634C120.129 95.0058 120.441 94.7707 120.703 94.4721C121.107 93.9941 121.39 93.4007 121.521 92.755C121.652 92.1093 121.626 91.4354 121.447 90.805C121.262 90.1414 120.915 89.5511 120.446 89.103C119.976 88.655 119.404 88.3677 118.797 88.2747C118.387 88.1343 117.957 88.0876 117.531 88.1372C117.106 88.1868 116.693 88.3318 116.317 88.5638C115.942 88.7957 115.61 89.11 115.342 89.4885C115.074 89.8669 114.875 90.3019 114.757 90.7683C114.664 91.2639 114.662 91.776 114.752 92.2722C114.843 92.7685 115.023 93.2382 115.281 93.6516C115.539 94.0651 115.869 94.4134 116.252 94.6745C116.635 94.9357 117.061 95.104 117.504 95.1689Z" fill="#212E3B"/>
<path d="M28.3406 78.2824C26.8265 80.0825 26.4844 88.7421 27.3837 88.9127C28.376 89.0805 31.828 88.4582 32.0761 88.0187C32.0761 88.0187 31.4131 82.6394 32.768 82.1555C35.8089 81.0694 41.7882 81.6509 42.1802 81.5763C42.8675 81.4454 43.4111 78.1009 43.9134 77.916C44.7104 77.6226 29.8548 76.4822 28.3406 78.2824Z" fill="#212E3B"/>
<path d="M30.7437 87.4138H29.9034C28.4115 87.4023 26.6807 87.7965 25.5462 88.896C24.8459 89.6283 24.2815 90.6079 23.903 91.5995C23.5245 92.5912 23.6252 93.7775 23.6335 94.8581C23.6105 95.4704 23.7024 96.0812 23.903 96.6501C24.1036 97.2191 24.4081 97.7332 24.7969 98.1585C25.6278 98.8555 26.5745 99.3544 27.5798 99.6254C28.585 99.8964 29.6283 99.9338 30.6466 99.7354C31.8537 99.8182 33.0421 99.3683 33.9636 98.4799C34.8852 97.5914 35.4685 96.3331 35.5914 94.9681C35.8052 94.0763 35.8553 93.1442 35.7385 92.2295C35.6218 91.3148 35.3404 90.4371 34.9124 89.6508C34.3874 88.9768 33.7473 88.431 33.0306 88.0465C32.314 87.6619 31.5359 87.4467 30.7437 87.4138ZM30.3235 96.985C29.9371 97.1267 29.5339 97.2009 29.1278 97.2051C28.7566 97.2139 28.3873 97.1371 28.0429 96.9796C27.6985 96.822 27.3862 96.5868 27.1241 96.2883C26.7198 95.8102 26.4372 95.2168 26.3063 94.5711C26.1754 93.9255 26.2009 93.2516 26.3805 92.6212C26.5651 91.9576 26.9125 91.3672 27.3817 90.9192C27.851 90.4711 28.423 90.1838 29.0308 90.0908C29.4403 89.9505 29.8704 89.9037 30.2959 89.9534C30.7215 90.003 31.134 90.148 31.5098 90.3799C31.8856 90.6119 32.2171 90.9262 32.485 91.3046C32.7529 91.6831 32.9519 92.1181 33.0705 92.5845C33.1635 93.0801 33.165 93.5921 33.0748 94.0884C32.9847 94.5846 32.8047 95.0543 32.5466 95.4678C32.2885 95.8812 31.958 96.2295 31.5753 96.4907C31.1927 96.7518 30.7664 96.9201 30.3235 96.985Z" fill="#212E3B"/>
<path d="M30.3235 96.985C29.9371 97.1267 29.5339 97.2009 29.1278 97.2051C28.7566 97.2139 28.3873 97.1371 28.0429 96.9796C27.6985 96.822 27.3862 96.5868 27.1241 96.2883C26.7198 95.8102 26.4372 95.2168 26.3063 94.5711C26.1754 93.9255 26.2009 93.2516 26.3805 92.6212C26.5651 91.9576 26.9125 91.3672 27.3817 90.9192C27.851 90.4711 28.423 90.1838 29.0308 90.0908C29.4403 89.9505 29.8704 89.9037 30.2959 89.9534C30.7215 90.003 31.134 90.148 31.5098 90.3799C31.8856 90.6119 32.2171 90.9262 32.485 91.3046C32.7529 91.6831 32.9519 92.1181 33.0705 92.5845C33.1635 93.0801 33.165 93.5921 33.0748 94.0884C32.9847 94.5846 32.8047 95.0543 32.5466 95.4678C32.2885 95.8812 31.958 96.2295 31.5753 96.4907C31.1927 96.7518 30.7664 96.9201 30.3235 96.985Z" fill="#212E3B"/>
<path d="M65.2263 72.4489C65.3265 78.3459 68.0746 81.1681 73.6508 81.1681C75.6101 81.2027 77.5045 80.4311 78.9289 79.0181C80.3534 77.6052 81.1947 75.6631 81.273 73.6072C81.5137 69.4793 76.9203 64.509 73.4903 64.6143C68.9972 64.7406 65.2263 68.3842 65.2263 72.4489Z" fill="#212E3B"/>
<path fill-rule="evenodd" clip-rule="evenodd" d="M60.4229 41.9676C38.8803 54.737 36.6627 70.3308 44.3475 89.594C48.7141 98.8262 55.8006 102.232 63.8893 104.3C71.978 106.367 83.8923 105.746 91.6315 101.696C107.975 94.7091 108.158 66.384 103.738 55.331C98.4246 42.0415 75.4115 33.4106 60.4229 41.9676ZM58.4271 65.1556C59.3753 65.1556 60.1193 63.2346 59.6598 61.7894C59.4782 61.2183 59.0297 60.8905 58.6124 60.5854C58.095 60.2073 57.6255 59.8641 57.7715 59.1356C58.4271 55.8629 62.7415 52.4967 63.9031 53.3027C64.666 53.8321 65.5448 54.7632 66.304 55.5676C66.7453 56.0352 67.1463 56.4601 67.4606 56.7383C67.8753 57.1054 70.3856 56.7383 70.8568 56.139C70.9643 56.0022 70.8926 55.2991 70.8084 54.4734C70.6881 53.294 70.5422 51.8644 70.8568 51.4774C71.5934 50.571 81.3052 51.4327 81.8319 52.2755C82.1405 52.7692 81.5062 57.3747 81.1221 58.1082C80.7381 58.8417 82.4551 60.1654 83.0047 59.9289C83.1813 59.8529 83.6143 59.4112 84.1616 58.8529C85.3169 57.6745 86.9813 55.9766 87.8189 56.1022C89.1064 56.2953 94.8316 63.2802 93.9925 64.772C93.675 65.3364 92.5327 65.8958 91.3851 66.4577C90.2089 67.0336 89.0271 67.6123 88.7223 68.2019C88.1201 69.3667 88.6368 70.5612 89.3568 71.0654C89.8895 71.4384 91.0767 71.2844 92.2173 71.1364C93.1291 71.018 94.0112 70.9036 94.5053 71.0654C96.32 71.6597 93.9925 81.2098 92.0532 81.5252C91.3075 81.6465 90.6611 81.5285 89.9961 81.4071C89.5093 81.3183 89.0126 81.2276 88.4597 81.2276C87.8154 81.2276 86.7009 82.5851 86.7009 83.6321C86.7009 84.1569 87.2412 84.4914 87.7816 84.8258C88.322 85.1603 88.8624 85.4947 88.8624 86.0195C88.8624 88.1135 82.1518 92.8613 80.4865 91.8182C79.9292 91.4691 79.611 90.9052 79.29 90.3362C79.0161 89.8509 78.7402 89.3619 78.312 88.9994C77.8703 88.6255 74.4865 89.3866 74.4865 90.0061C74.4865 90.2375 74.5188 90.5427 74.5553 90.8869C74.6711 91.9807 74.8286 93.4686 74.1241 94.2343C73.1979 95.241 63.6661 92.8928 63.2516 91.8182C63.0232 91.2261 63.3922 90.3945 63.7595 89.5667C64.1601 88.6637 64.5588 87.7653 64.1778 87.1873C63.4958 86.1526 62.9086 85.4746 61.963 85.7779C61.506 85.9245 61.0962 86.3958 60.6854 86.8684C60.2462 87.3735 59.8059 87.8801 59.3053 87.9927C57.6946 88.3551 52.8347 82.2131 53.0234 80.9457C53.1919 79.8144 54.4626 79.0079 55.4576 78.3764C56.1271 77.9515 56.6718 77.6058 56.6718 77.2936C56.6718 76.5176 56.1682 74.584 55.574 74.3186C55.244 74.1712 54.7657 74.1132 54.246 74.0502C53.2854 73.9338 52.1832 73.8002 51.6139 73.0531C49.7326 70.5839 53.5674 63.6859 54.6341 63.6859C55.2825 63.6859 55.9065 64.0533 56.5306 64.4207C57.1546 64.7882 57.7787 65.1556 58.4271 65.1556Z" fill="#212E3B"/>
</svg>
