<svg width="144" height="144" viewBox="0 0 144 144" fill="none" xmlns="http://www.w3.org/2000/svg">
<path d="M70.3028 67.1787C74.4894 66.5988 78.7551 67.1973 82.6211 68.9062C86.7529 71.0831 90.2013 74.3625 92.583 78.3809C94.9648 82.3993 96.1873 86.9997 96.1143 91.6709C97.3746 92.1122 98.5948 92.6615 99.7608 93.3125C100.705 93.8608 101.708 94.3016 102.751 94.626C101.801 92.7002 101.338 90.5704 101.401 88.4238C101.599 85.7016 102.718 83.1274 104.574 81.127C105.391 80.5377 106.338 80.1539 107.334 80.0078C108.331 79.8618 109.348 79.9578 110.3 80.2881C111.096 80.7812 111.755 81.4686 112.214 82.2852C112.673 83.1016 112.917 84.0213 112.925 84.958C112.378 86.9851 111.476 88.8993 110.263 90.6123C109.476 91.7787 108.77 92.998 108.148 94.2607C109.106 94.7997 110.167 95.1273 111.262 95.2217C112.356 95.316 113.458 95.1748 114.493 94.8076C115.566 94.3526 116.471 93.5754 117.082 92.583C117.738 91.8534 118.177 91.1968 120 91.8535V92.0723C118.213 97.3619 115.295 97.7998 110.919 97.7998C109.317 97.7847 107.733 97.462 106.252 96.8506C105.873 97.2423 105.41 97.544 104.898 97.7334C104.387 97.9227 103.841 97.9953 103.298 97.9453C102.217 97.7364 101.188 97.3149 100.271 96.7051H100.089C98.8515 95.6647 97.292 95.0848 95.6758 95.0635C94.9206 99.3854 93.215 103.486 90.6807 107.066C87.8634 111.003 85.9458 115.512 85.0645 120.272C84.877 121.18 84.465 122.027 83.8662 122.734C83.2675 123.442 82.5008 123.988 81.6367 124.322C80.6521 124.468 78.9376 123.556 77.0049 121.586C76.1426 120.605 75.396 119.527 74.7803 118.375L74.2705 117.427H70.6231C67.5964 117.427 64.7516 117.208 61.9072 117.427C60.8622 117.425 59.8495 117.789 59.044 118.455C58.2384 119.121 57.6906 120.048 57.4951 121.075C57.1741 122.174 56.6111 123.186 55.8477 124.038C55.0842 124.89 54.1394 125.561 53.083 126H52.7549C51.2598 126 48.8163 123.702 48.0869 122.133C46.601 119.063 44.4582 116.358 41.8115 114.208C39.1649 112.058 36.0785 110.517 32.7705 109.692C24.5655 106.956 23.4354 102.323 24.2012 94.7715C24.2105 94.1277 24.3539 93.4926 24.624 92.9082C24.8941 92.3238 25.2843 91.803 25.7686 91.3789C26.2741 91.0627 26.8411 90.8572 27.4317 90.7754C28.0223 90.6937 28.6239 90.7372 29.1963 90.9043H29.4883C30.4363 91.1596 31.5301 91.4148 32.1865 90.9043C32.4324 90.642 32.621 90.3314 32.7403 89.9922C32.8595 89.6531 32.9074 89.293 32.8799 88.9346C32.7048 85.8263 33.6123 82.7536 35.4473 80.2393C37.2824 77.7249 39.9325 75.9242 42.9453 75.1445C42.763 74.6703 42.7627 74.1959 42.7627 73.7217C42.4625 72.8219 42.4625 71.849 42.7627 70.9492C43.4556 69.8183 45.4245 67.8117 46.6279 68.1035C49.6984 68.8937 52.7187 69.8678 55.6719 71.0215L58.917 72.1895C62.1734 69.494 66.1161 67.7587 70.3028 67.1787ZM82.751 75.0732C79.5219 73.0996 75.7394 72.2287 71.9727 72.5908C63.5488 73.3569 58.662 74.2324 56.6563 83.3164C56.135 84.9823 55.2361 86.5049 54.0303 87.7666C53.6907 88.2711 53.2432 88.6937 52.7197 89.0029C52.1961 89.3122 51.6096 89.5009 51.0039 89.5547C50.3899 89.4579 49.8071 89.2192 49.3008 88.8584C48.7946 88.4976 48.3789 88.0245 48.0869 87.4756C46.7377 85.4691 45.6074 83.7903 44.4404 81.8203L43.0176 79.4492C38.2406 80.5802 37.4019 84.7025 36.5996 88.3506C36.3079 88.8613 36.3076 89.3724 36.3076 89.8467C34.8855 96.0848 34.7761 96.5594 28.249 95.6475C27.9453 96.7257 27.8752 97.8565 28.0449 98.9639C28.2148 100.071 28.6204 101.131 29.2334 102.068C29.9464 102.962 30.8505 103.684 31.8789 104.183C32.9075 104.681 34.0348 104.944 35.1778 104.95C37.4891 105.044 39.7267 105.79 41.6319 107.103C44.4033 109.255 46.92 111.772 49.582 114.398L52.5723 117.354L52.7549 117.135C53.1751 116.709 53.4768 116.181 53.6299 115.603C54.177 110.605 57.8232 110.495 61.4697 110.787H61.7979C64.0331 111.136 66.3097 111.136 68.5449 110.787H68.9824C70.3604 110.378 71.7792 110.121 73.2129 110.021C75.2547 110.021 76.0937 111.408 78.3545 115.056C78.8432 115.885 79.3915 116.677 79.9951 117.427L80.0684 117.792C80.7612 116.442 81.4173 115.092 82.0371 113.815C83.5138 110.617 85.1824 107.51 87.0332 104.513C92.2845 96.4867 93.1964 89.81 89.8779 83.5352C88.4812 80.0168 85.9801 77.047 82.751 75.0732ZM44.4033 89.7363C44.7544 89.8047 45.0822 89.9618 45.3565 90.1914C45.6307 90.4211 45.8426 90.7161 45.9717 91.0498C46.4251 91.7541 46.6424 92.5847 46.5918 93.4209C45.7895 95.2085 44.9504 96.8145 43.9658 96.8145C43.6508 96.7816 43.3472 96.6786 43.0762 96.5146C42.8052 96.3507 42.5739 96.129 42.3985 95.8652C42.132 95.523 42.0015 95.0938 42.0332 94.6611V94.2598C42.2528 92.5156 43.0944 90.9092 44.4033 89.7363ZM106.872 82.8418C105.049 83.7901 104.574 90.6819 104.574 91.123C104.574 91.5607 104.793 92.291 104.938 92.3643C105.084 92.4372 105.377 92.2547 105.705 91.9629L106.069 91.6709C107.391 90.5451 108.459 89.1525 109.205 87.585C109.387 87.1472 109.752 86.8186 109.752 86.4902C110.7 84.7026 110.701 84.6657 108.111 83.0605C107.88 82.9214 107.616 82.8459 107.346 82.8418H106.872ZM46.8106 72.1533C46.3583 74.6055 46.4995 77.1303 47.2227 79.5166C47.946 81.9031 49.2302 84.082 50.9678 85.8701L55.0879 75.6182L46.8106 72.2256V72.1533ZM74.5254 76.3115C75.2013 76.2852 75.8734 76.4244 76.4834 76.7168C77.0933 77.0091 77.6225 77.446 78.0254 77.9893C78.0254 79.9228 76.3479 80.2148 75.4727 80.2148C71.684 80.659 67.8731 80.8906 64.0586 80.9082H63.6211C62.9646 80.908 61.2153 80.2151 60.9961 79.1211C60.8867 78.6833 61.0323 77.99 62.3086 77.4062C66.3497 76.7523 70.4325 76.3863 74.5254 76.3115ZM70.1485 44.2432C72.3779 44.2763 74.513 45.1532 76.1231 46.6963C77.7329 48.2393 78.6994 50.3348 78.8281 52.5615C78.8587 54.0681 78.5908 55.5662 78.0401 56.9688C77.4893 58.3711 76.6665 59.6506 75.6192 60.7334C74.7352 61.6182 73.6823 62.3161 72.5235 62.7861C71.3645 63.2562 70.1225 63.4889 68.8721 63.4697C66.3685 63.265 64.0357 62.1171 62.3447 60.2588C60.4562 58.4766 59.3322 56.0308 59.209 53.4365C59.5 51.2527 60.6233 49.2658 62.3447 47.8916C64.4028 45.7483 67.1847 44.4475 70.1485 44.2432ZM70.2578 47.7461C68.175 48.1108 66.2748 49.164 64.8613 50.7373C64.0534 51.4322 63.5114 52.3863 63.3291 53.4365L63.4024 53.6562C63.5121 55.991 66.9766 58.6169 71.8994 58.5439C73.9051 58.4344 75.5459 56.3186 75.5459 53.3271C75.5012 51.9425 74.9116 50.6315 73.9053 49.6797C72.9938 48.5773 71.6815 47.8818 70.2578 47.7461Z" fill="#212E3B"/>
</svg>
