<svg width="144" height="144" viewBox="0 0 144 144" fill="none" xmlns="http://www.w3.org/2000/svg">
<path d="M70.7765 104.644C67.9737 106.121 66.2017 105.547 63.7286 103.125C56.8453 96.3531 54.4134 88.3086 56.7628 76.7345C50.8687 76.7345 44.8914 76.3652 38.9972 76.7345C33.8863 77.1449 29.4347 76.9401 27.0441 71.6867C24.2826 65.7355 27.5391 57.4039 30.548 56.7472C29.2844 54.6317 28.8067 52.1414 29.1984 49.7111C29.5901 47.2809 30.8267 45.0649 32.6915 43.4494C31.962 42.5842 31.4524 41.5563 31.2072 40.4533C30.8306 38.1955 31.3096 35.8785 32.5509 33.9523C33.7923 32.0263 35.7079 30.6282 37.9259 30.0285C39.08 28.3868 38.709 27.2368 39.3273 25.3078C39.7201 23.3024 40.7879 21.4906 42.3537 20.1701C43.9195 18.8496 45.8903 18.0997 47.9415 18.0441C57.504 18.0441 67.108 17.7564 76.588 18.6594C79.9267 18.9467 83.1006 22.1891 86.1095 24.4054C88.1611 26.4688 90.5973 28.1136 93.2814 29.2482C94.0233 16.443 98.4341 18.9469 109.11 18.3312C114.839 17.962 117.353 21.1225 117.724 28.3459C117.971 33.353 117.724 38.3603 117.724 43.3263C117.724 52.6019 117.476 61.8369 117.971 71.0715C118.383 79.0334 114.385 81.2089 108.82 81.6603C104.92 81.8937 101.01 81.4209 97.2794 80.2648C92.7044 78.9514 94.6003 73.4105 93.6935 71.6867C92.7864 69.9221 80.0501 78.2536 77.6183 83.466C76.4949 85.1974 75.7302 87.1354 75.3693 89.1652C75.0084 91.195 75.0587 93.2761 75.5167 95.2863C75.8024 97.1432 75.4991 99.0426 74.6495 100.72C73.7999 102.397 72.446 103.769 70.7765 104.644ZM106.307 75.7912C112.365 76.2426 112.778 75.7908 112.365 69.799C112.159 66.8439 112.365 59.702 112.365 57.2804C112.365 46.8966 113.684 27.1555 112.571 24.4465C111.459 21.7376 106.018 22.846 102.473 22.7228C98.9284 22.5999 98.3517 25.5959 98.3517 28.715C98.599 42.259 98.5578 55.4747 98.5578 69.1008C97.9395 74.9698 99.8351 75.9964 104.863 75.7912C105.344 75.7542 105.827 75.7542 106.307 75.7912ZM62.2853 76.0783C57.9577 84.2868 65.5417 103.248 68.3859 100.704C71.2297 98.1598 71.1058 97.831 71.0646 96.2717C71.0646 90.9771 69.5815 85.5179 73.4972 80.839C75.7269 77.9676 78.1216 75.2272 80.6691 72.631C83.279 70.6008 86.0339 68.7623 88.9122 67.131C88.9122 67.131 93.0343 66.1458 93.0343 63.0265C93.0343 61.2207 93.4052 58.9223 93.4464 56.9933L93.4464 36.1437C91.4875 35.756 89.5981 35.0775 87.841 34.132C82.2354 29.5763 78.2367 24.3643 69.8283 24.5695C62.2443 24.5694 54.289 21.4913 46.9523 24.5695C45.9214 25.0215 42.3367 28.1817 45.0568 30.1926C46.0464 30.89 50.2915 29.8642 50.4152 31.9572C50.5388 34.0501 46.9125 34.625 46.005 34.4201C41.5947 33.4761 36.7717 33.4351 36.5656 38.7707C36.5656 41.9717 37.3082 42.4227 39.8224 42.8742C41.0587 42.8742 41.8833 42.875 42.4191 44.9269C42.9546 46.9788 40.3989 46.7735 39.5333 47.0197C38.6678 47.266 34.2572 46.5685 34.0099 51.1242C33.5977 58.5529 38.1318 56.2136 38.5441 58.5119C38.9563 60.8103 36.4422 60.2361 35.1232 60.8107C31.2902 62.4523 31.3308 62.9445 31.0011 66.4328C30.7136 67.4807 30.7136 68.587 31.0011 69.6349C31.3798 70.2132 31.8913 70.6938 32.4933 71.0363C33.0953 71.3789 33.7713 71.5734 34.464 71.6047C43.6968 70.6197 60.8015 69.9223 62.6564 70.9894C64.5112 72.0565 63.2333 74.2724 62.2853 76.0783ZM51.0324 104.398C49.7131 104.398 44.7679 103.084 45.1388 100.867C45.5097 98.6515 45.8391 98.5695 47.2404 98.6105C48.6418 98.6516 54.3715 98.4056 53.712 101.114C53.0526 103.823 52.3513 104.398 51.0324 104.398ZM90.7667 103.823C88.8707 105.301 81.9044 103.33 81.9044 103.33C81.8957 103.293 81.4158 101.232 81.9874 100.581C85.0038 99.8221 88.1625 99.822 91.1788 100.581C91.4671 101.443 91.1788 102.264 90.7667 103.823ZM58.3702 108.42C60.8015 111.457 53.3832 117.12 51.9816 116.382C50.5804 115.643 50.0856 114.946 50.2091 114.166C51.1564 111.43 52.8733 109.022 55.1554 107.23C56.3095 106.163 57.6284 107.476 58.3702 108.42ZM83.4298 114.822C82.6879 115.848 80.9976 116.135 80.7091 115.479C79.5184 113.625 78.4848 111.675 77.6183 109.651C77.6188 108.666 80.3383 107.476 80.8331 107.968C82.6879 109.979 84.0069 113.796 83.4298 114.822ZM71.6417 124.303C70.7349 126.15 69.4154 126.109 67.7667 125.903C66.1599 125.656 67.7667 117.695 67.7667 113.591C67.7667 112.934 68.8385 111.416 70.1574 111.826C71.4761 112.237 71.3122 112.236 71.6417 113.016C72.9603 116.663 72.9602 120.655 71.6417 124.303Z" fill="#212E3B"/>
</svg>
