<svg width="144" height="144" viewBox="0 0 144 144" fill="none" xmlns="http://www.w3.org/2000/svg">
<path fill-rule="evenodd" clip-rule="evenodd" d="M26 73.5C26.0002 71 45.0004 50 46.5004 54C48.0004 58 56.0004 73.5 63.0004 63C70.0004 52.5 49.5004 50 51.5004 46C53.5004 42 68.5 26 71.5004 26C75.5 26 87.0004 44.5 89.5004 41.5L89.537 41.4561C92.0918 38.3898 101.544 27.0457 110.5 36.5C119.5 46 105 53 103 57C101 61 120.203 69.7473 118 72.5C114 77.5 101.5 91 99.0004 92.5C95.5704 94.558 90.2735 70.5869 81.0004 82C74.5004 90 93.7684 97.2319 92.0004 99C89.5004 101.5 75.623 118.5 71.5004 118.5C67.5 118.5 56.2503 98.938 55.5004 102.5C53.5004 112 41.5004 116.5 36.0004 111C27.0004 102 35.5004 91.8571 41.0004 89.5C44.5004 88 25.9998 76 26 73.5ZM45.0004 60C45.0004 57.5 32.5004 71 32.5004 71C32.5004 71 41.0004 79.5 48.5004 88C53.6453 93.8309 29.0004 95.5 39.0004 105.5C48.0004 114.5 52.0004 94 54.5004 95C61.5867 97.8345 72.5004 111 72.5004 111L83.5004 99C83.5004 99 67.4516 87.9964 78.5004 77.5C88.5004 68 97.5004 82.5 97.5004 84C97.5004 90.7669 109.443 76 110 72.5C110.319 70.5 99.0004 63 97.5004 56.5C95.8198 49.2177 113 48.5 106 40C96.7826 28.807 95.7893 50.6438 88.5004 48.5C80.0004 46 73.0004 31 71.5004 32.5C66.5126 37.4878 56.0004 44.75 59.5004 46C66.5004 48.5 72.6114 60.4204 66.5004 66C55.0004 76.5 45.0004 63 45.0004 60Z" fill="#212E3B"/>
</svg>
