<svg width="144" height="144" viewBox="0 0 144 144" fill="none" xmlns="http://www.w3.org/2000/svg">
<path fill-rule="evenodd" clip-rule="evenodd" d="M88.6562 56.5585C91.7311 55.8187 95.1494 53.4905 94.5735 50.0342C94.4526 48.8774 94.0696 47.7753 93.4664 46.808C92.2655 49.8312 90.6662 53.6902 88.6562 56.5585ZM89.5119 43.6758C88.6357 43.3813 87.7051 43.2513 86.7663 43.3016C82.6199 43.3016 80.9877 47.7603 80.5466 50.8814C80.2813 52.7587 81.4523 54.5231 83.09 55.6312C85.2382 53.6461 86.9513 51.2184 88.1086 48.5037C88.7705 46.9513 89.24 45.3298 89.5119 43.6758ZM89.7855 39.809C89.3739 39.7019 88.955 39.6173 88.5305 39.5563C85.7936 39.7846 83.2128 40.9383 81.2041 42.8312C79.1954 44.7242 77.8759 47.2459 77.4589 49.9896C77.4292 51.4073 77.6821 52.8165 78.2025 54.1333C78.7229 55.4502 79.5001 56.6477 80.4879 57.6545C81.4757 58.6613 82.654 59.4569 83.9523 59.9938C85.2507 60.5307 86.6427 60.798 88.0453 60.7797C90.5652 60.6386 92.9641 59.6416 94.8535 57.9503C96.7429 56.259 98.0119 53.9724 98.4552 51.461C98.5377 48.5905 97.5713 45.7899 95.7406 43.594C95.4582 43.2552 95.1583 42.9345 94.8427 42.6329C95.3522 40.6138 95.6552 38.5454 95.7458 36.4605C102.11 37.7523 107.829 41.2915 111.865 46.4672C113.183 48.4404 114.194 50.6056 114.864 52.8877L114.875 53.2916C115.091 61.8693 115.252 68.2059 108.998 75.4934C105.723 77.9877 102.012 79.8334 98.0585 80.933C99.1535 83.018 99.8222 84.1965 100.497 85.3865C100.992 86.2578 101.489 87.1352 102.161 88.3791C103.835 91.5208 105.784 94.5051 107.983 97.2965C106.616 101.042 105.336 104.743 105.336 104.743C107.498 106.962 109.895 108.936 112.482 110.628L107.145 119.545C103.449 118.265 99.826 116.776 96.294 115.087C94.2728 112.132 92.7799 108.843 91.883 105.367C90.493 99.9962 89.1679 94.5819 87.847 89.1852L87.8469 89.1849L87.8469 89.1846L87.8468 89.1843C87.2816 86.8749 86.7172 84.5688 86.1488 82.2707C81.7487 82.4472 77.424 81.0778 73.9098 78.3954C70.3957 75.713 67.9091 71.8831 66.8728 67.5569C65.4081 62.8057 65.3814 57.7204 66.7961 52.9536C68.2108 48.1869 71.0023 43.9563 74.8126 40.8046C79.1581 37.7789 84.244 36.1068 89.4488 35.9333C89.5621 36.6057 89.6396 37.3219 89.6774 38.0849C89.7371 38.6592 89.7731 39.2343 89.7855 39.809ZM87.7273 31.2375C85.9603 31.4068 84.2057 31.7279 82.4828 32.1998C78.0383 33.4174 73.9135 35.6093 70.4016 38.6199C67.766 41.8833 65.419 45.3745 63.388 49.0533C61.3266 49.0024 59.2653 49.0627 57.2128 49.2337C54.0259 31.0022 67.9993 25.955 72.0335 25.8235C72.1815 25.8187 72.3411 25.8127 72.5111 25.8064C76.0255 25.6757 84.0075 25.3789 87.7273 31.2375ZM95.42 31.4593C93.3033 23.1074 81.8843 21.0794 73.7096 20.0717C64.6671 18.9571 51.7871 30.3714 49.7581 35.9448C48.3227 39.8873 50.1099 46.5963 51.2787 50.1851C50.3265 50.607 49.4856 51.2576 48.8318 52.0852C45.6124 57.6553 41.9597 63.8155 38.2775 70.0252C33.7363 77.6838 29.1504 85.4178 25.2773 92.2136C21.9691 98.1437 25.542 101.309 30.7911 104.208C39.8336 109.201 48.876 114.106 58.0067 118.966C58.9861 119.611 60.092 120.035 61.2485 120.209C62.405 120.382 63.5849 120.301 64.7075 119.971C65.83 119.64 66.8689 119.069 67.7527 118.295C68.6365 117.521 69.3444 116.564 69.8281 115.488C71.459 112.515 72.9603 109.477 74.4596 106.443C75.4339 104.471 76.4074 102.501 77.4152 100.551C78.8793 97.6572 80.4154 94.8114 82.1474 91.6026L82.148 91.6015L82.148 91.6015L82.1481 91.6014L82.1504 91.5971C82.7655 90.4575 83.4054 89.2721 84.0755 88.0224C84.4928 90.0786 84.8561 92.0452 85.2065 93.9418C86.0413 98.4607 86.8027 102.582 88.0455 106.571C89.1508 110.868 91.1175 114.889 93.8239 118.386C101.72 122.8 108.204 124.495 109.615 123.87C110.596 123.437 111.577 121.732 113.194 118.923L113.195 118.922C113.905 117.689 114.737 116.242 115.747 114.596L115.765 114.566C116.691 113.005 118.082 110.663 117.687 109.157C115.358 106.762 112.899 104.499 110.321 102.379C111.358 100.299 112.185 98.1177 112.791 95.8697C112.791 95.8697 105.645 85.2134 104.807 84.3662C107.089 83.1691 109.259 81.7664 111.291 80.1751C119.672 72.729 122.804 54.8942 117.114 44.5054C112.571 36.0338 104.94 32.9127 96.1177 31.5751C95.8854 31.5338 95.6528 31.4952 95.42 31.4593ZM52.3167 55.6076C51.1417 57.4696 49.9511 59.352 48.7497 61.2513C44.6291 67.7659 40.3831 74.4788 36.2165 81.2452C33.8159 84.8892 31.7067 88.721 29.9088 92.704C29.88 92.7745 29.8503 92.8462 29.8203 92.9188L29.8202 92.9189C29.2992 94.1789 28.6577 95.7303 29.9088 96.4048C32.7228 98.0232 36.2739 100.154 40.0054 102.393L40.0056 102.393C49.8442 108.297 60.9368 114.953 63.0795 114.953C65.051 114.953 68.7304 106.837 72.4283 98.6804L72.4283 98.6804L72.4283 98.6802L72.4284 98.6801L72.4285 98.6799C74.2736 94.61 76.1234 90.5299 77.7678 87.4428C63.3439 81.4235 61.4032 68.3149 62.4177 54.582L52.3167 55.6076ZM59.6385 102.157C50.6842 100.017 40.3625 89.494 40.3625 89.494C40.3625 89.494 41.6417 86.5067 42.8327 87.0418C49.0081 89.9399 61.7557 98.0102 61.7557 99.8828C61.5404 102.625 61.115 102.52 59.7407 102.182L59.6385 102.157ZM49.0084 78.2582C46.847 79.5959 47.3321 81.5577 47.7291 81.8698C50.0855 83.7992 52.933 85.2323 55.7939 86.6722L55.794 86.6722C58.2883 87.9276 60.7928 89.1881 62.9912 90.7872C63.6087 91.2331 66.3435 92.0357 66.8728 90.7872C67.0586 90.0756 67.0672 89.3286 66.8979 88.6129C66.7286 87.8971 66.3864 87.2349 65.9023 86.6852C62.2781 84.7293 58.5684 82.9247 54.52 80.9554L54.5182 80.9545C52.753 80.0958 50.9234 79.2058 49.0084 78.2582Z" fill="#212E3B"/>
</svg>
