<svg width="144" height="144" viewBox="0 0 144 144" fill="none" xmlns="http://www.w3.org/2000/svg">
<path d="M41.6787 17.9913C51.7945 18.0334 61.9954 18.8736 71.8574 19.63L81.0849 20.3448C82.0446 20.4369 82.975 20.7232 83.8193 21.1857C84.6636 21.6482 85.4038 22.2772 85.9941 23.0343C86.9433 24.2041 87.6488 25.5496 88.0703 26.9923C88.4916 28.435 88.6207 29.9462 88.4492 31.4386C88.1529 34.6324 87.8568 37.8267 87.5605 41.1886L87.1796 45.3907H105.845C113.209 45.0966 117.992 46.2314 120.828 49.047C123.664 51.8626 125.06 56.3171 125.06 63.5031V71.1505C124.932 73.3758 124.932 75.6069 125.06 77.8322C125.441 83.2951 125.146 85.8172 117.612 87.5822C116.089 87.9604 114.479 88.1699 112.744 88.422C109.822 88.6087 106.957 89.3062 104.279 90.4816C103.56 90.9018 102.502 91.6167 101.401 92.4152C99.069 94.3924 96.3213 95.828 93.3593 96.6173C89.8463 96.9535 87.2635 96.7014 86.29 95.2306C85.3165 93.7598 85.656 91.9521 86.5449 89.5568C85.1362 89.6664 83.7202 89.6664 82.3115 89.5568C82.0998 92.5404 81.7617 98.6345 81.7617 100.484C82.5234 112.628 74.9047 114.393 67.0322 115.15C63.4005 115.452 59.753 115.522 56.1122 115.359H52.4716C52.7256 116.032 52.9804 116.452 52.9804 116.872L53.3183 117.965C54.1217 120.235 54.7308 122.569 55.1386 124.941C55.0116 125.949 53.784 125.949 52.9374 125.949H52.4296C47.0119 125.949 41.2558 121.326 37.7851 118.595C36.9652 117.88 36.0875 117.234 35.1611 116.662H34.7802C28.8969 115.78 17.9766 114.141 19.204 104.98C19.5053 101.53 19.3625 98.0558 18.7802 94.6417C18.4059 92.2767 18.1801 89.891 18.1035 87.4982C17.8535 85.4806 18.0578 83.4329 18.7011 81.5031C19.3445 79.5731 20.4112 77.8083 21.8242 76.337C23.2371 74.866 24.9612 73.7249 26.872 72.9952C28.783 72.2655 30.8332 71.9654 32.8749 72.1173H54.038C56.0083 72.0253 57.9727 71.8294 59.9218 71.5294L61.6142 71.3185C62.3331 68.2044 62.4771 64.9864 62.038 61.8214C60.6426 61.5301 59.2011 61.5302 57.8056 61.8214C57.9724 62.6901 58.1982 63.5467 58.4824 64.3849C59.3712 67.5366 59.837 69.3021 58.9482 70.3527C58.7458 70.5799 58.4861 70.7499 58.1962 70.8458C57.9065 70.9417 57.5959 70.9598 57.2968 70.8986C56.3306 70.7403 55.3554 70.6422 54.3769 70.6046C51.3412 70.669 48.4034 69.5358 46.2079 67.4532C45.3291 66.5617 44.5357 65.5902 43.8378 64.5529C43.0879 63.518 42.2675 62.5354 41.3828 61.6115C40.5976 61.3172 39.7668 61.1612 38.9277 61.1495C37.7807 61.0991 36.6503 60.8572 35.5839 60.4347C31.7324 59.048 28.7271 57.9549 29.1503 50.2228C29.2393 46.8938 29.0557 43.5631 28.6005 40.2638C28.2335 37.2092 28.0355 34.1368 28.0078 31.0607C28.2194 18.6639 31.69 17.9913 41.6787 17.9913ZM30.3779 79.0509C26.0183 79.0509 22.4208 81.531 22.4208 84.6407C22.3901 90.8153 22.6866 96.9874 23.3095 103.131C23.6906 107.711 27.0346 110.275 33.8066 111.199C34.2434 111.224 34.6813 111.224 35.1181 111.199C36.5601 111.229 37.9886 111.484 39.3505 111.955C40.684 112.745 41.8604 113.771 42.8212 114.982C44.4942 116.83 46.3524 118.505 48.3662 119.982C47.8018 118.715 47.166 117.48 46.4619 116.284C45.3614 114.309 44.5571 112.88 45.3613 111.703C46.2078 110.485 48.0282 110.611 50.0175 110.905C55.1258 111.095 60.2409 110.813 65.2968 110.065H66.1435C71.9418 109.308 74.2273 107.081 74.6083 101.66V88.6329C69.4446 87.7084 63.5617 85.7326 62.5458 79.0509H30.3779ZM45.8691 81.8673C46.2681 81.6329 46.7413 81.5543 47.1953 81.6476C47.6491 81.7409 48.0517 81.999 48.3242 82.3712C49.1999 83.2176 49.8459 84.2707 50.2011 85.4318C50.5562 86.5927 50.6099 87.824 50.3564 89.0109H51.1601C52.2031 89.0736 53.249 89.0736 54.2919 89.0109C55.6463 88.9268 57.1277 88.9268 57.8896 90.6075C58.1474 91.1606 58.2811 91.7628 58.2812 92.3722C58.2812 92.9817 58.1474 93.5846 57.8896 94.1378C57.7632 94.4261 57.5757 94.6839 57.3398 94.8937C57.5538 95.6065 57.5538 96.3663 57.3398 97.0792C57.2329 97.5188 57.0144 97.924 56.705 98.256C56.7189 98.4237 56.7189 98.5922 56.705 98.7599C56.8462 99.5017 56.6941 100.269 56.2812 100.903C55.9381 101.453 55.4149 101.868 54.7997 102.08C54.7747 102.177 54.7747 102.278 54.7997 102.374V103.005C54.6512 103.625 54.3018 104.179 53.8046 104.581C53.3074 104.984 52.69 105.212 52.0488 105.232H51.0751L49.0859 105.148H44.5146C43.6646 104.964 42.8857 104.54 42.2714 103.929L41.7636 103.551L41.2978 103.173L40.706 102.71C40.3674 105.231 39.3089 105.232 37.4042 105.232H36.1767C35.3726 105.274 36.0921 105.19 35.6269 104.77C35.0018 104.079 34.6679 103.176 34.6953 102.248V96.4913C34.6953 94.7685 34.7799 93.2133 34.6953 91.1964C34.6106 89.1793 34.23 87.8341 36.2617 87.8341C37.3342 87.7589 38.4114 87.887 39.4355 88.212C39.8448 88.3629 40.1886 88.6521 40.4052 89.0284C40.6218 89.4048 40.6979 89.845 40.621 90.2716C41.9108 89.6506 43.029 88.7275 43.8798 87.5822C44.1346 87.1796 44.3068 86.7306 44.3867 86.2618C44.4665 85.7933 44.4527 85.3138 44.3456 84.8507C44.2449 84.257 44.339 83.6465 44.6132 83.1095C44.8874 82.5728 45.3275 82.1375 45.8691 81.8673ZM47.1396 84.2618C47.0018 84.3767 46.8734 84.5039 46.7578 84.6407C46.7778 84.9204 46.7778 85.201 46.7578 85.4806C46.8792 86.0962 46.875 86.7301 46.7441 87.3439C46.6132 87.9576 46.3584 88.5389 45.996 89.0529L45.4462 89.6827C45.0408 90.2389 44.5876 90.7599 44.0917 91.2384C43.3774 91.7897 42.628 92.295 41.8486 92.7511C41.8486 92.7511 41.2142 93.0869 41.2138 93.339V94.1798C41.1934 94.4174 41.1934 94.6561 41.2138 94.8937V99.8527C41.5989 99.9194 41.9617 100.079 42.2714 100.316L43.0341 100.945C43.4789 101.456 44.0228 101.872 44.6337 102.168C45.2447 102.464 45.9098 102.634 46.5888 102.668C47.4442 102.553 48.3082 102.511 49.1708 102.542C50.3314 102.881 51.5659 102.881 52.7265 102.542C52.8932 102.459 53.1824 102.051 53.1913 102.038H52.8955C52.4722 101.996 51.541 101.954 51.541 101.155C51.5235 101.005 51.5451 100.852 51.6044 100.712C51.6637 100.572 51.7591 100.45 51.8798 100.358C52.2901 100.047 52.8081 99.9105 53.3193 99.9786C54.329 100.229 54.8783 99.9815 54.8847 99.9786C54.9296 99.887 54.9531 99.7866 54.9531 99.6847C54.9531 99.5828 54.9296 99.4824 54.8847 99.3907C54.9172 99.2525 54.9172 99.1081 54.8847 98.9698H54.4042C54.1722 98.959 53.9492 98.8729 53.7705 98.7228C53.5664 98.5513 53.4351 98.3096 53.4033 98.046C53.3364 97.9159 53.3017 97.7712 53.3017 97.6251C53.3018 97.4792 53.3364 97.3352 53.4033 97.2052C53.5212 97.0808 53.6673 96.9853 53.829 96.9269C53.9907 96.8686 54.1642 96.8491 54.3349 96.8693H54.6738C55.4352 96.8274 55.3932 97.2888 55.4355 96.2804C55.4777 95.2723 55.2656 95.2726 55.0117 95.2726C54.8181 95.2322 54.6419 95.1338 54.5058 94.9913C54.3697 94.8487 54.2801 94.668 54.2499 94.4738C54.1653 93.8855 54.5038 93.381 55.2656 93.381C55.9849 93.0869 55.9853 93.0871 55.9853 92.4152V92.1202C56.0277 92.0122 56.0278 91.8923 55.9853 91.7843H55.6044C53.094 92.1702 50.5387 92.1702 48.0283 91.7843C47.2244 91.2382 48.0277 90.2302 48.0283 89.8097C48.2703 88.874 48.3159 87.8985 48.163 86.9445C48.0101 85.9903 47.6622 85.0769 47.1396 84.2618ZM114.373 51.0031C113.531 50.7506 112.645 50.6711 111.77 50.7697H86.7988C86.7792 51.1336 86.7792 51.4985 86.7988 51.8624C86.8479 52.586 86.7618 53.3125 86.5449 54.005C85.7988 56.1092 84.412 57.9314 82.5771 59.2189C80.742 60.5063 78.5487 61.1961 76.3017 61.1915H75.497C73.1664 61.4941 70.8213 61.6761 68.4716 61.7374H67.1591V71.6554C67.6247 83.5898 69.6987 85.4808 81.6767 85.1447C83.5799 85.0187 85.474 84.7797 87.3486 84.4298C89.3597 84.036 91.3964 83.7838 93.4433 83.674C94.0526 83.6185 94.6634 83.7662 95.1786 84.0939L95.5595 84.3878V85.0187C95.6865 85.9852 95.052 87.3299 93.4013 90.4396L93.2324 91.0275C95.284 90.0088 97.1004 88.5778 98.5654 86.8253C99.2165 85.9689 100.037 85.2541 100.977 84.7247C103 84.0689 105.114 83.7284 107.242 83.7159C109.422 83.6346 111.59 83.3529 113.718 82.8751C116.977 81.9926 120.701 80.312 120.701 75.3116C120.619 71.8231 120.322 68.3424 119.812 64.8898C119.474 62.2423 118.966 59.51 118.966 56.7784C118.914 55.9065 118.684 55.0542 118.289 54.2736C117.894 53.4928 117.343 52.7998 116.67 52.2374C115.997 51.6753 115.215 51.2555 114.373 51.0031ZM100.089 59.0509C100.633 58.9878 101.186 59.0379 101.71 59.1964C102.234 59.355 102.72 59.6192 103.137 59.9728C109.95 64.805 100.599 74.5104 99.539 74.8068C96.0168 74.6607 92.6276 73.4264 89.8456 71.2765C89.1732 70.57 88.6632 69.7269 88.3505 68.8058C88.0378 67.8846 87.9296 66.9071 88.0341 65.9406C88.1387 64.9738 88.4532 64.0405 88.956 63.2062C89.4587 62.3719 90.1379 61.6561 90.9462 61.1075C91.5857 60.7484 92.3333 60.6272 93.0546 60.7657C93.7759 60.9044 94.4244 61.2933 94.8828 61.8634L96.2372 63.0822C96.3496 62.1786 96.7331 61.3291 97.3378 60.6447C97.6611 60.2053 98.0725 59.8368 98.5458 59.5626C99.0192 59.2885 99.5445 59.1141 100.089 59.0509ZM43.0751 22.9083C38.7159 22.9084 33.4687 24.0007 32.4101 26.3956C31.1372 30.8037 31.0204 35.4624 32.0712 39.9279C32.4098 42.449 32.706 44.9702 32.706 47.4073C33.1292 55.4755 34.2295 55.5605 37.3613 55.8126C38.9764 55.8754 40.5742 56.172 42.1025 56.6945C42.628 56.8642 43.1109 57.1434 43.5195 57.5128C43.9282 57.8824 44.2534 58.3342 44.4726 58.838C44.5573 59.0488 44.6716 59.2464 44.8115 59.4259C50.2715 66.1917 51.9218 66.6544 55.2656 66.6544C54.444 64.832 53.7652 62.9494 53.2343 61.0236V60.8976C53.1768 60.3796 53.2341 59.8551 53.4023 59.3615C53.5705 58.8678 53.8446 58.4161 54.207 58.0392C54.9152 57.3807 55.7591 56.8819 56.6796 56.5773C57.5999 56.2728 58.5757 56.1697 59.54 56.2745H63.0956L67.7519 56.0226C69.9103 55.9385 72.0264 55.8547 74.1425 55.6027C78.9254 55.1404 80.8304 52.9964 80.5341 48.7941C80.4839 45.3515 80.8105 41.9137 81.5078 38.5411C82.2175 35.2696 82.5443 31.9272 82.4814 28.5812C82.1974 27.5407 81.5527 26.6329 80.6611 26.0177C70.9034 24.0983 60.9805 23.1274 51.0331 23.1183H49.5087L44.1757 22.9083H43.0751ZM43.0761 38.6671C43.3301 36.6501 46.1656 36.6913 46.9277 37.0275C47.7319 37.4057 49.6787 37.9107 49.6787 39.9698C49.7291 40.418 49.6757 40.8719 49.5214 41.296C49.3671 41.7202 49.1163 42.1034 48.789 42.4161C48.4618 42.7288 48.0665 42.9629 47.6337 43.0997C47.201 43.2366 46.742 43.2724 46.2929 43.2052C45.2928 42.966 44.4142 42.3735 43.8222 41.5382C43.2303 40.703 42.9653 39.6824 43.0761 38.6671ZM56.0273 36.8595C57.4664 36.8595 58.9055 38.9611 59.1171 40.2638C59.3287 41.3144 56.7467 43.5835 54.7997 43.0792C52.8531 42.5748 52.8535 40.3897 52.8535 39.129C53.1102 38.4901 53.5451 37.9372 54.1074 37.5353C54.6697 37.1333 55.3355 36.8986 56.0273 36.8595ZM65.6777 36.4679C66.1484 36.491 66.6099 36.6096 67.0322 36.8175C68.4712 37.4058 68.4293 39.1712 68.4716 40.2638C68.5138 41.3564 66.3122 42.6173 65.5927 42.6173C61.9535 42.7431 61.9531 39.676 62.3339 38.5831C62.5118 38.1497 62.7777 37.7566 63.1152 37.4298C63.4527 37.1031 63.855 36.8493 64.2958 36.6837C64.7366 36.5181 65.207 36.4449 65.6777 36.4679Z" fill="#212E3B"/>
</svg>
