<svg width="144" height="144" viewBox="0 0 144 144" fill="none" xmlns="http://www.w3.org/2000/svg">
<path fill-rule="evenodd" clip-rule="evenodd" d="M35.9135 83.7835C31.113 78.6519 22.6097 63.9171 24.0996 51.204C25.5894 38.491 41.3043 33.947 46.7898 36.1818C48.1863 32.7055 50.0215 28.6132 55.4123 24.2548C59.6109 20.8602 70.5576 20.4993 76.5169 21.6166C82.4761 22.734 88.0069 27.367 89.2484 32.7055C89.3341 33.074 89.4069 33.4009 89.4713 33.69L89.4716 33.6912L89.4717 33.6919L89.4718 33.6921L89.4718 33.6923C89.745 34.9191 89.8663 35.4641 90.178 35.6144C90.4272 35.7345 90.7979 35.6024 91.465 35.3648C92.6134 34.9557 94.6401 34.2336 98.4367 33.947C106.797 33.3159 113.445 36.8853 116.011 41.5202C118.043 44.1526 119.852 50.0372 120.061 55.8811C120.246 61.062 118.251 66.1551 116.011 69.749C111.243 77.3967 103.734 85.0145 101.292 87.2079C101.292 87.2079 101.292 114.88 100.299 116.903C98.4058 120.757 86.1097 122.865 71.8865 122.86C69.1245 122.859 66.3089 122.884 63.5619 122.907C53.0875 122.997 43.6097 123.079 41.8968 121.728C37.4213 118.199 35.9135 83.7835 35.9135 83.7835ZM41.9536 79.7595C41.9536 81.0507 42.1332 89.5725 42.6985 98.0671C47.0742 97.8152 51.1016 97.6245 54.9488 97.4926L49.2671 75.7046C48.4472 73.6032 47.8765 71.4149 47.5659 69.1806C47.5372 67.7946 50.2533 67.2056 51.6551 67.4771C52.9134 67.7729 57.8253 86.2094 60.5752 97.339C62.4164 97.3023 64.2339 97.2797 66.0482 97.271L67.5693 62.1062C67.452 58.7281 67.599 55.3296 68.0075 51.9742C68.4169 49.9617 71.1837 50.2552 72.4303 51.2372C73.516 52.1791 72.4281 79.9927 71.5424 97.2865C73.9418 97.3113 76.3715 97.3595 78.8779 97.4303L80.8203 79.3061C80.7571 77.426 80.9574 75.5564 81.4176 73.7323C81.8572 72.6518 84.6081 73.0432 85.834 73.69C86.8459 74.2701 85.5241 88.0878 84.3981 97.6172C87.6114 97.7425 90.9875 97.9007 94.6104 98.0905C93.9817 89.3469 95.1158 82.6636 97.3247 81.7407C101.292 80.0832 107.591 73.8928 110.612 68.637C113.548 61.4429 114.07 54.0662 111.956 48.1613C109.842 42.2563 104.434 41.5202 100.299 41.5202C96.1637 41.5202 92.3335 42.0927 91.2389 45.675C90.7744 47.1951 90.6272 48.2004 90.5255 48.8957C90.5117 48.9895 90.4994 49.0792 90.4876 49.1651C90.3807 49.9421 90.3188 50.3919 89.6828 50.5244C87.7915 50.9185 87.1255 50.8133 86.0917 50.5717L85.9831 50.5244C83.7327 49.5471 84.8104 40.2498 84.8104 40.2498C85.5443 34.3227 80.1841 30.9367 78.815 30.3305C74.6799 28.4996 60.4529 26.6372 55.4123 34.0654C55.3173 34.2054 55.2066 34.3564 55.0845 34.5228C54.2507 35.66 52.8879 37.5183 52.3969 41.5202C52.1389 43.6238 52.1229 46.0998 52.1095 48.1613C52.0947 50.4529 52.0832 52.2322 51.7461 52.4176C51.6225 52.4856 51.4931 52.5588 51.3586 52.6348L51.3582 52.635L51.3574 52.6354L51.3565 52.636C50.0758 53.3601 48.3393 54.3419 46.7898 53.589C46.33 53.3656 46.2431 51.8977 46.1372 50.1069C46.0231 48.178 45.8868 45.8744 45.2383 44.3478C44.2818 42.0964 41.8217 42.3262 39.3244 42.5595L39.0438 42.5856C35.5412 42.9082 32.0651 46.7241 30.986 53.1985C30.3014 57.3063 30.3312 63.1988 33.5965 68.637C35.3401 71.5408 38.4759 76.1845 40.143 77.8272C40.6094 78.2868 40.9771 78.5982 41.2558 78.8342C41.7378 79.2422 41.9536 79.425 41.9536 79.7595ZM45.5194 115.966C44.5401 114.69 43.8148 110.398 43.2838 105.187C63.3316 103.588 75.3392 103.457 95.1926 104.561C95.5433 108.574 95.7304 111.65 95.4106 112.279C94.5185 114.033 91.4038 115.995 81.7654 115.966C79.3315 115.958 72.6721 115.946 69.9881 115.966C68.7222 115.975 67.4436 115.959 66.157 115.942H66.1565H66.1559H66.1553C64.1097 115.915 62.0441 115.888 59.9774 115.966C58.685 116.014 57.375 116.072 56.0981 116.128C50.7521 116.364 45.986 116.574 45.5194 115.966Z" fill="#212E3B"/>
</svg>
