<svg width="144" height="144" viewBox="0 0 144 144" fill="none" xmlns="http://www.w3.org/2000/svg">
<path d="M107.988 33.1503C87.9505 40.6661 85.8781 68.7505 87.3469 81.8542C88.0078 87.7502 90.4719 83.2014 90.4778 81.8542C90.6633 39.2728 107.988 37.1818 109.032 35.7015C110.924 35.3838 114.473 30.718 107.988 33.1503Z" fill="#212E3B"/>
<path d="M66.1967 52.9495C80.3022 64.2076 91.8469 78.1601 91.8474 84.8154C91.8476 87.7294 88.8365 86.0903 88.6811 85.2877C85.9654 71.2642 70.0707 63.7082 65.557 58.2271C63.6045 56.2 60.6571 48.5281 66.1967 52.9495Z" fill="#212E3B"/>
<path fill-rule="evenodd" clip-rule="evenodd" d="M86.2859 65.4297C78.1128 60.4059 79.714 54.1457 80.5352 51.3569C83.8498 40.1007 88.6072 34.2787 98.1559 27.4914C109.103 19.7099 123.824 15.6225 124.905 16.0274C129.373 17.7002 125.997 28.8239 124.905 36.1155C123.086 48.2667 117.892 60.3543 104.974 67.9738C96.863 70.3089 93.0131 71.9717 86.2859 65.4297ZM106.668 61.2588C103.438 63.0687 94.9917 66.4502 90.5464 63.3674C83.2475 58.3057 82.1695 54.9396 85.8366 47.2169C91.8121 34.6333 114.881 22.7135 121.275 22.7135C122.285 22.7135 116.37 55.8219 106.668 61.2588Z" fill="#212E3B"/>
<path fill-rule="evenodd" clip-rule="evenodd" d="M84.159 71.0282C79.7289 73.3871 79.9363 77.2403 66.4152 73.4841C54.2068 67.8935 50.3074 55.9124 48.5066 51.2517C48.0562 49.8174 47.6795 48.3636 47.3861 47.2414C46.2428 42.8685 45.9432 38.707 49.1311 37.826C50.1008 37.558 63.2986 40.2632 73.1138 45.4133C74.8617 46.3304 78.5582 47.8787 77.9431 48.3972C77.0792 49.4609 76.5948 50.0573 75.7309 51.121C73.9097 52.5546 56.1635 42.2511 52.3855 42.2511C51.4804 42.2511 58.1728 63.7979 66.8486 68.1028C76.3836 72.834 75.0833 70.5222 79.9363 69.1572C80.6175 68.8085 81.2187 68.457 81.7475 68.1028L84.159 71.0282Z" fill="#212E3B"/>
<path fill-rule="evenodd" clip-rule="evenodd" d="M17.0747 121.548V122.738C16.8956 123.581 17.0412 124.461 17.4822 125.202C17.9232 125.943 18.6272 126.49 19.454 126.735C21.7904 127.296 24.1897 127.552 26.5919 127.496C30.113 127.612 33.6264 127.096 36.9656 125.973C37.8222 125.634 38.585 125.093 39.1895 124.398C39.794 123.702 40.2227 122.872 40.4396 121.976L40.7251 121.262C56.9995 121.167 74.1778 120.453 89.6432 114.029C101.741 109 110.244 97.1602 117.746 86.7143L117.814 86.6199L118.433 85.7158C120.526 82.7654 120.194 80.7668 119.575 79.9103C118.956 79.0537 117.671 77.6738 114.198 77.6738C110.615 77.6432 107.081 78.5103 103.919 80.1958C100.398 82.5751 97.019 84.9068 93.7832 87.3337C92.5558 88.1905 91.3849 89.0586 90.2209 89.9215C88.9931 90.8318 87.773 91.7363 86.5027 92.6157L85.4556 93.2819C84.1054 94.4423 82.4568 95.2007 80.6971 95.4709H79.6027L80.8876 93.6626C81.778 92.5464 82.3571 91.2144 82.566 89.8019C82.775 88.3894 82.6063 86.9468 82.0772 85.6206C81.3245 84.4872 80.2853 83.5732 79.0651 82.9715C77.8448 82.3697 76.487 82.1016 75.1296 82.1944H49.6236C47.7142 82.2236 45.8425 82.731 44.1799 83.6704C42.5172 84.6098 41.1167 85.9511 40.1064 87.5716C39.5731 88.2183 39.1103 88.9203 38.7263 89.6654C38.0472 88.3599 36.8867 87.37 35.4905 86.9054C31.404 85.9655 27.2145 85.5497 23.023 85.6682C22.726 85.702 22.4402 85.8005 22.1853 85.9567C21.9305 86.1129 21.7127 86.323 21.5478 86.5723C21.3354 87.0519 21.2257 87.5706 21.2257 88.0951C21.2257 88.6196 21.3354 89.1383 21.5478 89.6178V90.1888C21.8324 91.6118 23.6772 91.711 28.0716 91.9472L28.1147 91.9495C29.7075 92.006 31.296 92.149 32.8733 92.3778C34.0152 101.855 34.127 111.428 33.2064 120.929H30.6845C21.2625 120.311 18.4072 120.406 17.4555 121.215L17.0747 121.548ZM41.2485 114.553C40.0701 105.566 42.1829 96.4553 47.1967 88.904C47.6379 88.2638 48.298 87.8068 49.0526 87.6192H72.3222H77.5089C76.1301 92.0884 72.7085 93.0899 68.8107 94.2307L68.8006 94.2336C65.959 94.7581 63.3121 96.0405 61.1393 97.9453L59.6642 99.3729L61.6154 99.8964C63.7404 100.542 65.9737 100.753 68.1819 100.515C71.0752 100.391 73.9694 100.745 76.7476 101.562C83.9807 103.56 89.1675 99.4681 93.9261 95.5185L96.2577 93.6626C99.896 90.7429 103.693 88.0263 107.631 85.5254H107.916C107.964 85.496 108.013 85.4664 108.062 85.4366C109.744 84.4076 111.713 83.2031 113.008 83.5268C105.83 92.9798 97.0914 101.139 87.169 107.653C85.6718 108.338 84.0556 108.726 82.4104 108.795H81.2207L75.0343 109.461C71.3486 109.753 67.6799 110.229 64.042 110.889C60.9472 111.563 57.9187 111.973 55.0115 112.367C54.432 112.445 53.8573 112.523 53.2878 112.602C49.2435 113.042 45.2249 113.694 41.2485 114.553ZM26.7128 107.71C26.1549 107.669 25.5946 107.747 25.0692 107.938L25.5452 109.033L24.8789 107.986C24.1606 108.179 23.5233 108.598 23.0608 109.18C22.5982 109.763 22.3348 110.478 22.3094 111.222C22.2974 111.743 22.3923 112.261 22.5888 112.744C22.7853 113.227 23.0789 113.665 23.4514 114.029C24.0888 114.568 24.9009 114.856 25.7354 114.838H26.1162C26.6109 114.782 27.089 114.626 27.5222 114.381C27.9555 114.136 28.335 113.806 28.6381 113.411C29.3626 112.459 29.7024 111.27 29.5899 110.08C29.5495 109.681 29.4112 109.299 29.187 108.966C28.9629 108.634 28.6599 108.363 28.3053 108.176C27.8135 107.91 27.2706 107.751 26.7128 107.71Z" fill="#212E3B"/>
</svg>
