<svg width="144" height="144" viewBox="0 0 144 144" fill="none" xmlns="http://www.w3.org/2000/svg">
<path d="M38.9262 66.9001C37.2426 53.17 34.9281 24.5472 35.5068 23.9936C44.9247 31.0801 54.8157 37.5576 63.497 45.4745C71.502 53.5938 79.0394 62.209 86.0684 71.2739C86.0684 71.2739 128.948 26.9832 132 29.1977C130.351 34.6824 128.401 40.0617 126.16 45.3084C120.372 56.9347 114.269 68.4503 107.955 79.7444L105.062 85.2808C113.068 92.7074 120.707 100.561 127.949 108.81C118.215 108.81 109.85 108.81 101.642 108.81C89.1198 108.478 76.6503 107.758 64.1283 107.481C62.813 107.481 62.2869 107.481 61.603 108.921C59.2118 112.852 56.5006 116.556 53.5003 119.994C51.4169 116.787 49.5366 113.439 47.8709 109.973C44.9245 102.776 42.6096 95.4122 39.3475 87.3846C30.4018 89.7433 21.2536 91.1529 12.0408 91.5922C11.0937 90.5956 26.8778 71.9382 31.8235 67.6199C32.981 66.0697 35.7694 66.9001 38.9262 66.9001ZM60.6556 86.6649L65.391 75.9797C65.391 75.9797 45.082 43.869 39.6102 35.5091C39.0841 35.5091 43.2407 62.0835 44.3982 71.2185C44.4283 71.8637 44.6088 72.4912 44.9242 73.0455C49.8946 77.8556 55.1489 82.3305 60.6556 86.4434V86.6649ZM126.897 35.5091C116.006 46.5818 99.1166 64.0766 88.0677 75.3154L101.274 82.0697L126.897 35.5091ZM80.2284 71.8829C76.9137 68.1181 56.9731 44.6994 45.9769 38.2219C47.5553 40.4365 50.186 45.5853 51.2382 47.3569C56.0261 55.3292 67.8116 71.8829 67.8116 71.8829C71.8754 72.2926 75.9698 72.2183 80.0177 71.6614L80.2284 71.8829ZM55.2896 111.135L62.971 96.4641L41.9255 78.4711L55.2896 111.135ZM78.6497 93.7514L111.691 99.6752L95.2231 84.2289L78.6497 93.7514ZM68.127 93.7514L85.3317 82.6787L70.1263 75.4261L63.3916 88.7133L68.127 93.7514ZM65.391 103.274H101.168C101.168 102.665 113.427 103.883 113.48 103.274C108.902 102.333 92.0659 99.786 87.5937 98.4019C83.1216 97.0178 74.3883 95.4676 74.3883 95.4676C70.7684 97.3536 67.5747 100.034 65.023 103.329L65.391 103.274ZM38.5055 81.4607L33.6649 72.4365C33.9805 73.1008 17.8808 87.6614 17.8808 88.1596C23.2474 86.0558 31.9817 83.8413 38.1375 81.5161L38.5055 81.4607Z" fill="#212E3B"/>
</svg>
