<svg width="144" height="144" viewBox="0 0 144 144" fill="none" xmlns="http://www.w3.org/2000/svg">
<path fill-rule="evenodd" clip-rule="evenodd" d="M73.9998 126.513C54.9998 126.513 24.1184 102.282 18.3322 78.06C16.4196 71.2256 16.5691 64.0097 18.7633 57.2538C20.9575 50.4979 25.106 44.4803 30.7251 39.9027C41.6066 30.861 60 30 68 32.9999C74.5638 34.5489 82.8615 40.2687 90 47.9999L85.5 51.9999L78.5 46C73.5 41.5 67 36.5517 52.7904 38.2436C37.1159 40.11 24.4225 53 23.5 63.5C22.6455 73.2258 26.5 84 32 92C37.5 100 50.5 111.346 60 115C69.5 118.654 79.179 120.69 85.5 119.5C91.821 118.31 107.604 110.782 105.5 87.5C104.328 74.5303 99.3813 67.3473 93 60.4999L98 55.9999C109.748 71.4324 116.098 92.2237 110 105C99.5 127 92.9998 126.513 73.9998 126.513Z" fill="#212E3B"/>
<path fill-rule="evenodd" clip-rule="evenodd" d="M94.183 78.2132C95.3558 82.1909 95.2641 86.3906 93.9187 90.3227C92.5733 94.2547 90.0295 97.757 86.5841 100.421C79.9118 105.684 76.0833 108.103 63 104.5C44.3061 99.3524 31 73.4998 37.5 61.9998C44 50.4998 55 48 60 48C65 48 73.5 50.5 80 57.5L76.4999 61.013C72.9338 57.9852 69.5884 56.2754 67.5 55.513C63.5144 54.0579 56.8759 54.8206 53 55.513C49.1241 56.2053 42 62.513 42 69.4998C42 76.4866 46.5 84 48 86C49.5 88 53.3571 92.4314 57.9999 96.013C62.6426 99.5945 66.4375 100.863 72.5 100.421C82.1112 99.335 87.8116 93.459 88.5 86C89.0239 80.3395 87.6291 74.7345 84.9999 70.013C84.6571 69.3975 84.292 68.9608 83.7442 68.3057C83.6666 68.2129 83.5853 68.1157 83.4999 68.013L86.9999 65.513C90.687 69.6475 93.0166 73.5786 94.183 78.2132Z" fill="#212E3B"/>
<path fill-rule="evenodd" clip-rule="evenodd" d="M98 31.5131C98.5 30.513 111.5 16.5132 113 17.0131C114.5 17.513 114 28.513 115 29.0131C116 29.5132 127 28.5131 127 30.0131C127 31.5131 114 46.5132 113 47.0131C112 47.513 102 47.0131 102 47.0131C102 47.0131 69.4999 79.0132 68 80.0132C66.5001 81.0132 64 82.0132 63.5 81.5131C63 81.013 63.5001 78.013 64.5 77.0131C65.4999 76.0132 98 43.5131 98 43.5131C98 43.5131 97.5 32.5132 98 31.5131ZM110 26.5131C109.5 26.5132 104 32.513 103.5 33.5131C103 34.5132 103 38.013 103.5 38.5131C104 39.0132 109.5 32.5132 110 31.5131C110.5 30.513 110.5 26.513 110 26.5131ZM113 33.5131C112 34.0132 106 40.513 106.5 41.0131C107 41.5132 110.5 41.5132 111.5 41.0131C112.5 40.513 117.5 34.0132 117.5 33.5131C117.5 33.013 114 33.013 113 33.5131Z" fill="#212E3B"/>
<path fill-rule="evenodd" clip-rule="evenodd" d="M68 91.5C62.5 90.8533 54.5001 82.5 54 77.5C53.4999 72.5 55.3541 70.2963 58 68C60.6459 65.7037 63.1822 65.1915 66.5001 66.0131C67.6122 66.2872 69.2528 66.8847 70.5 68L68.5001 70.0131C68.5001 70.0131 65.5004 68.4999 63.5002 68.9999C61.5 69.5 58.0632 72.4999 58 74.4999C57.9368 76.4999 58.1921 79.1921 60 81C60.4093 81.4093 60.7957 81.8316 61.1813 82.2532C62.499 83.6936 63.8086 85.1253 66 86C67.9358 86.7727 69.9703 87.5043 71.2633 86.8845C72.5563 86.2647 75.9272 84.6489 75.0001 80.0131L74.9924 79.9746C74.6499 78.2622 74.5239 77.6319 74.0002 76.4999L77.0002 74.4999C79.094 78.0321 79.7427 82.2809 78.5002 84.9999C75.9471 90.5872 73.5 92.1467 68 91.5Z" fill="#212E3B"/>
</svg>
