<svg width="144" height="144" viewBox="0 0 144 144" fill="none" xmlns="http://www.w3.org/2000/svg">
<path fill-rule="evenodd" clip-rule="evenodd" d="M57.1826 24.6405C47.0732 28.0731 38.869 42.9123 47.1849 53.2504C50.1752 56.9942 53.5902 60.393 57.0845 63.8709C58.762 65.5405 67.8128 73.2726 68.0932 73.4568L71.0044 75.3689C71.0954 75.4648 71.199 75.5348 71.3166 75.574C72.1744 75.86 72.8656 75.3123 73.6816 74.6658C74.2653 74.2033 75.731 72.631 76.2215 72.1406C76.712 71.6501 85.9634 59.6659 89.9202 53.6767C91.0528 51.9623 91.7962 50.837 91.8704 50.7659C97.6664 44.1613 97.8324 37.7465 93.175 29.5877C92.2692 28.1936 91.0642 27.0175 89.6471 26.1447C88.2299 25.2719 86.6364 24.7243 84.9817 24.5414C83.327 24.3586 81.6527 24.5452 80.0801 25.0876C78.5076 25.63 77.0762 26.5148 75.8896 27.6777C73.6569 29.2359 71.9752 31.4579 71.0841 34.0271L68.0473 29.5616C65.3686 25.8426 61.9929 23.0219 57.1826 24.6405ZM83.6367 52.3189C78.0091 59.3055 70.9265 68.0986 70.5982 69.3146C70.0797 68.0962 64.0355 62.8151 63.4616 62.3595C62.3368 61.4666 61.2559 60.6085 60.283 59.6206C59.2992 58.5495 58.3006 57.5164 57.3078 56.4893C55.5892 54.7113 53.8878 52.9511 52.3102 51.0423C47.3936 44.9448 47.1043 40.1034 51.8316 34.0894C55.8618 28.9737 59.4794 26.7675 64.8868 33.4215C65.4887 34.1868 66.217 35.208 66.9846 36.2845C69.0949 39.2437 71.5029 42.6205 72.4026 42.2469C73.1589 41.9329 73.8602 39.9775 74.556 38.0374C74.9892 36.8297 75.4202 35.6279 75.861 34.8319C78.8431 29.6485 82.8476 28.063 86.7192 30.4689C87.8943 31.0232 88.9375 31.8218 89.7783 32.811C90.619 33.8002 91.2382 34.9571 91.5939 36.204C91.9497 37.4509 92.0337 38.759 91.8408 40.0404C91.6479 41.3218 91.1823 42.5469 90.4752 43.6333C90.0844 44.314 87.143 47.9658 83.6367 52.3189Z" fill="#212E3B"/>
<path d="M87.6602 43.2275C87.0391 43.8751 85.4657 46.4868 84.6375 45.9201C85.2138 41.9291 87.5 38 83 35.9632C82.5 35 86.5421 34.1389 87.6602 35.9633C88.5 37.3335 89.5 39.5 87.6602 43.2275Z" fill="#212E3B"/>
<path d="M119.97 124.065V122.875L119.589 122.542C118.637 121.733 115.782 121.638 106.36 122.256H103.838C102.918 112.755 103.029 103.182 104.171 93.7048C105.749 93.476 107.337 93.3331 108.93 93.2765C113.355 93.0386 115.211 92.9434 115.497 91.5159V90.9448C115.709 90.4653 115.819 89.9466 115.819 89.4221C115.819 88.8976 115.709 88.3789 115.497 87.8993C115.332 87.65 115.114 87.4399 114.859 87.2837C114.604 87.1275 114.319 87.029 114.022 86.9952C109.83 86.8768 105.641 87.2925 101.554 88.2324C100.158 88.6971 98.9973 89.6869 98.3183 90.9924C97.9343 90.2473 97.4715 89.5454 96.9381 88.8986C95.9278 87.2781 94.5273 85.9368 92.8647 84.9974C91.2021 84.0581 89.3304 83.5506 87.421 83.5214C78.9982 83.5214 70.4804 83.5214 61.915 83.5214C60.5576 83.4286 59.1997 83.6967 57.9795 84.2985C56.7593 84.9003 55.72 85.8142 54.9673 86.9476C54.4383 88.2738 54.2696 89.7165 54.4785 91.1289C54.6875 92.5414 55.2666 93.8734 56.157 94.9896L57.4419 96.7979H56.3475C54.5878 96.5277 52.9392 95.7693 51.5889 94.609L50.5419 93.9428C48.0674 92.2297 45.7834 90.4214 43.2614 88.6607C40.0255 86.2338 36.6469 83.9021 33.1256 81.5228C29.9636 79.8373 26.4299 78.9702 22.8468 79.0008C19.3731 79.0008 18.0882 80.3808 17.4696 81.2373C16.851 82.0939 16.5181 84.0925 18.6119 87.0428L19.2303 87.9469C26.7488 98.4158 35.2669 110.312 47.4013 115.356C62.8668 121.781 80.0451 122.494 96.3195 122.589L96.605 123.303C96.8219 124.199 97.2506 125.029 97.855 125.725C98.4595 126.42 99.2223 126.961 100.079 127.3C103.418 128.423 106.932 128.939 110.453 128.823C112.855 128.879 115.254 128.623 117.591 128.062C118.417 127.817 119.121 127.27 119.562 126.529C120.003 125.788 120.149 124.908 119.97 124.065ZM89.8479 90.231C94.8617 97.7823 96.9744 106.893 95.7961 115.88C91.8197 115.021 87.801 114.369 83.7567 113.929C80.3306 113.453 76.7143 113.025 73.0026 112.216C69.3647 111.556 65.696 111.08 62.0102 110.788L55.8238 110.122H54.6342C52.989 110.053 51.3728 109.665 49.8756 108.98C39.9532 102.466 31.2148 94.3068 24.0365 84.8538C25.3689 84.5207 27.4151 85.8056 29.1282 86.8525H29.4137C33.3517 89.3534 37.1485 92.0699 40.7868 94.9896L43.1185 96.8455C47.8771 100.795 53.0639 104.888 60.2969 102.889C63.0752 102.072 65.9693 101.718 68.8626 101.842C71.0709 102.08 73.3041 101.869 75.4292 101.223L77.3804 100.7L75.9052 99.2724C73.7325 97.3675 71.0855 96.0851 68.244 95.5607C64.3419 94.4186 60.9157 93.4193 59.5357 88.9462H64.7224C72.6216 88.9462 80.3306 88.9462 87.992 88.9462C88.7466 89.1339 89.4066 89.5908 89.8479 90.231Z" fill="#212E3B"/>
<path d="M113.542 109.239C113.016 109.048 112.456 108.97 111.898 109.011C111.34 109.052 110.798 109.211 110.306 109.477C109.951 109.664 109.648 109.935 109.424 110.267C109.2 110.599 109.062 110.982 109.021 111.381C108.909 112.571 109.248 113.76 109.973 114.712C110.276 115.107 110.656 115.437 111.089 115.682C111.522 115.927 112 116.083 112.495 116.139H112.876C113.71 116.157 114.522 115.869 115.16 115.33C115.532 114.965 115.826 114.528 116.022 114.045C116.219 113.562 116.314 113.044 116.302 112.523C116.276 111.779 116.013 111.064 115.55 110.481C115.088 109.899 114.45 109.48 113.732 109.287L113.066 110.334L113.542 109.239Z" fill="#212E3B"/>
</svg>
