<svg width="144" height="144" viewBox="0 0 144 144" fill="none" xmlns="http://www.w3.org/2000/svg">
<path d="M119.489 39.9797C119.489 39.2035 119.489 38.6214 119.489 38.2333C119.489 36.487 119.489 36.2631 117.653 35.7705L115.639 35.1884C108.97 32.9943 97.1083 27.8 92.4532 17.8145C92.2554 17.2931 91.8978 16.8476 91.4315 16.5419C90.9651 16.2363 90.4139 16.0861 89.857 16.1129C86.5895 16.1129 80.0545 15.8443 76.4289 16.1129C72.8033 16.3816 73.3853 17.9041 73.4748 20.5908V21.0833C73.4748 24.7999 73.4748 28.5613 73.4748 32.2331V33.666C73.4748 37.3826 73.4748 41.1439 73.4748 44.9053C73.4748 54.2639 73.4746 63.936 72.7585 73.4738C72.0423 83.0115 71.7739 92.7284 62.8217 99.4003C61.5491 100.637 59.9377 101.468 58.1924 101.786C56.4471 102.105 54.6466 101.898 53.0192 101.191C50.6041 100.016 48.5513 98.2096 47.078 95.9632C45.6046 93.7168 44.7654 91.1139 44.649 88.4297C44.5436 86.0331 45.0817 83.6519 46.2073 81.5337C47.3329 79.4155 49.0049 77.6375 51.0497 76.3843C55.1263 73.8091 59.7035 72.1301 64.4779 71.4587H64.8806V71.011C64.8806 66.5331 64.8805 54.2639 64.2986 52.1594V51.8459H63.9856C60.0735 50.8597 55.9987 50.7008 52.0217 51.3793C48.0448 52.0578 44.2531 53.5588 40.889 55.7864C34.7785 59.8709 29.9832 65.6403 27.0835 72.3956C24.1838 79.151 23.304 86.6026 24.5512 93.8478C27.1026 111.446 40.128 125.999 54.8094 127.611C56.8009 127.837 58.8032 127.957 60.8075 127.969C66.4943 128.177 72.1527 127.073 77.3452 124.744C82.5376 122.414 87.1248 118.922 90.7523 114.535C96.9293 107.013 96.8844 97.7435 96.8397 88.7431V54.846L101.316 56.5028L112.148 60.5777C115.505 61.8314 118.19 62.7718 119.22 61.921C120.249 61.0702 120.026 58.4731 119.847 47.0994C119.489 43.7858 119.444 41.3678 119.489 39.9797ZM48.6324 106.923C50.8794 108.581 53.5678 109.534 56.3568 109.661C59.1458 109.789 61.9098 109.085 64.2986 107.639C75.5336 101.863 77.9956 87.3998 78.4879 79.2949C78.846 73.2947 78.9803 68.0556 79.0699 61.6971C79.0699 52.3385 79.0699 43.1142 79.0699 33.3525C79.0699 29.5464 79.0699 25.7402 79.0699 21.8445H88.917C89.4989 24.0834 92.9455 33.4421 110.223 40.2484L114.162 41.5469C114.562 46.0158 114.562 50.5115 114.162 54.9804C111.7 54.443 94.736 47.7263 93.0351 46.9651H92.677H92.4084C91.4685 47.5472 91.2 53.3236 91.1105 77.7277C91.1105 82.2055 91.1105 86.6833 91.1105 90.3999C91.0797 95.1361 90.509 99.8534 89.4095 104.46C87.082 113.774 78.8908 116.819 70.9682 119.819C66.6638 121.339 62.0943 121.964 57.54 121.655C42.1424 120.804 35.3835 109.252 30.6837 98.1017C28.5863 93.0416 27.936 87.4978 28.8055 82.0894C29.6749 76.6809 32.0297 71.6207 35.6072 67.4735C38.0584 64.1599 41.2387 61.4551 44.9022 59.5682C48.5658 57.6814 52.6142 56.6632 56.7341 56.5924H58.7932C58.8779 60.0316 58.7284 63.4725 58.3457 66.8914C56.0346 67.4248 53.8061 68.2683 51.7209 69.3989C48.2422 71.0401 45.2449 73.5504 43.0182 76.6878C40.7916 79.8251 39.4109 83.4836 39.0091 87.3102C38.805 91.1294 39.5824 94.9373 41.2671 98.3707C42.9517 101.804 45.4874 104.748 48.6324 106.923Z" fill="#212E3B"/>
</svg>
