<svg width="144" height="144" viewBox="0 0 144 144" fill="none" xmlns="http://www.w3.org/2000/svg">
<path d="M130.272 62.4271C126.436 63.4065 124.982 64.2826 121.524 65.6428L108.99 46.273C110.179 45.1848 111.53 43.879 113.042 42.7364C119.796 37.5675 124.986 32.7859 131.577 27.345C133.63 25.6583 127.579 23.5363 126.823 24.0804C118.905 29.3264 113.953 33.1391 106.722 39.3086C102.886 42.6276 100.022 45.3481 94.782 43.7158C92.7257 43.2138 90.6278 42.9042 88.515 42.7908C83.1125 42.41 77.1156 40.1248 72.9016 42.0835C69.6533 43.9472 66.7179 46.316 64.2037 49.1023C55.6677 49.4288 46.6995 58.1887 40.5946 65.4252C38.8658 67.4383 31.6803 70.1044 30.9779 68.5809C27.3582 60.8004 22.8425 60.9092 12.4696 61.6709C12.2876 61.9797 12.1737 62.3242 12.1356 62.6812C12.0975 63.0383 12.1361 63.3993 12.2489 63.74C12.3616 64.0806 12.5458 64.3929 12.789 64.6555C13.0321 64.9181 13.3287 65.1249 13.6582 65.2619C16.0893 66.459 24.657 62.3782 25.7915 69.6147C25.7915 82.6185 26.9261 104.165 25.7915 108.626C24.657 113.088 13.378 113.943 13.378 113.943C12.6102 114.696 12.3377 115.662 12.1164 116.718C11.8951 117.774 11.9908 118.873 12.3911 119.874C14.131 120.312 15.8711 119.435 18.481 118.997C20.3988 118.675 19.6327 118.855 22.0638 118.148C24.4949 117.441 30.9781 115.373 31.1402 109.334C31.7344 107.429 31.1401 103.893 32.2747 102.206L46.4293 102.859C47.1316 111.51 48.8605 111.456 55.7757 113.741C61.5564 115.863 66.2566 119.182 71.9833 114.775C71.9833 114.775 72.2533 115.101 72.4154 115.21C82.4641 118.583 86.8942 116.57 92.0266 106.668C92.9749 105.238 94.3043 104.106 95.8624 103.403C98.5636 101.879 102.129 101.39 104.128 99.3222C109.532 94.062 114.501 88.3664 118.985 82.2921C123.307 76.0894 122.66 70.7493 131.142 69.4435C132.493 69.0082 132.001 61.9918 130.272 62.4271ZM52.318 106.123L63.7714 93.7181C65.5002 101.499 61.9886 105.525 52.318 106.178V106.123ZM63.5013 110.259L74.7925 93.9357C74.9718 97.5384 73.9611 101.099 71.9183 104.062C69.8755 107.025 66.9157 109.223 63.5013 110.313V110.259ZM75.2247 109.823L86.0297 96.1121C88.0287 105.307 85.6516 108.409 75.2247 109.878V109.823ZM110.881 80.0613C104.547 77.9233 98.1098 76.1074 91.5943 74.6203C90.0816 74.6203 89.4333 75.7085 90.4058 77.3408C95.5375 80.8199 100.961 83.842 106.613 86.3728C106.613 86.8081 104.777 88.93 103.156 88.4403C99.4821 87.2977 94.4037 85.0126 90.8381 83.7067C89.8656 83.3803 88.2988 82.945 87.5424 83.7067C86.7861 84.4685 88.4069 86.4816 89.1633 87.0257C92.4588 89.3109 96.0245 91.2152 99.9684 93.446C98.4556 94.6974 96.2946 96.2753 94.5658 97.7988C91.8105 92.3578 89.5955 85.8287 82.2481 92.3578C77.4938 85.8287 74.3062 85.8831 69.6601 92.3578C66.5266 87.6242 63.3932 87.6242 59.6115 91.8681C55.8297 96.1121 45.5108 96.5474 45.5108 96.5474C41.0141 97.2037 36.4471 97.2037 31.9505 96.5474C30.1677 95.1871 31.6264 80.823 31.6264 74.3483C44.8626 76.4703 48.1581 61.7797 58.6391 56.502C57.2884 58.5152 58.639 56.502 55.8296 60.8548C53.0203 65.2075 53.6146 68.6897 54.9652 69.9412C56.4197 71.572 58.4379 72.5817 60.607 72.7637C62.7761 72.9458 64.9323 72.2865 66.6347 70.9205C69.9056 68.7486 73.0613 66.4058 76.0891 63.9017C79.9789 60.1475 83.1124 61.7797 86.8942 63.9017C93.3772 67.8192 100.076 71.4102 106.505 74.7836C110.881 71.4102 110.665 68.9074 106.776 66.8942C98.9959 62.9767 91.2162 58.9504 83.2205 55.5227C76.5753 52.6934 73.658 57.1549 70.0383 61.29C67.391 64.337 58.9091 68.2545 58.2608 64.5002C57.6125 60.746 69.7141 52.8566 75.3867 46.9804C76.7579 46.0773 78.4238 45.7456 80.033 46.0554C86.7321 47.0348 93.4853 48.0141 100.076 49.6464C102.965 50.4912 105.553 52.153 107.532 54.4344C109.411 57.2965 111.073 60.2976 112.502 63.412C117.743 72.6616 117.797 72.6616 110.881 80.1157V80.0613Z" fill="#212E3B"/>
</svg>
