<svg width="144" height="144" viewBox="0 0 144 144" fill="none" xmlns="http://www.w3.org/2000/svg">
<path fill-rule="evenodd" clip-rule="evenodd" d="M127.951 61.257V70.5729C128.045 75.2308 127.998 79.0038 127.857 82.0314C127.294 90.7884 126.73 98.3342 126.073 105.321C125.803 108.959 124.168 112.365 121.49 114.866C118.812 117.367 115.287 118.781 111.609 118.829C85.2185 119.295 57.7946 119.714 30.0889 119.994C28.3339 119.977 26.5998 119.614 24.9875 118.926C23.3752 118.238 21.9169 117.24 20.6971 115.988C19.1857 114.512 17.9906 112.749 17.1836 110.804C16.3766 108.859 15.9745 106.772 16.0013 104.669C16.4708 89.6253 16.4708 74.3486 16.4708 59.5842V59.5802V44.3487V40.995C16.3535 39.1803 16.3535 37.36 16.4708 35.5452C16.3567 33.4967 16.9996 31.4773 18.279 29.8652C19.5584 28.2532 21.3864 27.1592 23.4207 26.7883C31.3293 25.4154 39.3091 24.4823 47.3228 23.9935H69.6752L78.5973 24.0401H88.7875H111.14C121.33 24.0867 126.12 27.7665 127.059 36.2905C127.8 44.5912 128.098 52.9251 127.951 61.257ZM120.015 39.5045C120.015 32.5641 117.902 30.1886 110.623 30.1886C110.336 30.1886 102.606 30.2973 92.0925 30.445C73.402 30.7078 45.9159 31.0941 35.8178 31.2133C24.9703 31.586 21.7302 34.7534 21.7302 45.5598V89.5307V93.4434V103.318C21.5594 104.607 21.6801 105.917 22.0833 107.154C22.4866 108.391 23.1624 109.523 24.0616 110.468C24.9608 111.414 26.061 112.149 27.2822 112.62C28.5034 113.091 29.815 113.287 31.1219 113.193H34.6909C44.4583 113.659 54.5544 113.985 64.4627 113.985C75.7329 113.799 87.1439 113.24 98.1792 112.681L108.745 112.168C116.587 111.796 120.015 108.209 120.015 100.197V85.8509V74.3458V68.5234V39.5045ZM54.6944 93.4434C53.7083 84.3138 52.7691 54.8756 56.6198 53.6646C58.8268 53.1988 66.3402 56.9251 77.5634 62.6078C82.0245 64.8902 86.2508 67.0328 89.6318 68.57C91.698 69.5015 92.6841 70.2468 92.825 71.7374C92.9659 73.2279 91.745 74.6719 88.8335 76.6748C88.5272 76.8823 88.2221 77.0886 87.9181 77.2941C86.3117 78.3804 84.7385 79.4441 83.1985 80.5409C82.4316 81.0608 81.6693 81.5783 80.9098 82.0938C74.3216 86.5657 67.9522 90.8891 60.7522 95.3997C59.8595 96.0337 58.7971 96.3903 57.6998 96.4244C57.2313 96.4259 56.7675 96.3307 56.338 96.1449C55.8468 95.8801 55.4355 95.4902 55.1467 95.0154C54.8578 94.5405 54.7017 93.9979 54.6944 93.4434ZM61.5035 86.3633C68.2024 82.3458 74.5626 77.7973 80.5218 72.7621L73.4311 69.4084C69.4987 67.3557 65.4176 65.5964 61.2217 64.1449C60.539 71.5407 60.6334 78.9869 61.5035 86.3633Z" fill="#212E3B"/>
</svg>
